<svg id="Layer_1" xmlns="http://www.w3.org/2000/svg" viewBox="0 0 60 60"><style>.st0{fill:none;stroke:#000;stroke-width:2;stroke-linecap:round;stroke-linejoin:round;stroke-miterlimit:10}</style><path class="st0" d="M11 1H5C3 1 1 3 1 5v26m54 4H1v6c0 2 2 4 4 4h50c2 0 4-2 4-4V5c0-2-2-4-4-4H45"/><circle class="st0" cx="30" cy="40" r="1"/><path class="st0" d="M5 59h36m-26-2v2m4-2v2m4-2v2m4-2v2m-2-10v4m10-4v4m0 4v2m-4-2v2m8-2v2m-28-2v2m-4-2v2m48 0v-1c0-1.7-1.3-3-3-3h-2c-1.7 0-3 1.3-3 3v1h8zM21 7h-6m2 4h-2m2 4h-2m6 4h-6m20 12V9l5-8 5 8h-6M21 31h-6V1h16v30m-14-8h-2m2 4h-2m30-14v18m-5 0V13"/></svg>