<svg id="Layer_1" xmlns="http://www.w3.org/2000/svg" viewBox="0 0 60 60"><style>.st0{fill:none;stroke:#000;stroke-width:2;stroke-linecap:round;stroke-linejoin:round;stroke-miterlimit:10}</style><path class="st0" d="M58.7 26c.2 1.3.3 2.7.3 4 0 16-13 29-29 29S1 46 1 30 14 1 30 1c3.5 0 6.9.6 10 1.7"/><path class="st0" d="M41 30.5v.5c-.5 5.6-5.2 10-11 10-6.1 0-11-4.9-11-11s4.9-11 11-11c.7 0 1.3.1 2 .2"/><circle class="st0" cx="30" cy="30" r="3"/><path class="st0" d="M39 19c-2.2 0-4 1.8-4 4s1.8 4 4 4 4-1.8 4-4V5l16-4v18c0 2.2-1.8 4-4 4s-4-1.8-4-4 1.8-4 4-4M43 9.4L56 6M9.2 18l7.3 4.2m1.5-13l4.2 7.3M50.8 42l-7.3-4.2m-1.5 13l-4.2-7.3"/></svg>