<svg id="Layer_1" xmlns="http://www.w3.org/2000/svg" viewBox="0 0 60 60"><style>.st0{fill:none;stroke:#000;stroke-width:2;stroke-linecap:round;stroke-linejoin:round;stroke-miterlimit:10}</style><path class="st0" d="M59 55c0 2.2-1.8 4-4 4H5c-2.2 0-4-1.8-4-4V5c0-2.2 1.8-4 4-4h50c2.2 0 4 1.8 4 4v50z"/><circle class="st0" cx="14" cy="49" r="2"/><circle class="st0" cx="30" cy="49" r="2"/><circle class="st0" cx="47" cy="49" r="2"/><path class="st0" d="M30 23v18m-3.4-25.4c-.4.3-.6.8-.6 1.4 0 1.1.9 2 2 2h4c1.1 0 2-.9 2-2s-.9-2-2-2h-2V9M14 33v8M9.6 25.6c-.4.3-.6.8-.6 1.4 0 1.1.9 2 2 2h4c1.1 0 2-.9 2-2s-.9-2-2-2h-2V9m34 28v4m-3.4-11.4c-.4.3-.6.8-.6 1.4 0 1.1.9 2 2 2h4c1.1 0 2-.9 2-2s-.9-2-2-2h-2V9"/></svg>