<svg id="Layer_1" data-name="Layer 1" xmlns="http://www.w3.org/2000/svg" viewBox="0 0 60 60"><defs><style>.cls-1{fill:none;stroke:#000;stroke-linecap:round;stroke-linejoin:round;stroke-width:2px}</style></defs><title>start</title><path class="cls-1" d="M19 21h-9c-1 0-3 1-3 2v28h46V23a2.15 2.15 0 0 0-2-2H41"/><path class="cls-1" d="M55 55H1a4.3 4.3 0 0 0 4 4h50a4.3 4.3 0 0 0 4-4v-4h-2V21a4.3 4.3 0 0 0-4-4H41m-22 0H7a4.3 4.3 0 0 0-4 4v30"/><circle class="cls-1" cx="30" cy="16" r="3"/><path class="cls-1" d="M30 29v8m7-2v2m-14-2v2m11-2h7v-2c0-6-4-6-4-10V13a8.76 8.76 0 0 0-2-6l-5-6-5 6a8.76 8.76 0 0 0-2 6v10c0 4-4 4-4 10v2h7m21 12a4 4 0 0 0-6-3.42 3 3 0 0 0-5.93.15 6 6 0 0 0-10.05 0 3 3 0 0 0-6.02-.15A4 4 0 0 0 13 47"/></svg>