<?xml version="1.0" encoding="utf-8"?>
<!-- Generator: Adobe Illustrator 21.0.2, SVG Export Plug-In . SVG Version: 6.00 Build 0)  -->
<svg version="1.1" id="Layer_1" xmlns="http://www.w3.org/2000/svg" xmlns:xlink="http://www.w3.org/1999/xlink" x="0px" y="0px"
	 viewBox="0 0 52 60" style="enable-background:new 0 0 52 60;" xml:space="preserve">
<style type="text/css">
	.st0{fill:none;stroke:#000000;stroke-width:2;stroke-linecap:round;stroke-linejoin:round;stroke-miterlimit:10;}
	.st1{fill:none;stroke:#000000;stroke-linecap:round;stroke-linejoin:round;stroke-miterlimit:10;}
</style>
<g>
	<path class="st0" d="M12-270H6c-2,0-4,2-4,4v26"/>
	<path class="st0" d="M56-236H2v6c0,2,2,4,4,4h50c2,0,4-2,4-4v-36c0-2-2-4-4-4H46"/>
	<circle class="st0" cx="31" cy="-231" r="1"/>
	<line class="st0" x1="6" y1="-212" x2="42" y2="-212"/>
	<line class="st0" x1="16" y1="-214" x2="16" y2="-212"/>
	<line class="st0" x1="20" y1="-214" x2="20" y2="-212"/>
	<line class="st0" x1="24" y1="-214" x2="24" y2="-212"/>
	<line class="st0" x1="28" y1="-214" x2="28" y2="-212"/>
	<line class="st0" x1="26" y1="-222" x2="26" y2="-218"/>
	<line class="st0" x1="36" y1="-222" x2="36" y2="-218"/>
	<line class="st0" x1="36" y1="-214" x2="36" y2="-212"/>
	<line class="st0" x1="32" y1="-214" x2="32" y2="-212"/>
	<line class="st0" x1="40" y1="-214" x2="40" y2="-212"/>
	<line class="st0" x1="12" y1="-214" x2="12" y2="-212"/>
	<line class="st0" x1="8" y1="-214" x2="8" y2="-212"/>
	<path class="st0" d="M56-212v-1c0-1.7-1.3-3-3-3h-2c-1.7,0-3,1.3-3,3v1H56z"/>
	<line class="st0" x1="22" y1="-264" x2="16" y2="-264"/>
	<line class="st0" x1="18" y1="-260" x2="16" y2="-260"/>
	<line class="st0" x1="18" y1="-256" x2="16" y2="-256"/>
	<line class="st0" x1="22" y1="-252" x2="16" y2="-252"/>
	<polyline class="st0" points="36,-240 36,-262 41,-270 46,-262 40,-262 	"/>
	<polyline class="st0" points="22,-240 16,-240 16,-270 32,-270 32,-240 	"/>
	<line class="st0" x1="18" y1="-248" x2="16" y2="-248"/>
	<line class="st0" x1="18" y1="-244" x2="16" y2="-244"/>
	<line class="st0" x1="46" y1="-258" x2="46" y2="-240"/>
	<line class="st0" x1="41" y1="-240" x2="41" y2="-258"/>
</g>
<g>
	<line class="st0" x1="122" y1="-225" x2="168" y2="-225"/>
	<line class="st0" x1="152" y1="-241" x2="152" y2="-225"/>
	<path class="st0" d="M136-254h38v38c0,2.2-1.8,4-4,4h-50c-2.2,0-4-1.8-4-4v-46h10l6,8l-6,8h-6"/>
	<line class="st0" x1="132" y1="-246" x2="174" y2="-246"/>
	<line class="st0" x1="142" y1="-254" x2="136" y2="-246"/>
	<line class="st0" x1="151" y1="-254" x2="145" y2="-246"/>
	<line class="st0" x1="160" y1="-254" x2="154" y2="-246"/>
	<line class="st0" x1="169" y1="-254" x2="163" y2="-246"/>
	<polyline class="st0" points="136,-255.8 173.4,-262 172.1,-270 130.3,-263.1 	"/>
	<line class="st0" x1="135.1" y1="-263.8" x2="140.6" y2="-256.6"/>
	<line class="st0" x1="144.5" y1="-265.3" x2="149.9" y2="-258.1"/>
	<line class="st0" x1="153.2" y1="-266.8" x2="158.5" y2="-259.6"/>
	<line class="st0" x1="162.5" y1="-268.3" x2="167.9" y2="-261.2"/>
</g>
<text transform="matrix(1 0 0 1 2 -177)" style="font-family:'Roboto-Bold'; font-size:20px;">Design</text>
<g>
	<path class="st0" d="M262,1h-6c-2,0-4,2-4,4v26"/>
	<path class="st0" d="M306,35h-54v6c0,2,2,4,4,4h50c2,0,4-2,4-4V5c0-2-2-4-4-4h-10"/>
	<circle class="st0" cx="281" cy="40" r="1"/>
	<line class="st0" x1="256" y1="59" x2="292" y2="59"/>
	<line class="st0" x1="266" y1="57" x2="266" y2="59"/>
	<line class="st0" x1="270" y1="57" x2="270" y2="59"/>
	<line class="st0" x1="274" y1="57" x2="274" y2="59"/>
	<line class="st0" x1="278" y1="57" x2="278" y2="59"/>
	<line class="st0" x1="276" y1="49" x2="276" y2="53"/>
	<line class="st0" x1="286" y1="49" x2="286" y2="53"/>
	<line class="st0" x1="286" y1="57" x2="286" y2="59"/>
	<line class="st0" x1="282" y1="57" x2="282" y2="59"/>
	<line class="st0" x1="290" y1="57" x2="290" y2="59"/>
	<line class="st0" x1="262" y1="57" x2="262" y2="59"/>
	<line class="st0" x1="258" y1="57" x2="258" y2="59"/>
	<path class="st0" d="M306,59v-1c0-1.7-1.3-3-3-3h-2c-1.7,0-3,1.3-3,3v1H306z"/>
	<line class="st0" x1="272" y1="7" x2="266" y2="7"/>
	<line class="st0" x1="268" y1="11" x2="266" y2="11"/>
	<line class="st0" x1="268" y1="15" x2="266" y2="15"/>
	<line class="st0" x1="272" y1="19" x2="266" y2="19"/>
	<polyline class="st0" points="286,31 286,9 291,1 296,9 290,9 	"/>
	<polyline class="st0" points="272,31 266,31 266,1 282,1 282,31 	"/>
	<line class="st0" x1="268" y1="23" x2="266" y2="23"/>
	<line class="st0" x1="268" y1="27" x2="266" y2="27"/>
	<line class="st0" x1="296" y1="13" x2="296" y2="31"/>
	<line class="st0" x1="291" y1="31" x2="291" y2="13"/>
</g>
<text transform="matrix(1 0 0 1 252 94)" style="font-family:'Roboto-Bold'; font-size:20px;">Design</text>
<text transform="matrix(1 0 0 1 -112 -177)" style="font-family:'Roboto-Bold'; font-size:20px;">Start</text>
<g>
	<text transform="matrix(1 0 0 1 -350 -233)" style="font-family:'Roboto-Light'; font-size:20px;">HTML5 Banners</text>
</g>
<g>
	<path class="st0" d="M-77-265v5c0,2.2,1.8,4,4,4h10v40c0,2.2-1.8,4-4,4h-42c-2.2,0-4-1.8-4-4v-50c0-2.2,1.8-4,4-4"/>
	<circle class="st0" cx="-100" cy="-259" r="7"/>
	<circle class="st0" cx="-100" cy="-241" r="7"/>
	<line class="st0" x1="-105" y1="-232" x2="-105" y2="-236"/>
	<polyline class="st0" points="-105,-264 -105,-270 -77,-270 -67,-260 	"/>
	<path class="st0" d="M-105-254c0,0-2,1-2,4s2,4,2,4"/>
	<path class="st0" d="M-97.3-260.3c-0.3-0.6-0.8-1.1-1.4-1.4"/>
	<path class="st0" d="M-97.3-242.3c-0.3-0.6-0.8-1.1-1.4-1.4"/>
	<line class="st0" x1="-85" y1="-246" x2="-89" y2="-246"/>
	<line class="st0" x1="-81" y1="-246" x2="-73" y2="-246"/>
	<line class="st0" x1="-88" y1="-240" x2="-83" y2="-240"/>
	<line class="st0" x1="-79" y1="-240" x2="-75" y2="-240"/>
	<line class="st0" x1="-103" y1="-228" x2="-97" y2="-228"/>
	<line class="st0" x1="-79" y1="-228" x2="-73" y2="-228"/>
	<line class="st0" x1="-93" y1="-228" x2="-83" y2="-228"/>
	<line class="st0" x1="-90" y1="-234" x2="-75" y2="-234"/>
	<line class="st0" x1="-103" y1="-222" x2="-91" y2="-222"/>
	<line class="st0" x1="-87" y1="-222" x2="-77" y2="-222"/>
</g>
<text transform="matrix(1 0 0 1 242 -177)" style="font-family:'Roboto-Bold'; font-size:20px;">Resize</text>
<text transform="matrix(1 0 0 1 118 -177)" style="font-family:'Roboto-Bold'; font-size:20px;">Animation</text>
<g>
	<path class="st0" d="M367-270h-6c-2,0-4,2-4,4v26"/>
	<path class="st0" d="M411-236h-54v6c0,2,2,4,4,4h50c2,0,4-2,4-4v-36c0-2-2-4-4-4h-10"/>
	<circle class="st0" cx="386" cy="-231" r="1"/>
	<line class="st0" x1="361" y1="-212" x2="397" y2="-212"/>
	<line class="st0" x1="371" y1="-214" x2="371" y2="-212"/>
	<line class="st0" x1="375" y1="-214" x2="375" y2="-212"/>
	<line class="st0" x1="379" y1="-214" x2="379" y2="-212"/>
	<line class="st0" x1="383" y1="-214" x2="383" y2="-212"/>
	<line class="st0" x1="381" y1="-222" x2="381" y2="-218"/>
	<line class="st0" x1="391" y1="-222" x2="391" y2="-218"/>
	<line class="st0" x1="391" y1="-214" x2="391" y2="-212"/>
	<line class="st0" x1="387" y1="-214" x2="387" y2="-212"/>
	<line class="st0" x1="395" y1="-214" x2="395" y2="-212"/>
	<line class="st0" x1="367" y1="-214" x2="367" y2="-212"/>
	<line class="st0" x1="363" y1="-214" x2="363" y2="-212"/>
	<path class="st0" d="M411-212v-1c0-1.7-1.3-3-3-3h-2c-1.7,0-3,1.3-3,3v1H411z"/>
	<line class="st0" x1="377" y1="-264" x2="371" y2="-264"/>
	<line class="st0" x1="373" y1="-260" x2="371" y2="-260"/>
	<line class="st0" x1="373" y1="-256" x2="371" y2="-256"/>
	<line class="st0" x1="377" y1="-252" x2="371" y2="-252"/>
	<polyline class="st0" points="391,-240 391,-262 396,-270 401,-262 395,-262 	"/>
	<polyline class="st0" points="377,-240 371,-240 371,-270 387,-270 387,-240 	"/>
	<line class="st0" x1="373" y1="-248" x2="371" y2="-248"/>
	<line class="st0" x1="373" y1="-244" x2="371" y2="-244"/>
	<line class="st0" x1="401" y1="-258" x2="401" y2="-240"/>
	<line class="st0" x1="396" y1="-240" x2="396" y2="-258"/>
</g>
<text transform="matrix(1 0 0 1 357 -177)" style="font-family:'Roboto-Bold'; font-size:20px;">Design</text>
<text transform="matrix(1 0 0 1 616 -177)" style="font-family:'Roboto-Bold'; font-size:20px;">Finish </text>
<text transform="matrix(1 0 0 1 473 -177)" style="font-family:'Roboto-Bold'; font-size:20px;">Optimization </text>
<g>
	<g>
		<polyline class="st0" points="272,-230.4 245,-230.4 254.3,-239.7 258.5,-235.4 266.1,-243 272,-237.1 		"/>
		<circle class="st0" cx="253" cy="-251.4" r="3.3"/>
		<line class="st0" x1="253" y1="-258" x2="253" y2="-254.7"/>
		<line class="st0" x1="247.4" y1="-254.7" x2="250.2" y2="-253.1"/>
		<line class="st0" x1="247.4" y1="-248.2" x2="250.2" y2="-249.8"/>
		<line class="st0" x1="253" y1="-244.9" x2="253" y2="-248.2"/>
		<line class="st0" x1="258.7" y1="-248.2" x2="255.9" y2="-249.8"/>
		<line class="st0" x1="258.7" y1="-254.7" x2="255.9" y2="-253.1"/>
	</g>
	<g>
		<polyline class="st0" points="303,-241 281.7,-241 289,-248.3 292.3,-245 298.3,-251 303,-246.3 		"/>
		<circle class="st0" cx="289.7" cy="-258.5" r="2.7"/>
		<line class="st0" x1="289.7" y1="-264" x2="289.7" y2="-261.3"/>
		<line class="st0" x1="284.9" y1="-261.2" x2="287.3" y2="-259.9"/>
		<line class="st0" x1="284.9" y1="-255.7" x2="287.3" y2="-257.1"/>
		<line class="st0" x1="289.7" y1="-253" x2="289.7" y2="-255.8"/>
		<line class="st0" x1="294.5" y1="-255.8" x2="292.1" y2="-257.1"/>
		<line class="st0" x1="294.5" y1="-261.3" x2="292.1" y2="-259.9"/>
	</g>
	<g>
		<polyline class="st0" points="301.8,-211.3 282.8,-211.3 289.4,-217.9 292.3,-214.9 297.7,-220.2 301.8,-216.1 		"/>
		<circle class="st1" cx="287" cy="-223.9" r="1.2"/>
		<line class="st1" x1="287" y1="-226.3" x2="287" y2="-225.1"/>
		<line class="st1" x1="285" y1="-225.1" x2="286" y2="-224.5"/>
		<line class="st1" x1="285" y1="-222.8" x2="286" y2="-223.3"/>
		<line class="st1" x1="287" y1="-221.6" x2="287" y2="-222.8"/>
		<line class="st1" x1="289" y1="-222.8" x2="288" y2="-223.3"/>
		<line class="st1" x1="289" y1="-225.1" x2="288" y2="-224.5"/>
	</g>
	<path class="st0" d="M301.6-233h-18.2c-2.4,0-4.4-2-4.4-4.4v-28.2c0-2.4,2-4.4,4.4-4.4h18.2c2.4,0,4.4,2,4.4,4.4v28.2
		C306-235,304-233,301.6-233z"/>
	<path class="st0" d="M270.6-211h-24.2c-2.4,0-4.4-2-4.4-4.4v-50.2c0-2.4,2-4.4,4.4-4.4h24.2c2.4,0,4.4,2,4.4,4.4v50.2
		C275-213,273-211,270.6-211z"/>
	<path class="st0" d="M301.6-211.3h-18.2c-2.4,0-4.4-2-4.4-4.4v-9.2c0-2.4,2-4.4,4.4-4.4h18.2c2.4,0,4.4,2,4.4,4.4v9.2
		C306-213.3,304-211.3,301.6-211.3z"/>
</g>
<g>
	<path class="st0" d="M527-246l-5.9-1.3c-0.5-1.7-1.2-3.3-2-4.9l3.2-5.1c0.4-0.6,0.4-1,0-1.4l-5.7-5.7c-0.4-0.4-0.8-0.3-1.4,0
		l-5.1,3.2c-1.5-0.9-3.2-1.5-4.9-2L504-269c-0.2-0.7-0.4-1-1-1h-8c-0.6,0-0.8,0.4-1,1l-1.3,5.9c-1.7,0.5-3.3,1.2-4.9,2l-5.1-3.2
		c-0.6-0.4-1-0.4-1.4,0l-5.7,5.7c-0.4,0.4-0.3,0.8,0,1.4l3.2,5.1c-0.9,1.5-1.5,3.2-2,4.9L471-246c-0.7,0.2-1,0.4-1,1v8
		c0,0.6,0.4,0.8,1,1l5.9,1.3c0.5,1.7,1.2,3.3,2,4.9l-3.2,5.1c-0.4,0.6-0.4,1,0,1.4l5.7,5.7c0.4,0.4,0.8,0.3,1.4,0l5.1-3.2
		c1.5,0.9,3.2,1.5,4.9,2l1.3,5.9c0.2,0.7,0.4,1,1,1l8,0c0.6,0,0.8-0.4,1-1l1.3-5.9c1.7-0.5,3.3-1.2,4.9-2l5.1,3.2
		c0.6,0.4,1,0.4,1.4,0l5.7-5.7c0.4-0.4,0.3-0.8,0-1.4l-3.2-5.1c0.8-1.5,1.5-3.2,2-4.9l5.9-1.3c0.7-0.2,1-0.4,1-1v-8
		C528-245.6,527.6-245.8,527-246z"/>
	<path class="st0" d="M503-228.6c5.2-1.7,9-6.6,9-12.4c0-7.2-5.8-13-13-13c-7.2,0-13,5.8-13,13s5.8,13,13,13"/>
	<circle class="st0" cx="499" cy="-241" r="3"/>
</g>
<g>
	<path class="st0" d="M652-265v5c0,2.2,1.8,4,4,4h10v40c0,2.2-1.8,4-4,4h-42c-2.2,0-4-1.8-4-4v-50c0-2.2,1.8-4,4-4h32l10,10"/>
	<circle class="st0" cx="641" cy="-235" r="13"/>
	<polygon class="st0" points="638,-239 638,-231 645,-235 	"/>
</g>
<g>
	<path class="st0" d="M9-131H3c-2,0-4,2-4,4v26"/>
	<path class="st0" d="M53-97H-1v6c0,2,2,4,4,4h50c2,0,4-2,4-4v-36c0-2-2-4-4-4H43"/>
	<circle class="st0" cx="28" cy="-92" r="1"/>
	<line class="st0" x1="3" y1="-73" x2="39" y2="-73"/>
	<line class="st0" x1="13" y1="-75" x2="13" y2="-73"/>
	<line class="st0" x1="17" y1="-75" x2="17" y2="-73"/>
	<line class="st0" x1="21" y1="-75" x2="21" y2="-73"/>
	<line class="st0" x1="25" y1="-75" x2="25" y2="-73"/>
	<line class="st0" x1="23" y1="-83" x2="23" y2="-79"/>
	<line class="st0" x1="33" y1="-83" x2="33" y2="-79"/>
	<line class="st0" x1="33" y1="-75" x2="33" y2="-73"/>
	<line class="st0" x1="29" y1="-75" x2="29" y2="-73"/>
	<line class="st0" x1="37" y1="-75" x2="37" y2="-73"/>
	<line class="st0" x1="9" y1="-75" x2="9" y2="-73"/>
	<line class="st0" x1="5" y1="-75" x2="5" y2="-73"/>
	<path class="st0" d="M53-73v-1c0-1.7-1.3-3-3-3h-2c-1.7,0-3,1.3-3,3v1H53z"/>
	<line class="st0" x1="19" y1="-125" x2="13" y2="-125"/>
	<line class="st0" x1="15" y1="-121" x2="13" y2="-121"/>
	<line class="st0" x1="15" y1="-117" x2="13" y2="-117"/>
	<line class="st0" x1="19" y1="-113" x2="13" y2="-113"/>
	<polyline class="st0" points="33,-101 33,-123 38,-131 43,-123 37,-123 	"/>
	<polyline class="st0" points="19,-101 13,-101 13,-131 29,-131 29,-101 	"/>
	<line class="st0" x1="15" y1="-109" x2="13" y2="-109"/>
	<line class="st0" x1="15" y1="-105" x2="13" y2="-105"/>
	<line class="st0" x1="43" y1="-119" x2="43" y2="-101"/>
	<line class="st0" x1="38" y1="-101" x2="38" y2="-119"/>
</g>
<text transform="matrix(1 0 0 1 -1 -38)" style="font-family:'Roboto-Bold'; font-size:20px;">Design</text>
<text transform="matrix(1 0 0 1 -115 -38)" style="font-family:'Roboto-Bold'; font-size:20px;">Start</text>
<g>
	<text transform="matrix(1 0 0 1 -353 -94)" style="font-family:'Roboto-Light'; font-size:20px;">Web Development</text>
</g>
<g>
	<path class="st0" d="M-80-126v5c0,2.2,1.8,4,4,4h10v40c0,2.2-1.8,4-4,4h-42c-2.2,0-4-1.8-4-4v-50c0-2.2,1.8-4,4-4"/>
	<circle class="st0" cx="-103" cy="-120" r="7"/>
	<circle class="st0" cx="-103" cy="-102" r="7"/>
	<line class="st0" x1="-108" y1="-93" x2="-108" y2="-97"/>
	<polyline class="st0" points="-108,-125 -108,-131 -80,-131 -70,-121 	"/>
	<path class="st0" d="M-108-115c0,0-2,1-2,4s2,4,2,4"/>
	<path class="st0" d="M-100.3-121.3c-0.3-0.6-0.8-1.1-1.4-1.4"/>
	<path class="st0" d="M-100.3-103.3c-0.3-0.6-0.8-1.1-1.4-1.4"/>
	<line class="st0" x1="-88" y1="-107" x2="-92" y2="-107"/>
	<line class="st0" x1="-84" y1="-107" x2="-76" y2="-107"/>
	<line class="st0" x1="-91" y1="-101" x2="-86" y2="-101"/>
	<line class="st0" x1="-82" y1="-101" x2="-78" y2="-101"/>
	<line class="st0" x1="-106" y1="-89" x2="-100" y2="-89"/>
	<line class="st0" x1="-82" y1="-89" x2="-76" y2="-89"/>
	<line class="st0" x1="-96" y1="-89" x2="-86" y2="-89"/>
	<line class="st0" x1="-93" y1="-95" x2="-78" y2="-95"/>
	<line class="st0" x1="-106" y1="-83" x2="-94" y2="-83"/>
	<line class="st0" x1="-90" y1="-83" x2="-80" y2="-83"/>
</g>
<text transform="matrix(1 0 0 1 -115 95)" style="font-family:'Roboto-Bold'; font-size:20px;">Start</text>
<g>
	<path class="st0" d="M-80,7v5c0,2.2,1.8,4,4,4h10v40c0,2.2-1.8,4-4,4h-42c-2.2,0-4-1.8-4-4V6c0-2.2,1.8-4,4-4"/>
	<circle class="st0" cx="-103" cy="13" r="7"/>
	<circle class="st0" cx="-103" cy="31" r="7"/>
	<line class="st0" x1="-108" y1="40" x2="-108" y2="36"/>
	<polyline class="st0" points="-108,8 -108,2 -80,2 -70,12 	"/>
	<path class="st0" d="M-108,18c0,0-2,1-2,4s2,4,2,4"/>
	<path class="st0" d="M-100.3,11.7c-0.3-0.6-0.8-1.1-1.4-1.4"/>
	<path class="st0" d="M-100.3,29.7c-0.3-0.6-0.8-1.1-1.4-1.4"/>
	<line class="st0" x1="-88" y1="26" x2="-92" y2="26"/>
	<line class="st0" x1="-84" y1="26" x2="-76" y2="26"/>
	<line class="st0" x1="-91" y1="32" x2="-86" y2="32"/>
	<line class="st0" x1="-82" y1="32" x2="-78" y2="32"/>
	<line class="st0" x1="-106" y1="44" x2="-100" y2="44"/>
	<line class="st0" x1="-82" y1="44" x2="-76" y2="44"/>
	<line class="st0" x1="-96" y1="44" x2="-86" y2="44"/>
	<line class="st0" x1="-93" y1="38" x2="-78" y2="38"/>
	<line class="st0" x1="-106" y1="50" x2="-94" y2="50"/>
	<line class="st0" x1="-90" y1="50" x2="-80" y2="50"/>
</g>
<text transform="matrix(1 0 0 1 239 -38)" style="font-family:'Roboto-Bold'; font-size:20px;">Back-end</text>
<text transform="matrix(1 0 0 1 115 -38)" style="font-family:'Roboto-Bold'; font-size:20px;">Front-end</text>
<text transform="matrix(1 0 0 1 354 -38)" style="font-family:'Roboto-Bold'; font-size:20px;">QA </text>
<text transform="matrix(1 0 0 1 470 -38)" style="font-family:'Roboto-Bold'; font-size:20px;">Finish </text>
<g>
	<path class="st0" d="M154-73h-37c-2.3,0-4-1.8-4-4v-40"/>
	<path class="st0" d="M121-126c0,0.6-0.4,1-1,1l0,0c-0.6,0-1-0.4-1-1l0,0c0-0.6,0.4-1,1-1l0,0C120.6-127,121-126.6,121-126L121-126z
		"/>
	<path class="st0" d="M127-126c0,0.6-0.4,1-1,1l0,0c-0.6,0-1-0.4-1-1l0,0c0-0.6,0.4-1,1-1l0,0C126.6-127,127-126.6,127-126L127-126z
		"/>
	<path class="st0" d="M133-126c0,0.6-0.4,1-1,1l0,0c-0.6,0-1-0.4-1-1l0,0c0-0.6,0.4-1,1-1l0,0C132.6-127,133-126.6,133-126L133-126z
		"/>
	<line class="st0" x1="119" y1="-115" x2="127" y2="-115"/>
	<line class="st0" x1="153" y1="-115" x2="157" y2="-115"/>
	<line class="st0" x1="161" y1="-115" x2="165" y2="-115"/>
	<line class="st0" x1="145" y1="-115" x2="149" y2="-115"/>
	<path class="st0" d="M154-73h13c2.3,0,4-1.8,4-4v-50c0-2.2-1.8-4-4-4h-50c-2.2,0-4,1.8-4,4v6h54"/>
	<g>
		<path d="M120.7-94.1l11.3-5.5v2.1l-9,4.2v0l9,4.2v2.1l-11.3-5.5V-94.1z"/>
		<path d="M138.5-86l5.8-17.3h2L140.6-86H138.5z"/>
		<path d="M164-92.4L152.7-87v-2.1l9.1-4.2v0l-9.1-4.2v-2.1l11.3,5.4V-92.4z"/>
	</g>
</g>
<g>
	<path class="st0" d="M401-83l2.8-2.8l7,7c1.6,1.6,1.6,4.1,0,5.7c-1.6,1.6-4.1,1.6-5.7,0L393.3-85"/>
	<line class="st0" x1="401.1" y1="-88.6" x2="399" y2="-90.7"/>
	<circle class="st0" cx="377" cy="-107" r="23"/>
	<circle class="st0" cx="377" cy="-107" r="19"/>
	<line class="st0" x1="370" y1="-116" x2="382" y2="-116"/>
	<line class="st0" x1="366" y1="-110" x2="380" y2="-110"/>
	<line class="st0" x1="366" y1="-104" x2="372" y2="-104"/>
	<line class="st0" x1="368" y1="-98" x2="376" y2="-98"/>
	<line class="st0" x1="384" y1="-98" x2="380" y2="-98"/>
	<line class="st0" x1="388" y1="-110" x2="384" y2="-110"/>
	<line class="st0" x1="388" y1="-104" x2="376" y2="-104"/>
</g>
<g>
	<path class="st0" d="M248-126c0,0.6-0.4,1-1,1l0,0c-0.6,0-1-0.4-1-1l0,0c0-0.6,0.4-1,1-1l0,0C247.6-127,248-126.6,248-126L248-126z
		"/>
	<path class="st0" d="M254-126c0,0.6-0.4,1-1,1l0,0c-0.6,0-1-0.4-1-1l0,0c0-0.6,0.4-1,1-1l0,0C253.6-127,254-126.6,254-126L254-126z
		"/>
	<path class="st0" d="M260-126c0,0.6-0.4,1-1,1l0,0c-0.6,0-1-0.4-1-1l0,0c0-0.6,0.4-1,1-1l0,0C259.6-127,260-126.6,260-126L260-126z
		"/>
	<line class="st0" x1="248" y1="-113" x2="250" y2="-113"/>
	<line class="st0" x1="248" y1="-109" x2="250" y2="-109"/>
	<line class="st0" x1="248" y1="-105" x2="250" y2="-105"/>
	<line class="st0" x1="248" y1="-101" x2="250" y2="-101"/>
	<line class="st0" x1="248" y1="-97" x2="250" y2="-97"/>
	<line class="st0" x1="248" y1="-93" x2="250" y2="-93"/>
	<line class="st0" x1="248" y1="-89" x2="250" y2="-89"/>
	<line class="st0" x1="248" y1="-85" x2="250" y2="-85"/>
	<line class="st0" x1="248" y1="-81" x2="250" y2="-81"/>
	<line class="st0" x1="282" y1="-113" x2="278" y2="-113"/>
	<line class="st0" x1="284" y1="-109" x2="274" y2="-109"/>
	<line class="st0" x1="270" y1="-109" x2="254" y2="-109"/>
	<line class="st0" x1="264" y1="-113" x2="254" y2="-113"/>
	<line class="st0" x1="274" y1="-113" x2="268" y2="-113"/>
	<line class="st0" x1="288" y1="-105" x2="272" y2="-105"/>
	<line class="st0" x1="282" y1="-101" x2="274" y2="-101"/>
	<line class="st0" x1="270" y1="-101" x2="254" y2="-101"/>
	<line class="st0" x1="258" y1="-105" x2="254" y2="-105"/>
	<line class="st0" x1="268" y1="-105" x2="262" y2="-105"/>
	<line class="st0" x1="275" y1="-89" x2="272" y2="-89"/>
	<line class="st0" x1="258" y1="-89" x2="254" y2="-89"/>
	<line class="st0" x1="268" y1="-89" x2="262" y2="-89"/>
	<line class="st0" x1="266" y1="-85" x2="254" y2="-85"/>
	<line class="st0" x1="272" y1="-85" x2="270" y2="-85"/>
	<line class="st0" x1="260" y1="-81" x2="254" y2="-81"/>
	<line class="st0" x1="274" y1="-81" x2="264" y2="-81"/>
	<line class="st0" x1="284" y1="-97" x2="268" y2="-97"/>
	<line class="st0" x1="277" y1="-93" x2="270" y2="-93"/>
	<line class="st0" x1="266" y1="-93" x2="254" y2="-93"/>
	<line class="st0" x1="264" y1="-97" x2="254" y2="-97"/>
	<path class="st0" d="M298-81v-4h-2.3c-0.2-0.7-0.5-1.4-0.9-2.1l1.6-1.6l-2.8-2.8l-1.6,1.6c-0.6-0.4-1.3-0.7-2.1-0.9V-93h-4v2.3
		c-0.7,0.2-1.4,0.5-2.1,0.9l-1.6-1.6l-2.8,2.8l1.6,1.6c-0.4,0.6-0.7,1.3-0.9,2.1H278v4h2.3c0.2,0.7,0.5,1.4,0.9,2.1l-1.6,1.6
		l2.8,2.8l1.6-1.6c0.6,0.4,1.3,0.7,2.1,0.9v2.3h4v-2.3c0.7-0.2,1.4-0.5,2.1-0.9l1.6,1.6l2.8-2.8l-1.6-1.6c0.4-0.6,0.7-1.3,0.9-2.1
		H298z"/>
	<circle class="st0" cx="288" cy="-83" r="2"/>
	<path class="st0" d="M278-73h-34c-2.2,0-4-1.8-4-4v-40"/>
	<path class="st0" d="M294-121h-54v-6c0-2.2,1.8-4,4-4h50c2.2,0,4,1.8,4,4v34"/>
</g>
<g>
	<path class="st0" d="M505-75c0,1.1-0.9,2-2,2h-34c-1.1,0-2-0.9-2-2v-18c0-1.1,0.9-2,2-2h34c1.1,0,2,0.9,2,2V-75z"/>
	<path class="st0" d="M525-95v-34c0-1.1-0.9-2-2-2h-38c-1.1,0-2,0.9-2,2v30"/>
	<circle class="st0" cx="494" cy="-120" r="3"/>
	<circle class="st0" cx="476" cy="-86" r="3"/>
	<line class="st0" x1="507" y1="-123" x2="515" y2="-123"/>
	<line class="st0" x1="507" y1="-119" x2="517" y2="-119"/>
	<line class="st0" x1="491" y1="-109" x2="499" y2="-109"/>
	<line class="st0" x1="491" y1="-103" x2="505" y2="-103"/>
	<line class="st0" x1="491" y1="-99" x2="499" y2="-99"/>
	<line class="st0" x1="509" y1="-103" x2="517" y2="-103"/>
	<line class="st0" x1="503" y1="-99" x2="515" y2="-99"/>
	<line class="st0" x1="485" y1="-89" x2="491" y2="-89"/>
	<line class="st0" x1="485" y1="-85" x2="493" y2="-85"/>
	<line class="st0" x1="485" y1="-79" x2="499" y2="-79"/>
	<path class="st0" d="M528-91c1.1,0,2,0.9,2,2v14c0,1.1-0.9,2-2,2h-6c-1.1,0-2-0.9-2-2v-14c0-1.1,0.9-2,2-2H528z"/>
	<line class="st0" x1="516.8" y1="-73" x2="509" y2="-73"/>
	<line class="st0" x1="517" y1="-95" x2="509" y2="-95"/>
	<line class="st0" x1="516" y1="-91" x2="509" y2="-91"/>
	<line class="st0" x1="516" y1="-87" x2="509" y2="-87"/>
	<circle class="st0" cx="525" cy="-82" r="1"/>
</g>
<text transform="matrix(1 0 0 1 117 94)" style="font-family:'Roboto-Bold'; font-size:20px;">Prototyping</text>
<text transform="matrix(1 0 0 1 3 94)" style="font-family:'Roboto-Bold'; font-size:20px;">Concept</text>
<g>
	<text transform="matrix(1 0 0 1 -353 39)" style="font-family:'Roboto-Light'; font-size:20px;">Web Design</text>
</g>
<text transform="matrix(1 0 0 1 357 94)" style="font-family:'Roboto-Bold'; font-size:20px;">Testing</text>
<text transform="matrix(1 0 0 1 477 94)" style="font-family:'Roboto-Bold'; font-size:20px;">Finish </text>
<g>
	<path class="st0" d="M512,57c0,1.1-0.9,2-2,2h-34c-1.1,0-2-0.9-2-2V39c0-1.1,0.9-2,2-2h34c1.1,0,2,0.9,2,2V57z"/>
	<path class="st0" d="M532,37V3c0-1.1-0.9-2-2-2h-38c-1.1,0-2,0.9-2,2v30"/>
	<circle class="st0" cx="501" cy="12" r="3"/>
	<circle class="st0" cx="483" cy="46" r="3"/>
	<line class="st0" x1="514" y1="9" x2="522" y2="9"/>
	<line class="st0" x1="514" y1="13" x2="524" y2="13"/>
	<line class="st0" x1="498" y1="23" x2="506" y2="23"/>
	<line class="st0" x1="498" y1="29" x2="512" y2="29"/>
	<line class="st0" x1="498" y1="33" x2="506" y2="33"/>
	<line class="st0" x1="516" y1="29" x2="524" y2="29"/>
	<line class="st0" x1="510" y1="33" x2="522" y2="33"/>
	<line class="st0" x1="492" y1="43" x2="498" y2="43"/>
	<line class="st0" x1="492" y1="47" x2="500" y2="47"/>
	<line class="st0" x1="492" y1="53" x2="506" y2="53"/>
	<path class="st0" d="M535,41c1.1,0,2,0.9,2,2v14c0,1.1-0.9,2-2,2h-6c-1.1,0-2-0.9-2-2V43c0-1.1,0.9-2,2-2H535z"/>
	<line class="st0" x1="523.8" y1="59" x2="516" y2="59"/>
	<line class="st0" x1="524" y1="37" x2="516" y2="37"/>
	<line class="st0" x1="523" y1="41" x2="516" y2="41"/>
	<line class="st0" x1="523" y1="45" x2="516" y2="45"/>
	<circle class="st0" cx="532" cy="50" r="1"/>
</g>
<g>
	<line class="st0" x1="26" y1="59" x2="26" y2="47"/>
	<path class="st0" d="M22,57v-3c0,0,0-3-2-5s-5-2-5-2h-3v3c0,0,0,3,2,5s5,2,5,2H22z"/>
	<path class="st0" d="M30,57v-3c0,0,0-3,2-5s5-2,5-2h3v3c0,0,0,3-2,5s-5,2-5,2H30z"/>
	<path class="st0" d="M41,16c0-8.3-6.7-15-15-15c-8.3,0-15,6.7-15,15c0,6,6,10.7,7,15l1,4h14l1-4C35,26.7,41,22,41,16z"/>
	<line class="st0" x1="21" y1="39" x2="31" y2="39"/>
	<line class="st0" x1="23" y1="43" x2="29" y2="43"/>
	<path class="st0" d="M24,31l-3-14c0,0,3,2,5,2s5-2,5-2l-3,14"/>
	<path class="st0" d="M33,7.5c-1.2-1-2.5-1.7-4-2.1c-0.6-0.2-1.2-0.3-1.8-0.3"/>
	<path class="st0" d="M36.6,13c-0.2-0.7-0.5-1.4-0.8-2"/>
	<line class="st0" x1="5" y1="16" x2="1" y2="16"/>
	<line class="st0" x1="51" y1="16" x2="47" y2="16"/>
	<line class="st0" x1="47.7" y1="3.5" x2="44.2" y2="5.5"/>
	<line class="st0" x1="47.7" y1="28.5" x2="44.2" y2="26.5"/>
	<line class="st0" x1="7.8" y1="5.5" x2="4.3" y2="3.5"/>
	<line class="st0" x1="7.8" y1="26.5" x2="4.3" y2="28.5"/>
</g>
<g>
	<path class="st0" d="M125,6c0,0.6-0.4,1-1,1l0,0c-0.6,0-1-0.4-1-1l0,0c0-0.6,0.4-1,1-1l0,0C124.6,5,125,5.4,125,6L125,6z"/>
	<path class="st0" d="M131,6c0,0.6-0.4,1-1,1l0,0c-0.6,0-1-0.4-1-1l0,0c0-0.6,0.4-1,1-1l0,0C130.6,5,131,5.4,131,6L131,6z"/>
	<path class="st0" d="M137,6c0,0.6-0.4,1-1,1l0,0c-0.6,0-1-0.4-1-1l0,0c0-0.6,0.4-1,1-1l0,0C136.6,5,137,5.4,137,6L137,6z"/>
	<path class="st0" d="M169,54.9c2.7-2.7,2.7-7.2,0-9.9c-2.7-2.7-7.2-2.7-9.9,0c-4,4-4,13.9-4,13.9S165,59,169,54.9z"/>
	<line class="st0" x1="171" y1="39" x2="166.5" y2="43.5"/>
	<line class="st0" x1="175" y1="43" x2="170.6" y2="47.4"/>
	<path class="st0" d="M166.8,51c0.4-1.1,0.1-2.3-0.7-3.1"/>
	<rect x="121" y="15" class="st0" width="10" height="16"/>
	<rect x="135" y="15" class="st0" width="36" height="10"/>
	<polyline class="st0" points="121,55 121,35 131,35 131,55 	"/>
	<polyline class="st0" points="165,39 165,29 171,29 171,35 	"/>
	<polyline class="st0" points="135,55 135,29 161,29 161,39 	"/>
	<path class="st0" d="M151,59h-30c-2.2,0-4-1.8-4-4V15"/>
	<path class="st0" d="M171,11h-54V5c0-2.2,1.8-4,4-4h50c2.2,0,4,1.8,4,4v34"/>
</g>
<g>
	<circle class="st0" cx="387" cy="40" r="1"/>
	<path class="st0" d="M388,31l-7.6-12.2c-0.7-1.3-0.5-2.7,0.7-3.5c1.3-0.7,2.4-0.1,3.3,1.1l7.7,10.7c-0.7-1.3-0.3-2.9,1-3.6
		c1.3-0.7,2.9-0.3,3.6,1l0.7,1.1c-0.7-1.3-0.3-2.9,1-3.6c1.3-0.7,2.9-0.3,3.6,1l1,1.7c-0.5-0.9-0.2-2.2,0.7-2.7
		c0.9-0.5,2.2-0.1,2.7,0.7c0,0,3.7,5.2,5.7,12.2h-54v6c0,2.3,1.8,4,4,4h50c2.3,0,4-1.7,4-4V5c0-2.2-1.8-4-4-4h-50
		c-2.2,0-3.9,1.9-4,4v26"/>
	<line class="st0" x1="382" y1="7" x2="382" y2="11"/>
	<line class="st0" x1="389.1" y1="9.9" x2="386.2" y2="12.8"/>
	<line class="st0" x1="374.9" y1="9.9" x2="377.8" y2="12.8"/>
	<line class="st0" x1="372" y1="17" x2="376" y2="17"/>
	<line class="st0" x1="374.9" y1="24.1" x2="377.8" y2="21.2"/>
	<path class="st0" d="M392,49v6h4c2,0,4,2,4,4h-26c0-2,2-4,4-4h10"/>
	<line class="st0" x1="382" y1="55" x2="382" y2="49"/>
</g>
</svg>
