<?xml version="1.0" encoding="utf-8"?>
<!-- Generator: Adobe Illustrator 21.0.2, SVG Export Plug-In . SVG Version: 6.00 Build 0)  -->
<svg version="1.1" id="Layer_1" xmlns="http://www.w3.org/2000/svg" xmlns:xlink="http://www.w3.org/1999/xlink" x="0px" y="0px"
	 viewBox="0 0 60 60" style="enable-background:new 0 0 60 60;" xml:space="preserve">
<style type="text/css">
	.st0{fill:none;stroke:#000000;stroke-width:2;stroke-linecap:round;stroke-linejoin:round;stroke-miterlimit:10;}
	.st1{fill:none;stroke:#000000;stroke-linecap:round;stroke-linejoin:round;stroke-miterlimit:10;}
</style>
<g>
	<path class="st0" d="M-239-270h-6c-2,0-4,2-4,4v26"/>
	<path class="st0" d="M-195-236h-54v6c0,2,2,4,4,4h50c2,0,4-2,4-4v-36c0-2-2-4-4-4h-10"/>
	<circle class="st0" cx="-220" cy="-231" r="1"/>
	<line class="st0" x1="-245" y1="-212" x2="-209" y2="-212"/>
	<line class="st0" x1="-235" y1="-214" x2="-235" y2="-212"/>
	<line class="st0" x1="-231" y1="-214" x2="-231" y2="-212"/>
	<line class="st0" x1="-227" y1="-214" x2="-227" y2="-212"/>
	<line class="st0" x1="-223" y1="-214" x2="-223" y2="-212"/>
	<line class="st0" x1="-225" y1="-222" x2="-225" y2="-218"/>
	<line class="st0" x1="-215" y1="-222" x2="-215" y2="-218"/>
	<line class="st0" x1="-215" y1="-214" x2="-215" y2="-212"/>
	<line class="st0" x1="-219" y1="-214" x2="-219" y2="-212"/>
	<line class="st0" x1="-211" y1="-214" x2="-211" y2="-212"/>
	<line class="st0" x1="-239" y1="-214" x2="-239" y2="-212"/>
	<line class="st0" x1="-243" y1="-214" x2="-243" y2="-212"/>
	<path class="st0" d="M-195-212v-1c0-1.7-1.3-3-3-3h-2c-1.7,0-3,1.3-3,3v1H-195z"/>
	<line class="st0" x1="-229" y1="-264" x2="-235" y2="-264"/>
	<line class="st0" x1="-233" y1="-260" x2="-235" y2="-260"/>
	<line class="st0" x1="-233" y1="-256" x2="-235" y2="-256"/>
	<line class="st0" x1="-229" y1="-252" x2="-235" y2="-252"/>
	<polyline class="st0" points="-215,-240 -215,-262 -210,-270 -205,-262 -211,-262 	"/>
	<polyline class="st0" points="-229,-240 -235,-240 -235,-270 -219,-270 -219,-240 	"/>
	<line class="st0" x1="-233" y1="-248" x2="-235" y2="-248"/>
	<line class="st0" x1="-233" y1="-244" x2="-235" y2="-244"/>
	<line class="st0" x1="-205" y1="-258" x2="-205" y2="-240"/>
	<line class="st0" x1="-210" y1="-240" x2="-210" y2="-258"/>
</g>
<g>
	<line class="st0" x1="-129" y1="-225" x2="-83" y2="-225"/>
	<line class="st0" x1="-99" y1="-241" x2="-99" y2="-225"/>
	<path class="st0" d="M-115-254h38v38c0,2.2-1.8,4-4,4h-50c-2.2,0-4-1.8-4-4v-46h10l6,8l-6,8h-6"/>
	<line class="st0" x1="-119" y1="-246" x2="-77" y2="-246"/>
	<line class="st0" x1="-109" y1="-254" x2="-115" y2="-246"/>
	<line class="st0" x1="-100" y1="-254" x2="-106" y2="-246"/>
	<line class="st0" x1="-91" y1="-254" x2="-97" y2="-246"/>
	<line class="st0" x1="-82" y1="-254" x2="-88" y2="-246"/>
	<polyline class="st0" points="-115,-255.8 -77.6,-262 -78.9,-270 -120.7,-263.1 	"/>
	<line class="st0" x1="-115.9" y1="-263.8" x2="-110.4" y2="-256.6"/>
	<line class="st0" x1="-106.5" y1="-265.3" x2="-101.1" y2="-258.1"/>
	<line class="st0" x1="-97.8" y1="-266.8" x2="-92.5" y2="-259.6"/>
	<line class="st0" x1="-88.5" y1="-268.3" x2="-83.1" y2="-261.2"/>
</g>
<text transform="matrix(1 0 0 1 -249 -177)" style="font-family:'Roboto-Bold'; font-size:20px;">Design</text>
<g>
	<path class="st0" d="M11,1H5C3,1,1,3,1,5v26"/>
	<path class="st0" d="M55,35H1v6c0,2,2,4,4,4h50c2,0,4-2,4-4V5c0-2-2-4-4-4H45"/>
	<circle class="st0" cx="30" cy="40" r="1"/>
	<line class="st0" x1="5" y1="59" x2="41" y2="59"/>
	<line class="st0" x1="15" y1="57" x2="15" y2="59"/>
	<line class="st0" x1="19" y1="57" x2="19" y2="59"/>
	<line class="st0" x1="23" y1="57" x2="23" y2="59"/>
	<line class="st0" x1="27" y1="57" x2="27" y2="59"/>
	<line class="st0" x1="25" y1="49" x2="25" y2="53"/>
	<line class="st0" x1="35" y1="49" x2="35" y2="53"/>
	<line class="st0" x1="35" y1="57" x2="35" y2="59"/>
	<line class="st0" x1="31" y1="57" x2="31" y2="59"/>
	<line class="st0" x1="39" y1="57" x2="39" y2="59"/>
	<line class="st0" x1="11" y1="57" x2="11" y2="59"/>
	<line class="st0" x1="7" y1="57" x2="7" y2="59"/>
	<path class="st0" d="M55,59v-1c0-1.7-1.3-3-3-3h-2c-1.7,0-3,1.3-3,3v1H55z"/>
	<line class="st0" x1="21" y1="7" x2="15" y2="7"/>
	<line class="st0" x1="17" y1="11" x2="15" y2="11"/>
	<line class="st0" x1="17" y1="15" x2="15" y2="15"/>
	<line class="st0" x1="21" y1="19" x2="15" y2="19"/>
	<polyline class="st0" points="35,31 35,9 40,1 45,9 39,9 	"/>
	<polyline class="st0" points="21,31 15,31 15,1 31,1 31,31 	"/>
	<line class="st0" x1="17" y1="23" x2="15" y2="23"/>
	<line class="st0" x1="17" y1="27" x2="15" y2="27"/>
	<line class="st0" x1="45" y1="13" x2="45" y2="31"/>
	<line class="st0" x1="40" y1="31" x2="40" y2="13"/>
</g>
<text transform="matrix(1 0 0 1 1 94)" style="font-family:'Roboto-Bold'; font-size:20px;">Design</text>
<text transform="matrix(1 0 0 1 -363 -177)" style="font-family:'Roboto-Bold'; font-size:20px;">Start</text>
<g>
	<text transform="matrix(1 0 0 1 -601 -233)" style="font-family:'Roboto-Light'; font-size:20px;">HTML5 Banners</text>
</g>
<g>
	<path class="st0" d="M-328-265v5c0,2.2,1.8,4,4,4h10v40c0,2.2-1.8,4-4,4h-42c-2.2,0-4-1.8-4-4v-50c0-2.2,1.8-4,4-4"/>
	<circle class="st0" cx="-351" cy="-259" r="7"/>
	<circle class="st0" cx="-351" cy="-241" r="7"/>
	<line class="st0" x1="-356" y1="-232" x2="-356" y2="-236"/>
	<polyline class="st0" points="-356,-264 -356,-270 -328,-270 -318,-260 	"/>
	<path class="st0" d="M-356-254c0,0-2,1-2,4s2,4,2,4"/>
	<path class="st0" d="M-348.3-260.3c-0.3-0.6-0.8-1.1-1.4-1.4"/>
	<path class="st0" d="M-348.3-242.3c-0.3-0.6-0.8-1.1-1.4-1.4"/>
	<line class="st0" x1="-336" y1="-246" x2="-340" y2="-246"/>
	<line class="st0" x1="-332" y1="-246" x2="-324" y2="-246"/>
	<line class="st0" x1="-339" y1="-240" x2="-334" y2="-240"/>
	<line class="st0" x1="-330" y1="-240" x2="-326" y2="-240"/>
	<line class="st0" x1="-354" y1="-228" x2="-348" y2="-228"/>
	<line class="st0" x1="-330" y1="-228" x2="-324" y2="-228"/>
	<line class="st0" x1="-344" y1="-228" x2="-334" y2="-228"/>
	<line class="st0" x1="-341" y1="-234" x2="-326" y2="-234"/>
	<line class="st0" x1="-354" y1="-222" x2="-342" y2="-222"/>
	<line class="st0" x1="-338" y1="-222" x2="-328" y2="-222"/>
</g>
<text transform="matrix(1 0 0 1 -9 -177)" style="font-family:'Roboto-Bold'; font-size:20px;">Resize</text>
<text transform="matrix(1 0 0 1 -133 -177)" style="font-family:'Roboto-Bold'; font-size:20px;">Animation</text>
<g>
	<path class="st0" d="M116-270h-6c-2,0-4,2-4,4v26"/>
	<path class="st0" d="M160-236h-54v6c0,2,2,4,4,4h50c2,0,4-2,4-4v-36c0-2-2-4-4-4h-10"/>
	<circle class="st0" cx="135" cy="-231" r="1"/>
	<line class="st0" x1="110" y1="-212" x2="146" y2="-212"/>
	<line class="st0" x1="120" y1="-214" x2="120" y2="-212"/>
	<line class="st0" x1="124" y1="-214" x2="124" y2="-212"/>
	<line class="st0" x1="128" y1="-214" x2="128" y2="-212"/>
	<line class="st0" x1="132" y1="-214" x2="132" y2="-212"/>
	<line class="st0" x1="130" y1="-222" x2="130" y2="-218"/>
	<line class="st0" x1="140" y1="-222" x2="140" y2="-218"/>
	<line class="st0" x1="140" y1="-214" x2="140" y2="-212"/>
	<line class="st0" x1="136" y1="-214" x2="136" y2="-212"/>
	<line class="st0" x1="144" y1="-214" x2="144" y2="-212"/>
	<line class="st0" x1="116" y1="-214" x2="116" y2="-212"/>
	<line class="st0" x1="112" y1="-214" x2="112" y2="-212"/>
	<path class="st0" d="M160-212v-1c0-1.7-1.3-3-3-3h-2c-1.7,0-3,1.3-3,3v1H160z"/>
	<line class="st0" x1="126" y1="-264" x2="120" y2="-264"/>
	<line class="st0" x1="122" y1="-260" x2="120" y2="-260"/>
	<line class="st0" x1="122" y1="-256" x2="120" y2="-256"/>
	<line class="st0" x1="126" y1="-252" x2="120" y2="-252"/>
	<polyline class="st0" points="140,-240 140,-262 145,-270 150,-262 144,-262 	"/>
	<polyline class="st0" points="126,-240 120,-240 120,-270 136,-270 136,-240 	"/>
	<line class="st0" x1="122" y1="-248" x2="120" y2="-248"/>
	<line class="st0" x1="122" y1="-244" x2="120" y2="-244"/>
	<line class="st0" x1="150" y1="-258" x2="150" y2="-240"/>
	<line class="st0" x1="145" y1="-240" x2="145" y2="-258"/>
</g>
<text transform="matrix(1 0 0 1 106 -177)" style="font-family:'Roboto-Bold'; font-size:20px;">Design</text>
<text transform="matrix(1 0 0 1 365 -177)" style="font-family:'Roboto-Bold'; font-size:20px;">Finish </text>
<text transform="matrix(1 0 0 1 222 -177)" style="font-family:'Roboto-Bold'; font-size:20px;">Optimization </text>
<g>
	<g>
		<polyline class="st0" points="21,-230.4 -6,-230.4 3.3,-239.7 7.5,-235.4 15.1,-243 21,-237.1 		"/>
		<circle class="st0" cx="2" cy="-251.4" r="3.3"/>
		<line class="st0" x1="2" y1="-258" x2="2" y2="-254.7"/>
		<line class="st0" x1="-3.6" y1="-254.7" x2="-0.8" y2="-253.1"/>
		<line class="st0" x1="-3.6" y1="-248.2" x2="-0.8" y2="-249.8"/>
		<line class="st0" x1="2" y1="-244.9" x2="2" y2="-248.2"/>
		<line class="st0" x1="7.7" y1="-248.2" x2="4.9" y2="-249.8"/>
		<line class="st0" x1="7.7" y1="-254.7" x2="4.9" y2="-253.1"/>
	</g>
	<g>
		<polyline class="st0" points="52,-241 30.7,-241 38,-248.3 41.3,-245 47.3,-251 52,-246.3 		"/>
		<circle class="st0" cx="38.7" cy="-258.5" r="2.7"/>
		<line class="st0" x1="38.7" y1="-264" x2="38.7" y2="-261.3"/>
		<line class="st0" x1="33.9" y1="-261.2" x2="36.3" y2="-259.9"/>
		<line class="st0" x1="33.9" y1="-255.7" x2="36.3" y2="-257.1"/>
		<line class="st0" x1="38.7" y1="-253" x2="38.7" y2="-255.8"/>
		<line class="st0" x1="43.5" y1="-255.8" x2="41.1" y2="-257.1"/>
		<line class="st0" x1="43.5" y1="-261.3" x2="41.1" y2="-259.9"/>
	</g>
	<g>
		<polyline class="st0" points="50.8,-211.3 31.8,-211.3 38.4,-217.9 41.3,-214.9 46.7,-220.2 50.8,-216.1 		"/>
		<circle class="st1" cx="36" cy="-223.9" r="1.2"/>
		<line class="st1" x1="36" y1="-226.3" x2="36" y2="-225.1"/>
		<line class="st1" x1="34" y1="-225.1" x2="35" y2="-224.5"/>
		<line class="st1" x1="34" y1="-222.8" x2="35" y2="-223.3"/>
		<line class="st1" x1="36" y1="-221.6" x2="36" y2="-222.8"/>
		<line class="st1" x1="38" y1="-222.8" x2="37" y2="-223.3"/>
		<line class="st1" x1="38" y1="-225.1" x2="37" y2="-224.5"/>
	</g>
	<path class="st0" d="M50.6-233H32.4c-2.4,0-4.4-2-4.4-4.4v-28.2c0-2.4,2-4.4,4.4-4.4h18.2c2.4,0,4.4,2,4.4,4.4v28.2
		C55-235,53-233,50.6-233z"/>
	<path class="st0" d="M19.6-211H-4.6c-2.4,0-4.4-2-4.4-4.4v-50.2c0-2.4,2-4.4,4.4-4.4h24.2c2.4,0,4.4,2,4.4,4.4v50.2
		C24-213,22-211,19.6-211z"/>
	<path class="st0" d="M50.6-211.3H32.4c-2.4,0-4.4-2-4.4-4.4v-9.2c0-2.4,2-4.4,4.4-4.4h18.2c2.4,0,4.4,2,4.4,4.4v9.2
		C55-213.3,53-211.3,50.6-211.3z"/>
</g>
<g>
	<path class="st0" d="M276-246l-5.9-1.3c-0.5-1.7-1.2-3.3-2-4.9l3.2-5.1c0.4-0.6,0.4-1,0-1.4l-5.7-5.7c-0.4-0.4-0.8-0.3-1.4,0
		l-5.1,3.2c-1.5-0.9-3.2-1.5-4.9-2L253-269c-0.2-0.7-0.4-1-1-1h-8c-0.6,0-0.8,0.4-1,1l-1.3,5.9c-1.7,0.5-3.3,1.2-4.9,2l-5.1-3.2
		c-0.6-0.4-1-0.4-1.4,0l-5.7,5.7c-0.4,0.4-0.3,0.8,0,1.4l3.2,5.1c-0.9,1.5-1.5,3.2-2,4.9L220-246c-0.7,0.2-1,0.4-1,1v8
		c0,0.6,0.4,0.8,1,1l5.9,1.3c0.5,1.7,1.2,3.3,2,4.9l-3.2,5.1c-0.4,0.6-0.4,1,0,1.4l5.7,5.7c0.4,0.4,0.8,0.3,1.4,0l5.1-3.2
		c1.5,0.9,3.2,1.5,4.9,2l1.3,5.9c0.2,0.7,0.4,1,1,1l8,0c0.6,0,0.8-0.4,1-1l1.3-5.9c1.7-0.5,3.3-1.2,4.9-2l5.1,3.2
		c0.6,0.4,1,0.4,1.4,0l5.7-5.7c0.4-0.4,0.3-0.8,0-1.4l-3.2-5.1c0.8-1.5,1.5-3.2,2-4.9l5.9-1.3c0.7-0.2,1-0.4,1-1v-8
		C277-245.6,276.6-245.8,276-246z"/>
	<path class="st0" d="M252-228.6c5.2-1.7,9-6.6,9-12.4c0-7.2-5.8-13-13-13s-13,5.8-13,13s5.8,13,13,13"/>
	<circle class="st0" cx="248" cy="-241" r="3"/>
</g>
<g>
	<path class="st0" d="M401-265v5c0,2.2,1.8,4,4,4h10v40c0,2.2-1.8,4-4,4h-42c-2.2,0-4-1.8-4-4v-50c0-2.2,1.8-4,4-4h32l10,10"/>
	<circle class="st0" cx="390" cy="-235" r="13"/>
	<polygon class="st0" points="387,-239 387,-231 394,-235 	"/>
</g>
<g>
	<path class="st0" d="M-242-131h-6c-2,0-4,2-4,4v26"/>
	<path class="st0" d="M-198-97h-54v6c0,2,2,4,4,4h50c2,0,4-2,4-4v-36c0-2-2-4-4-4h-10"/>
	<circle class="st0" cx="-223" cy="-92" r="1"/>
	<line class="st0" x1="-248" y1="-73" x2="-212" y2="-73"/>
	<line class="st0" x1="-238" y1="-75" x2="-238" y2="-73"/>
	<line class="st0" x1="-234" y1="-75" x2="-234" y2="-73"/>
	<line class="st0" x1="-230" y1="-75" x2="-230" y2="-73"/>
	<line class="st0" x1="-226" y1="-75" x2="-226" y2="-73"/>
	<line class="st0" x1="-228" y1="-83" x2="-228" y2="-79"/>
	<line class="st0" x1="-218" y1="-83" x2="-218" y2="-79"/>
	<line class="st0" x1="-218" y1="-75" x2="-218" y2="-73"/>
	<line class="st0" x1="-222" y1="-75" x2="-222" y2="-73"/>
	<line class="st0" x1="-214" y1="-75" x2="-214" y2="-73"/>
	<line class="st0" x1="-242" y1="-75" x2="-242" y2="-73"/>
	<line class="st0" x1="-246" y1="-75" x2="-246" y2="-73"/>
	<path class="st0" d="M-198-73v-1c0-1.7-1.3-3-3-3h-2c-1.7,0-3,1.3-3,3v1H-198z"/>
	<line class="st0" x1="-232" y1="-125" x2="-238" y2="-125"/>
	<line class="st0" x1="-236" y1="-121" x2="-238" y2="-121"/>
	<line class="st0" x1="-236" y1="-117" x2="-238" y2="-117"/>
	<line class="st0" x1="-232" y1="-113" x2="-238" y2="-113"/>
	<polyline class="st0" points="-218,-101 -218,-123 -213,-131 -208,-123 -214,-123 	"/>
	<polyline class="st0" points="-232,-101 -238,-101 -238,-131 -222,-131 -222,-101 	"/>
	<line class="st0" x1="-236" y1="-109" x2="-238" y2="-109"/>
	<line class="st0" x1="-236" y1="-105" x2="-238" y2="-105"/>
	<line class="st0" x1="-208" y1="-119" x2="-208" y2="-101"/>
	<line class="st0" x1="-213" y1="-101" x2="-213" y2="-119"/>
</g>
<text transform="matrix(1 0 0 1 -252 -38)" style="font-family:'Roboto-Bold'; font-size:20px;">Design</text>
<text transform="matrix(1 0 0 1 -366 -38)" style="font-family:'Roboto-Bold'; font-size:20px;">Start</text>
<g>
	<text transform="matrix(1 0 0 1 -604 -94)" style="font-family:'Roboto-Light'; font-size:20px;">Web Development</text>
</g>
<g>
	<path class="st0" d="M-331-126v5c0,2.2,1.8,4,4,4h10v40c0,2.2-1.8,4-4,4h-42c-2.2,0-4-1.8-4-4v-50c0-2.2,1.8-4,4-4"/>
	<circle class="st0" cx="-354" cy="-120" r="7"/>
	<circle class="st0" cx="-354" cy="-102" r="7"/>
	<line class="st0" x1="-359" y1="-93" x2="-359" y2="-97"/>
	<polyline class="st0" points="-359,-125 -359,-131 -331,-131 -321,-121 	"/>
	<path class="st0" d="M-359-115c0,0-2,1-2,4s2,4,2,4"/>
	<path class="st0" d="M-351.3-121.3c-0.3-0.6-0.8-1.1-1.4-1.4"/>
	<path class="st0" d="M-351.3-103.3c-0.3-0.6-0.8-1.1-1.4-1.4"/>
	<line class="st0" x1="-339" y1="-107" x2="-343" y2="-107"/>
	<line class="st0" x1="-335" y1="-107" x2="-327" y2="-107"/>
	<line class="st0" x1="-342" y1="-101" x2="-337" y2="-101"/>
	<line class="st0" x1="-333" y1="-101" x2="-329" y2="-101"/>
	<line class="st0" x1="-357" y1="-89" x2="-351" y2="-89"/>
	<line class="st0" x1="-333" y1="-89" x2="-327" y2="-89"/>
	<line class="st0" x1="-347" y1="-89" x2="-337" y2="-89"/>
	<line class="st0" x1="-344" y1="-95" x2="-329" y2="-95"/>
	<line class="st0" x1="-357" y1="-83" x2="-345" y2="-83"/>
	<line class="st0" x1="-341" y1="-83" x2="-331" y2="-83"/>
</g>
<text transform="matrix(1 0 0 1 -366 95)" style="font-family:'Roboto-Bold'; font-size:20px;">Start</text>
<g>
	<path class="st0" d="M-331,7v5c0,2.2,1.8,4,4,4h10v40c0,2.2-1.8,4-4,4h-42c-2.2,0-4-1.8-4-4V6c0-2.2,1.8-4,4-4"/>
	<circle class="st0" cx="-354" cy="13" r="7"/>
	<circle class="st0" cx="-354" cy="31" r="7"/>
	<line class="st0" x1="-359" y1="40" x2="-359" y2="36"/>
	<polyline class="st0" points="-359,8 -359,2 -331,2 -321,12 	"/>
	<path class="st0" d="M-359,18c0,0-2,1-2,4s2,4,2,4"/>
	<path class="st0" d="M-351.3,11.7c-0.3-0.6-0.8-1.1-1.4-1.4"/>
	<path class="st0" d="M-351.3,29.7c-0.3-0.6-0.8-1.1-1.4-1.4"/>
	<line class="st0" x1="-339" y1="26" x2="-343" y2="26"/>
	<line class="st0" x1="-335" y1="26" x2="-327" y2="26"/>
	<line class="st0" x1="-342" y1="32" x2="-337" y2="32"/>
	<line class="st0" x1="-333" y1="32" x2="-329" y2="32"/>
	<line class="st0" x1="-357" y1="44" x2="-351" y2="44"/>
	<line class="st0" x1="-333" y1="44" x2="-327" y2="44"/>
	<line class="st0" x1="-347" y1="44" x2="-337" y2="44"/>
	<line class="st0" x1="-344" y1="38" x2="-329" y2="38"/>
	<line class="st0" x1="-357" y1="50" x2="-345" y2="50"/>
	<line class="st0" x1="-341" y1="50" x2="-331" y2="50"/>
</g>
<text transform="matrix(1 0 0 1 -12 -38)" style="font-family:'Roboto-Bold'; font-size:20px;">Back-end</text>
<text transform="matrix(1 0 0 1 -136 -38)" style="font-family:'Roboto-Bold'; font-size:20px;">Front-end</text>
<text transform="matrix(1 0 0 1 103 -38)" style="font-family:'Roboto-Bold'; font-size:20px;">QA </text>
<text transform="matrix(1 0 0 1 219 -38)" style="font-family:'Roboto-Bold'; font-size:20px;">Finish </text>
<g>
	<path class="st0" d="M-97-73h-37c-2.3,0-4-1.8-4-4v-40"/>
	<path class="st0" d="M-130-126c0,0.6-0.4,1-1,1l0,0c-0.6,0-1-0.4-1-1l0,0c0-0.6,0.4-1,1-1l0,0C-130.4-127-130-126.6-130-126
		L-130-126z"/>
	<path class="st0" d="M-124-126c0,0.6-0.4,1-1,1l0,0c-0.6,0-1-0.4-1-1l0,0c0-0.6,0.4-1,1-1l0,0C-124.4-127-124-126.6-124-126
		L-124-126z"/>
	<path class="st0" d="M-118-126c0,0.6-0.4,1-1,1l0,0c-0.6,0-1-0.4-1-1l0,0c0-0.6,0.4-1,1-1l0,0C-118.4-127-118-126.6-118-126
		L-118-126z"/>
	<line class="st0" x1="-132" y1="-115" x2="-124" y2="-115"/>
	<line class="st0" x1="-98" y1="-115" x2="-94" y2="-115"/>
	<line class="st0" x1="-90" y1="-115" x2="-86" y2="-115"/>
	<line class="st0" x1="-106" y1="-115" x2="-102" y2="-115"/>
	<path class="st0" d="M-97-73h13c2.3,0,4-1.8,4-4v-50c0-2.2-1.8-4-4-4h-50c-2.2,0-4,1.8-4,4v6h54"/>
	<g>
		<path d="M-130.3-94.1l11.3-5.5v2.1l-9,4.2v0l9,4.2v2.1l-11.3-5.5V-94.1z"/>
		<path d="M-112.5-86l5.8-17.3h2l-5.8,17.3H-112.5z"/>
		<path d="M-87-92.4L-98.3-87v-2.1l9.1-4.2v0l-9.1-4.2v-2.1l11.3,5.4V-92.4z"/>
	</g>
</g>
<g>
	<path class="st0" d="M150-83l2.8-2.8l7,7c1.6,1.6,1.6,4.1,0,5.7c-1.6,1.6-4.1,1.6-5.7,0L142.3-85"/>
	<line class="st0" x1="150.1" y1="-88.6" x2="148" y2="-90.7"/>
	<circle class="st0" cx="126" cy="-107" r="23"/>
	<circle class="st0" cx="126" cy="-107" r="19"/>
	<line class="st0" x1="119" y1="-116" x2="131" y2="-116"/>
	<line class="st0" x1="115" y1="-110" x2="129" y2="-110"/>
	<line class="st0" x1="115" y1="-104" x2="121" y2="-104"/>
	<line class="st0" x1="117" y1="-98" x2="125" y2="-98"/>
	<line class="st0" x1="133" y1="-98" x2="129" y2="-98"/>
	<line class="st0" x1="137" y1="-110" x2="133" y2="-110"/>
	<line class="st0" x1="137" y1="-104" x2="125" y2="-104"/>
</g>
<g>
	<path class="st0" d="M-3-126c0,0.6-0.4,1-1,1l0,0c-0.6,0-1-0.4-1-1l0,0c0-0.6,0.4-1,1-1l0,0C-3.4-127-3-126.6-3-126L-3-126z"/>
	<path class="st0" d="M3-126c0,0.6-0.4,1-1,1l0,0c-0.6,0-1-0.4-1-1l0,0c0-0.6,0.4-1,1-1l0,0C2.6-127,3-126.6,3-126L3-126z"/>
	<path class="st0" d="M9-126c0,0.6-0.4,1-1,1l0,0c-0.6,0-1-0.4-1-1l0,0c0-0.6,0.4-1,1-1l0,0C8.6-127,9-126.6,9-126L9-126z"/>
	<line class="st0" x1="-3" y1="-113" x2="-1" y2="-113"/>
	<line class="st0" x1="-3" y1="-109" x2="-1" y2="-109"/>
	<line class="st0" x1="-3" y1="-105" x2="-1" y2="-105"/>
	<line class="st0" x1="-3" y1="-101" x2="-1" y2="-101"/>
	<line class="st0" x1="-3" y1="-97" x2="-1" y2="-97"/>
	<line class="st0" x1="-3" y1="-93" x2="-1" y2="-93"/>
	<line class="st0" x1="-3" y1="-89" x2="-1" y2="-89"/>
	<line class="st0" x1="-3" y1="-85" x2="-1" y2="-85"/>
	<line class="st0" x1="-3" y1="-81" x2="-1" y2="-81"/>
	<line class="st0" x1="31" y1="-113" x2="27" y2="-113"/>
	<line class="st0" x1="33" y1="-109" x2="23" y2="-109"/>
	<line class="st0" x1="19" y1="-109" x2="3" y2="-109"/>
	<line class="st0" x1="13" y1="-113" x2="3" y2="-113"/>
	<line class="st0" x1="23" y1="-113" x2="17" y2="-113"/>
	<line class="st0" x1="37" y1="-105" x2="21" y2="-105"/>
	<line class="st0" x1="31" y1="-101" x2="23" y2="-101"/>
	<line class="st0" x1="19" y1="-101" x2="3" y2="-101"/>
	<line class="st0" x1="7" y1="-105" x2="3" y2="-105"/>
	<line class="st0" x1="17" y1="-105" x2="11" y2="-105"/>
	<line class="st0" x1="24" y1="-89" x2="21" y2="-89"/>
	<line class="st0" x1="7" y1="-89" x2="3" y2="-89"/>
	<line class="st0" x1="17" y1="-89" x2="11" y2="-89"/>
	<line class="st0" x1="15" y1="-85" x2="3" y2="-85"/>
	<line class="st0" x1="21" y1="-85" x2="19" y2="-85"/>
	<line class="st0" x1="9" y1="-81" x2="3" y2="-81"/>
	<line class="st0" x1="23" y1="-81" x2="13" y2="-81"/>
	<line class="st0" x1="33" y1="-97" x2="17" y2="-97"/>
	<line class="st0" x1="26" y1="-93" x2="19" y2="-93"/>
	<line class="st0" x1="15" y1="-93" x2="3" y2="-93"/>
	<line class="st0" x1="13" y1="-97" x2="3" y2="-97"/>
	<path class="st0" d="M47-81v-4h-2.3c-0.2-0.7-0.5-1.4-0.9-2.1l1.6-1.6l-2.8-2.8l-1.6,1.6c-0.6-0.4-1.3-0.7-2.1-0.9V-93h-4v2.3
		c-0.7,0.2-1.4,0.5-2.1,0.9l-1.6-1.6l-2.8,2.8l1.6,1.6c-0.4,0.6-0.7,1.3-0.9,2.1H27v4h2.3c0.2,0.7,0.5,1.4,0.9,2.1l-1.6,1.6l2.8,2.8
		l1.6-1.6c0.6,0.4,1.3,0.7,2.1,0.9v2.3h4v-2.3c0.7-0.2,1.4-0.5,2.1-0.9l1.6,1.6l2.8-2.8l-1.6-1.6c0.4-0.6,0.7-1.3,0.9-2.1H47z"/>
	<circle class="st0" cx="37" cy="-83" r="2"/>
	<path class="st0" d="M27-73H-7c-2.2,0-4-1.8-4-4v-40"/>
	<path class="st0" d="M43-121h-54v-6c0-2.2,1.8-4,4-4h50c2.2,0,4,1.8,4,4v34"/>
</g>
<g>
	<path class="st0" d="M254-75c0,1.1-0.9,2-2,2h-34c-1.1,0-2-0.9-2-2v-18c0-1.1,0.9-2,2-2h34c1.1,0,2,0.9,2,2V-75z"/>
	<path class="st0" d="M274-95v-34c0-1.1-0.9-2-2-2h-38c-1.1,0-2,0.9-2,2v30"/>
	<circle class="st0" cx="243" cy="-120" r="3"/>
	<circle class="st0" cx="225" cy="-86" r="3"/>
	<line class="st0" x1="256" y1="-123" x2="264" y2="-123"/>
	<line class="st0" x1="256" y1="-119" x2="266" y2="-119"/>
	<line class="st0" x1="240" y1="-109" x2="248" y2="-109"/>
	<line class="st0" x1="240" y1="-103" x2="254" y2="-103"/>
	<line class="st0" x1="240" y1="-99" x2="248" y2="-99"/>
	<line class="st0" x1="258" y1="-103" x2="266" y2="-103"/>
	<line class="st0" x1="252" y1="-99" x2="264" y2="-99"/>
	<line class="st0" x1="234" y1="-89" x2="240" y2="-89"/>
	<line class="st0" x1="234" y1="-85" x2="242" y2="-85"/>
	<line class="st0" x1="234" y1="-79" x2="248" y2="-79"/>
	<path class="st0" d="M277-91c1.1,0,2,0.9,2,2v14c0,1.1-0.9,2-2,2h-6c-1.1,0-2-0.9-2-2v-14c0-1.1,0.9-2,2-2H277z"/>
	<line class="st0" x1="265.8" y1="-73" x2="258" y2="-73"/>
	<line class="st0" x1="266" y1="-95" x2="258" y2="-95"/>
	<line class="st0" x1="265" y1="-91" x2="258" y2="-91"/>
	<line class="st0" x1="265" y1="-87" x2="258" y2="-87"/>
	<circle class="st0" cx="274" cy="-82" r="1"/>
</g>
<text transform="matrix(1 0 0 1 -134 94)" style="font-family:'Roboto-Bold'; font-size:20px;">Prototyping</text>
<text transform="matrix(1 0 0 1 -248 94)" style="font-family:'Roboto-Bold'; font-size:20px;">Concept</text>
<g>
	<text transform="matrix(1 0 0 1 -604 39)" style="font-family:'Roboto-Light'; font-size:20px;">Web Design</text>
</g>
<text transform="matrix(1 0 0 1 106 94)" style="font-family:'Roboto-Bold'; font-size:20px;">Testing</text>
<text transform="matrix(1 0 0 1 226 94)" style="font-family:'Roboto-Bold'; font-size:20px;">Finish </text>
<g>
	<path class="st0" d="M261,57c0,1.1-0.9,2-2,2h-34c-1.1,0-2-0.9-2-2V39c0-1.1,0.9-2,2-2h34c1.1,0,2,0.9,2,2V57z"/>
	<path class="st0" d="M281,37V3c0-1.1-0.9-2-2-2h-38c-1.1,0-2,0.9-2,2v30"/>
	<circle class="st0" cx="250" cy="12" r="3"/>
	<circle class="st0" cx="232" cy="46" r="3"/>
	<line class="st0" x1="263" y1="9" x2="271" y2="9"/>
	<line class="st0" x1="263" y1="13" x2="273" y2="13"/>
	<line class="st0" x1="247" y1="23" x2="255" y2="23"/>
	<line class="st0" x1="247" y1="29" x2="261" y2="29"/>
	<line class="st0" x1="247" y1="33" x2="255" y2="33"/>
	<line class="st0" x1="265" y1="29" x2="273" y2="29"/>
	<line class="st0" x1="259" y1="33" x2="271" y2="33"/>
	<line class="st0" x1="241" y1="43" x2="247" y2="43"/>
	<line class="st0" x1="241" y1="47" x2="249" y2="47"/>
	<line class="st0" x1="241" y1="53" x2="255" y2="53"/>
	<path class="st0" d="M284,41c1.1,0,2,0.9,2,2v14c0,1.1-0.9,2-2,2h-6c-1.1,0-2-0.9-2-2V43c0-1.1,0.9-2,2-2H284z"/>
	<line class="st0" x1="272.8" y1="59" x2="265" y2="59"/>
	<line class="st0" x1="273" y1="37" x2="265" y2="37"/>
	<line class="st0" x1="272" y1="41" x2="265" y2="41"/>
	<line class="st0" x1="272" y1="45" x2="265" y2="45"/>
	<circle class="st0" cx="281" cy="50" r="1"/>
</g>
<g>
	<line class="st0" x1="-225" y1="59" x2="-225" y2="47"/>
	<path class="st0" d="M-229,57v-3c0,0,0-3-2-5s-5-2-5-2h-3v3c0,0,0,3,2,5s5,2,5,2H-229z"/>
	<path class="st0" d="M-221,57v-3c0,0,0-3,2-5s5-2,5-2h3v3c0,0,0,3-2,5s-5,2-5,2H-221z"/>
	<path class="st0" d="M-210,16c0-8.3-6.7-15-15-15s-15,6.7-15,15c0,6,6,10.7,7,15l1,4h14l1-4C-216,26.7-210,22-210,16z"/>
	<line class="st0" x1="-230" y1="39" x2="-220" y2="39"/>
	<line class="st0" x1="-228" y1="43" x2="-222" y2="43"/>
	<path class="st0" d="M-227,31l-3-14c0,0,3,2,5,2s5-2,5-2l-3,14"/>
	<path class="st0" d="M-218,7.5c-1.2-1-2.5-1.7-4-2.1c-0.6-0.2-1.2-0.3-1.8-0.3"/>
	<path class="st0" d="M-214.4,13c-0.2-0.7-0.5-1.4-0.8-2"/>
	<line class="st0" x1="-246" y1="16" x2="-250" y2="16"/>
	<line class="st0" x1="-200" y1="16" x2="-204" y2="16"/>
	<line class="st0" x1="-203.3" y1="3.5" x2="-206.8" y2="5.5"/>
	<line class="st0" x1="-203.3" y1="28.5" x2="-206.8" y2="26.5"/>
	<line class="st0" x1="-243.2" y1="5.5" x2="-246.7" y2="3.5"/>
	<line class="st0" x1="-243.2" y1="26.5" x2="-246.7" y2="28.5"/>
</g>
<g>
	<path class="st0" d="M-126,6c0,0.6-0.4,1-1,1l0,0c-0.6,0-1-0.4-1-1l0,0c0-0.6,0.4-1,1-1l0,0C-126.4,5-126,5.4-126,6L-126,6z"/>
	<path class="st0" d="M-120,6c0,0.6-0.4,1-1,1l0,0c-0.6,0-1-0.4-1-1l0,0c0-0.6,0.4-1,1-1l0,0C-120.4,5-120,5.4-120,6L-120,6z"/>
	<path class="st0" d="M-114,6c0,0.6-0.4,1-1,1l0,0c-0.6,0-1-0.4-1-1l0,0c0-0.6,0.4-1,1-1l0,0C-114.4,5-114,5.4-114,6L-114,6z"/>
	<path class="st0" d="M-82,54.9c2.7-2.7,2.7-7.2,0-9.9c-2.7-2.7-7.2-2.7-9.9,0c-4,4-4,13.9-4,13.9S-86,59-82,54.9z"/>
	<line class="st0" x1="-80" y1="39" x2="-84.5" y2="43.5"/>
	<line class="st0" x1="-76" y1="43" x2="-80.4" y2="47.4"/>
	<path class="st0" d="M-84.2,51c0.4-1.1,0.1-2.3-0.7-3.1"/>
	<rect x="-130" y="15" class="st0" width="10" height="16"/>
	<rect x="-116" y="15" class="st0" width="36" height="10"/>
	<polyline class="st0" points="-130,55 -130,35 -120,35 -120,55 	"/>
	<polyline class="st0" points="-86,39 -86,29 -80,29 -80,35 	"/>
	<polyline class="st0" points="-116,55 -116,29 -90,29 -90,39 	"/>
	<path class="st0" d="M-100,59h-30c-2.2,0-4-1.8-4-4V15"/>
	<path class="st0" d="M-80,11h-54V5c0-2.2,1.8-4,4-4h50c2.2,0,4,1.8,4,4v34"/>
</g>
<g>
	<circle class="st0" cx="136" cy="40" r="1"/>
	<path class="st0" d="M137,31l-7.6-12.2c-0.7-1.3-0.5-2.7,0.7-3.5c1.3-0.7,2.4-0.1,3.3,1.1l7.7,10.7c-0.7-1.3-0.3-2.9,1-3.6
		c1.3-0.7,2.9-0.3,3.6,1l0.7,1.1c-0.7-1.3-0.3-2.9,1-3.6c1.3-0.7,2.9-0.3,3.6,1l1,1.7c-0.5-0.9-0.2-2.2,0.7-2.7
		c0.9-0.5,2.2-0.1,2.7,0.7c0,0,3.7,5.2,5.7,12.2h-54v6c0,2.3,1.8,4,4,4h50c2.3,0,4-1.7,4-4V5c0-2.2-1.8-4-4-4h-50
		c-2.2,0-3.9,1.9-4,4v26"/>
	<line class="st0" x1="131" y1="7" x2="131" y2="11"/>
	<line class="st0" x1="138.1" y1="9.9" x2="135.2" y2="12.8"/>
	<line class="st0" x1="123.9" y1="9.9" x2="126.8" y2="12.8"/>
	<line class="st0" x1="121" y1="17" x2="125" y2="17"/>
	<line class="st0" x1="123.9" y1="24.1" x2="126.8" y2="21.2"/>
	<path class="st0" d="M141,49v6h4c2,0,4,2,4,4h-26c0-2,2-4,4-4h10"/>
	<line class="st0" x1="131" y1="55" x2="131" y2="49"/>
</g>
</svg>
