<?xml version="1.0" encoding="utf-8"?>
<!-- Generator: Adobe Illustrator 21.0.2, SVG Export Plug-In . SVG Version: 6.00 Build 0)  -->
<svg version="1.1" id="Layer_1" xmlns="http://www.w3.org/2000/svg" xmlns:xlink="http://www.w3.org/1999/xlink" x="0px" y="0px"
	 viewBox="0 0 65 60" style="enable-background:new 0 0 65 60;" xml:space="preserve">
<style type="text/css">
	.st0{fill:none;stroke:#000000;stroke-width:2;stroke-linecap:round;stroke-linejoin:round;stroke-miterlimit:10;}
	.st1{fill:none;stroke:#000000;stroke-linecap:round;stroke-linejoin:round;stroke-miterlimit:10;}
</style>
<g>
	<path class="st0" d="M-461-270h-6c-2,0-4,2-4,4v26"/>
	<path class="st0" d="M-417-236h-54v6c0,2,2,4,4,4h50c2,0,4-2,4-4v-36c0-2-2-4-4-4h-10"/>
	<circle class="st0" cx="-442" cy="-231" r="1"/>
	<line class="st0" x1="-467" y1="-212" x2="-431" y2="-212"/>
	<line class="st0" x1="-457" y1="-214" x2="-457" y2="-212"/>
	<line class="st0" x1="-453" y1="-214" x2="-453" y2="-212"/>
	<line class="st0" x1="-449" y1="-214" x2="-449" y2="-212"/>
	<line class="st0" x1="-445" y1="-214" x2="-445" y2="-212"/>
	<line class="st0" x1="-447" y1="-222" x2="-447" y2="-218"/>
	<line class="st0" x1="-437" y1="-222" x2="-437" y2="-218"/>
	<line class="st0" x1="-437" y1="-214" x2="-437" y2="-212"/>
	<line class="st0" x1="-441" y1="-214" x2="-441" y2="-212"/>
	<line class="st0" x1="-433" y1="-214" x2="-433" y2="-212"/>
	<line class="st0" x1="-461" y1="-214" x2="-461" y2="-212"/>
	<line class="st0" x1="-465" y1="-214" x2="-465" y2="-212"/>
	<path class="st0" d="M-417-212v-1c0-1.7-1.3-3-3-3h-2c-1.7,0-3,1.3-3,3v1H-417z"/>
	<line class="st0" x1="-451" y1="-264" x2="-457" y2="-264"/>
	<line class="st0" x1="-455" y1="-260" x2="-457" y2="-260"/>
	<line class="st0" x1="-455" y1="-256" x2="-457" y2="-256"/>
	<line class="st0" x1="-451" y1="-252" x2="-457" y2="-252"/>
	<polyline class="st0" points="-437,-240 -437,-262 -432,-270 -427,-262 -433,-262 	"/>
	<polyline class="st0" points="-451,-240 -457,-240 -457,-270 -441,-270 -441,-240 	"/>
	<line class="st0" x1="-455" y1="-248" x2="-457" y2="-248"/>
	<line class="st0" x1="-455" y1="-244" x2="-457" y2="-244"/>
	<line class="st0" x1="-427" y1="-258" x2="-427" y2="-240"/>
	<line class="st0" x1="-432" y1="-240" x2="-432" y2="-258"/>
</g>
<g>
	<line class="st0" x1="-351" y1="-225" x2="-305" y2="-225"/>
	<line class="st0" x1="-321" y1="-241" x2="-321" y2="-225"/>
	<path class="st0" d="M-337-254h38v38c0,2.2-1.8,4-4,4h-50c-2.2,0-4-1.8-4-4v-46h10l6,8l-6,8h-6"/>
	<line class="st0" x1="-341" y1="-246" x2="-299" y2="-246"/>
	<line class="st0" x1="-331" y1="-254" x2="-337" y2="-246"/>
	<line class="st0" x1="-322" y1="-254" x2="-328" y2="-246"/>
	<line class="st0" x1="-313" y1="-254" x2="-319" y2="-246"/>
	<line class="st0" x1="-304" y1="-254" x2="-310" y2="-246"/>
	<polyline class="st0" points="-337,-255.8 -299.6,-262 -300.9,-270 -342.7,-263.1 	"/>
	<line class="st0" x1="-337.9" y1="-263.8" x2="-332.4" y2="-256.6"/>
	<line class="st0" x1="-328.5" y1="-265.3" x2="-323.1" y2="-258.1"/>
	<line class="st0" x1="-319.8" y1="-266.8" x2="-314.5" y2="-259.6"/>
	<line class="st0" x1="-310.5" y1="-268.3" x2="-305.1" y2="-261.2"/>
</g>
<text transform="matrix(1 0 0 1 -471 -177)" style="font-family:'Roboto-Bold'; font-size:20px;">Design</text>
<g>
	<path class="st0" d="M-211,1h-6c-2,0-4,2-4,4v26"/>
	<path class="st0" d="M-167,35h-54v6c0,2,2,4,4,4h50c2,0,4-2,4-4V5c0-2-2-4-4-4h-10"/>
	<circle class="st0" cx="-192" cy="40" r="1"/>
	<line class="st0" x1="-217" y1="59" x2="-181" y2="59"/>
	<line class="st0" x1="-207" y1="57" x2="-207" y2="59"/>
	<line class="st0" x1="-203" y1="57" x2="-203" y2="59"/>
	<line class="st0" x1="-199" y1="57" x2="-199" y2="59"/>
	<line class="st0" x1="-195" y1="57" x2="-195" y2="59"/>
	<line class="st0" x1="-197" y1="49" x2="-197" y2="53"/>
	<line class="st0" x1="-187" y1="49" x2="-187" y2="53"/>
	<line class="st0" x1="-187" y1="57" x2="-187" y2="59"/>
	<line class="st0" x1="-191" y1="57" x2="-191" y2="59"/>
	<line class="st0" x1="-183" y1="57" x2="-183" y2="59"/>
	<line class="st0" x1="-211" y1="57" x2="-211" y2="59"/>
	<line class="st0" x1="-215" y1="57" x2="-215" y2="59"/>
	<path class="st0" d="M-167,59v-1c0-1.7-1.3-3-3-3h-2c-1.7,0-3,1.3-3,3v1H-167z"/>
	<line class="st0" x1="-201" y1="7" x2="-207" y2="7"/>
	<line class="st0" x1="-205" y1="11" x2="-207" y2="11"/>
	<line class="st0" x1="-205" y1="15" x2="-207" y2="15"/>
	<line class="st0" x1="-201" y1="19" x2="-207" y2="19"/>
	<polyline class="st0" points="-187,31 -187,9 -182,1 -177,9 -183,9 	"/>
	<polyline class="st0" points="-201,31 -207,31 -207,1 -191,1 -191,31 	"/>
	<line class="st0" x1="-205" y1="23" x2="-207" y2="23"/>
	<line class="st0" x1="-205" y1="27" x2="-207" y2="27"/>
	<line class="st0" x1="-177" y1="13" x2="-177" y2="31"/>
	<line class="st0" x1="-182" y1="31" x2="-182" y2="13"/>
</g>
<text transform="matrix(1 0 0 1 -221 94)" style="font-family:'Roboto-Bold'; font-size:20px;">Design</text>
<text transform="matrix(1 0 0 1 -585 -177)" style="font-family:'Roboto-Bold'; font-size:20px;">Start</text>
<g>
	<text transform="matrix(1 0 0 1 -823 -233)" style="font-family:'Roboto-Light'; font-size:20px;">HTML5 Banners</text>
</g>
<g>
	<path class="st0" d="M-550-265v5c0,2.2,1.8,4,4,4h10v40c0,2.2-1.8,4-4,4h-42c-2.2,0-4-1.8-4-4v-50c0-2.2,1.8-4,4-4"/>
	<circle class="st0" cx="-573" cy="-259" r="7"/>
	<circle class="st0" cx="-573" cy="-241" r="7"/>
	<line class="st0" x1="-578" y1="-232" x2="-578" y2="-236"/>
	<polyline class="st0" points="-578,-264 -578,-270 -550,-270 -540,-260 	"/>
	<path class="st0" d="M-578-254c0,0-2,1-2,4s2,4,2,4"/>
	<path class="st0" d="M-570.3-260.3c-0.3-0.6-0.8-1.1-1.4-1.4"/>
	<path class="st0" d="M-570.3-242.3c-0.3-0.6-0.8-1.1-1.4-1.4"/>
	<line class="st0" x1="-558" y1="-246" x2="-562" y2="-246"/>
	<line class="st0" x1="-554" y1="-246" x2="-546" y2="-246"/>
	<line class="st0" x1="-561" y1="-240" x2="-556" y2="-240"/>
	<line class="st0" x1="-552" y1="-240" x2="-548" y2="-240"/>
	<line class="st0" x1="-576" y1="-228" x2="-570" y2="-228"/>
	<line class="st0" x1="-552" y1="-228" x2="-546" y2="-228"/>
	<line class="st0" x1="-566" y1="-228" x2="-556" y2="-228"/>
	<line class="st0" x1="-563" y1="-234" x2="-548" y2="-234"/>
	<line class="st0" x1="-576" y1="-222" x2="-564" y2="-222"/>
	<line class="st0" x1="-560" y1="-222" x2="-550" y2="-222"/>
</g>
<text transform="matrix(1 0 0 1 -231 -177)" style="font-family:'Roboto-Bold'; font-size:20px;">Resize</text>
<text transform="matrix(1 0 0 1 -355 -177)" style="font-family:'Roboto-Bold'; font-size:20px;">Animation</text>
<g>
	<path class="st0" d="M-106-270h-6c-2,0-4,2-4,4v26"/>
	<path class="st0" d="M-62-236h-54v6c0,2,2,4,4,4h50c2,0,4-2,4-4v-36c0-2-2-4-4-4h-10"/>
	<circle class="st0" cx="-87" cy="-231" r="1"/>
	<line class="st0" x1="-112" y1="-212" x2="-76" y2="-212"/>
	<line class="st0" x1="-102" y1="-214" x2="-102" y2="-212"/>
	<line class="st0" x1="-98" y1="-214" x2="-98" y2="-212"/>
	<line class="st0" x1="-94" y1="-214" x2="-94" y2="-212"/>
	<line class="st0" x1="-90" y1="-214" x2="-90" y2="-212"/>
	<line class="st0" x1="-92" y1="-222" x2="-92" y2="-218"/>
	<line class="st0" x1="-82" y1="-222" x2="-82" y2="-218"/>
	<line class="st0" x1="-82" y1="-214" x2="-82" y2="-212"/>
	<line class="st0" x1="-86" y1="-214" x2="-86" y2="-212"/>
	<line class="st0" x1="-78" y1="-214" x2="-78" y2="-212"/>
	<line class="st0" x1="-106" y1="-214" x2="-106" y2="-212"/>
	<line class="st0" x1="-110" y1="-214" x2="-110" y2="-212"/>
	<path class="st0" d="M-62-212v-1c0-1.7-1.3-3-3-3h-2c-1.7,0-3,1.3-3,3v1H-62z"/>
	<line class="st0" x1="-96" y1="-264" x2="-102" y2="-264"/>
	<line class="st0" x1="-100" y1="-260" x2="-102" y2="-260"/>
	<line class="st0" x1="-100" y1="-256" x2="-102" y2="-256"/>
	<line class="st0" x1="-96" y1="-252" x2="-102" y2="-252"/>
	<polyline class="st0" points="-82,-240 -82,-262 -77,-270 -72,-262 -78,-262 	"/>
	<polyline class="st0" points="-96,-240 -102,-240 -102,-270 -86,-270 -86,-240 	"/>
	<line class="st0" x1="-100" y1="-248" x2="-102" y2="-248"/>
	<line class="st0" x1="-100" y1="-244" x2="-102" y2="-244"/>
	<line class="st0" x1="-72" y1="-258" x2="-72" y2="-240"/>
	<line class="st0" x1="-77" y1="-240" x2="-77" y2="-258"/>
</g>
<text transform="matrix(1 0 0 1 -116 -177)" style="font-family:'Roboto-Bold'; font-size:20px;">Design</text>
<text transform="matrix(1 0 0 1 143 -177)" style="font-family:'Roboto-Bold'; font-size:20px;">Finish </text>
<text transform="matrix(1 0 0 1 0 -177)" style="font-family:'Roboto-Bold'; font-size:20px;">Optimization </text>
<g>
	<g>
		<polyline class="st0" points="-201,-230.4 -228,-230.4 -218.7,-239.7 -214.5,-235.4 -206.9,-243 -201,-237.1 		"/>
		<circle class="st0" cx="-220" cy="-251.4" r="3.3"/>
		<line class="st0" x1="-220" y1="-258" x2="-220" y2="-254.7"/>
		<line class="st0" x1="-225.6" y1="-254.7" x2="-222.8" y2="-253.1"/>
		<line class="st0" x1="-225.6" y1="-248.2" x2="-222.8" y2="-249.8"/>
		<line class="st0" x1="-220" y1="-244.9" x2="-220" y2="-248.2"/>
		<line class="st0" x1="-214.3" y1="-248.2" x2="-217.1" y2="-249.8"/>
		<line class="st0" x1="-214.3" y1="-254.7" x2="-217.1" y2="-253.1"/>
	</g>
	<g>
		<polyline class="st0" points="-170,-241 -191.3,-241 -184,-248.3 -180.7,-245 -174.7,-251 -170,-246.3 		"/>
		<circle class="st0" cx="-183.3" cy="-258.5" r="2.7"/>
		<line class="st0" x1="-183.3" y1="-264" x2="-183.3" y2="-261.3"/>
		<line class="st0" x1="-188.1" y1="-261.2" x2="-185.7" y2="-259.9"/>
		<line class="st0" x1="-188.1" y1="-255.7" x2="-185.7" y2="-257.1"/>
		<line class="st0" x1="-183.3" y1="-253" x2="-183.3" y2="-255.8"/>
		<line class="st0" x1="-178.5" y1="-255.8" x2="-180.9" y2="-257.1"/>
		<line class="st0" x1="-178.5" y1="-261.3" x2="-180.9" y2="-259.9"/>
	</g>
	<g>
		<polyline class="st0" points="-171.2,-211.3 -190.2,-211.3 -183.6,-217.9 -180.7,-214.9 -175.3,-220.2 -171.2,-216.1 		"/>
		<circle class="st1" cx="-186" cy="-223.9" r="1.2"/>
		<line class="st1" x1="-186" y1="-226.3" x2="-186" y2="-225.1"/>
		<line class="st1" x1="-188" y1="-225.1" x2="-187" y2="-224.5"/>
		<line class="st1" x1="-188" y1="-222.8" x2="-187" y2="-223.3"/>
		<line class="st1" x1="-186" y1="-221.6" x2="-186" y2="-222.8"/>
		<line class="st1" x1="-184" y1="-222.8" x2="-185" y2="-223.3"/>
		<line class="st1" x1="-184" y1="-225.1" x2="-185" y2="-224.5"/>
	</g>
	<path class="st0" d="M-171.4-233h-18.2c-2.4,0-4.4-2-4.4-4.4v-28.2c0-2.4,2-4.4,4.4-4.4h18.2c2.4,0,4.4,2,4.4,4.4v28.2
		C-167-235-169-233-171.4-233z"/>
	<path class="st0" d="M-202.4-211h-24.2c-2.4,0-4.4-2-4.4-4.4v-50.2c0-2.4,2-4.4,4.4-4.4h24.2c2.4,0,4.4,2,4.4,4.4v50.2
		C-198-213-200-211-202.4-211z"/>
	<path class="st0" d="M-171.4-211.3h-18.2c-2.4,0-4.4-2-4.4-4.4v-9.2c0-2.4,2-4.4,4.4-4.4h18.2c2.4,0,4.4,2,4.4,4.4v9.2
		C-167-213.3-169-211.3-171.4-211.3z"/>
</g>
<g>
	<path class="st0" d="M54-246l-5.9-1.3c-0.5-1.7-1.2-3.3-2-4.9l3.2-5.1c0.4-0.6,0.4-1,0-1.4l-5.7-5.7c-0.4-0.4-0.8-0.3-1.4,0
		l-5.1,3.2c-1.5-0.9-3.2-1.5-4.9-2L31-269c-0.2-0.7-0.4-1-1-1h-8c-0.6,0-0.8,0.4-1,1l-1.3,5.9c-1.7,0.5-3.3,1.2-4.9,2l-5.1-3.2
		c-0.6-0.4-1-0.4-1.4,0l-5.7,5.7c-0.4,0.4-0.3,0.8,0,1.4l3.2,5.1c-0.9,1.5-1.5,3.2-2,4.9L-2-246c-0.7,0.2-1,0.4-1,1v8
		c0,0.6,0.4,0.8,1,1l5.9,1.3c0.5,1.7,1.2,3.3,2,4.9l-3.2,5.1c-0.4,0.6-0.4,1,0,1.4l5.7,5.7c0.4,0.4,0.8,0.3,1.4,0l5.1-3.2
		c1.5,0.9,3.2,1.5,4.9,2L21-213c0.2,0.7,0.4,1,1,1l8,0c0.6,0,0.8-0.4,1-1l1.3-5.9c1.7-0.5,3.3-1.2,4.9-2l5.1,3.2
		c0.6,0.4,1,0.4,1.4,0l5.7-5.7c0.4-0.4,0.3-0.8,0-1.4l-3.2-5.1c0.8-1.5,1.5-3.2,2-4.9L54-236c0.7-0.2,1-0.4,1-1v-8
		C55-245.6,54.6-245.8,54-246z"/>
	<path class="st0" d="M30-228.6c5.2-1.7,9-6.6,9-12.4c0-7.2-5.8-13-13-13c-7.2,0-13,5.8-13,13s5.8,13,13,13"/>
	<circle class="st0" cx="26" cy="-241" r="3"/>
</g>
<g>
	<path class="st0" d="M179-265v5c0,2.2,1.8,4,4,4h10v40c0,2.2-1.8,4-4,4h-42c-2.2,0-4-1.8-4-4v-50c0-2.2,1.8-4,4-4h32l10,10"/>
	<circle class="st0" cx="168" cy="-235" r="13"/>
	<polygon class="st0" points="165,-239 165,-231 172,-235 	"/>
</g>
<g>
	<path class="st0" d="M-464-131h-6c-2,0-4,2-4,4v26"/>
	<path class="st0" d="M-420-97h-54v6c0,2,2,4,4,4h50c2,0,4-2,4-4v-36c0-2-2-4-4-4h-10"/>
	<circle class="st0" cx="-445" cy="-92" r="1"/>
	<line class="st0" x1="-470" y1="-73" x2="-434" y2="-73"/>
	<line class="st0" x1="-460" y1="-75" x2="-460" y2="-73"/>
	<line class="st0" x1="-456" y1="-75" x2="-456" y2="-73"/>
	<line class="st0" x1="-452" y1="-75" x2="-452" y2="-73"/>
	<line class="st0" x1="-448" y1="-75" x2="-448" y2="-73"/>
	<line class="st0" x1="-450" y1="-83" x2="-450" y2="-79"/>
	<line class="st0" x1="-440" y1="-83" x2="-440" y2="-79"/>
	<line class="st0" x1="-440" y1="-75" x2="-440" y2="-73"/>
	<line class="st0" x1="-444" y1="-75" x2="-444" y2="-73"/>
	<line class="st0" x1="-436" y1="-75" x2="-436" y2="-73"/>
	<line class="st0" x1="-464" y1="-75" x2="-464" y2="-73"/>
	<line class="st0" x1="-468" y1="-75" x2="-468" y2="-73"/>
	<path class="st0" d="M-420-73v-1c0-1.7-1.3-3-3-3h-2c-1.7,0-3,1.3-3,3v1H-420z"/>
	<line class="st0" x1="-454" y1="-125" x2="-460" y2="-125"/>
	<line class="st0" x1="-458" y1="-121" x2="-460" y2="-121"/>
	<line class="st0" x1="-458" y1="-117" x2="-460" y2="-117"/>
	<line class="st0" x1="-454" y1="-113" x2="-460" y2="-113"/>
	<polyline class="st0" points="-440,-101 -440,-123 -435,-131 -430,-123 -436,-123 	"/>
	<polyline class="st0" points="-454,-101 -460,-101 -460,-131 -444,-131 -444,-101 	"/>
	<line class="st0" x1="-458" y1="-109" x2="-460" y2="-109"/>
	<line class="st0" x1="-458" y1="-105" x2="-460" y2="-105"/>
	<line class="st0" x1="-430" y1="-119" x2="-430" y2="-101"/>
	<line class="st0" x1="-435" y1="-101" x2="-435" y2="-119"/>
</g>
<text transform="matrix(1 0 0 1 -474 -38)" style="font-family:'Roboto-Bold'; font-size:20px;">Design</text>
<text transform="matrix(1 0 0 1 -588 -38)" style="font-family:'Roboto-Bold'; font-size:20px;">Start</text>
<g>
	<text transform="matrix(1 0 0 1 -826 -94)" style="font-family:'Roboto-Light'; font-size:20px;">Web Development</text>
</g>
<g>
	<path class="st0" d="M-553-126v5c0,2.2,1.8,4,4,4h10v40c0,2.2-1.8,4-4,4h-42c-2.2,0-4-1.8-4-4v-50c0-2.2,1.8-4,4-4"/>
	<circle class="st0" cx="-576" cy="-120" r="7"/>
	<circle class="st0" cx="-576" cy="-102" r="7"/>
	<line class="st0" x1="-581" y1="-93" x2="-581" y2="-97"/>
	<polyline class="st0" points="-581,-125 -581,-131 -553,-131 -543,-121 	"/>
	<path class="st0" d="M-581-115c0,0-2,1-2,4s2,4,2,4"/>
	<path class="st0" d="M-573.3-121.3c-0.3-0.6-0.8-1.1-1.4-1.4"/>
	<path class="st0" d="M-573.3-103.3c-0.3-0.6-0.8-1.1-1.4-1.4"/>
	<line class="st0" x1="-561" y1="-107" x2="-565" y2="-107"/>
	<line class="st0" x1="-557" y1="-107" x2="-549" y2="-107"/>
	<line class="st0" x1="-564" y1="-101" x2="-559" y2="-101"/>
	<line class="st0" x1="-555" y1="-101" x2="-551" y2="-101"/>
	<line class="st0" x1="-579" y1="-89" x2="-573" y2="-89"/>
	<line class="st0" x1="-555" y1="-89" x2="-549" y2="-89"/>
	<line class="st0" x1="-569" y1="-89" x2="-559" y2="-89"/>
	<line class="st0" x1="-566" y1="-95" x2="-551" y2="-95"/>
	<line class="st0" x1="-579" y1="-83" x2="-567" y2="-83"/>
	<line class="st0" x1="-563" y1="-83" x2="-553" y2="-83"/>
</g>
<text transform="matrix(1 0 0 1 -588 95)" style="font-family:'Roboto-Bold'; font-size:20px;">Start</text>
<g>
	<path class="st0" d="M-553,7v5c0,2.2,1.8,4,4,4h10v40c0,2.2-1.8,4-4,4h-42c-2.2,0-4-1.8-4-4V6c0-2.2,1.8-4,4-4"/>
	<circle class="st0" cx="-576" cy="13" r="7"/>
	<circle class="st0" cx="-576" cy="31" r="7"/>
	<line class="st0" x1="-581" y1="40" x2="-581" y2="36"/>
	<polyline class="st0" points="-581,8 -581,2 -553,2 -543,12 	"/>
	<path class="st0" d="M-581,18c0,0-2,1-2,4s2,4,2,4"/>
	<path class="st0" d="M-573.3,11.7c-0.3-0.6-0.8-1.1-1.4-1.4"/>
	<path class="st0" d="M-573.3,29.7c-0.3-0.6-0.8-1.1-1.4-1.4"/>
	<line class="st0" x1="-561" y1="26" x2="-565" y2="26"/>
	<line class="st0" x1="-557" y1="26" x2="-549" y2="26"/>
	<line class="st0" x1="-564" y1="32" x2="-559" y2="32"/>
	<line class="st0" x1="-555" y1="32" x2="-551" y2="32"/>
	<line class="st0" x1="-579" y1="44" x2="-573" y2="44"/>
	<line class="st0" x1="-555" y1="44" x2="-549" y2="44"/>
	<line class="st0" x1="-569" y1="44" x2="-559" y2="44"/>
	<line class="st0" x1="-566" y1="38" x2="-551" y2="38"/>
	<line class="st0" x1="-579" y1="50" x2="-567" y2="50"/>
	<line class="st0" x1="-563" y1="50" x2="-553" y2="50"/>
</g>
<text transform="matrix(1 0 0 1 -234 -38)" style="font-family:'Roboto-Bold'; font-size:20px;">Back-end</text>
<text transform="matrix(1 0 0 1 -358 -38)" style="font-family:'Roboto-Bold'; font-size:20px;">Front-end</text>
<text transform="matrix(1 0 0 1 -119 -38)" style="font-family:'Roboto-Bold'; font-size:20px;">QA </text>
<text transform="matrix(1 0 0 1 -3 -38)" style="font-family:'Roboto-Bold'; font-size:20px;">Finish </text>
<g>
	<path class="st0" d="M-319-73h-37c-2.3,0-4-1.8-4-4v-40"/>
	<path class="st0" d="M-352-126c0,0.6-0.4,1-1,1l0,0c-0.6,0-1-0.4-1-1l0,0c0-0.6,0.4-1,1-1l0,0C-352.4-127-352-126.6-352-126
		L-352-126z"/>
	<path class="st0" d="M-346-126c0,0.6-0.4,1-1,1l0,0c-0.6,0-1-0.4-1-1l0,0c0-0.6,0.4-1,1-1l0,0C-346.4-127-346-126.6-346-126
		L-346-126z"/>
	<path class="st0" d="M-340-126c0,0.6-0.4,1-1,1l0,0c-0.6,0-1-0.4-1-1l0,0c0-0.6,0.4-1,1-1l0,0C-340.4-127-340-126.6-340-126
		L-340-126z"/>
	<line class="st0" x1="-354" y1="-115" x2="-346" y2="-115"/>
	<line class="st0" x1="-320" y1="-115" x2="-316" y2="-115"/>
	<line class="st0" x1="-312" y1="-115" x2="-308" y2="-115"/>
	<line class="st0" x1="-328" y1="-115" x2="-324" y2="-115"/>
	<path class="st0" d="M-319-73h13c2.3,0,4-1.8,4-4v-50c0-2.2-1.8-4-4-4h-50c-2.2,0-4,1.8-4,4v6h54"/>
	<g>
		<path d="M-352.3-94.1l11.3-5.5v2.1l-9,4.2v0l9,4.2v2.1l-11.3-5.5V-94.1z"/>
		<path d="M-334.5-86l5.8-17.3h2l-5.8,17.3H-334.5z"/>
		<path d="M-309-92.4l-11.3,5.4v-2.1l9.1-4.2v0l-9.1-4.2v-2.1l11.3,5.4V-92.4z"/>
	</g>
</g>
<g>
	<path class="st0" d="M-72-83l2.8-2.8l7,7c1.6,1.6,1.6,4.1,0,5.7c-1.6,1.6-4.1,1.6-5.7,0L-79.7-85"/>
	<line class="st0" x1="-71.9" y1="-88.6" x2="-74" y2="-90.7"/>
	<circle class="st0" cx="-96" cy="-107" r="23"/>
	<circle class="st0" cx="-96" cy="-107" r="19"/>
	<line class="st0" x1="-103" y1="-116" x2="-91" y2="-116"/>
	<line class="st0" x1="-107" y1="-110" x2="-93" y2="-110"/>
	<line class="st0" x1="-107" y1="-104" x2="-101" y2="-104"/>
	<line class="st0" x1="-105" y1="-98" x2="-97" y2="-98"/>
	<line class="st0" x1="-89" y1="-98" x2="-93" y2="-98"/>
	<line class="st0" x1="-85" y1="-110" x2="-89" y2="-110"/>
	<line class="st0" x1="-85" y1="-104" x2="-97" y2="-104"/>
</g>
<g>
	<path class="st0" d="M-225-126c0,0.6-0.4,1-1,1l0,0c-0.6,0-1-0.4-1-1l0,0c0-0.6,0.4-1,1-1l0,0C-225.4-127-225-126.6-225-126
		L-225-126z"/>
	<path class="st0" d="M-219-126c0,0.6-0.4,1-1,1l0,0c-0.6,0-1-0.4-1-1l0,0c0-0.6,0.4-1,1-1l0,0C-219.4-127-219-126.6-219-126
		L-219-126z"/>
	<path class="st0" d="M-213-126c0,0.6-0.4,1-1,1l0,0c-0.6,0-1-0.4-1-1l0,0c0-0.6,0.4-1,1-1l0,0C-213.4-127-213-126.6-213-126
		L-213-126z"/>
	<line class="st0" x1="-225" y1="-113" x2="-223" y2="-113"/>
	<line class="st0" x1="-225" y1="-109" x2="-223" y2="-109"/>
	<line class="st0" x1="-225" y1="-105" x2="-223" y2="-105"/>
	<line class="st0" x1="-225" y1="-101" x2="-223" y2="-101"/>
	<line class="st0" x1="-225" y1="-97" x2="-223" y2="-97"/>
	<line class="st0" x1="-225" y1="-93" x2="-223" y2="-93"/>
	<line class="st0" x1="-225" y1="-89" x2="-223" y2="-89"/>
	<line class="st0" x1="-225" y1="-85" x2="-223" y2="-85"/>
	<line class="st0" x1="-225" y1="-81" x2="-223" y2="-81"/>
	<line class="st0" x1="-191" y1="-113" x2="-195" y2="-113"/>
	<line class="st0" x1="-189" y1="-109" x2="-199" y2="-109"/>
	<line class="st0" x1="-203" y1="-109" x2="-219" y2="-109"/>
	<line class="st0" x1="-209" y1="-113" x2="-219" y2="-113"/>
	<line class="st0" x1="-199" y1="-113" x2="-205" y2="-113"/>
	<line class="st0" x1="-185" y1="-105" x2="-201" y2="-105"/>
	<line class="st0" x1="-191" y1="-101" x2="-199" y2="-101"/>
	<line class="st0" x1="-203" y1="-101" x2="-219" y2="-101"/>
	<line class="st0" x1="-215" y1="-105" x2="-219" y2="-105"/>
	<line class="st0" x1="-205" y1="-105" x2="-211" y2="-105"/>
	<line class="st0" x1="-198" y1="-89" x2="-201" y2="-89"/>
	<line class="st0" x1="-215" y1="-89" x2="-219" y2="-89"/>
	<line class="st0" x1="-205" y1="-89" x2="-211" y2="-89"/>
	<line class="st0" x1="-207" y1="-85" x2="-219" y2="-85"/>
	<line class="st0" x1="-201" y1="-85" x2="-203" y2="-85"/>
	<line class="st0" x1="-213" y1="-81" x2="-219" y2="-81"/>
	<line class="st0" x1="-199" y1="-81" x2="-209" y2="-81"/>
	<line class="st0" x1="-189" y1="-97" x2="-205" y2="-97"/>
	<line class="st0" x1="-196" y1="-93" x2="-203" y2="-93"/>
	<line class="st0" x1="-207" y1="-93" x2="-219" y2="-93"/>
	<line class="st0" x1="-209" y1="-97" x2="-219" y2="-97"/>
	<path class="st0" d="M-175-81v-4h-2.3c-0.2-0.7-0.5-1.4-0.9-2.1l1.6-1.6l-2.8-2.8l-1.6,1.6c-0.6-0.4-1.3-0.7-2.1-0.9V-93h-4v2.3
		c-0.7,0.2-1.4,0.5-2.1,0.9l-1.6-1.6l-2.8,2.8l1.6,1.6c-0.4,0.6-0.7,1.3-0.9,2.1h-2.3v4h2.3c0.2,0.7,0.5,1.4,0.9,2.1l-1.6,1.6
		l2.8,2.8l1.6-1.6c0.6,0.4,1.3,0.7,2.1,0.9v2.3h4v-2.3c0.7-0.2,1.4-0.5,2.1-0.9l1.6,1.6l2.8-2.8l-1.6-1.6c0.4-0.6,0.7-1.3,0.9-2.1
		H-175z"/>
	<circle class="st0" cx="-185" cy="-83" r="2"/>
	<path class="st0" d="M-195-73h-34c-2.2,0-4-1.8-4-4v-40"/>
	<path class="st0" d="M-179-121h-54v-6c0-2.2,1.8-4,4-4h50c2.2,0,4,1.8,4,4v34"/>
</g>
<g>
	<path class="st0" d="M32-75c0,1.1-0.9,2-2,2H-4c-1.1,0-2-0.9-2-2v-18c0-1.1,0.9-2,2-2h34c1.1,0,2,0.9,2,2V-75z"/>
	<path class="st0" d="M52-95v-34c0-1.1-0.9-2-2-2H12c-1.1,0-2,0.9-2,2v30"/>
	<circle class="st0" cx="21" cy="-120" r="3"/>
	<circle class="st0" cx="3" cy="-86" r="3"/>
	<line class="st0" x1="34" y1="-123" x2="42" y2="-123"/>
	<line class="st0" x1="34" y1="-119" x2="44" y2="-119"/>
	<line class="st0" x1="18" y1="-109" x2="26" y2="-109"/>
	<line class="st0" x1="18" y1="-103" x2="32" y2="-103"/>
	<line class="st0" x1="18" y1="-99" x2="26" y2="-99"/>
	<line class="st0" x1="36" y1="-103" x2="44" y2="-103"/>
	<line class="st0" x1="30" y1="-99" x2="42" y2="-99"/>
	<line class="st0" x1="12" y1="-89" x2="18" y2="-89"/>
	<line class="st0" x1="12" y1="-85" x2="20" y2="-85"/>
	<line class="st0" x1="12" y1="-79" x2="26" y2="-79"/>
	<path class="st0" d="M55-91c1.1,0,2,0.9,2,2v14c0,1.1-0.9,2-2,2h-6c-1.1,0-2-0.9-2-2v-14c0-1.1,0.9-2,2-2H55z"/>
	<line class="st0" x1="43.8" y1="-73" x2="36" y2="-73"/>
	<line class="st0" x1="44" y1="-95" x2="36" y2="-95"/>
	<line class="st0" x1="43" y1="-91" x2="36" y2="-91"/>
	<line class="st0" x1="43" y1="-87" x2="36" y2="-87"/>
	<circle class="st0" cx="52" cy="-82" r="1"/>
</g>
<text transform="matrix(1 0 0 1 -356 94)" style="font-family:'Roboto-Bold'; font-size:20px;">Prototyping</text>
<text transform="matrix(1 0 0 1 -470 94)" style="font-family:'Roboto-Bold'; font-size:20px;">Concept</text>
<g>
	<text transform="matrix(1 0 0 1 -826 39)" style="font-family:'Roboto-Light'; font-size:20px;">Web Design</text>
</g>
<text transform="matrix(1 0 0 1 -116 94)" style="font-family:'Roboto-Bold'; font-size:20px;">Testing</text>
<text transform="matrix(1 0 0 1 4 94)" style="font-family:'Roboto-Bold'; font-size:20px;">Finish </text>
<g>
	<path class="st0" d="M39,57c0,1.1-0.9,2-2,2H3c-1.1,0-2-0.9-2-2V39c0-1.1,0.9-2,2-2h34c1.1,0,2,0.9,2,2V57z"/>
	<path class="st0" d="M59,37V3c0-1.1-0.9-2-2-2H19c-1.1,0-2,0.9-2,2v30"/>
	<circle class="st0" cx="28" cy="12" r="3"/>
	<circle class="st0" cx="10" cy="46" r="3"/>
	<line class="st0" x1="41" y1="9" x2="49" y2="9"/>
	<line class="st0" x1="41" y1="13" x2="51" y2="13"/>
	<line class="st0" x1="25" y1="23" x2="33" y2="23"/>
	<line class="st0" x1="25" y1="29" x2="39" y2="29"/>
	<line class="st0" x1="25" y1="33" x2="33" y2="33"/>
	<line class="st0" x1="43" y1="29" x2="51" y2="29"/>
	<line class="st0" x1="37" y1="33" x2="49" y2="33"/>
	<line class="st0" x1="19" y1="43" x2="25" y2="43"/>
	<line class="st0" x1="19" y1="47" x2="27" y2="47"/>
	<line class="st0" x1="19" y1="53" x2="33" y2="53"/>
	<path class="st0" d="M62,41c1.1,0,2,0.9,2,2v14c0,1.1-0.9,2-2,2h-6c-1.1,0-2-0.9-2-2V43c0-1.1,0.9-2,2-2H62z"/>
	<line class="st0" x1="50.8" y1="59" x2="43" y2="59"/>
	<line class="st0" x1="51" y1="37" x2="43" y2="37"/>
	<line class="st0" x1="50" y1="41" x2="43" y2="41"/>
	<line class="st0" x1="50" y1="45" x2="43" y2="45"/>
	<circle class="st0" cx="59" cy="50" r="1"/>
</g>
<g>
	<line class="st0" x1="-447" y1="59" x2="-447" y2="47"/>
	<path class="st0" d="M-451,57v-3c0,0,0-3-2-5s-5-2-5-2h-3v3c0,0,0,3,2,5s5,2,5,2H-451z"/>
	<path class="st0" d="M-443,57v-3c0,0,0-3,2-5s5-2,5-2h3v3c0,0,0,3-2,5s-5,2-5,2H-443z"/>
	<path class="st0" d="M-432,16c0-8.3-6.7-15-15-15c-8.3,0-15,6.7-15,15c0,6,6,10.7,7,15l1,4h14l1-4C-438,26.7-432,22-432,16z"/>
	<line class="st0" x1="-452" y1="39" x2="-442" y2="39"/>
	<line class="st0" x1="-450" y1="43" x2="-444" y2="43"/>
	<path class="st0" d="M-449,31l-3-14c0,0,3,2,5,2s5-2,5-2l-3,14"/>
	<path class="st0" d="M-440,7.5c-1.2-1-2.5-1.7-4-2.1c-0.6-0.2-1.2-0.3-1.8-0.3"/>
	<path class="st0" d="M-436.4,13c-0.2-0.7-0.5-1.4-0.8-2"/>
	<line class="st0" x1="-468" y1="16" x2="-472" y2="16"/>
	<line class="st0" x1="-422" y1="16" x2="-426" y2="16"/>
	<line class="st0" x1="-425.3" y1="3.5" x2="-428.8" y2="5.5"/>
	<line class="st0" x1="-425.3" y1="28.5" x2="-428.8" y2="26.5"/>
	<line class="st0" x1="-465.2" y1="5.5" x2="-468.7" y2="3.5"/>
	<line class="st0" x1="-465.2" y1="26.5" x2="-468.7" y2="28.5"/>
</g>
<g>
	<path class="st0" d="M-348,6c0,0.6-0.4,1-1,1l0,0c-0.6,0-1-0.4-1-1l0,0c0-0.6,0.4-1,1-1l0,0C-348.4,5-348,5.4-348,6L-348,6z"/>
	<path class="st0" d="M-342,6c0,0.6-0.4,1-1,1l0,0c-0.6,0-1-0.4-1-1l0,0c0-0.6,0.4-1,1-1l0,0C-342.4,5-342,5.4-342,6L-342,6z"/>
	<path class="st0" d="M-336,6c0,0.6-0.4,1-1,1l0,0c-0.6,0-1-0.4-1-1l0,0c0-0.6,0.4-1,1-1l0,0C-336.4,5-336,5.4-336,6L-336,6z"/>
	<path class="st0" d="M-304,54.9c2.7-2.7,2.7-7.2,0-9.9c-2.7-2.7-7.2-2.7-9.9,0c-4,4-4,13.9-4,13.9S-308,59-304,54.9z"/>
	<line class="st0" x1="-302" y1="39" x2="-306.5" y2="43.5"/>
	<line class="st0" x1="-298" y1="43" x2="-302.4" y2="47.4"/>
	<path class="st0" d="M-306.2,51c0.4-1.1,0.1-2.3-0.7-3.1"/>
	<rect x="-352" y="15" class="st0" width="10" height="16"/>
	<rect x="-338" y="15" class="st0" width="36" height="10"/>
	<polyline class="st0" points="-352,55 -352,35 -342,35 -342,55 	"/>
	<polyline class="st0" points="-308,39 -308,29 -302,29 -302,35 	"/>
	<polyline class="st0" points="-338,55 -338,29 -312,29 -312,39 	"/>
	<path class="st0" d="M-322,59h-30c-2.2,0-4-1.8-4-4V15"/>
	<path class="st0" d="M-302,11h-54V5c0-2.2,1.8-4,4-4h50c2.2,0,4,1.8,4,4v34"/>
</g>
<g>
	<circle class="st0" cx="-86" cy="40" r="1"/>
	<path class="st0" d="M-85,31l-7.6-12.2c-0.7-1.3-0.5-2.7,0.7-3.5c1.3-0.7,2.4-0.1,3.3,1.1l7.7,10.7c-0.7-1.3-0.3-2.9,1-3.6
		c1.3-0.7,2.9-0.3,3.6,1l0.7,1.1c-0.7-1.3-0.3-2.9,1-3.6c1.3-0.7,2.9-0.3,3.6,1l1,1.7c-0.5-0.9-0.2-2.2,0.7-2.7
		c0.9-0.5,2.2-0.1,2.7,0.7c0,0,3.7,5.2,5.7,12.2h-54v6c0,2.3,1.8,4,4,4h50c2.3,0,4-1.7,4-4V5c0-2.2-1.8-4-4-4h-50
		c-2.2,0-3.9,1.9-4,4v26"/>
	<line class="st0" x1="-91" y1="7" x2="-91" y2="11"/>
	<line class="st0" x1="-83.9" y1="9.9" x2="-86.8" y2="12.8"/>
	<line class="st0" x1="-98.1" y1="9.9" x2="-95.2" y2="12.8"/>
	<line class="st0" x1="-101" y1="17" x2="-97" y2="17"/>
	<line class="st0" x1="-98.1" y1="24.1" x2="-95.2" y2="21.2"/>
	<path class="st0" d="M-81,49v6h4c2,0,4,2,4,4h-26c0-2,2-4,4-4h10"/>
	<line class="st0" x1="-91" y1="55" x2="-91" y2="49"/>
</g>
</svg>
