<?xml version="1.0" encoding="utf-8"?>
<!-- Generator: Adobe Illustrator 21.0.2, SVG Export Plug-In . SVG Version: 6.00 Build 0)  -->
<svg version="1.1" id="Layer_1" xmlns="http://www.w3.org/2000/svg" xmlns:xlink="http://www.w3.org/1999/xlink" x="0px" y="0px"
	 viewBox="0 0 60 60" style="enable-background:new 0 0 60 60;" xml:space="preserve">
<style type="text/css">
	.st0{fill:none;stroke:#000000;stroke-width:2;stroke-linecap:round;stroke-linejoin:round;stroke-miterlimit:10;}
	.st1{fill:none;stroke:#000000;stroke-linecap:round;stroke-linejoin:round;stroke-miterlimit:10;}
</style>
<g>
	<path class="st0" d="M-104-270h-6c-2,0-4,2-4,4v26"/>
	<path class="st0" d="M-60-236h-54v6c0,2,2,4,4,4h50c2,0,4-2,4-4v-36c0-2-2-4-4-4h-10"/>
	<circle class="st0" cx="-85" cy="-231" r="1"/>
	<line class="st0" x1="-110" y1="-212" x2="-74" y2="-212"/>
	<line class="st0" x1="-100" y1="-214" x2="-100" y2="-212"/>
	<line class="st0" x1="-96" y1="-214" x2="-96" y2="-212"/>
	<line class="st0" x1="-92" y1="-214" x2="-92" y2="-212"/>
	<line class="st0" x1="-88" y1="-214" x2="-88" y2="-212"/>
	<line class="st0" x1="-90" y1="-222" x2="-90" y2="-218"/>
	<line class="st0" x1="-80" y1="-222" x2="-80" y2="-218"/>
	<line class="st0" x1="-80" y1="-214" x2="-80" y2="-212"/>
	<line class="st0" x1="-84" y1="-214" x2="-84" y2="-212"/>
	<line class="st0" x1="-76" y1="-214" x2="-76" y2="-212"/>
	<line class="st0" x1="-104" y1="-214" x2="-104" y2="-212"/>
	<line class="st0" x1="-108" y1="-214" x2="-108" y2="-212"/>
	<path class="st0" d="M-60-212v-1c0-1.7-1.3-3-3-3h-2c-1.7,0-3,1.3-3,3v1H-60z"/>
	<line class="st0" x1="-94" y1="-264" x2="-100" y2="-264"/>
	<line class="st0" x1="-98" y1="-260" x2="-100" y2="-260"/>
	<line class="st0" x1="-98" y1="-256" x2="-100" y2="-256"/>
	<line class="st0" x1="-94" y1="-252" x2="-100" y2="-252"/>
	<polyline class="st0" points="-80,-240 -80,-262 -75,-270 -70,-262 -76,-262 	"/>
	<polyline class="st0" points="-94,-240 -100,-240 -100,-270 -84,-270 -84,-240 	"/>
	<line class="st0" x1="-98" y1="-248" x2="-100" y2="-248"/>
	<line class="st0" x1="-98" y1="-244" x2="-100" y2="-244"/>
	<line class="st0" x1="-70" y1="-258" x2="-70" y2="-240"/>
	<line class="st0" x1="-75" y1="-240" x2="-75" y2="-258"/>
</g>
<g>
	<line class="st0" x1="6" y1="-225" x2="52" y2="-225"/>
	<line class="st0" x1="36" y1="-241" x2="36" y2="-225"/>
	<path class="st0" d="M20-254h38v38c0,2.2-1.8,4-4,4H4c-2.2,0-4-1.8-4-4v-46h10l6,8l-6,8H4"/>
	<line class="st0" x1="16" y1="-246" x2="58" y2="-246"/>
	<line class="st0" x1="26" y1="-254" x2="20" y2="-246"/>
	<line class="st0" x1="35" y1="-254" x2="29" y2="-246"/>
	<line class="st0" x1="44" y1="-254" x2="38" y2="-246"/>
	<line class="st0" x1="53" y1="-254" x2="47" y2="-246"/>
	<polyline class="st0" points="20,-255.8 57.4,-262 56.1,-270 14.3,-263.1 	"/>
	<line class="st0" x1="19.1" y1="-263.8" x2="24.6" y2="-256.6"/>
	<line class="st0" x1="28.5" y1="-265.3" x2="33.9" y2="-258.1"/>
	<line class="st0" x1="37.2" y1="-266.8" x2="42.5" y2="-259.6"/>
	<line class="st0" x1="46.5" y1="-268.3" x2="51.9" y2="-261.2"/>
</g>
<text transform="matrix(1 0 0 1 -114 -177)" style="font-family:'Roboto-Bold'; font-size:20px;">Design</text>
<g>
	<path class="st0" d="M146,1h-6c-2,0-4,2-4,4v26"/>
	<path class="st0" d="M190,35h-54v6c0,2,2,4,4,4h50c2,0,4-2,4-4V5c0-2-2-4-4-4h-10"/>
	<circle class="st0" cx="165" cy="40" r="1"/>
	<line class="st0" x1="140" y1="59" x2="176" y2="59"/>
	<line class="st0" x1="150" y1="57" x2="150" y2="59"/>
	<line class="st0" x1="154" y1="57" x2="154" y2="59"/>
	<line class="st0" x1="158" y1="57" x2="158" y2="59"/>
	<line class="st0" x1="162" y1="57" x2="162" y2="59"/>
	<line class="st0" x1="160" y1="49" x2="160" y2="53"/>
	<line class="st0" x1="170" y1="49" x2="170" y2="53"/>
	<line class="st0" x1="170" y1="57" x2="170" y2="59"/>
	<line class="st0" x1="166" y1="57" x2="166" y2="59"/>
	<line class="st0" x1="174" y1="57" x2="174" y2="59"/>
	<line class="st0" x1="146" y1="57" x2="146" y2="59"/>
	<line class="st0" x1="142" y1="57" x2="142" y2="59"/>
	<path class="st0" d="M190,59v-1c0-1.7-1.3-3-3-3h-2c-1.7,0-3,1.3-3,3v1H190z"/>
	<line class="st0" x1="156" y1="7" x2="150" y2="7"/>
	<line class="st0" x1="152" y1="11" x2="150" y2="11"/>
	<line class="st0" x1="152" y1="15" x2="150" y2="15"/>
	<line class="st0" x1="156" y1="19" x2="150" y2="19"/>
	<polyline class="st0" points="170,31 170,9 175,1 180,9 174,9 	"/>
	<polyline class="st0" points="156,31 150,31 150,1 166,1 166,31 	"/>
	<line class="st0" x1="152" y1="23" x2="150" y2="23"/>
	<line class="st0" x1="152" y1="27" x2="150" y2="27"/>
	<line class="st0" x1="180" y1="13" x2="180" y2="31"/>
	<line class="st0" x1="175" y1="31" x2="175" y2="13"/>
</g>
<text transform="matrix(1 0 0 1 136 94)" style="font-family:'Roboto-Bold'; font-size:20px;">Design</text>
<text transform="matrix(1 0 0 1 -228 -177)" style="font-family:'Roboto-Bold'; font-size:20px;">Start</text>
<g>
	<text transform="matrix(1 0 0 1 -466 -233)" style="font-family:'Roboto-Light'; font-size:20px;">HTML5 Banners</text>
</g>
<g>
	<path class="st0" d="M-193-265v5c0,2.2,1.8,4,4,4h10v40c0,2.2-1.8,4-4,4h-42c-2.2,0-4-1.8-4-4v-50c0-2.2,1.8-4,4-4"/>
	<circle class="st0" cx="-216" cy="-259" r="7"/>
	<circle class="st0" cx="-216" cy="-241" r="7"/>
	<line class="st0" x1="-221" y1="-232" x2="-221" y2="-236"/>
	<polyline class="st0" points="-221,-264 -221,-270 -193,-270 -183,-260 	"/>
	<path class="st0" d="M-221-254c0,0-2,1-2,4s2,4,2,4"/>
	<path class="st0" d="M-213.3-260.3c-0.3-0.6-0.8-1.1-1.4-1.4"/>
	<path class="st0" d="M-213.3-242.3c-0.3-0.6-0.8-1.1-1.4-1.4"/>
	<line class="st0" x1="-201" y1="-246" x2="-205" y2="-246"/>
	<line class="st0" x1="-197" y1="-246" x2="-189" y2="-246"/>
	<line class="st0" x1="-204" y1="-240" x2="-199" y2="-240"/>
	<line class="st0" x1="-195" y1="-240" x2="-191" y2="-240"/>
	<line class="st0" x1="-219" y1="-228" x2="-213" y2="-228"/>
	<line class="st0" x1="-195" y1="-228" x2="-189" y2="-228"/>
	<line class="st0" x1="-209" y1="-228" x2="-199" y2="-228"/>
	<line class="st0" x1="-206" y1="-234" x2="-191" y2="-234"/>
	<line class="st0" x1="-219" y1="-222" x2="-207" y2="-222"/>
	<line class="st0" x1="-203" y1="-222" x2="-193" y2="-222"/>
</g>
<text transform="matrix(1 0 0 1 126 -177)" style="font-family:'Roboto-Bold'; font-size:20px;">Resize</text>
<text transform="matrix(1 0 0 1 2 -177)" style="font-family:'Roboto-Bold'; font-size:20px;">Animation</text>
<g>
	<path class="st0" d="M251-270h-6c-2,0-4,2-4,4v26"/>
	<path class="st0" d="M295-236h-54v6c0,2,2,4,4,4h50c2,0,4-2,4-4v-36c0-2-2-4-4-4h-10"/>
	<circle class="st0" cx="270" cy="-231" r="1"/>
	<line class="st0" x1="245" y1="-212" x2="281" y2="-212"/>
	<line class="st0" x1="255" y1="-214" x2="255" y2="-212"/>
	<line class="st0" x1="259" y1="-214" x2="259" y2="-212"/>
	<line class="st0" x1="263" y1="-214" x2="263" y2="-212"/>
	<line class="st0" x1="267" y1="-214" x2="267" y2="-212"/>
	<line class="st0" x1="265" y1="-222" x2="265" y2="-218"/>
	<line class="st0" x1="275" y1="-222" x2="275" y2="-218"/>
	<line class="st0" x1="275" y1="-214" x2="275" y2="-212"/>
	<line class="st0" x1="271" y1="-214" x2="271" y2="-212"/>
	<line class="st0" x1="279" y1="-214" x2="279" y2="-212"/>
	<line class="st0" x1="251" y1="-214" x2="251" y2="-212"/>
	<line class="st0" x1="247" y1="-214" x2="247" y2="-212"/>
	<path class="st0" d="M295-212v-1c0-1.7-1.3-3-3-3h-2c-1.7,0-3,1.3-3,3v1H295z"/>
	<line class="st0" x1="261" y1="-264" x2="255" y2="-264"/>
	<line class="st0" x1="257" y1="-260" x2="255" y2="-260"/>
	<line class="st0" x1="257" y1="-256" x2="255" y2="-256"/>
	<line class="st0" x1="261" y1="-252" x2="255" y2="-252"/>
	<polyline class="st0" points="275,-240 275,-262 280,-270 285,-262 279,-262 	"/>
	<polyline class="st0" points="261,-240 255,-240 255,-270 271,-270 271,-240 	"/>
	<line class="st0" x1="257" y1="-248" x2="255" y2="-248"/>
	<line class="st0" x1="257" y1="-244" x2="255" y2="-244"/>
	<line class="st0" x1="285" y1="-258" x2="285" y2="-240"/>
	<line class="st0" x1="280" y1="-240" x2="280" y2="-258"/>
</g>
<text transform="matrix(1 0 0 1 241 -177)" style="font-family:'Roboto-Bold'; font-size:20px;">Design</text>
<text transform="matrix(1 0 0 1 500 -177)" style="font-family:'Roboto-Bold'; font-size:20px;">Finish </text>
<text transform="matrix(1 0 0 1 357 -177)" style="font-family:'Roboto-Bold'; font-size:20px;">Optimization </text>
<g>
	<g>
		<polyline class="st0" points="156,-230.4 129,-230.4 138.3,-239.7 142.5,-235.4 150.1,-243 156,-237.1 		"/>
		<circle class="st0" cx="137" cy="-251.4" r="3.3"/>
		<line class="st0" x1="137" y1="-258" x2="137" y2="-254.7"/>
		<line class="st0" x1="131.4" y1="-254.7" x2="134.2" y2="-253.1"/>
		<line class="st0" x1="131.4" y1="-248.2" x2="134.2" y2="-249.8"/>
		<line class="st0" x1="137" y1="-244.9" x2="137" y2="-248.2"/>
		<line class="st0" x1="142.7" y1="-248.2" x2="139.9" y2="-249.8"/>
		<line class="st0" x1="142.7" y1="-254.7" x2="139.9" y2="-253.1"/>
	</g>
	<g>
		<polyline class="st0" points="187,-241 165.7,-241 173,-248.3 176.3,-245 182.3,-251 187,-246.3 		"/>
		<circle class="st0" cx="173.7" cy="-258.5" r="2.7"/>
		<line class="st0" x1="173.7" y1="-264" x2="173.7" y2="-261.3"/>
		<line class="st0" x1="168.9" y1="-261.2" x2="171.3" y2="-259.9"/>
		<line class="st0" x1="168.9" y1="-255.7" x2="171.3" y2="-257.1"/>
		<line class="st0" x1="173.7" y1="-253" x2="173.7" y2="-255.8"/>
		<line class="st0" x1="178.5" y1="-255.8" x2="176.1" y2="-257.1"/>
		<line class="st0" x1="178.5" y1="-261.3" x2="176.1" y2="-259.9"/>
	</g>
	<g>
		<polyline class="st0" points="185.8,-211.3 166.8,-211.3 173.4,-217.9 176.3,-214.9 181.7,-220.2 185.8,-216.1 		"/>
		<circle class="st1" cx="171" cy="-223.9" r="1.2"/>
		<line class="st1" x1="171" y1="-226.3" x2="171" y2="-225.1"/>
		<line class="st1" x1="169" y1="-225.1" x2="170" y2="-224.5"/>
		<line class="st1" x1="169" y1="-222.8" x2="170" y2="-223.3"/>
		<line class="st1" x1="171" y1="-221.6" x2="171" y2="-222.8"/>
		<line class="st1" x1="173" y1="-222.8" x2="172" y2="-223.3"/>
		<line class="st1" x1="173" y1="-225.1" x2="172" y2="-224.5"/>
	</g>
	<path class="st0" d="M185.6-233h-18.2c-2.4,0-4.4-2-4.4-4.4v-28.2c0-2.4,2-4.4,4.4-4.4h18.2c2.4,0,4.4,2,4.4,4.4v28.2
		C190-235,188-233,185.6-233z"/>
	<path class="st0" d="M154.6-211h-24.2c-2.4,0-4.4-2-4.4-4.4v-50.2c0-2.4,2-4.4,4.4-4.4h24.2c2.4,0,4.4,2,4.4,4.4v50.2
		C159-213,157-211,154.6-211z"/>
	<path class="st0" d="M185.6-211.3h-18.2c-2.4,0-4.4-2-4.4-4.4v-9.2c0-2.4,2-4.4,4.4-4.4h18.2c2.4,0,4.4,2,4.4,4.4v9.2
		C190-213.3,188-211.3,185.6-211.3z"/>
</g>
<g>
	<path class="st0" d="M411-246l-5.9-1.3c-0.5-1.7-1.2-3.3-2-4.9l3.2-5.1c0.4-0.6,0.4-1,0-1.4l-5.7-5.7c-0.4-0.4-0.8-0.3-1.4,0
		l-5.1,3.2c-1.5-0.9-3.2-1.5-4.9-2L388-269c-0.2-0.7-0.4-1-1-1h-8c-0.6,0-0.8,0.4-1,1l-1.3,5.9c-1.7,0.5-3.3,1.2-4.9,2l-5.1-3.2
		c-0.6-0.4-1-0.4-1.4,0l-5.7,5.7c-0.4,0.4-0.3,0.8,0,1.4l3.2,5.1c-0.9,1.5-1.5,3.2-2,4.9L355-246c-0.7,0.2-1,0.4-1,1v8
		c0,0.6,0.4,0.8,1,1l5.9,1.3c0.5,1.7,1.2,3.3,2,4.9l-3.2,5.1c-0.4,0.6-0.4,1,0,1.4l5.7,5.7c0.4,0.4,0.8,0.3,1.4,0l5.1-3.2
		c1.5,0.9,3.2,1.5,4.9,2l1.3,5.9c0.2,0.7,0.4,1,1,1l8,0c0.6,0,0.8-0.4,1-1l1.3-5.9c1.7-0.5,3.3-1.2,4.9-2l5.1,3.2
		c0.6,0.4,1,0.4,1.4,0l5.7-5.7c0.4-0.4,0.3-0.8,0-1.4l-3.2-5.1c0.8-1.5,1.5-3.2,2-4.9l5.9-1.3c0.7-0.2,1-0.4,1-1v-8
		C412-245.6,411.6-245.8,411-246z"/>
	<path class="st0" d="M387-228.6c5.2-1.7,9-6.6,9-12.4c0-7.2-5.8-13-13-13c-7.2,0-13,5.8-13,13s5.8,13,13,13"/>
	<circle class="st0" cx="383" cy="-241" r="3"/>
</g>
<g>
	<path class="st0" d="M536-265v5c0,2.2,1.8,4,4,4h10v40c0,2.2-1.8,4-4,4h-42c-2.2,0-4-1.8-4-4v-50c0-2.2,1.8-4,4-4h32l10,10"/>
	<circle class="st0" cx="525" cy="-235" r="13"/>
	<polygon class="st0" points="522,-239 522,-231 529,-235 	"/>
</g>
<g>
	<path class="st0" d="M-107-131h-6c-2,0-4,2-4,4v26"/>
	<path class="st0" d="M-63-97h-54v6c0,2,2,4,4,4h50c2,0,4-2,4-4v-36c0-2-2-4-4-4h-10"/>
	<circle class="st0" cx="-88" cy="-92" r="1"/>
	<line class="st0" x1="-113" y1="-73" x2="-77" y2="-73"/>
	<line class="st0" x1="-103" y1="-75" x2="-103" y2="-73"/>
	<line class="st0" x1="-99" y1="-75" x2="-99" y2="-73"/>
	<line class="st0" x1="-95" y1="-75" x2="-95" y2="-73"/>
	<line class="st0" x1="-91" y1="-75" x2="-91" y2="-73"/>
	<line class="st0" x1="-93" y1="-83" x2="-93" y2="-79"/>
	<line class="st0" x1="-83" y1="-83" x2="-83" y2="-79"/>
	<line class="st0" x1="-83" y1="-75" x2="-83" y2="-73"/>
	<line class="st0" x1="-87" y1="-75" x2="-87" y2="-73"/>
	<line class="st0" x1="-79" y1="-75" x2="-79" y2="-73"/>
	<line class="st0" x1="-107" y1="-75" x2="-107" y2="-73"/>
	<line class="st0" x1="-111" y1="-75" x2="-111" y2="-73"/>
	<path class="st0" d="M-63-73v-1c0-1.7-1.3-3-3-3h-2c-1.7,0-3,1.3-3,3v1H-63z"/>
	<line class="st0" x1="-97" y1="-125" x2="-103" y2="-125"/>
	<line class="st0" x1="-101" y1="-121" x2="-103" y2="-121"/>
	<line class="st0" x1="-101" y1="-117" x2="-103" y2="-117"/>
	<line class="st0" x1="-97" y1="-113" x2="-103" y2="-113"/>
	<polyline class="st0" points="-83,-101 -83,-123 -78,-131 -73,-123 -79,-123 	"/>
	<polyline class="st0" points="-97,-101 -103,-101 -103,-131 -87,-131 -87,-101 	"/>
	<line class="st0" x1="-101" y1="-109" x2="-103" y2="-109"/>
	<line class="st0" x1="-101" y1="-105" x2="-103" y2="-105"/>
	<line class="st0" x1="-73" y1="-119" x2="-73" y2="-101"/>
	<line class="st0" x1="-78" y1="-101" x2="-78" y2="-119"/>
</g>
<text transform="matrix(1 0 0 1 -117 -38)" style="font-family:'Roboto-Bold'; font-size:20px;">Design</text>
<text transform="matrix(1 0 0 1 -231 -38)" style="font-family:'Roboto-Bold'; font-size:20px;">Start</text>
<g>
	<text transform="matrix(1 0 0 1 -469 -94)" style="font-family:'Roboto-Light'; font-size:20px;">Web Development</text>
</g>
<g>
	<path class="st0" d="M-196-126v5c0,2.2,1.8,4,4,4h10v40c0,2.2-1.8,4-4,4h-42c-2.2,0-4-1.8-4-4v-50c0-2.2,1.8-4,4-4"/>
	<circle class="st0" cx="-219" cy="-120" r="7"/>
	<circle class="st0" cx="-219" cy="-102" r="7"/>
	<line class="st0" x1="-224" y1="-93" x2="-224" y2="-97"/>
	<polyline class="st0" points="-224,-125 -224,-131 -196,-131 -186,-121 	"/>
	<path class="st0" d="M-224-115c0,0-2,1-2,4s2,4,2,4"/>
	<path class="st0" d="M-216.3-121.3c-0.3-0.6-0.8-1.1-1.4-1.4"/>
	<path class="st0" d="M-216.3-103.3c-0.3-0.6-0.8-1.1-1.4-1.4"/>
	<line class="st0" x1="-204" y1="-107" x2="-208" y2="-107"/>
	<line class="st0" x1="-200" y1="-107" x2="-192" y2="-107"/>
	<line class="st0" x1="-207" y1="-101" x2="-202" y2="-101"/>
	<line class="st0" x1="-198" y1="-101" x2="-194" y2="-101"/>
	<line class="st0" x1="-222" y1="-89" x2="-216" y2="-89"/>
	<line class="st0" x1="-198" y1="-89" x2="-192" y2="-89"/>
	<line class="st0" x1="-212" y1="-89" x2="-202" y2="-89"/>
	<line class="st0" x1="-209" y1="-95" x2="-194" y2="-95"/>
	<line class="st0" x1="-222" y1="-83" x2="-210" y2="-83"/>
	<line class="st0" x1="-206" y1="-83" x2="-196" y2="-83"/>
</g>
<text transform="matrix(1 0 0 1 -231 95)" style="font-family:'Roboto-Bold'; font-size:20px;">Start</text>
<g>
	<path class="st0" d="M-196,7v5c0,2.2,1.8,4,4,4h10v40c0,2.2-1.8,4-4,4h-42c-2.2,0-4-1.8-4-4V6c0-2.2,1.8-4,4-4"/>
	<circle class="st0" cx="-219" cy="13" r="7"/>
	<circle class="st0" cx="-219" cy="31" r="7"/>
	<line class="st0" x1="-224" y1="40" x2="-224" y2="36"/>
	<polyline class="st0" points="-224,8 -224,2 -196,2 -186,12 	"/>
	<path class="st0" d="M-224,18c0,0-2,1-2,4s2,4,2,4"/>
	<path class="st0" d="M-216.3,11.7c-0.3-0.6-0.8-1.1-1.4-1.4"/>
	<path class="st0" d="M-216.3,29.7c-0.3-0.6-0.8-1.1-1.4-1.4"/>
	<line class="st0" x1="-204" y1="26" x2="-208" y2="26"/>
	<line class="st0" x1="-200" y1="26" x2="-192" y2="26"/>
	<line class="st0" x1="-207" y1="32" x2="-202" y2="32"/>
	<line class="st0" x1="-198" y1="32" x2="-194" y2="32"/>
	<line class="st0" x1="-222" y1="44" x2="-216" y2="44"/>
	<line class="st0" x1="-198" y1="44" x2="-192" y2="44"/>
	<line class="st0" x1="-212" y1="44" x2="-202" y2="44"/>
	<line class="st0" x1="-209" y1="38" x2="-194" y2="38"/>
	<line class="st0" x1="-222" y1="50" x2="-210" y2="50"/>
	<line class="st0" x1="-206" y1="50" x2="-196" y2="50"/>
</g>
<text transform="matrix(1 0 0 1 123 -38)" style="font-family:'Roboto-Bold'; font-size:20px;">Back-end</text>
<text transform="matrix(1 0 0 1 -1 -38)" style="font-family:'Roboto-Bold'; font-size:20px;">Front-end</text>
<text transform="matrix(1 0 0 1 238 -38)" style="font-family:'Roboto-Bold'; font-size:20px;">QA </text>
<text transform="matrix(1 0 0 1 354 -38)" style="font-family:'Roboto-Bold'; font-size:20px;">Finish </text>
<g>
	<path class="st0" d="M38-73H1c-2.3,0-4-1.8-4-4v-40"/>
	<path class="st0" d="M5-126c0,0.6-0.4,1-1,1l0,0c-0.6,0-1-0.4-1-1l0,0c0-0.6,0.4-1,1-1l0,0C4.6-127,5-126.6,5-126L5-126z"/>
	<path class="st0" d="M11-126c0,0.6-0.4,1-1,1l0,0c-0.6,0-1-0.4-1-1l0,0c0-0.6,0.4-1,1-1l0,0C10.6-127,11-126.6,11-126L11-126z"/>
	<path class="st0" d="M17-126c0,0.6-0.4,1-1,1l0,0c-0.6,0-1-0.4-1-1l0,0c0-0.6,0.4-1,1-1l0,0C16.6-127,17-126.6,17-126L17-126z"/>
	<line class="st0" x1="3" y1="-115" x2="11" y2="-115"/>
	<line class="st0" x1="37" y1="-115" x2="41" y2="-115"/>
	<line class="st0" x1="45" y1="-115" x2="49" y2="-115"/>
	<line class="st0" x1="29" y1="-115" x2="33" y2="-115"/>
	<path class="st0" d="M38-73h13c2.3,0,4-1.8,4-4v-50c0-2.2-1.8-4-4-4H1c-2.2,0-4,1.8-4,4v6h54"/>
	<g>
		<path d="M4.7-94.1l11.3-5.5v2.1l-9,4.2v0l9,4.2v2.1L4.7-92.4V-94.1z"/>
		<path d="M22.5-86l5.8-17.3h2L24.6-86H22.5z"/>
		<path d="M48-92.4L36.7-87v-2.1l9.1-4.2v0l-9.1-4.2v-2.1L48-94.2V-92.4z"/>
	</g>
</g>
<g>
	<path class="st0" d="M285-83l2.8-2.8l7,7c1.6,1.6,1.6,4.1,0,5.7c-1.6,1.6-4.1,1.6-5.7,0L277.3-85"/>
	<line class="st0" x1="285.1" y1="-88.6" x2="283" y2="-90.7"/>
	<circle class="st0" cx="261" cy="-107" r="23"/>
	<circle class="st0" cx="261" cy="-107" r="19"/>
	<line class="st0" x1="254" y1="-116" x2="266" y2="-116"/>
	<line class="st0" x1="250" y1="-110" x2="264" y2="-110"/>
	<line class="st0" x1="250" y1="-104" x2="256" y2="-104"/>
	<line class="st0" x1="252" y1="-98" x2="260" y2="-98"/>
	<line class="st0" x1="268" y1="-98" x2="264" y2="-98"/>
	<line class="st0" x1="272" y1="-110" x2="268" y2="-110"/>
	<line class="st0" x1="272" y1="-104" x2="260" y2="-104"/>
</g>
<g>
	<path class="st0" d="M132-126c0,0.6-0.4,1-1,1l0,0c-0.6,0-1-0.4-1-1l0,0c0-0.6,0.4-1,1-1l0,0C131.6-127,132-126.6,132-126L132-126z
		"/>
	<path class="st0" d="M138-126c0,0.6-0.4,1-1,1l0,0c-0.6,0-1-0.4-1-1l0,0c0-0.6,0.4-1,1-1l0,0C137.6-127,138-126.6,138-126L138-126z
		"/>
	<path class="st0" d="M144-126c0,0.6-0.4,1-1,1l0,0c-0.6,0-1-0.4-1-1l0,0c0-0.6,0.4-1,1-1l0,0C143.6-127,144-126.6,144-126L144-126z
		"/>
	<line class="st0" x1="132" y1="-113" x2="134" y2="-113"/>
	<line class="st0" x1="132" y1="-109" x2="134" y2="-109"/>
	<line class="st0" x1="132" y1="-105" x2="134" y2="-105"/>
	<line class="st0" x1="132" y1="-101" x2="134" y2="-101"/>
	<line class="st0" x1="132" y1="-97" x2="134" y2="-97"/>
	<line class="st0" x1="132" y1="-93" x2="134" y2="-93"/>
	<line class="st0" x1="132" y1="-89" x2="134" y2="-89"/>
	<line class="st0" x1="132" y1="-85" x2="134" y2="-85"/>
	<line class="st0" x1="132" y1="-81" x2="134" y2="-81"/>
	<line class="st0" x1="166" y1="-113" x2="162" y2="-113"/>
	<line class="st0" x1="168" y1="-109" x2="158" y2="-109"/>
	<line class="st0" x1="154" y1="-109" x2="138" y2="-109"/>
	<line class="st0" x1="148" y1="-113" x2="138" y2="-113"/>
	<line class="st0" x1="158" y1="-113" x2="152" y2="-113"/>
	<line class="st0" x1="172" y1="-105" x2="156" y2="-105"/>
	<line class="st0" x1="166" y1="-101" x2="158" y2="-101"/>
	<line class="st0" x1="154" y1="-101" x2="138" y2="-101"/>
	<line class="st0" x1="142" y1="-105" x2="138" y2="-105"/>
	<line class="st0" x1="152" y1="-105" x2="146" y2="-105"/>
	<line class="st0" x1="159" y1="-89" x2="156" y2="-89"/>
	<line class="st0" x1="142" y1="-89" x2="138" y2="-89"/>
	<line class="st0" x1="152" y1="-89" x2="146" y2="-89"/>
	<line class="st0" x1="150" y1="-85" x2="138" y2="-85"/>
	<line class="st0" x1="156" y1="-85" x2="154" y2="-85"/>
	<line class="st0" x1="144" y1="-81" x2="138" y2="-81"/>
	<line class="st0" x1="158" y1="-81" x2="148" y2="-81"/>
	<line class="st0" x1="168" y1="-97" x2="152" y2="-97"/>
	<line class="st0" x1="161" y1="-93" x2="154" y2="-93"/>
	<line class="st0" x1="150" y1="-93" x2="138" y2="-93"/>
	<line class="st0" x1="148" y1="-97" x2="138" y2="-97"/>
	<path class="st0" d="M182-81v-4h-2.3c-0.2-0.7-0.5-1.4-0.9-2.1l1.6-1.6l-2.8-2.8l-1.6,1.6c-0.6-0.4-1.3-0.7-2.1-0.9V-93h-4v2.3
		c-0.7,0.2-1.4,0.5-2.1,0.9l-1.6-1.6l-2.8,2.8l1.6,1.6c-0.4,0.6-0.7,1.3-0.9,2.1H162v4h2.3c0.2,0.7,0.5,1.4,0.9,2.1l-1.6,1.6
		l2.8,2.8l1.6-1.6c0.6,0.4,1.3,0.7,2.1,0.9v2.3h4v-2.3c0.7-0.2,1.4-0.5,2.1-0.9l1.6,1.6l2.8-2.8l-1.6-1.6c0.4-0.6,0.7-1.3,0.9-2.1
		H182z"/>
	<circle class="st0" cx="172" cy="-83" r="2"/>
	<path class="st0" d="M162-73h-34c-2.2,0-4-1.8-4-4v-40"/>
	<path class="st0" d="M178-121h-54v-6c0-2.2,1.8-4,4-4h50c2.2,0,4,1.8,4,4v34"/>
</g>
<g>
	<path class="st0" d="M389-75c0,1.1-0.9,2-2,2h-34c-1.1,0-2-0.9-2-2v-18c0-1.1,0.9-2,2-2h34c1.1,0,2,0.9,2,2V-75z"/>
	<path class="st0" d="M409-95v-34c0-1.1-0.9-2-2-2h-38c-1.1,0-2,0.9-2,2v30"/>
	<circle class="st0" cx="378" cy="-120" r="3"/>
	<circle class="st0" cx="360" cy="-86" r="3"/>
	<line class="st0" x1="391" y1="-123" x2="399" y2="-123"/>
	<line class="st0" x1="391" y1="-119" x2="401" y2="-119"/>
	<line class="st0" x1="375" y1="-109" x2="383" y2="-109"/>
	<line class="st0" x1="375" y1="-103" x2="389" y2="-103"/>
	<line class="st0" x1="375" y1="-99" x2="383" y2="-99"/>
	<line class="st0" x1="393" y1="-103" x2="401" y2="-103"/>
	<line class="st0" x1="387" y1="-99" x2="399" y2="-99"/>
	<line class="st0" x1="369" y1="-89" x2="375" y2="-89"/>
	<line class="st0" x1="369" y1="-85" x2="377" y2="-85"/>
	<line class="st0" x1="369" y1="-79" x2="383" y2="-79"/>
	<path class="st0" d="M412-91c1.1,0,2,0.9,2,2v14c0,1.1-0.9,2-2,2h-6c-1.1,0-2-0.9-2-2v-14c0-1.1,0.9-2,2-2H412z"/>
	<line class="st0" x1="400.8" y1="-73" x2="393" y2="-73"/>
	<line class="st0" x1="401" y1="-95" x2="393" y2="-95"/>
	<line class="st0" x1="400" y1="-91" x2="393" y2="-91"/>
	<line class="st0" x1="400" y1="-87" x2="393" y2="-87"/>
	<circle class="st0" cx="409" cy="-82" r="1"/>
</g>
<text transform="matrix(1 0 0 1 1 94)" style="font-family:'Roboto-Bold'; font-size:20px;">Prototyping</text>
<text transform="matrix(1 0 0 1 -113 94)" style="font-family:'Roboto-Bold'; font-size:20px;">Concept</text>
<g>
	<text transform="matrix(1 0 0 1 -469 39)" style="font-family:'Roboto-Light'; font-size:20px;">Web Design</text>
</g>
<text transform="matrix(1 0 0 1 241 94)" style="font-family:'Roboto-Bold'; font-size:20px;">Testing</text>
<text transform="matrix(1 0 0 1 361 94)" style="font-family:'Roboto-Bold'; font-size:20px;">Finish </text>
<g>
	<path class="st0" d="M396,57c0,1.1-0.9,2-2,2h-34c-1.1,0-2-0.9-2-2V39c0-1.1,0.9-2,2-2h34c1.1,0,2,0.9,2,2V57z"/>
	<path class="st0" d="M416,37V3c0-1.1-0.9-2-2-2h-38c-1.1,0-2,0.9-2,2v30"/>
	<circle class="st0" cx="385" cy="12" r="3"/>
	<circle class="st0" cx="367" cy="46" r="3"/>
	<line class="st0" x1="398" y1="9" x2="406" y2="9"/>
	<line class="st0" x1="398" y1="13" x2="408" y2="13"/>
	<line class="st0" x1="382" y1="23" x2="390" y2="23"/>
	<line class="st0" x1="382" y1="29" x2="396" y2="29"/>
	<line class="st0" x1="382" y1="33" x2="390" y2="33"/>
	<line class="st0" x1="400" y1="29" x2="408" y2="29"/>
	<line class="st0" x1="394" y1="33" x2="406" y2="33"/>
	<line class="st0" x1="376" y1="43" x2="382" y2="43"/>
	<line class="st0" x1="376" y1="47" x2="384" y2="47"/>
	<line class="st0" x1="376" y1="53" x2="390" y2="53"/>
	<path class="st0" d="M419,41c1.1,0,2,0.9,2,2v14c0,1.1-0.9,2-2,2h-6c-1.1,0-2-0.9-2-2V43c0-1.1,0.9-2,2-2H419z"/>
	<line class="st0" x1="407.8" y1="59" x2="400" y2="59"/>
	<line class="st0" x1="408" y1="37" x2="400" y2="37"/>
	<line class="st0" x1="407" y1="41" x2="400" y2="41"/>
	<line class="st0" x1="407" y1="45" x2="400" y2="45"/>
	<circle class="st0" cx="416" cy="50" r="1"/>
</g>
<g>
	<line class="st0" x1="-90" y1="59" x2="-90" y2="47"/>
	<path class="st0" d="M-94,57v-3c0,0,0-3-2-5s-5-2-5-2h-3v3c0,0,0,3,2,5s5,2,5,2H-94z"/>
	<path class="st0" d="M-86,57v-3c0,0,0-3,2-5s5-2,5-2h3v3c0,0,0,3-2,5s-5,2-5,2H-86z"/>
	<path class="st0" d="M-75,16c0-8.3-6.7-15-15-15s-15,6.7-15,15c0,6,6,10.7,7,15l1,4h14l1-4C-81,26.7-75,22-75,16z"/>
	<line class="st0" x1="-95" y1="39" x2="-85" y2="39"/>
	<line class="st0" x1="-93" y1="43" x2="-87" y2="43"/>
	<path class="st0" d="M-92,31l-3-14c0,0,3,2,5,2s5-2,5-2l-3,14"/>
	<path class="st0" d="M-83,7.5c-1.2-1-2.5-1.7-4-2.1c-0.6-0.2-1.2-0.3-1.8-0.3"/>
	<path class="st0" d="M-79.4,13c-0.2-0.7-0.5-1.4-0.8-2"/>
	<line class="st0" x1="-111" y1="16" x2="-115" y2="16"/>
	<line class="st0" x1="-65" y1="16" x2="-69" y2="16"/>
	<line class="st0" x1="-68.3" y1="3.5" x2="-71.8" y2="5.5"/>
	<line class="st0" x1="-68.3" y1="28.5" x2="-71.8" y2="26.5"/>
	<line class="st0" x1="-108.2" y1="5.5" x2="-111.7" y2="3.5"/>
	<line class="st0" x1="-108.2" y1="26.5" x2="-111.7" y2="28.5"/>
</g>
<g>
	<path class="st0" d="M9,6c0,0.6-0.4,1-1,1l0,0C7.4,7,7,6.6,7,6l0,0c0-0.6,0.4-1,1-1l0,0C8.6,5,9,5.4,9,6L9,6z"/>
	<path class="st0" d="M15,6c0,0.6-0.4,1-1,1l0,0c-0.6,0-1-0.4-1-1l0,0c0-0.6,0.4-1,1-1l0,0C14.6,5,15,5.4,15,6L15,6z"/>
	<path class="st0" d="M21,6c0,0.6-0.4,1-1,1l0,0c-0.6,0-1-0.4-1-1l0,0c0-0.6,0.4-1,1-1l0,0C20.6,5,21,5.4,21,6L21,6z"/>
	<path class="st0" d="M53,54.9c2.7-2.7,2.7-7.2,0-9.9c-2.7-2.7-7.2-2.7-9.9,0C39,49,39,59,39,59S49,59,53,54.9z"/>
	<line class="st0" x1="55" y1="39" x2="50.5" y2="43.5"/>
	<line class="st0" x1="59" y1="43" x2="54.6" y2="47.4"/>
	<path class="st0" d="M50.8,51c0.4-1.1,0.1-2.3-0.7-3.1"/>
	<rect x="5" y="15" class="st0" width="10" height="16"/>
	<rect x="19" y="15" class="st0" width="36" height="10"/>
	<polyline class="st0" points="5,55 5,35 15,35 15,55 	"/>
	<polyline class="st0" points="49,39 49,29 55,29 55,35 	"/>
	<polyline class="st0" points="19,55 19,29 45,29 45,39 	"/>
	<path class="st0" d="M35,59H5c-2.2,0-4-1.8-4-4V15"/>
	<path class="st0" d="M55,11H1V5c0-2.2,1.8-4,4-4h50c2.2,0,4,1.8,4,4v34"/>
</g>
<g>
	<circle class="st0" cx="271" cy="40" r="1"/>
	<path class="st0" d="M272,31l-7.6-12.2c-0.7-1.3-0.5-2.7,0.7-3.5c1.3-0.7,2.4-0.1,3.3,1.1l7.7,10.7c-0.7-1.3-0.3-2.9,1-3.6
		c1.3-0.7,2.9-0.3,3.6,1l0.7,1.1c-0.7-1.3-0.3-2.9,1-3.6c1.3-0.7,2.9-0.3,3.6,1l1,1.7c-0.5-0.9-0.2-2.2,0.7-2.7
		c0.9-0.5,2.2-0.1,2.7,0.7c0,0,3.7,5.2,5.7,12.2h-54v6c0,2.3,1.8,4,4,4h50c2.3,0,4-1.7,4-4V5c0-2.2-1.8-4-4-4h-50
		c-2.2,0-3.9,1.9-4,4v26"/>
	<line class="st0" x1="266" y1="7" x2="266" y2="11"/>
	<line class="st0" x1="273.1" y1="9.9" x2="270.2" y2="12.8"/>
	<line class="st0" x1="258.9" y1="9.9" x2="261.8" y2="12.8"/>
	<line class="st0" x1="256" y1="17" x2="260" y2="17"/>
	<line class="st0" x1="258.9" y1="24.1" x2="261.8" y2="21.2"/>
	<path class="st0" d="M276,49v6h4c2,0,4,2,4,4h-26c0-2,2-4,4-4h10"/>
	<line class="st0" x1="266" y1="55" x2="266" y2="49"/>
</g>
</svg>
