<?xml version="1.0" encoding="utf-8"?>
<!-- Generator: Adobe Illustrator 21.0.2, SVG Export Plug-In . SVG Version: 6.00 Build 0)  -->
<svg version="1.1" id="Layer_1" xmlns="http://www.w3.org/2000/svg" xmlns:xlink="http://www.w3.org/1999/xlink" x="0px" y="0px"
	 viewBox="0 0 52 60" style="enable-background:new 0 0 52 60;" xml:space="preserve">
<style type="text/css">
	.st0{fill:none;stroke:#000000;stroke-width:2;stroke-linecap:round;stroke-linejoin:round;stroke-miterlimit:10;}
	.st1{fill:none;stroke:#000000;stroke-linecap:round;stroke-linejoin:round;stroke-miterlimit:10;}
</style>
<g>
	<path class="st0" d="M129-271h-6c-2,0-4,2-4,4v26"/>
	<path class="st0" d="M173-237h-54v6c0,2,2,4,4,4h50c2,0,4-2,4-4v-36c0-2-2-4-4-4h-10"/>
	<circle class="st0" cx="148" cy="-232" r="1"/>
	<line class="st0" x1="123" y1="-213" x2="159" y2="-213"/>
	<line class="st0" x1="133" y1="-215" x2="133" y2="-213"/>
	<line class="st0" x1="137" y1="-215" x2="137" y2="-213"/>
	<line class="st0" x1="141" y1="-215" x2="141" y2="-213"/>
	<line class="st0" x1="145" y1="-215" x2="145" y2="-213"/>
	<line class="st0" x1="143" y1="-223" x2="143" y2="-219"/>
	<line class="st0" x1="153" y1="-223" x2="153" y2="-219"/>
	<line class="st0" x1="153" y1="-215" x2="153" y2="-213"/>
	<line class="st0" x1="149" y1="-215" x2="149" y2="-213"/>
	<line class="st0" x1="157" y1="-215" x2="157" y2="-213"/>
	<line class="st0" x1="129" y1="-215" x2="129" y2="-213"/>
	<line class="st0" x1="125" y1="-215" x2="125" y2="-213"/>
	<path class="st0" d="M173-213v-1c0-1.7-1.3-3-3-3h-2c-1.7,0-3,1.3-3,3v1H173z"/>
	<line class="st0" x1="139" y1="-265" x2="133" y2="-265"/>
	<line class="st0" x1="135" y1="-261" x2="133" y2="-261"/>
	<line class="st0" x1="135" y1="-257" x2="133" y2="-257"/>
	<line class="st0" x1="139" y1="-253" x2="133" y2="-253"/>
	<polyline class="st0" points="153,-241 153,-263 158,-271 163,-263 157,-263 	"/>
	<polyline class="st0" points="139,-241 133,-241 133,-271 149,-271 149,-241 	"/>
	<line class="st0" x1="135" y1="-249" x2="133" y2="-249"/>
	<line class="st0" x1="135" y1="-245" x2="133" y2="-245"/>
	<line class="st0" x1="163" y1="-259" x2="163" y2="-241"/>
	<line class="st0" x1="158" y1="-241" x2="158" y2="-259"/>
</g>
<g>
	<line class="st0" x1="239" y1="-226" x2="285" y2="-226"/>
	<line class="st0" x1="269" y1="-242" x2="269" y2="-226"/>
	<path class="st0" d="M253-255h38v38c0,2.2-1.8,4-4,4h-50c-2.2,0-4-1.8-4-4v-46h10l6,8l-6,8h-6"/>
	<line class="st0" x1="249" y1="-247" x2="291" y2="-247"/>
	<line class="st0" x1="259" y1="-255" x2="253" y2="-247"/>
	<line class="st0" x1="268" y1="-255" x2="262" y2="-247"/>
	<line class="st0" x1="277" y1="-255" x2="271" y2="-247"/>
	<line class="st0" x1="286" y1="-255" x2="280" y2="-247"/>
	<polyline class="st0" points="253,-256.8 290.4,-263 289.1,-271 247.3,-264.1 	"/>
	<line class="st0" x1="252.1" y1="-264.8" x2="257.6" y2="-257.6"/>
	<line class="st0" x1="261.5" y1="-266.3" x2="266.9" y2="-259.1"/>
	<line class="st0" x1="270.2" y1="-267.8" x2="275.5" y2="-260.6"/>
	<line class="st0" x1="279.5" y1="-269.3" x2="284.9" y2="-262.2"/>
</g>
<text transform="matrix(1 0 0 1 119 -178)" style="font-family:'Roboto-Bold'; font-size:20px;">Design</text>
<g>
	<path class="st0" d="M379,0h-6c-2,0-4,2-4,4v26"/>
	<path class="st0" d="M423,34h-54v6c0,2,2,4,4,4h50c2,0,4-2,4-4V4c0-2-2-4-4-4h-10"/>
	<circle class="st0" cx="398" cy="39" r="1"/>
	<line class="st0" x1="373" y1="58" x2="409" y2="58"/>
	<line class="st0" x1="383" y1="56" x2="383" y2="58"/>
	<line class="st0" x1="387" y1="56" x2="387" y2="58"/>
	<line class="st0" x1="391" y1="56" x2="391" y2="58"/>
	<line class="st0" x1="395" y1="56" x2="395" y2="58"/>
	<line class="st0" x1="393" y1="48" x2="393" y2="52"/>
	<line class="st0" x1="403" y1="48" x2="403" y2="52"/>
	<line class="st0" x1="403" y1="56" x2="403" y2="58"/>
	<line class="st0" x1="399" y1="56" x2="399" y2="58"/>
	<line class="st0" x1="407" y1="56" x2="407" y2="58"/>
	<line class="st0" x1="379" y1="56" x2="379" y2="58"/>
	<line class="st0" x1="375" y1="56" x2="375" y2="58"/>
	<path class="st0" d="M423,58v-1c0-1.7-1.3-3-3-3h-2c-1.7,0-3,1.3-3,3v1H423z"/>
	<line class="st0" x1="389" y1="6" x2="383" y2="6"/>
	<line class="st0" x1="385" y1="10" x2="383" y2="10"/>
	<line class="st0" x1="385" y1="14" x2="383" y2="14"/>
	<line class="st0" x1="389" y1="18" x2="383" y2="18"/>
	<polyline class="st0" points="403,30 403,8 408,0 413,8 407,8 	"/>
	<polyline class="st0" points="389,30 383,30 383,0 399,0 399,30 	"/>
	<line class="st0" x1="385" y1="22" x2="383" y2="22"/>
	<line class="st0" x1="385" y1="26" x2="383" y2="26"/>
	<line class="st0" x1="413" y1="12" x2="413" y2="30"/>
	<line class="st0" x1="408" y1="30" x2="408" y2="12"/>
</g>
<text transform="matrix(1 0 0 1 369 93)" style="font-family:'Roboto-Bold'; font-size:20px;">Design</text>
<text transform="matrix(1 0 0 1 5 -178)" style="font-family:'Roboto-Bold'; font-size:20px;">Start</text>
<g>
	<text transform="matrix(1 0 0 1 -233 -234)" style="font-family:'Roboto-Light'; font-size:20px;">HTML5 Banners</text>
</g>
<g>
	<path class="st0" d="M40-266v5c0,2.2,1.8,4,4,4h10v40c0,2.2-1.8,4-4,4H8c-2.2,0-4-1.8-4-4v-50c0-2.2,1.8-4,4-4"/>
	<circle class="st0" cx="17" cy="-260" r="7"/>
	<circle class="st0" cx="17" cy="-242" r="7"/>
	<line class="st0" x1="12" y1="-233" x2="12" y2="-237"/>
	<polyline class="st0" points="12,-265 12,-271 40,-271 50,-261 	"/>
	<path class="st0" d="M12-255c0,0-2,1-2,4s2,4,2,4"/>
	<path class="st0" d="M19.7-261.3c-0.3-0.6-0.8-1.1-1.4-1.4"/>
	<path class="st0" d="M19.7-243.3c-0.3-0.6-0.8-1.1-1.4-1.4"/>
	<line class="st0" x1="32" y1="-247" x2="28" y2="-247"/>
	<line class="st0" x1="36" y1="-247" x2="44" y2="-247"/>
	<line class="st0" x1="29" y1="-241" x2="34" y2="-241"/>
	<line class="st0" x1="38" y1="-241" x2="42" y2="-241"/>
	<line class="st0" x1="14" y1="-229" x2="20" y2="-229"/>
	<line class="st0" x1="38" y1="-229" x2="44" y2="-229"/>
	<line class="st0" x1="24" y1="-229" x2="34" y2="-229"/>
	<line class="st0" x1="27" y1="-235" x2="42" y2="-235"/>
	<line class="st0" x1="14" y1="-223" x2="26" y2="-223"/>
	<line class="st0" x1="30" y1="-223" x2="40" y2="-223"/>
</g>
<text transform="matrix(1 0 0 1 359 -178)" style="font-family:'Roboto-Bold'; font-size:20px;">Resize</text>
<text transform="matrix(1 0 0 1 235 -178)" style="font-family:'Roboto-Bold'; font-size:20px;">Animation</text>
<g>
	<path class="st0" d="M484-271h-6c-2,0-4,2-4,4v26"/>
	<path class="st0" d="M528-237h-54v6c0,2,2,4,4,4h50c2,0,4-2,4-4v-36c0-2-2-4-4-4h-10"/>
	<circle class="st0" cx="503" cy="-232" r="1"/>
	<line class="st0" x1="478" y1="-213" x2="514" y2="-213"/>
	<line class="st0" x1="488" y1="-215" x2="488" y2="-213"/>
	<line class="st0" x1="492" y1="-215" x2="492" y2="-213"/>
	<line class="st0" x1="496" y1="-215" x2="496" y2="-213"/>
	<line class="st0" x1="500" y1="-215" x2="500" y2="-213"/>
	<line class="st0" x1="498" y1="-223" x2="498" y2="-219"/>
	<line class="st0" x1="508" y1="-223" x2="508" y2="-219"/>
	<line class="st0" x1="508" y1="-215" x2="508" y2="-213"/>
	<line class="st0" x1="504" y1="-215" x2="504" y2="-213"/>
	<line class="st0" x1="512" y1="-215" x2="512" y2="-213"/>
	<line class="st0" x1="484" y1="-215" x2="484" y2="-213"/>
	<line class="st0" x1="480" y1="-215" x2="480" y2="-213"/>
	<path class="st0" d="M528-213v-1c0-1.7-1.3-3-3-3h-2c-1.7,0-3,1.3-3,3v1H528z"/>
	<line class="st0" x1="494" y1="-265" x2="488" y2="-265"/>
	<line class="st0" x1="490" y1="-261" x2="488" y2="-261"/>
	<line class="st0" x1="490" y1="-257" x2="488" y2="-257"/>
	<line class="st0" x1="494" y1="-253" x2="488" y2="-253"/>
	<polyline class="st0" points="508,-241 508,-263 513,-271 518,-263 512,-263 	"/>
	<polyline class="st0" points="494,-241 488,-241 488,-271 504,-271 504,-241 	"/>
	<line class="st0" x1="490" y1="-249" x2="488" y2="-249"/>
	<line class="st0" x1="490" y1="-245" x2="488" y2="-245"/>
	<line class="st0" x1="518" y1="-259" x2="518" y2="-241"/>
	<line class="st0" x1="513" y1="-241" x2="513" y2="-259"/>
</g>
<text transform="matrix(1 0 0 1 474 -178)" style="font-family:'Roboto-Bold'; font-size:20px;">Design</text>
<text transform="matrix(1 0 0 1 733 -178)" style="font-family:'Roboto-Bold'; font-size:20px;">Finish </text>
<text transform="matrix(1 0 0 1 590 -178)" style="font-family:'Roboto-Bold'; font-size:20px;">Optimization </text>
<g>
	<g>
		<polyline class="st0" points="389,-231.4 362,-231.4 371.3,-240.7 375.5,-236.4 383.1,-244 389,-238.1 		"/>
		<circle class="st0" cx="370" cy="-252.4" r="3.3"/>
		<line class="st0" x1="370" y1="-259" x2="370" y2="-255.7"/>
		<line class="st0" x1="364.4" y1="-255.7" x2="367.2" y2="-254.1"/>
		<line class="st0" x1="364.4" y1="-249.2" x2="367.2" y2="-250.8"/>
		<line class="st0" x1="370" y1="-245.9" x2="370" y2="-249.2"/>
		<line class="st0" x1="375.7" y1="-249.2" x2="372.9" y2="-250.8"/>
		<line class="st0" x1="375.7" y1="-255.7" x2="372.9" y2="-254.1"/>
	</g>
	<g>
		<polyline class="st0" points="420,-242 398.7,-242 406,-249.3 409.3,-246 415.3,-252 420,-247.3 		"/>
		<circle class="st0" cx="406.7" cy="-259.5" r="2.7"/>
		<line class="st0" x1="406.7" y1="-265" x2="406.7" y2="-262.3"/>
		<line class="st0" x1="401.9" y1="-262.2" x2="404.3" y2="-260.9"/>
		<line class="st0" x1="401.9" y1="-256.7" x2="404.3" y2="-258.1"/>
		<line class="st0" x1="406.7" y1="-254" x2="406.7" y2="-256.8"/>
		<line class="st0" x1="411.5" y1="-256.8" x2="409.1" y2="-258.1"/>
		<line class="st0" x1="411.5" y1="-262.3" x2="409.1" y2="-260.9"/>
	</g>
	<g>
		<polyline class="st0" points="418.8,-212.3 399.8,-212.3 406.4,-218.9 409.3,-215.9 414.7,-221.2 418.8,-217.1 		"/>
		<circle class="st1" cx="404" cy="-224.9" r="1.2"/>
		<line class="st1" x1="404" y1="-227.3" x2="404" y2="-226.1"/>
		<line class="st1" x1="402" y1="-226.1" x2="403" y2="-225.5"/>
		<line class="st1" x1="402" y1="-223.8" x2="403" y2="-224.3"/>
		<line class="st1" x1="404" y1="-222.6" x2="404" y2="-223.8"/>
		<line class="st1" x1="406" y1="-223.8" x2="405" y2="-224.3"/>
		<line class="st1" x1="406" y1="-226.1" x2="405" y2="-225.5"/>
	</g>
	<path class="st0" d="M418.6-234h-18.2c-2.4,0-4.4-2-4.4-4.4v-28.2c0-2.4,2-4.4,4.4-4.4h18.2c2.4,0,4.4,2,4.4,4.4v28.2
		C423-236,421-234,418.6-234z"/>
	<path class="st0" d="M387.6-212h-24.2c-2.4,0-4.4-2-4.4-4.4v-50.2c0-2.4,2-4.4,4.4-4.4h24.2c2.4,0,4.4,2,4.4,4.4v50.2
		C392-214,390-212,387.6-212z"/>
	<path class="st0" d="M418.6-212.3h-18.2c-2.4,0-4.4-2-4.4-4.4v-9.2c0-2.4,2-4.4,4.4-4.4h18.2c2.4,0,4.4,2,4.4,4.4v9.2
		C423-214.3,421-212.3,418.6-212.3z"/>
</g>
<g>
	<path class="st0" d="M644-247l-5.9-1.3c-0.5-1.7-1.2-3.3-2-4.9l3.2-5.1c0.4-0.6,0.4-1,0-1.4l-5.7-5.7c-0.4-0.4-0.8-0.3-1.4,0
		l-5.1,3.2c-1.5-0.9-3.2-1.5-4.9-2L621-270c-0.2-0.7-0.4-1-1-1h-8c-0.6,0-0.8,0.4-1,1l-1.3,5.9c-1.7,0.5-3.3,1.2-4.9,2l-5.1-3.2
		c-0.6-0.4-1-0.4-1.4,0l-5.7,5.7c-0.4,0.4-0.3,0.8,0,1.4l3.2,5.1c-0.9,1.5-1.5,3.2-2,4.9L588-247c-0.7,0.2-1,0.4-1,1v8
		c0,0.6,0.4,0.8,1,1l5.9,1.3c0.5,1.7,1.2,3.3,2,4.9l-3.2,5.1c-0.4,0.6-0.4,1,0,1.4l5.7,5.7c0.4,0.4,0.8,0.3,1.4,0l5.1-3.2
		c1.5,0.9,3.2,1.5,4.9,2l1.3,5.9c0.2,0.7,0.4,1,1,1l8,0c0.6,0,0.8-0.4,1-1l1.3-5.9c1.7-0.5,3.3-1.2,4.9-2l5.1,3.2
		c0.6,0.4,1,0.4,1.4,0l5.7-5.7c0.4-0.4,0.3-0.8,0-1.4l-3.2-5.1c0.8-1.5,1.5-3.2,2-4.9l5.9-1.3c0.7-0.2,1-0.4,1-1v-8
		C645-246.6,644.6-246.8,644-247z"/>
	<path class="st0" d="M620-229.6c5.2-1.7,9-6.6,9-12.4c0-7.2-5.8-13-13-13s-13,5.8-13,13s5.8,13,13,13"/>
	<circle class="st0" cx="616" cy="-242" r="3"/>
</g>
<g>
	<path class="st0" d="M769-266v5c0,2.2,1.8,4,4,4h10v40c0,2.2-1.8,4-4,4h-42c-2.2,0-4-1.8-4-4v-50c0-2.2,1.8-4,4-4h32l10,10"/>
	<circle class="st0" cx="758" cy="-236" r="13"/>
	<polygon class="st0" points="755,-240 755,-232 762,-236 	"/>
</g>
<g>
	<path class="st0" d="M126-132h-6c-2,0-4,2-4,4v26"/>
	<path class="st0" d="M170-98h-54v6c0,2,2,4,4,4h50c2,0,4-2,4-4v-36c0-2-2-4-4-4h-10"/>
	<circle class="st0" cx="145" cy="-93" r="1"/>
	<line class="st0" x1="120" y1="-74" x2="156" y2="-74"/>
	<line class="st0" x1="130" y1="-76" x2="130" y2="-74"/>
	<line class="st0" x1="134" y1="-76" x2="134" y2="-74"/>
	<line class="st0" x1="138" y1="-76" x2="138" y2="-74"/>
	<line class="st0" x1="142" y1="-76" x2="142" y2="-74"/>
	<line class="st0" x1="140" y1="-84" x2="140" y2="-80"/>
	<line class="st0" x1="150" y1="-84" x2="150" y2="-80"/>
	<line class="st0" x1="150" y1="-76" x2="150" y2="-74"/>
	<line class="st0" x1="146" y1="-76" x2="146" y2="-74"/>
	<line class="st0" x1="154" y1="-76" x2="154" y2="-74"/>
	<line class="st0" x1="126" y1="-76" x2="126" y2="-74"/>
	<line class="st0" x1="122" y1="-76" x2="122" y2="-74"/>
	<path class="st0" d="M170-74v-1c0-1.7-1.3-3-3-3h-2c-1.7,0-3,1.3-3,3v1H170z"/>
	<line class="st0" x1="136" y1="-126" x2="130" y2="-126"/>
	<line class="st0" x1="132" y1="-122" x2="130" y2="-122"/>
	<line class="st0" x1="132" y1="-118" x2="130" y2="-118"/>
	<line class="st0" x1="136" y1="-114" x2="130" y2="-114"/>
	<polyline class="st0" points="150,-102 150,-124 155,-132 160,-124 154,-124 	"/>
	<polyline class="st0" points="136,-102 130,-102 130,-132 146,-132 146,-102 	"/>
	<line class="st0" x1="132" y1="-110" x2="130" y2="-110"/>
	<line class="st0" x1="132" y1="-106" x2="130" y2="-106"/>
	<line class="st0" x1="160" y1="-120" x2="160" y2="-102"/>
	<line class="st0" x1="155" y1="-102" x2="155" y2="-120"/>
</g>
<text transform="matrix(1 0 0 1 116 -39)" style="font-family:'Roboto-Bold'; font-size:20px;">Design</text>
<text transform="matrix(1 0 0 1 2 -39)" style="font-family:'Roboto-Bold'; font-size:20px;">Start</text>
<g>
	<text transform="matrix(1 0 0 1 -236 -95)" style="font-family:'Roboto-Light'; font-size:20px;">Web Development</text>
</g>
<g>
	<path class="st0" d="M37-127v5c0,2.2,1.8,4,4,4h10v40c0,2.2-1.8,4-4,4H5c-2.2,0-4-1.8-4-4v-50c0-2.2,1.8-4,4-4"/>
	<circle class="st0" cx="14" cy="-121" r="7"/>
	<circle class="st0" cx="14" cy="-103" r="7"/>
	<line class="st0" x1="9" y1="-94" x2="9" y2="-98"/>
	<polyline class="st0" points="9,-126 9,-132 37,-132 47,-122 	"/>
	<path class="st0" d="M9-116c0,0-2,1-2,4s2,4,2,4"/>
	<path class="st0" d="M16.7-122.3c-0.3-0.6-0.8-1.1-1.4-1.4"/>
	<path class="st0" d="M16.7-104.3c-0.3-0.6-0.8-1.1-1.4-1.4"/>
	<line class="st0" x1="29" y1="-108" x2="25" y2="-108"/>
	<line class="st0" x1="33" y1="-108" x2="41" y2="-108"/>
	<line class="st0" x1="26" y1="-102" x2="31" y2="-102"/>
	<line class="st0" x1="35" y1="-102" x2="39" y2="-102"/>
	<line class="st0" x1="11" y1="-90" x2="17" y2="-90"/>
	<line class="st0" x1="35" y1="-90" x2="41" y2="-90"/>
	<line class="st0" x1="21" y1="-90" x2="31" y2="-90"/>
	<line class="st0" x1="24" y1="-96" x2="39" y2="-96"/>
	<line class="st0" x1="11" y1="-84" x2="23" y2="-84"/>
	<line class="st0" x1="27" y1="-84" x2="37" y2="-84"/>
</g>
<text transform="matrix(1 0 0 1 2 94)" style="font-family:'Roboto-Bold'; font-size:20px;">Start</text>
<g>
	<path class="st0" d="M37,6v5c0,2.2,1.8,4,4,4h10v40c0,2.2-1.8,4-4,4H5c-2.2,0-4-1.8-4-4V5c0-2.2,1.8-4,4-4"/>
	<circle class="st0" cx="14" cy="12" r="7"/>
	<circle class="st0" cx="14" cy="30" r="7"/>
	<line class="st0" x1="9" y1="39" x2="9" y2="35"/>
	<polyline class="st0" points="9,7 9,1 37,1 47,11 	"/>
	<path class="st0" d="M9,17c0,0-2,1-2,4s2,4,2,4"/>
	<path class="st0" d="M16.7,10.7c-0.3-0.6-0.8-1.1-1.4-1.4"/>
	<path class="st0" d="M16.7,28.7c-0.3-0.6-0.8-1.1-1.4-1.4"/>
	<line class="st0" x1="29" y1="25" x2="25" y2="25"/>
	<line class="st0" x1="33" y1="25" x2="41" y2="25"/>
	<line class="st0" x1="26" y1="31" x2="31" y2="31"/>
	<line class="st0" x1="35" y1="31" x2="39" y2="31"/>
	<line class="st0" x1="11" y1="43" x2="17" y2="43"/>
	<line class="st0" x1="35" y1="43" x2="41" y2="43"/>
	<line class="st0" x1="21" y1="43" x2="31" y2="43"/>
	<line class="st0" x1="24" y1="37" x2="39" y2="37"/>
	<line class="st0" x1="11" y1="49" x2="23" y2="49"/>
	<line class="st0" x1="27" y1="49" x2="37" y2="49"/>
</g>
<text transform="matrix(1 0 0 1 356 -39)" style="font-family:'Roboto-Bold'; font-size:20px;">Back-end</text>
<text transform="matrix(1 0 0 1 232 -39)" style="font-family:'Roboto-Bold'; font-size:20px;">Front-end</text>
<text transform="matrix(1 0 0 1 471 -39)" style="font-family:'Roboto-Bold'; font-size:20px;">QA </text>
<text transform="matrix(1 0 0 1 587 -39)" style="font-family:'Roboto-Bold'; font-size:20px;">Finish </text>
<g>
	<path class="st0" d="M271-74h-37c-2.3,0-4-1.8-4-4v-40"/>
	<path class="st0" d="M238-127c0,0.6-0.4,1-1,1l0,0c-0.6,0-1-0.4-1-1l0,0c0-0.6,0.4-1,1-1l0,0C237.6-128,238-127.6,238-127L238-127z
		"/>
	<path class="st0" d="M244-127c0,0.6-0.4,1-1,1l0,0c-0.6,0-1-0.4-1-1l0,0c0-0.6,0.4-1,1-1l0,0C243.6-128,244-127.6,244-127L244-127z
		"/>
	<path class="st0" d="M250-127c0,0.6-0.4,1-1,1l0,0c-0.6,0-1-0.4-1-1l0,0c0-0.6,0.4-1,1-1l0,0C249.6-128,250-127.6,250-127L250-127z
		"/>
	<line class="st0" x1="236" y1="-116" x2="244" y2="-116"/>
	<line class="st0" x1="270" y1="-116" x2="274" y2="-116"/>
	<line class="st0" x1="278" y1="-116" x2="282" y2="-116"/>
	<line class="st0" x1="262" y1="-116" x2="266" y2="-116"/>
	<path class="st0" d="M271-74h13c2.3,0,4-1.8,4-4v-50c0-2.2-1.8-4-4-4h-50c-2.2,0-4,1.8-4,4v6h54"/>
	<g>
		<path d="M237.7-95.1l11.3-5.5v2.1l-9,4.2v0l9,4.2v2.1l-11.3-5.5V-95.1z"/>
		<path d="M255.5-87l5.8-17.3h2L257.6-87H255.5z"/>
		<path d="M281-93.4L269.7-88v-2.1l9.1-4.2v0l-9.1-4.2v-2.1l11.3,5.4V-93.4z"/>
	</g>
</g>
<g>
	<path class="st0" d="M518-84l2.8-2.8l7,7c1.6,1.6,1.6,4.1,0,5.7c-1.6,1.6-4.1,1.6-5.7,0L510.3-86"/>
	<line class="st0" x1="518.1" y1="-89.6" x2="516" y2="-91.7"/>
	<circle class="st0" cx="494" cy="-108" r="23"/>
	<circle class="st0" cx="494" cy="-108" r="19"/>
	<line class="st0" x1="487" y1="-117" x2="499" y2="-117"/>
	<line class="st0" x1="483" y1="-111" x2="497" y2="-111"/>
	<line class="st0" x1="483" y1="-105" x2="489" y2="-105"/>
	<line class="st0" x1="485" y1="-99" x2="493" y2="-99"/>
	<line class="st0" x1="501" y1="-99" x2="497" y2="-99"/>
	<line class="st0" x1="505" y1="-111" x2="501" y2="-111"/>
	<line class="st0" x1="505" y1="-105" x2="493" y2="-105"/>
</g>
<g>
	<path class="st0" d="M365-127c0,0.6-0.4,1-1,1l0,0c-0.6,0-1-0.4-1-1l0,0c0-0.6,0.4-1,1-1l0,0C364.6-128,365-127.6,365-127L365-127z
		"/>
	<path class="st0" d="M371-127c0,0.6-0.4,1-1,1l0,0c-0.6,0-1-0.4-1-1l0,0c0-0.6,0.4-1,1-1l0,0C370.6-128,371-127.6,371-127L371-127z
		"/>
	<path class="st0" d="M377-127c0,0.6-0.4,1-1,1l0,0c-0.6,0-1-0.4-1-1l0,0c0-0.6,0.4-1,1-1l0,0C376.6-128,377-127.6,377-127L377-127z
		"/>
	<line class="st0" x1="365" y1="-114" x2="367" y2="-114"/>
	<line class="st0" x1="365" y1="-110" x2="367" y2="-110"/>
	<line class="st0" x1="365" y1="-106" x2="367" y2="-106"/>
	<line class="st0" x1="365" y1="-102" x2="367" y2="-102"/>
	<line class="st0" x1="365" y1="-98" x2="367" y2="-98"/>
	<line class="st0" x1="365" y1="-94" x2="367" y2="-94"/>
	<line class="st0" x1="365" y1="-90" x2="367" y2="-90"/>
	<line class="st0" x1="365" y1="-86" x2="367" y2="-86"/>
	<line class="st0" x1="365" y1="-82" x2="367" y2="-82"/>
	<line class="st0" x1="399" y1="-114" x2="395" y2="-114"/>
	<line class="st0" x1="401" y1="-110" x2="391" y2="-110"/>
	<line class="st0" x1="387" y1="-110" x2="371" y2="-110"/>
	<line class="st0" x1="381" y1="-114" x2="371" y2="-114"/>
	<line class="st0" x1="391" y1="-114" x2="385" y2="-114"/>
	<line class="st0" x1="405" y1="-106" x2="389" y2="-106"/>
	<line class="st0" x1="399" y1="-102" x2="391" y2="-102"/>
	<line class="st0" x1="387" y1="-102" x2="371" y2="-102"/>
	<line class="st0" x1="375" y1="-106" x2="371" y2="-106"/>
	<line class="st0" x1="385" y1="-106" x2="379" y2="-106"/>
	<line class="st0" x1="392" y1="-90" x2="389" y2="-90"/>
	<line class="st0" x1="375" y1="-90" x2="371" y2="-90"/>
	<line class="st0" x1="385" y1="-90" x2="379" y2="-90"/>
	<line class="st0" x1="383" y1="-86" x2="371" y2="-86"/>
	<line class="st0" x1="389" y1="-86" x2="387" y2="-86"/>
	<line class="st0" x1="377" y1="-82" x2="371" y2="-82"/>
	<line class="st0" x1="391" y1="-82" x2="381" y2="-82"/>
	<line class="st0" x1="401" y1="-98" x2="385" y2="-98"/>
	<line class="st0" x1="394" y1="-94" x2="387" y2="-94"/>
	<line class="st0" x1="383" y1="-94" x2="371" y2="-94"/>
	<line class="st0" x1="381" y1="-98" x2="371" y2="-98"/>
	<path class="st0" d="M415-82v-4h-2.3c-0.2-0.7-0.5-1.4-0.9-2.1l1.6-1.6l-2.8-2.8l-1.6,1.6c-0.6-0.4-1.3-0.7-2.1-0.9V-94h-4v2.3
		c-0.7,0.2-1.4,0.5-2.1,0.9l-1.6-1.6l-2.8,2.8l1.6,1.6c-0.4,0.6-0.7,1.3-0.9,2.1H395v4h2.3c0.2,0.7,0.5,1.4,0.9,2.1l-1.6,1.6
		l2.8,2.8l1.6-1.6c0.6,0.4,1.3,0.7,2.1,0.9v2.3h4v-2.3c0.7-0.2,1.4-0.5,2.1-0.9l1.6,1.6l2.8-2.8l-1.6-1.6c0.4-0.6,0.7-1.3,0.9-2.1
		H415z"/>
	<circle class="st0" cx="405" cy="-84" r="2"/>
	<path class="st0" d="M395-74h-34c-2.2,0-4-1.8-4-4v-40"/>
	<path class="st0" d="M411-122h-54v-6c0-2.2,1.8-4,4-4h50c2.2,0,4,1.8,4,4v34"/>
</g>
<g>
	<path class="st0" d="M622-76c0,1.1-0.9,2-2,2h-34c-1.1,0-2-0.9-2-2v-18c0-1.1,0.9-2,2-2h34c1.1,0,2,0.9,2,2V-76z"/>
	<path class="st0" d="M642-96v-34c0-1.1-0.9-2-2-2h-38c-1.1,0-2,0.9-2,2v30"/>
	<circle class="st0" cx="611" cy="-121" r="3"/>
	<circle class="st0" cx="593" cy="-87" r="3"/>
	<line class="st0" x1="624" y1="-124" x2="632" y2="-124"/>
	<line class="st0" x1="624" y1="-120" x2="634" y2="-120"/>
	<line class="st0" x1="608" y1="-110" x2="616" y2="-110"/>
	<line class="st0" x1="608" y1="-104" x2="622" y2="-104"/>
	<line class="st0" x1="608" y1="-100" x2="616" y2="-100"/>
	<line class="st0" x1="626" y1="-104" x2="634" y2="-104"/>
	<line class="st0" x1="620" y1="-100" x2="632" y2="-100"/>
	<line class="st0" x1="602" y1="-90" x2="608" y2="-90"/>
	<line class="st0" x1="602" y1="-86" x2="610" y2="-86"/>
	<line class="st0" x1="602" y1="-80" x2="616" y2="-80"/>
	<path class="st0" d="M645-92c1.1,0,2,0.9,2,2v14c0,1.1-0.9,2-2,2h-6c-1.1,0-2-0.9-2-2v-14c0-1.1,0.9-2,2-2H645z"/>
	<line class="st0" x1="633.8" y1="-74" x2="626" y2="-74"/>
	<line class="st0" x1="634" y1="-96" x2="626" y2="-96"/>
	<line class="st0" x1="633" y1="-92" x2="626" y2="-92"/>
	<line class="st0" x1="633" y1="-88" x2="626" y2="-88"/>
	<circle class="st0" cx="642" cy="-83" r="1"/>
</g>
<text transform="matrix(1 0 0 1 234 93)" style="font-family:'Roboto-Bold'; font-size:20px;">Prototyping</text>
<text transform="matrix(1 0 0 1 120 93)" style="font-family:'Roboto-Bold'; font-size:20px;">Concept</text>
<g>
	<text transform="matrix(1 0 0 1 -236 38)" style="font-family:'Roboto-Light'; font-size:20px;">Web Design</text>
</g>
<text transform="matrix(1 0 0 1 474 93)" style="font-family:'Roboto-Bold'; font-size:20px;">Testing</text>
<text transform="matrix(1 0 0 1 594 93)" style="font-family:'Roboto-Bold'; font-size:20px;">Finish </text>
<g>
	<path class="st0" d="M629,56c0,1.1-0.9,2-2,2h-34c-1.1,0-2-0.9-2-2V38c0-1.1,0.9-2,2-2h34c1.1,0,2,0.9,2,2V56z"/>
	<path class="st0" d="M649,36V2c0-1.1-0.9-2-2-2h-38c-1.1,0-2,0.9-2,2v30"/>
	<circle class="st0" cx="618" cy="11" r="3"/>
	<circle class="st0" cx="600" cy="45" r="3"/>
	<line class="st0" x1="631" y1="8" x2="639" y2="8"/>
	<line class="st0" x1="631" y1="12" x2="641" y2="12"/>
	<line class="st0" x1="615" y1="22" x2="623" y2="22"/>
	<line class="st0" x1="615" y1="28" x2="629" y2="28"/>
	<line class="st0" x1="615" y1="32" x2="623" y2="32"/>
	<line class="st0" x1="633" y1="28" x2="641" y2="28"/>
	<line class="st0" x1="627" y1="32" x2="639" y2="32"/>
	<line class="st0" x1="609" y1="42" x2="615" y2="42"/>
	<line class="st0" x1="609" y1="46" x2="617" y2="46"/>
	<line class="st0" x1="609" y1="52" x2="623" y2="52"/>
	<path class="st0" d="M652,40c1.1,0,2,0.9,2,2v14c0,1.1-0.9,2-2,2h-6c-1.1,0-2-0.9-2-2V42c0-1.1,0.9-2,2-2H652z"/>
	<line class="st0" x1="640.8" y1="58" x2="633" y2="58"/>
	<line class="st0" x1="641" y1="36" x2="633" y2="36"/>
	<line class="st0" x1="640" y1="40" x2="633" y2="40"/>
	<line class="st0" x1="640" y1="44" x2="633" y2="44"/>
	<circle class="st0" cx="649" cy="49" r="1"/>
</g>
<g>
	<line class="st0" x1="143" y1="58" x2="143" y2="46"/>
	<path class="st0" d="M139,56v-3c0,0,0-3-2-5s-5-2-5-2h-3v3c0,0,0,3,2,5s5,2,5,2H139z"/>
	<path class="st0" d="M147,56v-3c0,0,0-3,2-5s5-2,5-2h3v3c0,0,0,3-2,5s-5,2-5,2H147z"/>
	<path class="st0" d="M158,15c0-8.3-6.7-15-15-15s-15,6.7-15,15c0,6,6,10.7,7,15l1,4h14l1-4C152,25.7,158,21,158,15z"/>
	<line class="st0" x1="138" y1="38" x2="148" y2="38"/>
	<line class="st0" x1="140" y1="42" x2="146" y2="42"/>
	<path class="st0" d="M141,30l-3-14c0,0,3,2,5,2s5-2,5-2l-3,14"/>
	<path class="st0" d="M150,6.5c-1.2-1-2.5-1.7-4-2.1c-0.6-0.2-1.2-0.3-1.8-0.3"/>
	<path class="st0" d="M153.6,12c-0.2-0.7-0.5-1.4-0.8-2"/>
	<line class="st0" x1="122" y1="15" x2="118" y2="15"/>
	<line class="st0" x1="168" y1="15" x2="164" y2="15"/>
	<line class="st0" x1="164.7" y1="2.5" x2="161.2" y2="4.5"/>
	<line class="st0" x1="164.7" y1="27.5" x2="161.2" y2="25.5"/>
	<line class="st0" x1="124.8" y1="4.5" x2="121.3" y2="2.5"/>
	<line class="st0" x1="124.8" y1="25.5" x2="121.3" y2="27.5"/>
</g>
<g>
	<path class="st0" d="M242,5c0,0.6-0.4,1-1,1l0,0c-0.6,0-1-0.4-1-1l0,0c0-0.6,0.4-1,1-1l0,0C241.6,4,242,4.4,242,5L242,5z"/>
	<path class="st0" d="M248,5c0,0.6-0.4,1-1,1l0,0c-0.6,0-1-0.4-1-1l0,0c0-0.6,0.4-1,1-1l0,0C247.6,4,248,4.4,248,5L248,5z"/>
	<path class="st0" d="M254,5c0,0.6-0.4,1-1,1l0,0c-0.6,0-1-0.4-1-1l0,0c0-0.6,0.4-1,1-1l0,0C253.6,4,254,4.4,254,5L254,5z"/>
	<path class="st0" d="M286,53.9c2.7-2.7,2.7-7.2,0-9.9c-2.7-2.7-7.2-2.7-9.9,0c-4,4-4,13.9-4,13.9S282,58,286,53.9z"/>
	<line class="st0" x1="288" y1="38" x2="283.5" y2="42.5"/>
	<line class="st0" x1="292" y1="42" x2="287.6" y2="46.4"/>
	<path class="st0" d="M283.8,50c0.4-1.1,0.1-2.3-0.7-3.1"/>
	<rect x="238" y="14" class="st0" width="10" height="16"/>
	<rect x="252" y="14" class="st0" width="36" height="10"/>
	<polyline class="st0" points="238,54 238,34 248,34 248,54 	"/>
	<polyline class="st0" points="282,38 282,28 288,28 288,34 	"/>
	<polyline class="st0" points="252,54 252,28 278,28 278,38 	"/>
	<path class="st0" d="M268,58h-30c-2.2,0-4-1.8-4-4V14"/>
	<path class="st0" d="M288,10h-54V4c0-2.2,1.8-4,4-4h50c2.2,0,4,1.8,4,4v34"/>
</g>
<g>
	<circle class="st0" cx="504" cy="39" r="1"/>
	<path class="st0" d="M505,30l-7.6-12.2c-0.7-1.3-0.5-2.7,0.7-3.5c1.3-0.7,2.4-0.1,3.3,1.1l7.7,10.7c-0.7-1.3-0.3-2.9,1-3.6
		c1.3-0.7,2.9-0.3,3.6,1l0.7,1.1c-0.7-1.3-0.3-2.9,1-3.6c1.3-0.7,2.9-0.3,3.6,1l1,1.7c-0.5-0.9-0.2-2.2,0.7-2.7
		c0.9-0.5,2.2-0.1,2.7,0.7c0,0,3.7,5.2,5.7,12.2h-54v6c0,2.3,1.8,4,4,4h50c2.3,0,4-1.7,4-4V4c0-2.2-1.8-4-4-4h-50
		c-2.2,0-3.9,1.9-4,4v26"/>
	<line class="st0" x1="499" y1="6" x2="499" y2="10"/>
	<line class="st0" x1="506.1" y1="8.9" x2="503.2" y2="11.8"/>
	<line class="st0" x1="491.9" y1="8.9" x2="494.8" y2="11.8"/>
	<line class="st0" x1="489" y1="16" x2="493" y2="16"/>
	<line class="st0" x1="491.9" y1="23.1" x2="494.8" y2="20.2"/>
	<path class="st0" d="M509,48v6h4c2,0,4,2,4,4h-26c0-2,2-4,4-4h10"/>
	<line class="st0" x1="499" y1="54" x2="499" y2="48"/>
</g>
</svg>
