<svg xmlns="http://www.w3.org/2000/svg" viewBox="0 0 380.5 64"><path d="M48.151 41.102h.201l6.403-32.014h10.962L54.52 57.897H43.86l-8.213-30.103h-.201L27.3 57.897H16.64L5.41 9.088h10.995l6.403 32.014h.201l8.615-32.014h7.878l8.649 32.014zm46.227 7.308H78.992l-2.749 9.487H64.845L80.601 9.088H92.77l15.789 48.809H97.161l-2.783-9.487zm-12.872-8.716h10.359l-5.096-17.465h-.201l-5.062 17.465zm43.478-9.286h.201l9.722-21.32h12.303l-16.594 31.645v17.164h-11.297V40.163L103.061 9.088h12.236l9.687 21.32zm59.235 27.489h-34.16v-7.375l15.689-16.493c1.989-2.28 3.453-4.313 4.392-6.101.939-1.788 1.408-3.341 1.408-4.66 0-1.877-.475-3.374-1.425-4.492-.95-1.117-2.375-1.676-4.274-1.676-1.699 0-3.034.721-4.006 2.162-.972 1.442-1.458 3.28-1.458 5.515h-11.062l-.067-.201c-.112-4.514 1.363-8.341 4.425-11.481 3.062-3.14 7.118-4.71 12.169-4.71 5.364 0 9.548 1.319 12.554 3.956 3.006 2.637 4.509 6.247 4.509 10.828 0 3.084-.799 5.811-2.397 8.18-1.598 2.369-4.542 5.889-8.833 10.56l-6.604 7.073.101.201h19.041v8.714zm21.32-48.809l10.928 34.159h.201L227.73 9.088h14.951v48.809h-11.364V45.795l1.073-22.292-.201-.034-11.767 34.428h-7.643l-11.632-34.126-.201.034 1.073 21.991v12.102h-11.364V9.088h14.884zm85.148 28.796c0 6.012-1.906 10.968-5.716 14.867-3.81 3.9-8.789 5.85-14.934 5.85-6.191 0-11.208-1.95-15.052-5.85-3.844-3.9-5.766-8.855-5.766-14.867v-8.783c0-5.989 1.916-10.939 5.749-14.851 3.833-3.911 8.833-5.866 15.001-5.866 6.123 0 11.107 1.956 14.951 5.866 3.844 3.911 5.766 8.861 5.766 14.851v8.783zm-11.297-8.85c0-3.486-.821-6.347-2.464-8.582-1.643-2.234-3.961-3.352-6.956-3.352-3.062 0-5.403 1.112-7.023 3.336-1.621 2.224-2.43 5.09-2.43 8.599v8.85c0 3.531.821 6.414 2.464 8.649 1.643 2.235 3.994 3.352 7.057 3.352 2.972 0 5.274-1.117 6.905-3.352 1.631-2.235 2.447-5.117 2.447-8.649v-8.851zm34.662 15.622l.335 1.777h.201l.335-1.643 9.688-35.701h11.867l-15.823 48.809H308.42l-15.756-48.81h11.834l9.554 35.568zm56.72-7.644h-19.141v12.169h22.561v8.716h-33.925V9.088h33.992v8.716h-22.628v10.493h19.141v8.715z" fill="#fff"/></svg>