<svg id="Layer_1" xmlns="http://www.w3.org/2000/svg" viewBox="0 0 60 60"><style>.st0{stroke-width:2}.st0,.st1{fill:none;stroke:#000;stroke-linecap:round;stroke-linejoin:round;stroke-miterlimit:10}</style><path class="st0" d="M-341-139h-6c-2 0-4 2-4 4v26m54 4h-54v6c0 2 2 4 4 4h50c2 0 4-2 4-4v-36c0-2-2-4-4-4h-10"/><circle class="st0" cx="-322" cy="-100" r="1"/><path class="st0" d="M-347-81h36m-26-2v2m4-2v2m4-2v2m4-2v2m-2-10v4m10-4v4m0 4v2m-4-2v2m8-2v2m-28-2v2m-4-2v2m48 0v-1c0-1.7-1.3-3-3-3h-2c-1.7 0-3 1.3-3 3v1h8zm-34-52h-6m2 4h-2m2 4h-2m6 4h-6m20 12v-22l5-8 5 8h-6m-18 22h-6v-30h16v30m-14-8h-2m2 4h-2m30-14v18m-5 0v-18m81 33h46m-16-16v16m-16-29h38v38c0 2.2-1.8 4-4 4h-50c-2.2 0-4-1.8-4-4v-46h10l6 8-6 8h-6m12 0h42m-32-8l-6 8m15-8l-6 8m15-8l-6 8m15-8l-6 8"/><path class="st0" d="M-217-124.8l37.4-6.2-1.3-8-41.8 6.9m4.8-.7l5.5 7.2m3.9-8.7l5.4 7.2m3.3-8.7l5.3 7.2m4-8.7l5.4 7.1"/><text transform="translate(-351 -46)" font-family="Roboto-Bold" font-size="20">Design</text><path class="st0" d="M-91 132h-6c-2 0-4 2-4 4v26m54 4h-54v6c0 2 2 4 4 4h50c2 0 4-2 4-4v-36c0-2-2-4-4-4h-10"/><circle class="st0" cx="-72" cy="171" r="1"/><path class="st0" d="M-97 190h36m-26-2v2m4-2v2m4-2v2m4-2v2m-2-10v4m10-4v4m0 4v2m-4-2v2m8-2v2m-28-2v2m-4-2v2m48 0v-1c0-1.7-1.3-3-3-3h-2c-1.7 0-3 1.3-3 3v1h8zm-34-52h-6m2 4h-2m2 4h-2m6 4h-6m20 12v-22l5-8 5 8h-6m-18 22h-6v-30h16v30m-14-8h-2m2 4h-2m30-14v18m-5 0v-18"/><text transform="translate(-101 225)" font-family="Roboto-Bold" font-size="20">Design</text><text transform="translate(-465 -46)" font-family="Roboto-Bold" font-size="20">Start</text><text transform="translate(-703 -102)" font-family="Roboto-Light" font-size="20">HTML5 Banners</text><path class="st0" d="M-430-134v5c0 2.2 1.8 4 4 4h10v40c0 2.2-1.8 4-4 4h-42c-2.2 0-4-1.8-4-4v-50c0-2.2 1.8-4 4-4"/><circle class="st0" cx="-453" cy="-128" r="7"/><circle class="st0" cx="-453" cy="-110" r="7"/><path class="st0" d="M-458-101v-4m0-28v-6h28l10 10m-38 6s-2 1-2 4 2 4 2 4m7.7-14.3c-.3-.6-.8-1.1-1.4-1.4m1.4 19.4c-.3-.6-.8-1.1-1.4-1.4m13.7-2.3h-4m8 0h8m-15 6h5m4 0h4m-28 12h6m18 0h6m-20 0h10m-7-6h15m-28 12h12m4 0h10"/><text transform="translate(-111 -46)" font-family="Roboto-Bold" font-size="20">Resize</text><text transform="translate(-235 -46)" font-family="Roboto-Bold" font-size="20">Animation</text><path class="st0" d="M14-139H8c-2 0-4 2-4 4v26m54 4H4v6c0 2 2 4 4 4h50c2 0 4-2 4-4v-36c0-2-2-4-4-4H48"/><circle class="st0" cx="33" cy="-100" r="1"/><path class="st0" d="M8-81h36m-26-2v2m4-2v2m4-2v2m4-2v2m-2-10v4m10-4v4m0 4v2m-4-2v2m8-2v2m-28-2v2m-4-2v2m48 0v-1c0-1.7-1.3-3-3-3h-2c-1.7 0-3 1.3-3 3v1h8zm-34-52h-6m2 4h-2m2 4h-2m6 4h-6m20 12v-22l5-8 5 8h-6m-18 22h-6v-30h16v30m-14-8h-2m2 4h-2m30-14v18m-5 0v-18"/><text transform="translate(4 -46)" font-family="Roboto-Bold" font-size="20">Design</text><text transform="translate(263 -46)" font-family="Roboto-Bold" font-size="20">Finish</text><text transform="translate(120 -46)" font-family="Roboto-Bold" font-size="20">Optimization</text><path class="st0" d="M-81-99.4h-27l9.3-9.3 4.2 4.3 7.6-7.6 5.9 5.9"/><circle class="st0" cx="-100" cy="-120.4" r="3.3"/><path class="st0" d="M-100-127v3.3m-5.6 0l2.8 1.6m-2.8 4.9l2.8-1.6m2.8 4.9v-3.3m5.7 0l-2.8-1.6m2.8-4.9l-2.8 1.6M-50-110h-21.3l7.3-7.3 3.3 3.3 6-6 4.7 4.7"/><circle class="st0" cx="-63.3" cy="-127.5" r="2.7"/><path class="st0" d="M-63.3-133v2.7m-4.8.1l2.4 1.3m-2.4 4.2l2.4-1.4m2.4 4.1v-2.8m4.8 0l-2.4-1.3m2.4-4.2l-2.4 1.4m9.7 48.6h-19l6.6-6.6 2.9 3 5.4-5.3 4.1 4.1"/><circle class="st1" cx="-66" cy="-92.9" r="1.2"/><path class="st1" d="M-66-95.3v1.2m-2 0l1 .6m-1 1.7l1-.5m1 1.7v-1.2m2 0l-1-.5m1-1.8l-1 .6"/><path class="st0" d="M-51.4-102h-18.2c-2.4 0-4.4-2-4.4-4.4v-28.2c0-2.4 2-4.4 4.4-4.4h18.2c2.4 0 4.4 2 4.4 4.4v28.2c0 2.4-2 4.4-4.4 4.4zm-31 22h-24.2c-2.4 0-4.4-2-4.4-4.4v-50.2c0-2.4 2-4.4 4.4-4.4h24.2c2.4 0 4.4 2 4.4 4.4v50.2c0 2.4-2 4.4-4.4 4.4zm31-.3h-18.2c-2.4 0-4.4-2-4.4-4.4v-9.2c0-2.4 2-4.4 4.4-4.4h18.2c2.4 0 4.4 2 4.4 4.4v9.2c0 2.4-2 4.4-4.4 4.4zM174-115l-5.9-1.3c-.5-1.7-1.2-3.3-2-4.9l3.2-5.1c.4-.6.4-1 0-1.4l-5.7-5.7c-.4-.4-.8-.3-1.4 0l-5.1 3.2c-1.5-.9-3.2-1.5-4.9-2L151-138c-.2-.7-.4-1-1-1h-8c-.6 0-.8.4-1 1l-1.3 5.9c-1.7.5-3.3 1.2-4.9 2l-5.1-3.2c-.6-.4-1-.4-1.4 0l-5.7 5.7c-.4.4-.3.8 0 1.4l3.2 5.1c-.9 1.5-1.5 3.2-2 4.9L118-115c-.7.2-1 .4-1 1v8c0 .6.4.8 1 1l5.9 1.3c.5 1.7 1.2 3.3 2 4.9l-3.2 5.1c-.4.6-.4 1 0 1.4l5.7 5.7c.4.4.8.3 1.4 0l5.1-3.2c1.5.9 3.2 1.5 4.9 2L141-82c.2.7.4 1 1 1h8c.6 0 .8-.4 1-1l1.3-5.9c1.7-.5 3.3-1.2 4.9-2l5.1 3.2c.6.4 1 .4 1.4 0l5.7-5.7c.4-.4.3-.8 0-1.4l-3.2-5.1c.8-1.5 1.5-3.2 2-4.9l5.9-1.3c.7-.2 1-.4 1-1v-8c-.1-.5-.5-.7-1.1-.9z"/><path class="st0" d="M150-97.6c5.2-1.7 9-6.6 9-12.4 0-7.2-5.8-13-13-13s-13 5.8-13 13 5.8 13 13 13"/><circle class="st0" cx="146" cy="-110" r="3"/><path class="st0" d="M299-134v5c0 2.2 1.8 4 4 4h10v40c0 2.2-1.8 4-4 4h-42c-2.2 0-4-1.8-4-4v-50c0-2.2 1.8-4 4-4h32l10 10"/><circle class="st0" cx="288" cy="-104" r="13"/><path class="st0" d="M285-108v8l7-4zM-344 0h-6c-2 0-4 2-4 4v26m54 4h-54v6c0 2 2 4 4 4h50c2 0 4-2 4-4V4c0-2-2-4-4-4h-10"/><circle class="st0" cx="-325" cy="39" r="1"/><path class="st0" d="M-350 58h36m-26-2v2m4-2v2m4-2v2m4-2v2m-2-10v4m10-4v4m0 4v2m-4-2v2m8-2v2m-28-2v2m-4-2v2m48 0v-1c0-1.7-1.3-3-3-3h-2c-1.7 0-3 1.3-3 3v1h8zm-34-52h-6m2 4h-2m2 4h-2m6 4h-6m20 12V8l5-8 5 8h-6m-18 22h-6V0h16v30m-14-8h-2m2 4h-2m30-14v18m-5 0V12"/><text transform="translate(-354 93)" font-family="Roboto-Bold" font-size="20">Design</text><text transform="translate(-468 93)" font-family="Roboto-Bold" font-size="20">Start</text><text transform="translate(-706 37)" font-family="Roboto-Light" font-size="20">Web Development</text><path class="st0" d="M-433 5v5c0 2.2 1.8 4 4 4h10v40c0 2.2-1.8 4-4 4h-42c-2.2 0-4-1.8-4-4V4c0-2.2 1.8-4 4-4"/><circle class="st0" cx="-456" cy="11" r="7"/><circle class="st0" cx="-456" cy="29" r="7"/><path class="st0" d="M-461 38v-4m0-28V0h28l10 10m-38 6s-2 1-2 4 2 4 2 4m7.7-14.3c-.3-.6-.8-1.1-1.4-1.4m1.4 19.4c-.3-.6-.8-1.1-1.4-1.4M-441 24h-4m8 0h8m-15 6h5m4 0h4m-28 12h6m18 0h6m-20 0h10m-7-6h15m-28 12h12m4 0h10"/><text transform="translate(-468 226)" font-family="Roboto-Bold" font-size="20">Start</text><path class="st0" d="M-433 138v5c0 2.2 1.8 4 4 4h10v40c0 2.2-1.8 4-4 4h-42c-2.2 0-4-1.8-4-4v-50c0-2.2 1.8-4 4-4"/><circle class="st0" cx="-456" cy="144" r="7"/><circle class="st0" cx="-456" cy="162" r="7"/><path class="st0" d="M-461 171v-4m0-28v-6h28l10 10m-38 6s-2 1-2 4 2 4 2 4m7.7-14.3c-.3-.6-.8-1.1-1.4-1.4m1.4 19.4c-.3-.6-.8-1.1-1.4-1.4m13.7-2.3h-4m8 0h8m-15 6h5m4 0h4m-28 12h6m18 0h6m-20 0h10m-7-6h15m-28 12h12m4 0h10"/><text transform="translate(-114 93)" font-family="Roboto-Bold" font-size="20">Back-end</text><text transform="translate(-238 93)" font-family="Roboto-Bold" font-size="20">Front-end</text><text transform="translate(1 93)" font-family="Roboto-Bold" font-size="20">QA</text><text transform="translate(117 93)" font-family="Roboto-Bold" font-size="20">Finish</text><path class="st0" d="M-199 58h-37c-2.3 0-4-1.8-4-4V14m8-9c0 .6-.4 1-1 1s-1-.4-1-1 .4-1 1-1 1 .4 1 1zm6 0c0 .6-.4 1-1 1s-1-.4-1-1 .4-1 1-1 1 .4 1 1zm6 0c0 .6-.4 1-1 1s-1-.4-1-1 .4-1 1-1 1 .4 1 1zm-14 11h8m26 0h4m4 0h4m-20 0h4"/><path class="st0" d="M-199 58h13c2.3 0 4-1.8 4-4V4c0-2.2-1.8-4-4-4h-50c-2.2 0-4 1.8-4 4v6h54"/><path d="M-232.3 36.9l11.3-5.5v2.1l-9 4.2 9 4.2V44l-11.3-5.5v-1.6zm17.8 8.1l5.8-17.3h2l-5.8 17.3h-2zm25.5-6.4l-11.3 5.4v-2.1l9.1-4.2-9.1-4.2v-2.1l11.3 5.4v1.8z"/><path class="st0" d="M48 48l2.8-2.8 7 7c1.6 1.6 1.6 4.1 0 5.7-1.6 1.6-4.1 1.6-5.7 0L40.3 46m7.8-3.6L46 40.3"/><circle class="st0" cx="24" cy="24" r="23"/><circle class="st0" cx="24" cy="24" r="19"/><path class="st0" d="M17 15h12m-16 6h14m-14 6h6m-4 6h8m8 0h-4m8-12h-4m4 6H23M-105 5c0 .6-.4 1-1 1s-1-.4-1-1 .4-1 1-1 1 .4 1 1zm6 0c0 .6-.4 1-1 1s-1-.4-1-1 .4-1 1-1 1 .4 1 1zm6 0c0 .6-.4 1-1 1s-1-.4-1-1 .4-1 1-1 1 .4 1 1zm-12 13h2m-2 4h2m-2 4h2m-2 4h2m-2 4h2m-2 4h2m-2 4h2m-2 4h2m-2 4h2m32-32h-4m6 4h-10m-4 0h-16m10-4h-10m20 0h-6m20 8h-16m10 4h-8m-4 0h-16m4-4h-4m14 0h-6m13 16h-3m-14 0h-4m14 0h-6m4 4h-12m18 0h-2m-10 4h-6m20 0h-10m20-16h-16m9 4h-7m-4 0h-12m10-4h-10m44 16v-4h-2.3c-.2-.7-.5-1.4-.9-2.1l1.6-1.6-2.8-2.8-1.6 1.6c-.6-.4-1.3-.7-2.1-.9V38h-4v2.3c-.7.2-1.4.5-2.1.9l-1.6-1.6-2.8 2.8L-72 44c-.4.6-.7 1.3-.9 2.1H-75v4h2.3c.2.7.5 1.4.9 2.1l-1.6 1.6 2.8 2.8L-69 55c.6.4 1.3.7 2.1.9V58h4v-2.3c.7-.2 1.4-.5 2.1-.9l1.6 1.6 2.8-2.8L-58 52c.4-.6.7-1.3.9-2.1h2.1z"/><circle class="st0" cx="-65" cy="48" r="2"/><path class="st0" d="M-75 58h-34c-2.2 0-4-1.8-4-4V14m54-4h-54V4c0-2.2 1.8-4 4-4h50c2.2 0 4 1.8 4 4v34m207 18c0 1.1-.9 2-2 2h-34c-1.1 0-2-.9-2-2V38c0-1.1.9-2 2-2h34c1.1 0 2 .9 2 2v18zm20-20V2c0-1.1-.9-2-2-2h-38c-1.1 0-2 .9-2 2v30"/><circle class="st0" cx="141" cy="11" r="3"/><circle class="st0" cx="123" cy="45" r="3"/><path class="st0" d="M154 8h8m-8 4h10m-26 10h8m-8 6h14m-14 4h8m10-4h8m-14 4h12m-30 10h6m-6 4h8m-8 6h14m29-12c1.1 0 2 .9 2 2v14c0 1.1-.9 2-2 2h-6c-1.1 0-2-.9-2-2V42c0-1.1.9-2 2-2h6zm-11.2 18H156m8-22h-8m7 4h-7m7 4h-7"/><circle class="st0" cx="172" cy="49" r="1"/><text transform="translate(-236 225)" font-family="Roboto-Bold" font-size="20">Prototyping</text><text transform="translate(-350 225)" font-family="Roboto-Bold" font-size="20">Concept</text><text transform="translate(-706 170)" font-family="Roboto-Light" font-size="20">Web Design</text><text transform="translate(4 225)" font-family="Roboto-Bold" font-size="20">Testing</text><text transform="translate(124 225)" font-family="Roboto-Bold" font-size="20">Finish</text><path class="st0" d="M159 188c0 1.1-.9 2-2 2h-34c-1.1 0-2-.9-2-2v-18c0-1.1.9-2 2-2h34c1.1 0 2 .9 2 2v18zm20-20v-34c0-1.1-.9-2-2-2h-38c-1.1 0-2 .9-2 2v30"/><circle class="st0" cx="148" cy="143" r="3"/><circle class="st0" cx="130" cy="177" r="3"/><path class="st0" d="M161 140h8m-8 4h10m-26 10h8m-8 6h14m-14 4h8m10-4h8m-14 4h12m-30 10h6m-6 4h8m-8 6h14m29-12c1.1 0 2 .9 2 2v14c0 1.1-.9 2-2 2h-6c-1.1 0-2-.9-2-2v-14c0-1.1.9-2 2-2h6zm-11.2 18H163m8-22h-8m7 4h-7m7 4h-7"/><circle class="st0" cx="179" cy="181" r="1"/><path class="st0" d="M-327 190v-12m-4 10v-3s0-3-2-5-5-2-5-2h-3v3s0 3 2 5 5 2 5 2h3zm8 0v-3s0-3 2-5 5-2 5-2h3v3s0 3-2 5-5 2-5 2h-3zm11-41c0-8.3-6.7-15-15-15s-15 6.7-15 15c0 6 6 10.7 7 15l1 4h14l1-4c1-4.3 7-9 7-15zm-20 23h10m-8 4h6"/><path class="st0" d="M-329 162l-3-14s3 2 5 2 5-2 5-2l-3 14m5-23.5c-1.2-1-2.5-1.7-4-2.1-.6-.2-1.2-.3-1.8-.3m9.4 7.9c-.2-.7-.5-1.4-.8-2m-30.8 5h-4m50 0h-4m.7-12.5l-3.5 2m3.5 23l-3.5-2m-36.4-21l-3.5-2m3.5 23l-3.5 2M-228 137c0 .6-.4 1-1 1s-1-.4-1-1 .4-1 1-1 1 .4 1 1zm6 0c0 .6-.4 1-1 1s-1-.4-1-1 .4-1 1-1 1 .4 1 1zm6 0c0 .6-.4 1-1 1s-1-.4-1-1 .4-1 1-1 1 .4 1 1zm32 48.9c2.7-2.7 2.7-7.2 0-9.9s-7.2-2.7-9.9 0c-4 4-4 13.9-4 13.9s9.9.1 13.9-4zm2-15.9l-4.5 4.5m8.5-.5l-4.4 4.4m-3.8 3.6c.4-1.1.1-2.3-.7-3.1M-232 146h10v16h-10zm14 0h36v10h-36zm-14 40v-20h10v20m34-16v-10h6v6m-36 20v-26h26v10"/><path class="st0" d="M-202 190h-30c-2.2 0-4-1.8-4-4v-40m54-4h-54v-6c0-2.2 1.8-4 4-4h50c2.2 0 4 1.8 4 4v34"/><circle class="st0" cx="34" cy="171" r="1"/><path class="st0" d="M35 162l-7.6-12.2c-.7-1.3-.5-2.7.7-3.5 1.3-.7 2.4-.1 3.3 1.1l7.7 10.7c-.7-1.3-.3-2.9 1-3.6 1.3-.7 2.9-.3 3.6 1l.7 1.1c-.7-1.3-.3-2.9 1-3.6 1.3-.7 2.9-.3 3.6 1l1 1.7c-.5-.9-.2-2.2.7-2.7.9-.5 2.2-.1 2.7.7 0 0 3.7 5.2 5.7 12.2H5v6c0 2.3 1.8 4 4 4h50c2.3 0 4-1.7 4-4v-36c0-2.2-1.8-4-4-4H9c-2.2 0-3.9 1.9-4 4v26M29 138v4m7.1-1.1l-2.9 2.9m-11.3-2.9l2.9 2.9M19 148h4m-1.1 7.1l2.9-2.9M39 180v6h4c2 0 4 2 4 4H21c0-2 2-4 4-4h10m-6 0v-6"/></svg>