<?xml version="1.0" encoding="iso-8859-1"?>
<!-- Generator: Adobe Illustrator 19.2.1, SVG Export Plug-In . SVG Version: 6.00 Build 0)  -->
<svg version="1.1" id="&#x421;&#x43B;&#x43E;&#x439;_1"
	 xmlns="http://www.w3.org/2000/svg" xmlns:xlink="http://www.w3.org/1999/xlink" x="0px" y="0px" viewBox="0 0 380.5 64"
	 style="enable-background:new 0 0 380.5 64;" xml:space="preserve">
<path style="fill:#FFFFFF;" d="M48.151,41.102h0.201l6.403-32.014h10.962L54.52,57.897H43.86l-8.213-30.103h-0.201L27.3,57.897
	H16.64L5.41,9.088h10.995l6.403,32.014h0.201l8.615-32.014h7.878L48.151,41.102z"/>
<path style="fill:#FFFFFF;" d="M94.378,48.41H78.992l-2.749,9.487H64.845L80.601,9.088h12.169l15.789,48.809H97.161L94.378,48.41z
	 M81.506,39.694h10.359l-5.096-17.465h-0.201L81.506,39.694z"/>
<path style="fill:#FFFFFF;" d="M124.984,30.408h0.201l9.722-21.32h12.303l-16.594,31.645v17.164h-11.297V40.163L103.061,9.088
	h12.236L124.984,30.408z"/>
<path style="fill:#FFFFFF;" d="M184.219,57.897h-34.16v-7.375l15.689-16.493c1.989-2.28,3.453-4.313,4.392-6.101
	c0.939-1.788,1.408-3.341,1.408-4.66c0-1.877-0.475-3.374-1.425-4.492c-0.95-1.117-2.375-1.676-4.274-1.676
	c-1.699,0-3.034,0.721-4.006,2.162c-0.972,1.442-1.458,3.28-1.458,5.515h-11.062l-0.067-0.201
	c-0.112-4.514,1.363-8.341,4.425-11.481c3.062-3.14,7.118-4.71,12.169-4.71c5.364,0,9.548,1.319,12.554,3.956
	c3.006,2.637,4.509,6.247,4.509,10.828c0,3.084-0.799,5.811-2.397,8.18c-1.598,2.369-4.542,5.889-8.833,10.56l-6.604,7.073
	l0.101,0.201h19.041V57.897z"/>
<path style="fill:#FFFFFF;" d="M205.539,9.088l10.928,34.159h0.201l11.062-34.159h14.951v48.809h-11.364V45.795l1.073-22.292
	l-0.201-0.034l-11.767,34.428h-7.643l-11.632-34.126l-0.201,0.034l1.073,21.991v12.102h-11.364V9.088H205.539z"/>
<path style="fill:#FFFFFF;" d="M290.687,37.884c0,6.012-1.906,10.968-5.716,14.867c-3.81,3.9-8.789,5.85-14.934,5.85
	c-6.191,0-11.208-1.95-15.052-5.85c-3.844-3.9-5.766-8.855-5.766-14.867v-8.783c0-5.989,1.916-10.939,5.749-14.851
	c3.833-3.911,8.833-5.866,15.001-5.866c6.123,0,11.107,1.956,14.951,5.866c3.844,3.911,5.766,8.861,5.766,14.851V37.884z
	 M279.39,29.034c0-3.486-0.821-6.347-2.464-8.582c-1.643-2.234-3.961-3.352-6.956-3.352c-3.062,0-5.403,1.112-7.023,3.336
	c-1.621,2.224-2.43,5.09-2.43,8.599v8.85c0,3.531,0.821,6.414,2.464,8.649c1.643,2.235,3.994,3.352,7.057,3.352
	c2.972,0,5.274-1.117,6.905-3.352c1.631-2.235,2.447-5.117,2.447-8.649V29.034z"/>
<path style="fill:#FFFFFF;" d="M314.052,44.656l0.335,1.777h0.201l0.335-1.643l9.688-35.701h11.867l-15.823,48.809H308.42
	L292.664,9.088h11.834L314.052,44.656z"/>
<path style="fill:#FFFFFF;" d="M370.772,37.012h-19.141v12.169h22.561v8.716h-33.925V9.088h33.992v8.716h-22.628v10.493h19.141
	V37.012z"/>
</svg>
