<?xml version="1.0" encoding="utf-8"?>
<!-- Generator: Adobe Illustrator 21.0.2, SVG Export Plug-In . SVG Version: 6.00 Build 0)  -->
<svg version="1.1" id="Layer_1" xmlns="http://www.w3.org/2000/svg" xmlns:xlink="http://www.w3.org/1999/xlink" x="0px" y="0px"
	 viewBox="0 0 60 60" style="enable-background:new 0 0 60 60;" xml:space="preserve">
<style type="text/css">
	.st0{fill:none;stroke:#000000;stroke-width:2;stroke-linecap:round;stroke-linejoin:round;stroke-miterlimit:10;}
	.st1{fill:none;stroke:#000000;stroke-linecap:round;stroke-linejoin:round;stroke-miterlimit:10;}
</style>
<g>
	<path class="st0" d="M-103,1h-6c-2,0-4,2-4,4v26"/>
	<path class="st0" d="M-59,35h-54v6c0,2,2,4,4,4h50c2,0,4-2,4-4V5c0-2-2-4-4-4h-10"/>
	<circle class="st0" cx="-84" cy="40" r="1"/>
	<line class="st0" x1="-109" y1="59" x2="-73" y2="59"/>
	<line class="st0" x1="-99" y1="57" x2="-99" y2="59"/>
	<line class="st0" x1="-95" y1="57" x2="-95" y2="59"/>
	<line class="st0" x1="-91" y1="57" x2="-91" y2="59"/>
	<line class="st0" x1="-87" y1="57" x2="-87" y2="59"/>
	<line class="st0" x1="-89" y1="49" x2="-89" y2="53"/>
	<line class="st0" x1="-79" y1="49" x2="-79" y2="53"/>
	<line class="st0" x1="-79" y1="57" x2="-79" y2="59"/>
	<line class="st0" x1="-83" y1="57" x2="-83" y2="59"/>
	<line class="st0" x1="-75" y1="57" x2="-75" y2="59"/>
	<line class="st0" x1="-103" y1="57" x2="-103" y2="59"/>
	<line class="st0" x1="-107" y1="57" x2="-107" y2="59"/>
	<path class="st0" d="M-59,59v-1c0-1.7-1.3-3-3-3h-2c-1.7,0-3,1.3-3,3v1H-59z"/>
	<line class="st0" x1="-93" y1="7" x2="-99" y2="7"/>
	<line class="st0" x1="-97" y1="11" x2="-99" y2="11"/>
	<line class="st0" x1="-97" y1="15" x2="-99" y2="15"/>
	<line class="st0" x1="-93" y1="19" x2="-99" y2="19"/>
	<polyline class="st0" points="-79,31 -79,9 -74,1 -69,9 -75,9 	"/>
	<polyline class="st0" points="-93,31 -99,31 -99,1 -83,1 -83,31 	"/>
	<line class="st0" x1="-97" y1="23" x2="-99" y2="23"/>
	<line class="st0" x1="-97" y1="27" x2="-99" y2="27"/>
	<line class="st0" x1="-69" y1="13" x2="-69" y2="31"/>
	<line class="st0" x1="-74" y1="31" x2="-74" y2="13"/>
</g>
<g>
	<line class="st0" x1="7" y1="46" x2="53" y2="46"/>
	<line class="st0" x1="37" y1="30" x2="37" y2="46"/>
	<path class="st0" d="M21,17h38v38c0,2.2-1.8,4-4,4H5c-2.2,0-4-1.8-4-4V9h10l6,8l-6,8H5"/>
	<line class="st0" x1="17" y1="25" x2="59" y2="25"/>
	<line class="st0" x1="27" y1="17" x2="21" y2="25"/>
	<line class="st0" x1="36" y1="17" x2="30" y2="25"/>
	<line class="st0" x1="45" y1="17" x2="39" y2="25"/>
	<line class="st0" x1="54" y1="17" x2="48" y2="25"/>
	<polyline class="st0" points="21,15.2 58.4,8.9 57.1,1 15.3,7.9 	"/>
	<line class="st0" x1="20.1" y1="7.2" x2="25.6" y2="14.4"/>
	<line class="st0" x1="29.5" y1="5.6" x2="34.9" y2="12.9"/>
	<line class="st0" x1="38.2" y1="4.2" x2="43.5" y2="11.4"/>
	<line class="st0" x1="47.5" y1="2.7" x2="52.9" y2="9.8"/>
</g>
<text transform="matrix(1 0 0 1 -113 93.9844)" style="font-family:'Roboto-Bold'; font-size:20px;">Design</text>
<g>
	<path class="st0" d="M147,272h-6c-2,0-4,2-4,4v26"/>
	<path class="st0" d="M191,306h-54v6c0,2,2,4,4,4h50c2,0,4-2,4-4v-36c0-2-2-4-4-4h-10"/>
	<circle class="st0" cx="166" cy="311" r="1"/>
	<line class="st0" x1="141" y1="330" x2="177" y2="330"/>
	<line class="st0" x1="151" y1="328" x2="151" y2="330"/>
	<line class="st0" x1="155" y1="328" x2="155" y2="330"/>
	<line class="st0" x1="159" y1="328" x2="159" y2="330"/>
	<line class="st0" x1="163" y1="328" x2="163" y2="330"/>
	<line class="st0" x1="161" y1="320" x2="161" y2="324"/>
	<line class="st0" x1="171" y1="320" x2="171" y2="324"/>
	<line class="st0" x1="171" y1="328" x2="171" y2="330"/>
	<line class="st0" x1="167" y1="328" x2="167" y2="330"/>
	<line class="st0" x1="175" y1="328" x2="175" y2="330"/>
	<line class="st0" x1="147" y1="328" x2="147" y2="330"/>
	<line class="st0" x1="143" y1="328" x2="143" y2="330"/>
	<path class="st0" d="M191,330v-1c0-1.7-1.3-3-3-3h-2c-1.7,0-3,1.3-3,3v1H191z"/>
	<line class="st0" x1="157" y1="278" x2="151" y2="278"/>
	<line class="st0" x1="153" y1="282" x2="151" y2="282"/>
	<line class="st0" x1="153" y1="286" x2="151" y2="286"/>
	<line class="st0" x1="157" y1="290" x2="151" y2="290"/>
	<polyline class="st0" points="171,302 171,280 176,272 181,280 175,280 	"/>
	<polyline class="st0" points="157,302 151,302 151,272 167,272 167,302 	"/>
	<line class="st0" x1="153" y1="294" x2="151" y2="294"/>
	<line class="st0" x1="153" y1="298" x2="151" y2="298"/>
	<line class="st0" x1="181" y1="284" x2="181" y2="302"/>
	<line class="st0" x1="176" y1="302" x2="176" y2="284"/>
</g>
<text transform="matrix(1 0 0 1 137 364.9844)" style="font-family:'Roboto-Bold'; font-size:20px;">Design</text>
<text transform="matrix(1 0 0 1 -227 93.9844)" style="font-family:'Roboto-Bold'; font-size:20px;">Start</text>
<g>
	<text transform="matrix(1 0 0 1 -465 37.9844)" style="font-family:'Roboto-Light'; font-size:20px;">HTML5 Banners</text>
</g>
<g>
	<path class="st0" d="M-192,6v5c0,2.2,1.8,4,4,4h10v40c0,2.2-1.8,4-4,4h-42c-2.2,0-4-1.8-4-4V5c0-2.2,1.8-4,4-4"/>
	<circle class="st0" cx="-215" cy="12" r="7"/>
	<circle class="st0" cx="-215" cy="30" r="7"/>
	<line class="st0" x1="-220" y1="39" x2="-220" y2="35"/>
	<polyline class="st0" points="-220,7 -220,1 -192,1 -182,11 	"/>
	<path class="st0" d="M-220,17c0,0-2,1-2,4s2,4,2,4"/>
	<path class="st0" d="M-212.3,10.7c-0.3-0.6-0.8-1.1-1.4-1.4"/>
	<path class="st0" d="M-212.3,28.7c-0.3-0.6-0.8-1.1-1.4-1.4"/>
	<line class="st0" x1="-200" y1="25" x2="-204" y2="25"/>
	<line class="st0" x1="-196" y1="25" x2="-188" y2="25"/>
	<line class="st0" x1="-203" y1="31" x2="-198" y2="31"/>
	<line class="st0" x1="-194" y1="31" x2="-190" y2="31"/>
	<line class="st0" x1="-218" y1="43" x2="-212" y2="43"/>
	<line class="st0" x1="-194" y1="43" x2="-188" y2="43"/>
	<line class="st0" x1="-208" y1="43" x2="-198" y2="43"/>
	<line class="st0" x1="-205" y1="37" x2="-190" y2="37"/>
	<line class="st0" x1="-218" y1="49" x2="-206" y2="49"/>
	<line class="st0" x1="-202" y1="49" x2="-192" y2="49"/>
</g>
<text transform="matrix(1 0 0 1 127 93.9844)" style="font-family:'Roboto-Bold'; font-size:20px;">Resize</text>
<text transform="matrix(1 0 0 1 3 93.9844)" style="font-family:'Roboto-Bold'; font-size:20px;">Animation</text>
<g>
	<path class="st0" d="M252,1h-6c-2,0-4,2-4,4v26"/>
	<path class="st0" d="M296,35h-54v6c0,2,2,4,4,4h50c2,0,4-2,4-4V5c0-2-2-4-4-4h-10"/>
	<circle class="st0" cx="271" cy="40" r="1"/>
	<line class="st0" x1="246" y1="59" x2="282" y2="59"/>
	<line class="st0" x1="256" y1="57" x2="256" y2="59"/>
	<line class="st0" x1="260" y1="57" x2="260" y2="59"/>
	<line class="st0" x1="264" y1="57" x2="264" y2="59"/>
	<line class="st0" x1="268" y1="57" x2="268" y2="59"/>
	<line class="st0" x1="266" y1="49" x2="266" y2="53"/>
	<line class="st0" x1="276" y1="49" x2="276" y2="53"/>
	<line class="st0" x1="276" y1="57" x2="276" y2="59"/>
	<line class="st0" x1="272" y1="57" x2="272" y2="59"/>
	<line class="st0" x1="280" y1="57" x2="280" y2="59"/>
	<line class="st0" x1="252" y1="57" x2="252" y2="59"/>
	<line class="st0" x1="248" y1="57" x2="248" y2="59"/>
	<path class="st0" d="M296,59v-1c0-1.7-1.3-3-3-3h-2c-1.7,0-3,1.3-3,3v1H296z"/>
	<line class="st0" x1="262" y1="7" x2="256" y2="7"/>
	<line class="st0" x1="258" y1="11" x2="256" y2="11"/>
	<line class="st0" x1="258" y1="15" x2="256" y2="15"/>
	<line class="st0" x1="262" y1="19" x2="256" y2="19"/>
	<polyline class="st0" points="276,31 276,9 281,1 286,9 280,9 	"/>
	<polyline class="st0" points="262,31 256,31 256,1 272,1 272,31 	"/>
	<line class="st0" x1="258" y1="23" x2="256" y2="23"/>
	<line class="st0" x1="258" y1="27" x2="256" y2="27"/>
	<line class="st0" x1="286" y1="13" x2="286" y2="31"/>
	<line class="st0" x1="281" y1="31" x2="281" y2="13"/>
</g>
<text transform="matrix(1 0 0 1 242 93.9844)" style="font-family:'Roboto-Bold'; font-size:20px;">Design</text>
<text transform="matrix(1 0 0 1 501 93.9844)" style="font-family:'Roboto-Bold'; font-size:20px;">Finish </text>
<text transform="matrix(1 0 0 1 358 93.9844)" style="font-family:'Roboto-Bold'; font-size:20px;">Optimization </text>
<g>
	<g>
		<polyline class="st0" points="157,40.6 130,40.6 139.3,31.3 143.5,35.5 151.1,28 157,33.9 		"/>
		<circle class="st0" cx="138" cy="19.5" r="3.3"/>
		<line class="st0" x1="138" y1="13" x2="138" y2="16.3"/>
		<line class="st0" x1="132.4" y1="16.3" x2="135.2" y2="17.9"/>
		<line class="st0" x1="132.4" y1="22.8" x2="135.2" y2="21.2"/>
		<line class="st0" x1="138" y1="26.1" x2="138" y2="22.8"/>
		<line class="st0" x1="143.7" y1="22.8" x2="140.9" y2="21.2"/>
		<line class="st0" x1="143.7" y1="16.3" x2="140.9" y2="17.9"/>
	</g>
	<g>
		<polyline class="st0" points="188,30 166.7,30 174,22.7 177.3,26 183.3,20 188,24.7 		"/>
		<circle class="st0" cx="174.7" cy="12.5" r="2.7"/>
		<line class="st0" x1="174.7" y1="7" x2="174.7" y2="9.7"/>
		<line class="st0" x1="169.9" y1="9.7" x2="172.3" y2="11.1"/>
		<line class="st0" x1="169.9" y1="15.2" x2="172.3" y2="13.9"/>
		<line class="st0" x1="174.7" y1="18" x2="174.7" y2="15.2"/>
		<line class="st0" x1="179.5" y1="15.2" x2="177.1" y2="13.9"/>
		<line class="st0" x1="179.5" y1="9.7" x2="177.1" y2="11.1"/>
	</g>
	<g>
		<polyline class="st0" points="186.8,59.7 167.8,59.7 174.4,53.1 177.3,56.1 182.7,50.7 186.8,54.9 		"/>
		<circle class="st1" cx="172" cy="47.1" r="1.2"/>
		<line class="st1" x1="172" y1="44.7" x2="172" y2="45.9"/>
		<line class="st1" x1="170" y1="45.9" x2="171" y2="46.5"/>
		<line class="st1" x1="170" y1="48.2" x2="171" y2="47.6"/>
		<line class="st1" x1="172" y1="49.4" x2="172" y2="48.2"/>
		<line class="st1" x1="174" y1="48.2" x2="173" y2="47.6"/>
		<line class="st1" x1="174" y1="45.9" x2="173" y2="46.5"/>
	</g>
	<path class="st0" d="M186.6,38h-18.2c-2.4,0-4.4-2-4.4-4.4V5.4c0-2.4,2-4.4,4.4-4.4h18.2c2.4,0,4.4,2,4.4,4.4v28.2
		C191,36,189,38,186.6,38z"/>
	<path class="st0" d="M155.6,60h-24.2c-2.4,0-4.4-2-4.4-4.4V5.4c0-2.4,2-4.4,4.4-4.4h24.2c2.4,0,4.4,2,4.4,4.4v50.2
		C160,58,158,60,155.6,60z"/>
	<path class="st0" d="M186.6,59.7h-18.2c-2.4,0-4.4-2-4.4-4.4v-9.2c0-2.4,2-4.4,4.4-4.4h18.2c2.4,0,4.4,2,4.4,4.4v9.2
		C191,57.7,189,59.7,186.6,59.7z"/>
</g>
<g>
	<path class="st0" d="M412,25l-5.9-1.3c-0.5-1.7-1.2-3.3-2-4.9l3.2-5.1c0.4-0.6,0.4-1,0-1.4l-5.7-5.7c-0.4-0.4-0.8-0.3-1.4,0
		l-5.1,3.2c-1.5-0.9-3.2-1.5-4.9-2L389,2c-0.2-0.7-0.4-1-1-1h-8c-0.6,0-0.8,0.4-1,1l-1.3,5.9c-1.7,0.5-3.3,1.2-4.9,2l-5.1-3.2
		c-0.6-0.4-1-0.4-1.4,0l-5.7,5.7c-0.4,0.4-0.3,0.8,0,1.4l3.2,5.1c-0.9,1.5-1.5,3.2-2,4.9L356,25c-0.7,0.2-1,0.4-1,1v8
		c0,0.6,0.4,0.8,1,1l5.9,1.3c0.5,1.7,1.2,3.3,2,4.9l-3.2,5.1c-0.4,0.6-0.4,1,0,1.4l5.7,5.7c0.4,0.4,0.8,0.3,1.4,0l5.1-3.2
		c1.5,0.9,3.2,1.5,4.9,2L379,58c0.2,0.7,0.4,1,1,1l8,0c0.6,0,0.8-0.4,1-1l1.3-5.9c1.7-0.5,3.3-1.2,4.9-2l5.1,3.2
		c0.6,0.4,1,0.4,1.4,0l5.7-5.7c0.4-0.4,0.3-0.8,0-1.4l-3.2-5.1c0.8-1.5,1.5-3.2,2-4.9L412,35c0.7-0.2,1-0.4,1-1v-8
		C413,25.4,412.6,25.2,412,25z"/>
	<path class="st0" d="M388,42.4c5.2-1.7,9-6.6,9-12.4c0-7.2-5.8-13-13-13c-7.2,0-13,5.8-13,13s5.8,13,13,13"/>
	<circle class="st0" cx="384" cy="30" r="3"/>
</g>
<g>
	<path class="st0" d="M537,6v5c0,2.2,1.8,4,4,4h10v40c0,2.2-1.8,4-4,4h-42c-2.2,0-4-1.8-4-4V5c0-2.2,1.8-4,4-4h32l10,10"/>
	<circle class="st0" cx="526" cy="36" r="13"/>
	<polygon class="st0" points="523,32 523,40 530,36 	"/>
</g>
<g>
	<path class="st0" d="M-106,140h-6c-2,0-4,2-4,4v26"/>
	<path class="st0" d="M-62,174h-54v6c0,2,2,4,4,4h50c2,0,4-2,4-4v-36c0-2-2-4-4-4h-10"/>
	<circle class="st0" cx="-87" cy="179" r="1"/>
	<line class="st0" x1="-112" y1="198" x2="-76" y2="198"/>
	<line class="st0" x1="-102" y1="196" x2="-102" y2="198"/>
	<line class="st0" x1="-98" y1="196" x2="-98" y2="198"/>
	<line class="st0" x1="-94" y1="196" x2="-94" y2="198"/>
	<line class="st0" x1="-90" y1="196" x2="-90" y2="198"/>
	<line class="st0" x1="-92" y1="188" x2="-92" y2="192"/>
	<line class="st0" x1="-82" y1="188" x2="-82" y2="192"/>
	<line class="st0" x1="-82" y1="196" x2="-82" y2="198"/>
	<line class="st0" x1="-86" y1="196" x2="-86" y2="198"/>
	<line class="st0" x1="-78" y1="196" x2="-78" y2="198"/>
	<line class="st0" x1="-106" y1="196" x2="-106" y2="198"/>
	<line class="st0" x1="-110" y1="196" x2="-110" y2="198"/>
	<path class="st0" d="M-62,198v-1c0-1.7-1.3-3-3-3h-2c-1.7,0-3,1.3-3,3v1H-62z"/>
	<line class="st0" x1="-96" y1="146" x2="-102" y2="146"/>
	<line class="st0" x1="-100" y1="150" x2="-102" y2="150"/>
	<line class="st0" x1="-100" y1="154" x2="-102" y2="154"/>
	<line class="st0" x1="-96" y1="158" x2="-102" y2="158"/>
	<polyline class="st0" points="-82,170 -82,148 -77,140 -72,148 -78,148 	"/>
	<polyline class="st0" points="-96,170 -102,170 -102,140 -86,140 -86,170 	"/>
	<line class="st0" x1="-100" y1="162" x2="-102" y2="162"/>
	<line class="st0" x1="-100" y1="166" x2="-102" y2="166"/>
	<line class="st0" x1="-72" y1="152" x2="-72" y2="170"/>
	<line class="st0" x1="-77" y1="170" x2="-77" y2="152"/>
</g>
<text transform="matrix(1 0 0 1 -116 232.9844)" style="font-family:'Roboto-Bold'; font-size:20px;">Design</text>
<text transform="matrix(1 0 0 1 -230 232.9844)" style="font-family:'Roboto-Bold'; font-size:20px;">Start</text>
<g>
	<text transform="matrix(1 0 0 1 -468 176.9844)" style="font-family:'Roboto-Light'; font-size:20px;">Web Development</text>
</g>
<g>
	<path class="st0" d="M-195,145v5c0,2.2,1.8,4,4,4h10v40c0,2.2-1.8,4-4,4h-42c-2.2,0-4-1.8-4-4v-50c0-2.2,1.8-4,4-4"/>
	<circle class="st0" cx="-218" cy="151" r="7"/>
	<circle class="st0" cx="-218" cy="169" r="7"/>
	<line class="st0" x1="-223" y1="178" x2="-223" y2="174"/>
	<polyline class="st0" points="-223,146 -223,140 -195,140 -185,150 	"/>
	<path class="st0" d="M-223,156c0,0-2,1-2,4s2,4,2,4"/>
	<path class="st0" d="M-215.3,149.7c-0.3-0.6-0.8-1.1-1.4-1.4"/>
	<path class="st0" d="M-215.3,167.7c-0.3-0.6-0.8-1.1-1.4-1.4"/>
	<line class="st0" x1="-203" y1="164" x2="-207" y2="164"/>
	<line class="st0" x1="-199" y1="164" x2="-191" y2="164"/>
	<line class="st0" x1="-206" y1="170" x2="-201" y2="170"/>
	<line class="st0" x1="-197" y1="170" x2="-193" y2="170"/>
	<line class="st0" x1="-221" y1="182" x2="-215" y2="182"/>
	<line class="st0" x1="-197" y1="182" x2="-191" y2="182"/>
	<line class="st0" x1="-211" y1="182" x2="-201" y2="182"/>
	<line class="st0" x1="-208" y1="176" x2="-193" y2="176"/>
	<line class="st0" x1="-221" y1="188" x2="-209" y2="188"/>
	<line class="st0" x1="-205" y1="188" x2="-195" y2="188"/>
</g>
<text transform="matrix(1 0 0 1 -230 365.9844)" style="font-family:'Roboto-Bold'; font-size:20px;">Start</text>
<g>
	<path class="st0" d="M-195,278v5c0,2.2,1.8,4,4,4h10v40c0,2.2-1.8,4-4,4h-42c-2.2,0-4-1.8-4-4v-50c0-2.2,1.8-4,4-4"/>
	<circle class="st0" cx="-218" cy="284" r="7"/>
	<circle class="st0" cx="-218" cy="302" r="7"/>
	<line class="st0" x1="-223" y1="311" x2="-223" y2="307"/>
	<polyline class="st0" points="-223,279 -223,273 -195,273 -185,283 	"/>
	<path class="st0" d="M-223,289c0,0-2,1-2,4s2,4,2,4"/>
	<path class="st0" d="M-215.3,282.7c-0.3-0.6-0.8-1.1-1.4-1.4"/>
	<path class="st0" d="M-215.3,300.7c-0.3-0.6-0.8-1.1-1.4-1.4"/>
	<line class="st0" x1="-203" y1="297" x2="-207" y2="297"/>
	<line class="st0" x1="-199" y1="297" x2="-191" y2="297"/>
	<line class="st0" x1="-206" y1="303" x2="-201" y2="303"/>
	<line class="st0" x1="-197" y1="303" x2="-193" y2="303"/>
	<line class="st0" x1="-221" y1="315" x2="-215" y2="315"/>
	<line class="st0" x1="-197" y1="315" x2="-191" y2="315"/>
	<line class="st0" x1="-211" y1="315" x2="-201" y2="315"/>
	<line class="st0" x1="-208" y1="309" x2="-193" y2="309"/>
	<line class="st0" x1="-221" y1="321" x2="-209" y2="321"/>
	<line class="st0" x1="-205" y1="321" x2="-195" y2="321"/>
</g>
<text transform="matrix(1 0 0 1 124 232.9844)" style="font-family:'Roboto-Bold'; font-size:20px;">Back-end</text>
<text transform="matrix(1 0 0 1 0 232.9844)" style="font-family:'Roboto-Bold'; font-size:20px;">Front-end</text>
<text transform="matrix(1 0 0 1 239 232.9844)" style="font-family:'Roboto-Bold'; font-size:20px;">QA </text>
<text transform="matrix(1 0 0 1 355 232.9844)" style="font-family:'Roboto-Bold'; font-size:20px;">Finish </text>
<g>
	<path class="st0" d="M39,198H2c-2.3,0-4-1.8-4-4v-40"/>
	<path class="st0" d="M6,145c0,0.6-0.4,1-1,1l0,0c-0.6,0-1-0.4-1-1l0,0c0-0.6,0.4-1,1-1l0,0C5.6,144,6,144.4,6,145L6,145z"/>
	<path class="st0" d="M12,145c0,0.6-0.4,1-1,1l0,0c-0.6,0-1-0.4-1-1l0,0c0-0.6,0.4-1,1-1l0,0C11.6,144,12,144.4,12,145L12,145z"/>
	<path class="st0" d="M18,145c0,0.6-0.4,1-1,1l0,0c-0.6,0-1-0.4-1-1l0,0c0-0.6,0.4-1,1-1l0,0C17.6,144,18,144.4,18,145L18,145z"/>
	<line class="st0" x1="4" y1="156" x2="12" y2="156"/>
	<line class="st0" x1="38" y1="156" x2="42" y2="156"/>
	<line class="st0" x1="46" y1="156" x2="50" y2="156"/>
	<line class="st0" x1="30" y1="156" x2="34" y2="156"/>
	<path class="st0" d="M39,198h13c2.3,0,4-1.8,4-4v-50c0-2.2-1.8-4-4-4H2c-2.2,0-4,1.8-4,4v6h54"/>
	<g>
		<path d="M5.7,176.8l11.3-5.5v2.1l-9,4.2v0l9,4.2v2.1l-11.3-5.5V176.8z"/>
		<path d="M23.5,185l5.8-17.3h2L25.6,185H23.5z"/>
		<path d="M49,178.6L37.7,184v-2.1l9.1-4.2v0l-9.1-4.2v-2.1l11.3,5.4V178.6z"/>
	</g>
</g>
<g>
	<path class="st0" d="M286,188l2.8-2.8l7,7c1.6,1.6,1.6,4.1,0,5.7c-1.6,1.6-4.1,1.6-5.7,0L278.3,186"/>
	<line class="st0" x1="286.1" y1="182.4" x2="284" y2="180.3"/>
	<circle class="st0" cx="262" cy="164" r="23"/>
	<circle class="st0" cx="262" cy="164" r="19"/>
	<line class="st0" x1="255" y1="155" x2="267" y2="155"/>
	<line class="st0" x1="251" y1="161" x2="265" y2="161"/>
	<line class="st0" x1="251" y1="167" x2="257" y2="167"/>
	<line class="st0" x1="253" y1="173" x2="261" y2="173"/>
	<line class="st0" x1="269" y1="173" x2="265" y2="173"/>
	<line class="st0" x1="273" y1="161" x2="269" y2="161"/>
	<line class="st0" x1="273" y1="167" x2="261" y2="167"/>
</g>
<g>
	<path class="st0" d="M133,145c0,0.6-0.4,1-1,1l0,0c-0.6,0-1-0.4-1-1l0,0c0-0.6,0.4-1,1-1l0,0C132.6,144,133,144.4,133,145L133,145z
		"/>
	<path class="st0" d="M139,145c0,0.6-0.4,1-1,1l0,0c-0.6,0-1-0.4-1-1l0,0c0-0.6,0.4-1,1-1l0,0C138.6,144,139,144.4,139,145L139,145z
		"/>
	<path class="st0" d="M145,145c0,0.6-0.4,1-1,1l0,0c-0.6,0-1-0.4-1-1l0,0c0-0.6,0.4-1,1-1l0,0C144.6,144,145,144.4,145,145L145,145z
		"/>
	<line class="st0" x1="133" y1="158" x2="135" y2="158"/>
	<line class="st0" x1="133" y1="162" x2="135" y2="162"/>
	<line class="st0" x1="133" y1="166" x2="135" y2="166"/>
	<line class="st0" x1="133" y1="170" x2="135" y2="170"/>
	<line class="st0" x1="133" y1="174" x2="135" y2="174"/>
	<line class="st0" x1="133" y1="178" x2="135" y2="178"/>
	<line class="st0" x1="133" y1="182" x2="135" y2="182"/>
	<line class="st0" x1="133" y1="186" x2="135" y2="186"/>
	<line class="st0" x1="133" y1="190" x2="135" y2="190"/>
	<line class="st0" x1="167" y1="158" x2="163" y2="158"/>
	<line class="st0" x1="169" y1="162" x2="159" y2="162"/>
	<line class="st0" x1="155" y1="162" x2="139" y2="162"/>
	<line class="st0" x1="149" y1="158" x2="139" y2="158"/>
	<line class="st0" x1="159" y1="158" x2="153" y2="158"/>
	<line class="st0" x1="173" y1="166" x2="157" y2="166"/>
	<line class="st0" x1="167" y1="170" x2="159" y2="170"/>
	<line class="st0" x1="155" y1="170" x2="139" y2="170"/>
	<line class="st0" x1="143" y1="166" x2="139" y2="166"/>
	<line class="st0" x1="153" y1="166" x2="147" y2="166"/>
	<line class="st0" x1="160" y1="182" x2="157" y2="182"/>
	<line class="st0" x1="143" y1="182" x2="139" y2="182"/>
	<line class="st0" x1="153" y1="182" x2="147" y2="182"/>
	<line class="st0" x1="151" y1="186" x2="139" y2="186"/>
	<line class="st0" x1="157" y1="186" x2="155" y2="186"/>
	<line class="st0" x1="145" y1="190" x2="139" y2="190"/>
	<line class="st0" x1="159" y1="190" x2="149" y2="190"/>
	<line class="st0" x1="169" y1="174" x2="153" y2="174"/>
	<line class="st0" x1="162" y1="178" x2="155" y2="178"/>
	<line class="st0" x1="151" y1="178" x2="139" y2="178"/>
	<line class="st0" x1="149" y1="174" x2="139" y2="174"/>
	<path class="st0" d="M183,190v-4h-2.3c-0.2-0.7-0.5-1.4-0.9-2.1l1.6-1.6l-2.8-2.8l-1.6,1.6c-0.6-0.4-1.3-0.7-2.1-0.9V178h-4v2.3
		c-0.7,0.2-1.4,0.5-2.1,0.9l-1.6-1.6l-2.8,2.8l1.6,1.6c-0.4,0.6-0.7,1.3-0.9,2.1H163v4h2.3c0.2,0.7,0.5,1.4,0.9,2.1l-1.6,1.6
		l2.8,2.8l1.6-1.6c0.6,0.4,1.3,0.7,2.1,0.9v2.3h4v-2.3c0.7-0.2,1.4-0.5,2.1-0.9l1.6,1.6l2.8-2.8l-1.6-1.6c0.4-0.6,0.7-1.3,0.9-2.1
		H183z"/>
	<circle class="st0" cx="173" cy="188" r="2"/>
	<path class="st0" d="M163,198h-34c-2.2,0-4-1.8-4-4v-40"/>
	<path class="st0" d="M179,150h-54v-6c0-2.2,1.8-4,4-4h50c2.2,0,4,1.8,4,4v34"/>
</g>
<g>
	<path class="st0" d="M390,196c0,1.1-0.9,2-2,2h-34c-1.1,0-2-0.9-2-2v-18c0-1.1,0.9-2,2-2h34c1.1,0,2,0.9,2,2V196z"/>
	<path class="st0" d="M410,176v-34c0-1.1-0.9-2-2-2h-38c-1.1,0-2,0.9-2,2v30"/>
	<circle class="st0" cx="379" cy="151" r="3"/>
	<circle class="st0" cx="361" cy="185" r="3"/>
	<line class="st0" x1="392" y1="148" x2="400" y2="148"/>
	<line class="st0" x1="392" y1="152" x2="402" y2="152"/>
	<line class="st0" x1="376" y1="162" x2="384" y2="162"/>
	<line class="st0" x1="376" y1="168" x2="390" y2="168"/>
	<line class="st0" x1="376" y1="172" x2="384" y2="172"/>
	<line class="st0" x1="394" y1="168" x2="402" y2="168"/>
	<line class="st0" x1="388" y1="172" x2="400" y2="172"/>
	<line class="st0" x1="370" y1="182" x2="376" y2="182"/>
	<line class="st0" x1="370" y1="186" x2="378" y2="186"/>
	<line class="st0" x1="370" y1="192" x2="384" y2="192"/>
	<path class="st0" d="M413,180c1.1,0,2,0.9,2,2v14c0,1.1-0.9,2-2,2h-6c-1.1,0-2-0.9-2-2v-14c0-1.1,0.9-2,2-2H413z"/>
	<line class="st0" x1="401.8" y1="198" x2="394" y2="198"/>
	<line class="st0" x1="402" y1="176" x2="394" y2="176"/>
	<line class="st0" x1="401" y1="180" x2="394" y2="180"/>
	<line class="st0" x1="401" y1="184" x2="394" y2="184"/>
	<circle class="st0" cx="410" cy="189" r="1"/>
</g>
<text transform="matrix(1 0 0 1 2 364.9844)" style="font-family:'Roboto-Bold'; font-size:20px;">Prototyping</text>
<text transform="matrix(1 0 0 1 -112 364.9844)" style="font-family:'Roboto-Bold'; font-size:20px;">Concept</text>
<g>
	<text transform="matrix(1 0 0 1 -468 309.9844)" style="font-family:'Roboto-Light'; font-size:20px;">Web Design</text>
</g>
<text transform="matrix(1 0 0 1 242 364.9844)" style="font-family:'Roboto-Bold'; font-size:20px;">Testing</text>
<text transform="matrix(1 0 0 1 362 364.9844)" style="font-family:'Roboto-Bold'; font-size:20px;">Finish </text>
<g>
	<path class="st0" d="M397,328c0,1.1-0.9,2-2,2h-34c-1.1,0-2-0.9-2-2v-18c0-1.1,0.9-2,2-2h34c1.1,0,2,0.9,2,2V328z"/>
	<path class="st0" d="M417,308v-34c0-1.1-0.9-2-2-2h-38c-1.1,0-2,0.9-2,2v30"/>
	<circle class="st0" cx="386" cy="283" r="3"/>
	<circle class="st0" cx="368" cy="317" r="3"/>
	<line class="st0" x1="399" y1="280" x2="407" y2="280"/>
	<line class="st0" x1="399" y1="284" x2="409" y2="284"/>
	<line class="st0" x1="383" y1="294" x2="391" y2="294"/>
	<line class="st0" x1="383" y1="300" x2="397" y2="300"/>
	<line class="st0" x1="383" y1="304" x2="391" y2="304"/>
	<line class="st0" x1="401" y1="300" x2="409" y2="300"/>
	<line class="st0" x1="395" y1="304" x2="407" y2="304"/>
	<line class="st0" x1="377" y1="314" x2="383" y2="314"/>
	<line class="st0" x1="377" y1="318" x2="385" y2="318"/>
	<line class="st0" x1="377" y1="324" x2="391" y2="324"/>
	<path class="st0" d="M420,312c1.1,0,2,0.9,2,2v14c0,1.1-0.9,2-2,2h-6c-1.1,0-2-0.9-2-2v-14c0-1.1,0.9-2,2-2H420z"/>
	<line class="st0" x1="408.8" y1="330" x2="401" y2="330"/>
	<line class="st0" x1="409" y1="308" x2="401" y2="308"/>
	<line class="st0" x1="408" y1="312" x2="401" y2="312"/>
	<line class="st0" x1="408" y1="316" x2="401" y2="316"/>
	<circle class="st0" cx="417" cy="321" r="1"/>
</g>
<g>
	<line class="st0" x1="-89" y1="330" x2="-89" y2="318"/>
	<path class="st0" d="M-93,328v-3c0,0,0-3-2-5s-5-2-5-2h-3v3c0,0,0,3,2,5s5,2,5,2H-93z"/>
	<path class="st0" d="M-85,328v-3c0,0,0-3,2-5s5-2,5-2h3v3c0,0,0,3-2,5s-5,2-5,2H-85z"/>
	<path class="st0" d="M-74,287c0-8.3-6.7-15-15-15s-15,6.7-15,15c0,6,6,10.7,7,15l1,4h14l1-4C-80,297.7-74,293-74,287z"/>
	<line class="st0" x1="-94" y1="310" x2="-84" y2="310"/>
	<line class="st0" x1="-92" y1="314" x2="-86" y2="314"/>
	<path class="st0" d="M-91,302l-3-14c0,0,3,2,5,2s5-2,5-2l-3,14"/>
	<path class="st0" d="M-82,278.5c-1.2-1-2.5-1.7-4-2.1c-0.6-0.2-1.2-0.3-1.8-0.3"/>
	<path class="st0" d="M-78.4,284c-0.2-0.7-0.5-1.4-0.8-2"/>
	<line class="st0" x1="-110" y1="287" x2="-114" y2="287"/>
	<line class="st0" x1="-64" y1="287" x2="-68" y2="287"/>
	<line class="st0" x1="-67.3" y1="274.5" x2="-70.8" y2="276.5"/>
	<line class="st0" x1="-67.3" y1="299.5" x2="-70.8" y2="297.5"/>
	<line class="st0" x1="-107.2" y1="276.5" x2="-110.7" y2="274.5"/>
	<line class="st0" x1="-107.2" y1="297.5" x2="-110.7" y2="299.5"/>
</g>
<g>
	<path class="st0" d="M10,277c0,0.6-0.4,1-1,1l0,0c-0.6,0-1-0.4-1-1l0,0c0-0.6,0.4-1,1-1l0,0C9.6,276,10,276.4,10,277L10,277z"/>
	<path class="st0" d="M16,277c0,0.6-0.4,1-1,1l0,0c-0.6,0-1-0.4-1-1l0,0c0-0.6,0.4-1,1-1l0,0C15.6,276,16,276.4,16,277L16,277z"/>
	<path class="st0" d="M22,277c0,0.6-0.4,1-1,1l0,0c-0.6,0-1-0.4-1-1l0,0c0-0.6,0.4-1,1-1l0,0C21.6,276,22,276.4,22,277L22,277z"/>
	<path class="st0" d="M54,325.9c2.7-2.7,2.7-7.2,0-9.9c-2.7-2.7-7.2-2.7-9.9,0c-4,4-4,13.9-4,13.9S50,329.9,54,325.9z"/>
	<line class="st0" x1="56" y1="310" x2="51.5" y2="314.5"/>
	<line class="st0" x1="60" y1="314" x2="55.6" y2="318.4"/>
	<path class="st0" d="M51.8,322c0.4-1.1,0.1-2.3-0.7-3.1"/>
	<rect x="6" y="286" class="st0" width="10" height="16"/>
	<rect x="20" y="286" class="st0" width="36" height="10"/>
	<polyline class="st0" points="6,326 6,306 16,306 16,326 	"/>
	<polyline class="st0" points="50,310 50,300 56,300 56,306 	"/>
	<polyline class="st0" points="20,326 20,300 46,300 46,310 	"/>
	<path class="st0" d="M36,330H6c-2.2,0-4-1.8-4-4v-40"/>
	<path class="st0" d="M56,282H2v-6c0-2.2,1.8-4,4-4h50c2.2,0,4,1.8,4,4v34"/>
</g>
<g>
	<circle class="st0" cx="272" cy="311" r="1"/>
	<path class="st0" d="M273,302l-7.6-12.2c-0.7-1.3-0.5-2.7,0.7-3.5c1.3-0.7,2.4-0.1,3.3,1.1l7.7,10.7c-0.7-1.3-0.3-2.9,1-3.6
		c1.3-0.7,2.9-0.3,3.6,1l0.7,1.1c-0.7-1.3-0.3-2.9,1-3.6c1.3-0.7,2.9-0.3,3.6,1l1,1.7c-0.5-0.9-0.2-2.2,0.7-2.7
		c0.9-0.5,2.2-0.1,2.7,0.7c0,0,3.7,5.2,5.7,12.2h-54v6c0,2.3,1.8,4,4,4h50c2.3,0,4-1.7,4-4v-36c0-2.2-1.8-4-4-4h-50
		c-2.2,0-3.9,1.9-4,4v26"/>
	<line class="st0" x1="267" y1="278" x2="267" y2="282"/>
	<line class="st0" x1="274.1" y1="280.9" x2="271.2" y2="283.7"/>
	<line class="st0" x1="259.9" y1="280.9" x2="262.8" y2="283.7"/>
	<line class="st0" x1="257" y1="288" x2="261" y2="288"/>
	<line class="st0" x1="259.9" y1="295.1" x2="262.8" y2="292.2"/>
	<path class="st0" d="M277,320v6h4c2,0,4,2,4,4h-26c0-2,2-4,4-4h10"/>
	<line class="st0" x1="267" y1="326" x2="267" y2="320"/>
</g>
</svg>
