<?xml version="1.0" encoding="utf-8"?>
<!-- Generator: Adobe Illustrator 21.0.2, SVG Export Plug-In . SVG Version: 6.00 Build 0)  -->
<svg version="1.1" id="Layer_1" xmlns="http://www.w3.org/2000/svg" xmlns:xlink="http://www.w3.org/1999/xlink" x="0px" y="0px"
	 viewBox="0 0 60 60" style="enable-background:new 0 0 60 60;" xml:space="preserve">
<style type="text/css">
	.st0{fill:none;stroke:#000000;stroke-width:2;stroke-linecap:round;stroke-linejoin:round;stroke-miterlimit:10;}
	.st1{fill:none;stroke:#000000;stroke-linecap:round;stroke-linejoin:round;stroke-miterlimit:10;}
</style>
<g>
	<path class="st0" d="M11,1H5C3,1,1,3,1,5v26"/>
	<path class="st0" d="M55,35H1v6c0,2,2,4,4,4h50c2,0,4-2,4-4V5c0-2-2-4-4-4H45"/>
	<circle class="st0" cx="30" cy="40" r="1"/>
	<line class="st0" x1="5" y1="59" x2="41" y2="59"/>
	<line class="st0" x1="15" y1="57" x2="15" y2="59"/>
	<line class="st0" x1="19" y1="57" x2="19" y2="59"/>
	<line class="st0" x1="23" y1="57" x2="23" y2="59"/>
	<line class="st0" x1="27" y1="57" x2="27" y2="59"/>
	<line class="st0" x1="25" y1="49" x2="25" y2="53"/>
	<line class="st0" x1="35" y1="49" x2="35" y2="53"/>
	<line class="st0" x1="35" y1="57" x2="35" y2="59"/>
	<line class="st0" x1="31" y1="57" x2="31" y2="59"/>
	<line class="st0" x1="39" y1="57" x2="39" y2="59"/>
	<line class="st0" x1="11" y1="57" x2="11" y2="59"/>
	<line class="st0" x1="7" y1="57" x2="7" y2="59"/>
	<path class="st0" d="M55,59v-1c0-1.7-1.3-3-3-3h-2c-1.7,0-3,1.3-3,3v1H55z"/>
	<line class="st0" x1="21" y1="7" x2="15" y2="7"/>
	<line class="st0" x1="17" y1="11" x2="15" y2="11"/>
	<line class="st0" x1="17" y1="15" x2="15" y2="15"/>
	<line class="st0" x1="21" y1="19" x2="15" y2="19"/>
	<polyline class="st0" points="35,31 35,9 40,1 45,9 39,9 	"/>
	<polyline class="st0" points="21,31 15,31 15,1 31,1 31,31 	"/>
	<line class="st0" x1="17" y1="23" x2="15" y2="23"/>
	<line class="st0" x1="17" y1="27" x2="15" y2="27"/>
	<line class="st0" x1="45" y1="13" x2="45" y2="31"/>
	<line class="st0" x1="40" y1="31" x2="40" y2="13"/>
</g>
<g>
	<line class="st0" x1="121" y1="46" x2="167" y2="46"/>
	<line class="st0" x1="151" y1="30" x2="151" y2="46"/>
	<path class="st0" d="M135,17h38v38c0,2.2-1.8,4-4,4h-50c-2.2,0-4-1.8-4-4V9h10l6,8l-6,8h-6"/>
	<line class="st0" x1="131" y1="25" x2="173" y2="25"/>
	<line class="st0" x1="141" y1="17" x2="135" y2="25"/>
	<line class="st0" x1="150" y1="17" x2="144" y2="25"/>
	<line class="st0" x1="159" y1="17" x2="153" y2="25"/>
	<line class="st0" x1="168" y1="17" x2="162" y2="25"/>
	<polyline class="st0" points="135,15.2 172.4,9 171.1,1 129.3,7.9 	"/>
	<line class="st0" x1="134.1" y1="7.2" x2="139.6" y2="14.4"/>
	<line class="st0" x1="143.5" y1="5.7" x2="148.9" y2="12.9"/>
	<line class="st0" x1="152.2" y1="4.2" x2="157.5" y2="11.4"/>
	<line class="st0" x1="161.5" y1="2.7" x2="166.9" y2="9.8"/>
</g>
<text transform="matrix(1 0 0 1 1 94)" style="font-family:'Roboto-Bold'; font-size:20px;">Design</text>
<g>
	<path class="st0" d="M261,272h-6c-2,0-4,2-4,4v26"/>
	<path class="st0" d="M305,306h-54v6c0,2,2,4,4,4h50c2,0,4-2,4-4v-36c0-2-2-4-4-4h-10"/>
	<circle class="st0" cx="280" cy="311" r="1"/>
	<line class="st0" x1="255" y1="330" x2="291" y2="330"/>
	<line class="st0" x1="265" y1="328" x2="265" y2="330"/>
	<line class="st0" x1="269" y1="328" x2="269" y2="330"/>
	<line class="st0" x1="273" y1="328" x2="273" y2="330"/>
	<line class="st0" x1="277" y1="328" x2="277" y2="330"/>
	<line class="st0" x1="275" y1="320" x2="275" y2="324"/>
	<line class="st0" x1="285" y1="320" x2="285" y2="324"/>
	<line class="st0" x1="285" y1="328" x2="285" y2="330"/>
	<line class="st0" x1="281" y1="328" x2="281" y2="330"/>
	<line class="st0" x1="289" y1="328" x2="289" y2="330"/>
	<line class="st0" x1="261" y1="328" x2="261" y2="330"/>
	<line class="st0" x1="257" y1="328" x2="257" y2="330"/>
	<path class="st0" d="M305,330v-1c0-1.7-1.3-3-3-3h-2c-1.7,0-3,1.3-3,3v1H305z"/>
	<line class="st0" x1="271" y1="278" x2="265" y2="278"/>
	<line class="st0" x1="267" y1="282" x2="265" y2="282"/>
	<line class="st0" x1="267" y1="286" x2="265" y2="286"/>
	<line class="st0" x1="271" y1="290" x2="265" y2="290"/>
	<polyline class="st0" points="285,302 285,280 290,272 295,280 289,280 	"/>
	<polyline class="st0" points="271,302 265,302 265,272 281,272 281,302 	"/>
	<line class="st0" x1="267" y1="294" x2="265" y2="294"/>
	<line class="st0" x1="267" y1="298" x2="265" y2="298"/>
	<line class="st0" x1="295" y1="284" x2="295" y2="302"/>
	<line class="st0" x1="290" y1="302" x2="290" y2="284"/>
</g>
<text transform="matrix(1 0 0 1 251 365)" style="font-family:'Roboto-Bold'; font-size:20px;">Design</text>
<text transform="matrix(1 0 0 1 -113 94)" style="font-family:'Roboto-Bold'; font-size:20px;">Start</text>
<g>
	<text transform="matrix(1 0 0 1 -351 38)" style="font-family:'Roboto-Light'; font-size:20px;">HTML5 Banners</text>
</g>
<g>
	<path class="st0" d="M-78,6v5c0,2.2,1.8,4,4,4h10v40c0,2.2-1.8,4-4,4h-42c-2.2,0-4-1.8-4-4V5c0-2.2,1.8-4,4-4"/>
	<circle class="st0" cx="-101" cy="12" r="7"/>
	<circle class="st0" cx="-101" cy="30" r="7"/>
	<line class="st0" x1="-106" y1="39" x2="-106" y2="35"/>
	<polyline class="st0" points="-106,7 -106,1 -78,1 -68,11 	"/>
	<path class="st0" d="M-106,17c0,0-2,1-2,4s2,4,2,4"/>
	<path class="st0" d="M-98.3,10.7c-0.3-0.6-0.8-1.1-1.4-1.4"/>
	<path class="st0" d="M-98.3,28.7c-0.3-0.6-0.8-1.1-1.4-1.4"/>
	<line class="st0" x1="-86" y1="25" x2="-90" y2="25"/>
	<line class="st0" x1="-82" y1="25" x2="-74" y2="25"/>
	<line class="st0" x1="-89" y1="31" x2="-84" y2="31"/>
	<line class="st0" x1="-80" y1="31" x2="-76" y2="31"/>
	<line class="st0" x1="-104" y1="43" x2="-98" y2="43"/>
	<line class="st0" x1="-80" y1="43" x2="-74" y2="43"/>
	<line class="st0" x1="-94" y1="43" x2="-84" y2="43"/>
	<line class="st0" x1="-91" y1="37" x2="-76" y2="37"/>
	<line class="st0" x1="-104" y1="49" x2="-92" y2="49"/>
	<line class="st0" x1="-88" y1="49" x2="-78" y2="49"/>
</g>
<text transform="matrix(1 0 0 1 241 94)" style="font-family:'Roboto-Bold'; font-size:20px;">Resize</text>
<text transform="matrix(1 0 0 1 117 94)" style="font-family:'Roboto-Bold'; font-size:20px;">Animation</text>
<g>
	<path class="st0" d="M366,1h-6c-2,0-4,2-4,4v26"/>
	<path class="st0" d="M410,35h-54v6c0,2,2,4,4,4h50c2,0,4-2,4-4V5c0-2-2-4-4-4h-10"/>
	<circle class="st0" cx="385" cy="40" r="1"/>
	<line class="st0" x1="360" y1="59" x2="396" y2="59"/>
	<line class="st0" x1="370" y1="57" x2="370" y2="59"/>
	<line class="st0" x1="374" y1="57" x2="374" y2="59"/>
	<line class="st0" x1="378" y1="57" x2="378" y2="59"/>
	<line class="st0" x1="382" y1="57" x2="382" y2="59"/>
	<line class="st0" x1="380" y1="49" x2="380" y2="53"/>
	<line class="st0" x1="390" y1="49" x2="390" y2="53"/>
	<line class="st0" x1="390" y1="57" x2="390" y2="59"/>
	<line class="st0" x1="386" y1="57" x2="386" y2="59"/>
	<line class="st0" x1="394" y1="57" x2="394" y2="59"/>
	<line class="st0" x1="366" y1="57" x2="366" y2="59"/>
	<line class="st0" x1="362" y1="57" x2="362" y2="59"/>
	<path class="st0" d="M410,59v-1c0-1.7-1.3-3-3-3h-2c-1.7,0-3,1.3-3,3v1H410z"/>
	<line class="st0" x1="376" y1="7" x2="370" y2="7"/>
	<line class="st0" x1="372" y1="11" x2="370" y2="11"/>
	<line class="st0" x1="372" y1="15" x2="370" y2="15"/>
	<line class="st0" x1="376" y1="19" x2="370" y2="19"/>
	<polyline class="st0" points="390,31 390,9 395,1 400,9 394,9 	"/>
	<polyline class="st0" points="376,31 370,31 370,1 386,1 386,31 	"/>
	<line class="st0" x1="372" y1="23" x2="370" y2="23"/>
	<line class="st0" x1="372" y1="27" x2="370" y2="27"/>
	<line class="st0" x1="400" y1="13" x2="400" y2="31"/>
	<line class="st0" x1="395" y1="31" x2="395" y2="13"/>
</g>
<text transform="matrix(1 0 0 1 356 94)" style="font-family:'Roboto-Bold'; font-size:20px;">Design</text>
<text transform="matrix(1 0 0 1 615 94)" style="font-family:'Roboto-Bold'; font-size:20px;">Finish </text>
<text transform="matrix(1 0 0 1 472 94)" style="font-family:'Roboto-Bold'; font-size:20px;">Optimization </text>
<g>
	<g>
		<polyline class="st0" points="271,40.6 244,40.6 253.3,31.3 257.5,35.6 265.1,28 271,33.9 		"/>
		<circle class="st0" cx="252" cy="19.6" r="3.3"/>
		<line class="st0" x1="252" y1="13" x2="252" y2="16.3"/>
		<line class="st0" x1="246.4" y1="16.3" x2="249.2" y2="17.9"/>
		<line class="st0" x1="246.4" y1="22.8" x2="249.2" y2="21.2"/>
		<line class="st0" x1="252" y1="26.1" x2="252" y2="22.8"/>
		<line class="st0" x1="257.7" y1="22.8" x2="254.9" y2="21.2"/>
		<line class="st0" x1="257.7" y1="16.3" x2="254.9" y2="17.9"/>
	</g>
	<g>
		<polyline class="st0" points="302,30 280.7,30 288,22.7 291.3,26 297.3,20 302,24.7 		"/>
		<circle class="st0" cx="288.7" cy="12.5" r="2.7"/>
		<line class="st0" x1="288.7" y1="7" x2="288.7" y2="9.7"/>
		<line class="st0" x1="283.9" y1="9.8" x2="286.3" y2="11.1"/>
		<line class="st0" x1="283.9" y1="15.3" x2="286.3" y2="13.9"/>
		<line class="st0" x1="288.7" y1="18" x2="288.7" y2="15.2"/>
		<line class="st0" x1="293.5" y1="15.2" x2="291.1" y2="13.9"/>
		<line class="st0" x1="293.5" y1="9.7" x2="291.1" y2="11.1"/>
	</g>
	<g>
		<polyline class="st0" points="300.8,59.7 281.8,59.7 288.4,53.1 291.3,56.1 296.7,50.8 300.8,54.9 		"/>
		<circle class="st1" cx="286" cy="47.1" r="1.2"/>
		<line class="st1" x1="286" y1="44.7" x2="286" y2="45.9"/>
		<line class="st1" x1="284" y1="45.9" x2="285" y2="46.5"/>
		<line class="st1" x1="284" y1="48.2" x2="285" y2="47.7"/>
		<line class="st1" x1="286" y1="49.4" x2="286" y2="48.2"/>
		<line class="st1" x1="288" y1="48.2" x2="287" y2="47.7"/>
		<line class="st1" x1="288" y1="45.9" x2="287" y2="46.5"/>
	</g>
	<path class="st0" d="M300.6,38h-18.2c-2.4,0-4.4-2-4.4-4.4V5.4c0-2.4,2-4.4,4.4-4.4h18.2c2.4,0,4.4,2,4.4,4.4v28.2
		C305,36,303,38,300.6,38z"/>
	<path class="st0" d="M269.6,60h-24.2c-2.4,0-4.4-2-4.4-4.4V5.4c0-2.4,2-4.4,4.4-4.4h24.2c2.4,0,4.4,2,4.4,4.4v50.2
		C274,58,272,60,269.6,60z"/>
	<path class="st0" d="M300.6,59.7h-18.2c-2.4,0-4.4-2-4.4-4.4v-9.2c0-2.4,2-4.4,4.4-4.4h18.2c2.4,0,4.4,2,4.4,4.4v9.2
		C305,57.7,303,59.7,300.6,59.7z"/>
</g>
<g>
	<path class="st0" d="M526,25l-5.9-1.3c-0.5-1.7-1.2-3.3-2-4.9l3.2-5.1c0.4-0.6,0.4-1,0-1.4l-5.7-5.7c-0.4-0.4-0.8-0.3-1.4,0
		l-5.1,3.2c-1.5-0.9-3.2-1.5-4.9-2L503,2c-0.2-0.7-0.4-1-1-1h-8c-0.6,0-0.8,0.4-1,1l-1.3,5.9c-1.7,0.5-3.3,1.2-4.9,2l-5.1-3.2
		c-0.6-0.4-1-0.4-1.4,0l-5.7,5.7c-0.4,0.4-0.3,0.8,0,1.4l3.2,5.1c-0.9,1.5-1.5,3.2-2,4.9L470,25c-0.7,0.2-1,0.4-1,1v8
		c0,0.6,0.4,0.8,1,1l5.9,1.3c0.5,1.7,1.2,3.3,2,4.9l-3.2,5.1c-0.4,0.6-0.4,1,0,1.4l5.7,5.7c0.4,0.4,0.8,0.3,1.4,0l5.1-3.2
		c1.5,0.9,3.2,1.5,4.9,2L493,58c0.2,0.7,0.4,1,1,1l8,0c0.6,0,0.8-0.4,1-1l1.3-5.9c1.7-0.5,3.3-1.2,4.9-2l5.1,3.2
		c0.6,0.4,1,0.4,1.4,0l5.7-5.7c0.4-0.4,0.3-0.8,0-1.4l-3.2-5.1c0.8-1.5,1.5-3.2,2-4.9L526,35c0.7-0.2,1-0.4,1-1v-8
		C527,25.4,526.6,25.2,526,25z"/>
	<path class="st0" d="M502,42.4c5.2-1.7,9-6.6,9-12.4c0-7.2-5.8-13-13-13c-7.2,0-13,5.8-13,13s5.8,13,13,13"/>
	<circle class="st0" cx="498" cy="30" r="3"/>
</g>
<g>
	<path class="st0" d="M651,6v5c0,2.2,1.8,4,4,4h10v40c0,2.2-1.8,4-4,4h-42c-2.2,0-4-1.8-4-4V5c0-2.2,1.8-4,4-4h32l10,10"/>
	<circle class="st0" cx="640" cy="36" r="13"/>
	<polygon class="st0" points="637,32 637,40 644,36 	"/>
</g>
<g>
	<path class="st0" d="M8,140H2c-2,0-4,2-4,4v26"/>
	<path class="st0" d="M52,174H-2v6c0,2,2,4,4,4h50c2,0,4-2,4-4v-36c0-2-2-4-4-4H42"/>
	<circle class="st0" cx="27" cy="179" r="1"/>
	<line class="st0" x1="2" y1="198" x2="38" y2="198"/>
	<line class="st0" x1="12" y1="196" x2="12" y2="198"/>
	<line class="st0" x1="16" y1="196" x2="16" y2="198"/>
	<line class="st0" x1="20" y1="196" x2="20" y2="198"/>
	<line class="st0" x1="24" y1="196" x2="24" y2="198"/>
	<line class="st0" x1="22" y1="188" x2="22" y2="192"/>
	<line class="st0" x1="32" y1="188" x2="32" y2="192"/>
	<line class="st0" x1="32" y1="196" x2="32" y2="198"/>
	<line class="st0" x1="28" y1="196" x2="28" y2="198"/>
	<line class="st0" x1="36" y1="196" x2="36" y2="198"/>
	<line class="st0" x1="8" y1="196" x2="8" y2="198"/>
	<line class="st0" x1="4" y1="196" x2="4" y2="198"/>
	<path class="st0" d="M52,198v-1c0-1.7-1.3-3-3-3h-2c-1.7,0-3,1.3-3,3v1H52z"/>
	<line class="st0" x1="18" y1="146" x2="12" y2="146"/>
	<line class="st0" x1="14" y1="150" x2="12" y2="150"/>
	<line class="st0" x1="14" y1="154" x2="12" y2="154"/>
	<line class="st0" x1="18" y1="158" x2="12" y2="158"/>
	<polyline class="st0" points="32,170 32,148 37,140 42,148 36,148 	"/>
	<polyline class="st0" points="18,170 12,170 12,140 28,140 28,170 	"/>
	<line class="st0" x1="14" y1="162" x2="12" y2="162"/>
	<line class="st0" x1="14" y1="166" x2="12" y2="166"/>
	<line class="st0" x1="42" y1="152" x2="42" y2="170"/>
	<line class="st0" x1="37" y1="170" x2="37" y2="152"/>
</g>
<text transform="matrix(1 0 0 1 -2 233)" style="font-family:'Roboto-Bold'; font-size:20px;">Design</text>
<text transform="matrix(1 0 0 1 -116 233)" style="font-family:'Roboto-Bold'; font-size:20px;">Start</text>
<g>
	<text transform="matrix(1 0 0 1 -354 177)" style="font-family:'Roboto-Light'; font-size:20px;">Web Development</text>
</g>
<g>
	<path class="st0" d="M-81,145v5c0,2.2,1.8,4,4,4h10v40c0,2.2-1.8,4-4,4h-42c-2.2,0-4-1.8-4-4v-50c0-2.2,1.8-4,4-4"/>
	<circle class="st0" cx="-104" cy="151" r="7"/>
	<circle class="st0" cx="-104" cy="169" r="7"/>
	<line class="st0" x1="-109" y1="178" x2="-109" y2="174"/>
	<polyline class="st0" points="-109,146 -109,140 -81,140 -71,150 	"/>
	<path class="st0" d="M-109,156c0,0-2,1-2,4s2,4,2,4"/>
	<path class="st0" d="M-101.3,149.7c-0.3-0.6-0.8-1.1-1.4-1.4"/>
	<path class="st0" d="M-101.3,167.7c-0.3-0.6-0.8-1.1-1.4-1.4"/>
	<line class="st0" x1="-89" y1="164" x2="-93" y2="164"/>
	<line class="st0" x1="-85" y1="164" x2="-77" y2="164"/>
	<line class="st0" x1="-92" y1="170" x2="-87" y2="170"/>
	<line class="st0" x1="-83" y1="170" x2="-79" y2="170"/>
	<line class="st0" x1="-107" y1="182" x2="-101" y2="182"/>
	<line class="st0" x1="-83" y1="182" x2="-77" y2="182"/>
	<line class="st0" x1="-97" y1="182" x2="-87" y2="182"/>
	<line class="st0" x1="-94" y1="176" x2="-79" y2="176"/>
	<line class="st0" x1="-107" y1="188" x2="-95" y2="188"/>
	<line class="st0" x1="-91" y1="188" x2="-81" y2="188"/>
</g>
<text transform="matrix(1 0 0 1 -116 366)" style="font-family:'Roboto-Bold'; font-size:20px;">Start</text>
<g>
	<path class="st0" d="M-81,278v5c0,2.2,1.8,4,4,4h10v40c0,2.2-1.8,4-4,4h-42c-2.2,0-4-1.8-4-4v-50c0-2.2,1.8-4,4-4"/>
	<circle class="st0" cx="-104" cy="284" r="7"/>
	<circle class="st0" cx="-104" cy="302" r="7"/>
	<line class="st0" x1="-109" y1="311" x2="-109" y2="307"/>
	<polyline class="st0" points="-109,279 -109,273 -81,273 -71,283 	"/>
	<path class="st0" d="M-109,289c0,0-2,1-2,4s2,4,2,4"/>
	<path class="st0" d="M-101.3,282.7c-0.3-0.6-0.8-1.1-1.4-1.4"/>
	<path class="st0" d="M-101.3,300.7c-0.3-0.6-0.8-1.1-1.4-1.4"/>
	<line class="st0" x1="-89" y1="297" x2="-93" y2="297"/>
	<line class="st0" x1="-85" y1="297" x2="-77" y2="297"/>
	<line class="st0" x1="-92" y1="303" x2="-87" y2="303"/>
	<line class="st0" x1="-83" y1="303" x2="-79" y2="303"/>
	<line class="st0" x1="-107" y1="315" x2="-101" y2="315"/>
	<line class="st0" x1="-83" y1="315" x2="-77" y2="315"/>
	<line class="st0" x1="-97" y1="315" x2="-87" y2="315"/>
	<line class="st0" x1="-94" y1="309" x2="-79" y2="309"/>
	<line class="st0" x1="-107" y1="321" x2="-95" y2="321"/>
	<line class="st0" x1="-91" y1="321" x2="-81" y2="321"/>
</g>
<text transform="matrix(1 0 0 1 238 233)" style="font-family:'Roboto-Bold'; font-size:20px;">Back-end</text>
<text transform="matrix(1 0 0 1 114 233)" style="font-family:'Roboto-Bold'; font-size:20px;">Front-end</text>
<text transform="matrix(1 0 0 1 353 233)" style="font-family:'Roboto-Bold'; font-size:20px;">QA </text>
<text transform="matrix(1 0 0 1 469 233)" style="font-family:'Roboto-Bold'; font-size:20px;">Finish </text>
<g>
	<path class="st0" d="M153,198h-37c-2.3,0-4-1.8-4-4v-40"/>
	<path class="st0" d="M120,145c0,0.6-0.4,1-1,1l0,0c-0.6,0-1-0.4-1-1l0,0c0-0.6,0.4-1,1-1l0,0C119.6,144,120,144.4,120,145L120,145z
		"/>
	<path class="st0" d="M126,145c0,0.6-0.4,1-1,1l0,0c-0.6,0-1-0.4-1-1l0,0c0-0.6,0.4-1,1-1l0,0C125.6,144,126,144.4,126,145L126,145z
		"/>
	<path class="st0" d="M132,145c0,0.6-0.4,1-1,1l0,0c-0.6,0-1-0.4-1-1l0,0c0-0.6,0.4-1,1-1l0,0C131.6,144,132,144.4,132,145L132,145z
		"/>
	<line class="st0" x1="118" y1="156" x2="126" y2="156"/>
	<line class="st0" x1="152" y1="156" x2="156" y2="156"/>
	<line class="st0" x1="160" y1="156" x2="164" y2="156"/>
	<line class="st0" x1="144" y1="156" x2="148" y2="156"/>
	<path class="st0" d="M153,198h13c2.3,0,4-1.8,4-4v-50c0-2.2-1.8-4-4-4h-50c-2.2,0-4,1.8-4,4v6h54"/>
	<g>
		<path d="M119.7,176.9l11.3-5.5v2.1l-9,4.2v0l9,4.2v2.1l-11.3-5.5V176.9z"/>
		<path d="M137.5,185l5.8-17.3h2l-5.8,17.3H137.5z"/>
		<path d="M163,178.6l-11.3,5.4v-2.1l9.1-4.2v0l-9.1-4.2v-2.1l11.3,5.4V178.6z"/>
	</g>
</g>
<g>
	<path class="st0" d="M400,188l2.8-2.8l7,7c1.6,1.6,1.6,4.1,0,5.7c-1.6,1.6-4.1,1.6-5.7,0L392.3,186"/>
	<line class="st0" x1="400.1" y1="182.4" x2="398" y2="180.3"/>
	<circle class="st0" cx="376" cy="164" r="23"/>
	<circle class="st0" cx="376" cy="164" r="19"/>
	<line class="st0" x1="369" y1="155" x2="381" y2="155"/>
	<line class="st0" x1="365" y1="161" x2="379" y2="161"/>
	<line class="st0" x1="365" y1="167" x2="371" y2="167"/>
	<line class="st0" x1="367" y1="173" x2="375" y2="173"/>
	<line class="st0" x1="383" y1="173" x2="379" y2="173"/>
	<line class="st0" x1="387" y1="161" x2="383" y2="161"/>
	<line class="st0" x1="387" y1="167" x2="375" y2="167"/>
</g>
<g>
	<path class="st0" d="M247,145c0,0.6-0.4,1-1,1l0,0c-0.6,0-1-0.4-1-1l0,0c0-0.6,0.4-1,1-1l0,0C246.6,144,247,144.4,247,145L247,145z
		"/>
	<path class="st0" d="M253,145c0,0.6-0.4,1-1,1l0,0c-0.6,0-1-0.4-1-1l0,0c0-0.6,0.4-1,1-1l0,0C252.6,144,253,144.4,253,145L253,145z
		"/>
	<path class="st0" d="M259,145c0,0.6-0.4,1-1,1l0,0c-0.6,0-1-0.4-1-1l0,0c0-0.6,0.4-1,1-1l0,0C258.6,144,259,144.4,259,145L259,145z
		"/>
	<line class="st0" x1="247" y1="158" x2="249" y2="158"/>
	<line class="st0" x1="247" y1="162" x2="249" y2="162"/>
	<line class="st0" x1="247" y1="166" x2="249" y2="166"/>
	<line class="st0" x1="247" y1="170" x2="249" y2="170"/>
	<line class="st0" x1="247" y1="174" x2="249" y2="174"/>
	<line class="st0" x1="247" y1="178" x2="249" y2="178"/>
	<line class="st0" x1="247" y1="182" x2="249" y2="182"/>
	<line class="st0" x1="247" y1="186" x2="249" y2="186"/>
	<line class="st0" x1="247" y1="190" x2="249" y2="190"/>
	<line class="st0" x1="281" y1="158" x2="277" y2="158"/>
	<line class="st0" x1="283" y1="162" x2="273" y2="162"/>
	<line class="st0" x1="269" y1="162" x2="253" y2="162"/>
	<line class="st0" x1="263" y1="158" x2="253" y2="158"/>
	<line class="st0" x1="273" y1="158" x2="267" y2="158"/>
	<line class="st0" x1="287" y1="166" x2="271" y2="166"/>
	<line class="st0" x1="281" y1="170" x2="273" y2="170"/>
	<line class="st0" x1="269" y1="170" x2="253" y2="170"/>
	<line class="st0" x1="257" y1="166" x2="253" y2="166"/>
	<line class="st0" x1="267" y1="166" x2="261" y2="166"/>
	<line class="st0" x1="274" y1="182" x2="271" y2="182"/>
	<line class="st0" x1="257" y1="182" x2="253" y2="182"/>
	<line class="st0" x1="267" y1="182" x2="261" y2="182"/>
	<line class="st0" x1="265" y1="186" x2="253" y2="186"/>
	<line class="st0" x1="271" y1="186" x2="269" y2="186"/>
	<line class="st0" x1="259" y1="190" x2="253" y2="190"/>
	<line class="st0" x1="273" y1="190" x2="263" y2="190"/>
	<line class="st0" x1="283" y1="174" x2="267" y2="174"/>
	<line class="st0" x1="276" y1="178" x2="269" y2="178"/>
	<line class="st0" x1="265" y1="178" x2="253" y2="178"/>
	<line class="st0" x1="263" y1="174" x2="253" y2="174"/>
	<path class="st0" d="M297,190v-4h-2.3c-0.2-0.7-0.5-1.4-0.9-2.1l1.6-1.6l-2.8-2.8l-1.6,1.6c-0.6-0.4-1.3-0.7-2.1-0.9V178h-4v2.3
		c-0.7,0.2-1.4,0.5-2.1,0.9l-1.6-1.6l-2.8,2.8l1.6,1.6c-0.4,0.6-0.7,1.3-0.9,2.1H277v4h2.3c0.2,0.7,0.5,1.4,0.9,2.1l-1.6,1.6
		l2.8,2.8l1.6-1.6c0.6,0.4,1.3,0.7,2.1,0.9v2.3h4v-2.3c0.7-0.2,1.4-0.5,2.1-0.9l1.6,1.6l2.8-2.8l-1.6-1.6c0.4-0.6,0.7-1.3,0.9-2.1
		H297z"/>
	<circle class="st0" cx="287" cy="188" r="2"/>
	<path class="st0" d="M277,198h-34c-2.2,0-4-1.8-4-4v-40"/>
	<path class="st0" d="M293,150h-54v-6c0-2.2,1.8-4,4-4h50c2.2,0,4,1.8,4,4v34"/>
</g>
<g>
	<path class="st0" d="M504,196c0,1.1-0.9,2-2,2h-34c-1.1,0-2-0.9-2-2v-18c0-1.1,0.9-2,2-2h34c1.1,0,2,0.9,2,2V196z"/>
	<path class="st0" d="M524,176v-34c0-1.1-0.9-2-2-2h-38c-1.1,0-2,0.9-2,2v30"/>
	<circle class="st0" cx="493" cy="151" r="3"/>
	<circle class="st0" cx="475" cy="185" r="3"/>
	<line class="st0" x1="506" y1="148" x2="514" y2="148"/>
	<line class="st0" x1="506" y1="152" x2="516" y2="152"/>
	<line class="st0" x1="490" y1="162" x2="498" y2="162"/>
	<line class="st0" x1="490" y1="168" x2="504" y2="168"/>
	<line class="st0" x1="490" y1="172" x2="498" y2="172"/>
	<line class="st0" x1="508" y1="168" x2="516" y2="168"/>
	<line class="st0" x1="502" y1="172" x2="514" y2="172"/>
	<line class="st0" x1="484" y1="182" x2="490" y2="182"/>
	<line class="st0" x1="484" y1="186" x2="492" y2="186"/>
	<line class="st0" x1="484" y1="192" x2="498" y2="192"/>
	<path class="st0" d="M527,180c1.1,0,2,0.9,2,2v14c0,1.1-0.9,2-2,2h-6c-1.1,0-2-0.9-2-2v-14c0-1.1,0.9-2,2-2H527z"/>
	<line class="st0" x1="515.8" y1="198" x2="508" y2="198"/>
	<line class="st0" x1="516" y1="176" x2="508" y2="176"/>
	<line class="st0" x1="515" y1="180" x2="508" y2="180"/>
	<line class="st0" x1="515" y1="184" x2="508" y2="184"/>
	<circle class="st0" cx="524" cy="189" r="1"/>
</g>
<text transform="matrix(1 0 0 1 116 365)" style="font-family:'Roboto-Bold'; font-size:20px;">Prototyping</text>
<text transform="matrix(1 0 0 1 2 365)" style="font-family:'Roboto-Bold'; font-size:20px;">Concept</text>
<g>
	<text transform="matrix(1 0 0 1 -354 310)" style="font-family:'Roboto-Light'; font-size:20px;">Web Design</text>
</g>
<text transform="matrix(1 0 0 1 356 365)" style="font-family:'Roboto-Bold'; font-size:20px;">Testing</text>
<text transform="matrix(1 0 0 1 476 365)" style="font-family:'Roboto-Bold'; font-size:20px;">Finish </text>
<g>
	<path class="st0" d="M511,328c0,1.1-0.9,2-2,2h-34c-1.1,0-2-0.9-2-2v-18c0-1.1,0.9-2,2-2h34c1.1,0,2,0.9,2,2V328z"/>
	<path class="st0" d="M531,308v-34c0-1.1-0.9-2-2-2h-38c-1.1,0-2,0.9-2,2v30"/>
	<circle class="st0" cx="500" cy="283" r="3"/>
	<circle class="st0" cx="482" cy="317" r="3"/>
	<line class="st0" x1="513" y1="280" x2="521" y2="280"/>
	<line class="st0" x1="513" y1="284" x2="523" y2="284"/>
	<line class="st0" x1="497" y1="294" x2="505" y2="294"/>
	<line class="st0" x1="497" y1="300" x2="511" y2="300"/>
	<line class="st0" x1="497" y1="304" x2="505" y2="304"/>
	<line class="st0" x1="515" y1="300" x2="523" y2="300"/>
	<line class="st0" x1="509" y1="304" x2="521" y2="304"/>
	<line class="st0" x1="491" y1="314" x2="497" y2="314"/>
	<line class="st0" x1="491" y1="318" x2="499" y2="318"/>
	<line class="st0" x1="491" y1="324" x2="505" y2="324"/>
	<path class="st0" d="M534,312c1.1,0,2,0.9,2,2v14c0,1.1-0.9,2-2,2h-6c-1.1,0-2-0.9-2-2v-14c0-1.1,0.9-2,2-2H534z"/>
	<line class="st0" x1="522.8" y1="330" x2="515" y2="330"/>
	<line class="st0" x1="523" y1="308" x2="515" y2="308"/>
	<line class="st0" x1="522" y1="312" x2="515" y2="312"/>
	<line class="st0" x1="522" y1="316" x2="515" y2="316"/>
	<circle class="st0" cx="531" cy="321" r="1"/>
</g>
<g>
	<line class="st0" x1="25" y1="330" x2="25" y2="318"/>
	<path class="st0" d="M21,328v-3c0,0,0-3-2-5s-5-2-5-2h-3v3c0,0,0,3,2,5s5,2,5,2H21z"/>
	<path class="st0" d="M29,328v-3c0,0,0-3,2-5s5-2,5-2h3v3c0,0,0,3-2,5s-5,2-5,2H29z"/>
	<path class="st0" d="M40,287c0-8.3-6.7-15-15-15c-8.3,0-15,6.7-15,15c0,6,6,10.7,7,15l1,4h14l1-4C34,297.7,40,293,40,287z"/>
	<line class="st0" x1="20" y1="310" x2="30" y2="310"/>
	<line class="st0" x1="22" y1="314" x2="28" y2="314"/>
	<path class="st0" d="M23,302l-3-14c0,0,3,2,5,2s5-2,5-2l-3,14"/>
	<path class="st0" d="M32,278.5c-1.2-1-2.5-1.7-4-2.1c-0.6-0.2-1.2-0.3-1.8-0.3"/>
	<path class="st0" d="M35.6,284c-0.2-0.7-0.5-1.4-0.8-2"/>
	<line class="st0" x1="4" y1="287" x2="0" y2="287"/>
	<line class="st0" x1="50" y1="287" x2="46" y2="287"/>
	<line class="st0" x1="46.7" y1="274.5" x2="43.2" y2="276.5"/>
	<line class="st0" x1="46.7" y1="299.5" x2="43.2" y2="297.5"/>
	<line class="st0" x1="6.8" y1="276.5" x2="3.3" y2="274.5"/>
	<line class="st0" x1="6.8" y1="297.5" x2="3.3" y2="299.5"/>
</g>
<g>
	<path class="st0" d="M124,277c0,0.6-0.4,1-1,1l0,0c-0.6,0-1-0.4-1-1l0,0c0-0.6,0.4-1,1-1l0,0C123.6,276,124,276.4,124,277L124,277z
		"/>
	<path class="st0" d="M130,277c0,0.6-0.4,1-1,1l0,0c-0.6,0-1-0.4-1-1l0,0c0-0.6,0.4-1,1-1l0,0C129.6,276,130,276.4,130,277L130,277z
		"/>
	<path class="st0" d="M136,277c0,0.6-0.4,1-1,1l0,0c-0.6,0-1-0.4-1-1l0,0c0-0.6,0.4-1,1-1l0,0C135.6,276,136,276.4,136,277L136,277z
		"/>
	<path class="st0" d="M168,325.9c2.7-2.7,2.7-7.2,0-9.9c-2.7-2.7-7.2-2.7-9.9,0c-4,4-4,13.9-4,13.9S164,330,168,325.9z"/>
	<line class="st0" x1="170" y1="310" x2="165.5" y2="314.5"/>
	<line class="st0" x1="174" y1="314" x2="169.6" y2="318.4"/>
	<path class="st0" d="M165.8,322c0.4-1.1,0.1-2.3-0.7-3.1"/>
	<rect x="120" y="286" class="st0" width="10" height="16"/>
	<rect x="134" y="286" class="st0" width="36" height="10"/>
	<polyline class="st0" points="120,326 120,306 130,306 130,326 	"/>
	<polyline class="st0" points="164,310 164,300 170,300 170,306 	"/>
	<polyline class="st0" points="134,326 134,300 160,300 160,310 	"/>
	<path class="st0" d="M150,330h-30c-2.2,0-4-1.8-4-4v-40"/>
	<path class="st0" d="M170,282h-54v-6c0-2.2,1.8-4,4-4h50c2.2,0,4,1.8,4,4v34"/>
</g>
<g>
	<circle class="st0" cx="386" cy="311" r="1"/>
	<path class="st0" d="M387,302l-7.6-12.2c-0.7-1.3-0.5-2.7,0.7-3.5c1.3-0.7,2.4-0.1,3.3,1.1l7.7,10.7c-0.7-1.3-0.3-2.9,1-3.6
		c1.3-0.7,2.9-0.3,3.6,1l0.7,1.1c-0.7-1.3-0.3-2.9,1-3.6c1.3-0.7,2.9-0.3,3.6,1l1,1.7c-0.5-0.9-0.2-2.2,0.7-2.7
		c0.9-0.5,2.2-0.1,2.7,0.7c0,0,3.7,5.2,5.7,12.2h-54v6c0,2.3,1.8,4,4,4h50c2.3,0,4-1.7,4-4v-36c0-2.2-1.8-4-4-4h-50
		c-2.2,0-3.9,1.9-4,4v26"/>
	<line class="st0" x1="381" y1="278" x2="381" y2="282"/>
	<line class="st0" x1="388.1" y1="280.9" x2="385.2" y2="283.8"/>
	<line class="st0" x1="373.9" y1="280.9" x2="376.8" y2="283.8"/>
	<line class="st0" x1="371" y1="288" x2="375" y2="288"/>
	<line class="st0" x1="373.9" y1="295.1" x2="376.8" y2="292.2"/>
	<path class="st0" d="M391,320v6h4c2,0,4,2,4,4h-26c0-2,2-4,4-4h10"/>
	<line class="st0" x1="381" y1="326" x2="381" y2="320"/>
</g>
</svg>
