<?xml version="1.0" encoding="utf-8"?>
<!-- Generator: Adobe Illustrator 21.0.2, SVG Export Plug-In . SVG Version: 6.00 Build 0)  -->
<svg version="1.1" id="Layer_1" xmlns="http://www.w3.org/2000/svg" xmlns:xlink="http://www.w3.org/1999/xlink" x="0px" y="0px"
	 viewBox="0 0 52 60" style="enable-background:new 0 0 52 60;" xml:space="preserve">
<style type="text/css">
	.st0{fill:none;stroke:#000000;stroke-width:2;stroke-linecap:round;stroke-linejoin:round;stroke-miterlimit:10;}
	.st1{fill:none;stroke:#000000;stroke-linecap:round;stroke-linejoin:round;stroke-miterlimit:10;}
</style>
<g>
	<path class="st0" d="M-603,1h-6c-2,0-4,2-4,4v26"/>
	<path class="st0" d="M-559,35h-54v6c0,2,2,4,4,4h50c2,0,4-2,4-4V5c0-2-2-4-4-4h-10"/>
	<circle class="st0" cx="-584" cy="40" r="1"/>
	<line class="st0" x1="-609" y1="59" x2="-573" y2="59"/>
	<line class="st0" x1="-599" y1="57" x2="-599" y2="59"/>
	<line class="st0" x1="-595" y1="57" x2="-595" y2="59"/>
	<line class="st0" x1="-591" y1="57" x2="-591" y2="59"/>
	<line class="st0" x1="-587" y1="57" x2="-587" y2="59"/>
	<line class="st0" x1="-589" y1="49" x2="-589" y2="53"/>
	<line class="st0" x1="-579" y1="49" x2="-579" y2="53"/>
	<line class="st0" x1="-579" y1="57" x2="-579" y2="59"/>
	<line class="st0" x1="-583" y1="57" x2="-583" y2="59"/>
	<line class="st0" x1="-575" y1="57" x2="-575" y2="59"/>
	<line class="st0" x1="-603" y1="57" x2="-603" y2="59"/>
	<line class="st0" x1="-607" y1="57" x2="-607" y2="59"/>
	<path class="st0" d="M-559,59v-1c0-1.7-1.3-3-3-3h-2c-1.7,0-3,1.3-3,3v1H-559z"/>
	<line class="st0" x1="-593" y1="7" x2="-599" y2="7"/>
	<line class="st0" x1="-597" y1="11" x2="-599" y2="11"/>
	<line class="st0" x1="-597" y1="15" x2="-599" y2="15"/>
	<line class="st0" x1="-593" y1="19" x2="-599" y2="19"/>
	<polyline class="st0" points="-579,31 -579,9 -574,1 -569,9 -575,9 	"/>
	<polyline class="st0" points="-593,31 -599,31 -599,1 -583,1 -583,31 	"/>
	<line class="st0" x1="-597" y1="23" x2="-599" y2="23"/>
	<line class="st0" x1="-597" y1="27" x2="-599" y2="27"/>
	<line class="st0" x1="-569" y1="13" x2="-569" y2="31"/>
	<line class="st0" x1="-574" y1="31" x2="-574" y2="13"/>
</g>
<g>
	<line class="st0" x1="-493" y1="46" x2="-447" y2="46"/>
	<line class="st0" x1="-463" y1="30" x2="-463" y2="46"/>
	<path class="st0" d="M-479,17h38v38c0,2.2-1.8,4-4,4h-50c-2.2,0-4-1.8-4-4V9h10l6,8l-6,8h-6"/>
	<line class="st0" x1="-483" y1="25" x2="-441" y2="25"/>
	<line class="st0" x1="-473" y1="17" x2="-479" y2="25"/>
	<line class="st0" x1="-464" y1="17" x2="-470" y2="25"/>
	<line class="st0" x1="-455" y1="17" x2="-461" y2="25"/>
	<line class="st0" x1="-446" y1="17" x2="-452" y2="25"/>
	<polyline class="st0" points="-479,15.2 -441.6,9 -442.9,1 -484.7,7.9 	"/>
	<line class="st0" x1="-479.9" y1="7.2" x2="-474.4" y2="14.4"/>
	<line class="st0" x1="-470.5" y1="5.7" x2="-465.1" y2="12.9"/>
	<line class="st0" x1="-461.8" y1="4.2" x2="-456.5" y2="11.4"/>
	<line class="st0" x1="-452.5" y1="2.7" x2="-447.1" y2="9.8"/>
</g>
<text transform="matrix(1 0 0 1 -613 94)" style="font-family:'Roboto-Bold'; font-size:20px;">Design</text>
<g>
	<path class="st0" d="M-353,272h-6c-2,0-4,2-4,4v26"/>
	<path class="st0" d="M-309,306h-54v6c0,2,2,4,4,4h50c2,0,4-2,4-4v-36c0-2-2-4-4-4h-10"/>
	<circle class="st0" cx="-334" cy="311" r="1"/>
	<line class="st0" x1="-359" y1="330" x2="-323" y2="330"/>
	<line class="st0" x1="-349" y1="328" x2="-349" y2="330"/>
	<line class="st0" x1="-345" y1="328" x2="-345" y2="330"/>
	<line class="st0" x1="-341" y1="328" x2="-341" y2="330"/>
	<line class="st0" x1="-337" y1="328" x2="-337" y2="330"/>
	<line class="st0" x1="-339" y1="320" x2="-339" y2="324"/>
	<line class="st0" x1="-329" y1="320" x2="-329" y2="324"/>
	<line class="st0" x1="-329" y1="328" x2="-329" y2="330"/>
	<line class="st0" x1="-333" y1="328" x2="-333" y2="330"/>
	<line class="st0" x1="-325" y1="328" x2="-325" y2="330"/>
	<line class="st0" x1="-353" y1="328" x2="-353" y2="330"/>
	<line class="st0" x1="-357" y1="328" x2="-357" y2="330"/>
	<path class="st0" d="M-309,330v-1c0-1.7-1.3-3-3-3h-2c-1.7,0-3,1.3-3,3v1H-309z"/>
	<line class="st0" x1="-343" y1="278" x2="-349" y2="278"/>
	<line class="st0" x1="-347" y1="282" x2="-349" y2="282"/>
	<line class="st0" x1="-347" y1="286" x2="-349" y2="286"/>
	<line class="st0" x1="-343" y1="290" x2="-349" y2="290"/>
	<polyline class="st0" points="-329,302 -329,280 -324,272 -319,280 -325,280 	"/>
	<polyline class="st0" points="-343,302 -349,302 -349,272 -333,272 -333,302 	"/>
	<line class="st0" x1="-347" y1="294" x2="-349" y2="294"/>
	<line class="st0" x1="-347" y1="298" x2="-349" y2="298"/>
	<line class="st0" x1="-319" y1="284" x2="-319" y2="302"/>
	<line class="st0" x1="-324" y1="302" x2="-324" y2="284"/>
</g>
<text transform="matrix(1 0 0 1 -363 365)" style="font-family:'Roboto-Bold'; font-size:20px;">Design</text>
<text transform="matrix(1 0 0 1 -727 94)" style="font-family:'Roboto-Bold'; font-size:20px;">Start</text>
<g>
	<text transform="matrix(1 0 0 1 -965 38)" style="font-family:'Roboto-Light'; font-size:20px;">HTML5 Banners</text>
</g>
<g>
	<path class="st0" d="M-692,6v5c0,2.2,1.8,4,4,4h10v40c0,2.2-1.8,4-4,4h-42c-2.2,0-4-1.8-4-4V5c0-2.2,1.8-4,4-4"/>
	<circle class="st0" cx="-715" cy="12" r="7"/>
	<circle class="st0" cx="-715" cy="30" r="7"/>
	<line class="st0" x1="-720" y1="39" x2="-720" y2="35"/>
	<polyline class="st0" points="-720,7 -720,1 -692,1 -682,11 	"/>
	<path class="st0" d="M-720,17c0,0-2,1-2,4s2,4,2,4"/>
	<path class="st0" d="M-712.3,10.7c-0.3-0.6-0.8-1.1-1.4-1.4"/>
	<path class="st0" d="M-712.3,28.7c-0.3-0.6-0.8-1.1-1.4-1.4"/>
	<line class="st0" x1="-700" y1="25" x2="-704" y2="25"/>
	<line class="st0" x1="-696" y1="25" x2="-688" y2="25"/>
	<line class="st0" x1="-703" y1="31" x2="-698" y2="31"/>
	<line class="st0" x1="-694" y1="31" x2="-690" y2="31"/>
	<line class="st0" x1="-718" y1="43" x2="-712" y2="43"/>
	<line class="st0" x1="-694" y1="43" x2="-688" y2="43"/>
	<line class="st0" x1="-708" y1="43" x2="-698" y2="43"/>
	<line class="st0" x1="-705" y1="37" x2="-690" y2="37"/>
	<line class="st0" x1="-718" y1="49" x2="-706" y2="49"/>
	<line class="st0" x1="-702" y1="49" x2="-692" y2="49"/>
</g>
<text transform="matrix(1 0 0 1 -373 94)" style="font-family:'Roboto-Bold'; font-size:20px;">Resize</text>
<text transform="matrix(1 0 0 1 -497 94)" style="font-family:'Roboto-Bold'; font-size:20px;">Animation</text>
<g>
	<path class="st0" d="M-248,1h-6c-2,0-4,2-4,4v26"/>
	<path class="st0" d="M-204,35h-54v6c0,2,2,4,4,4h50c2,0,4-2,4-4V5c0-2-2-4-4-4h-10"/>
	<circle class="st0" cx="-229" cy="40" r="1"/>
	<line class="st0" x1="-254" y1="59" x2="-218" y2="59"/>
	<line class="st0" x1="-244" y1="57" x2="-244" y2="59"/>
	<line class="st0" x1="-240" y1="57" x2="-240" y2="59"/>
	<line class="st0" x1="-236" y1="57" x2="-236" y2="59"/>
	<line class="st0" x1="-232" y1="57" x2="-232" y2="59"/>
	<line class="st0" x1="-234" y1="49" x2="-234" y2="53"/>
	<line class="st0" x1="-224" y1="49" x2="-224" y2="53"/>
	<line class="st0" x1="-224" y1="57" x2="-224" y2="59"/>
	<line class="st0" x1="-228" y1="57" x2="-228" y2="59"/>
	<line class="st0" x1="-220" y1="57" x2="-220" y2="59"/>
	<line class="st0" x1="-248" y1="57" x2="-248" y2="59"/>
	<line class="st0" x1="-252" y1="57" x2="-252" y2="59"/>
	<path class="st0" d="M-204,59v-1c0-1.7-1.3-3-3-3h-2c-1.7,0-3,1.3-3,3v1H-204z"/>
	<line class="st0" x1="-238" y1="7" x2="-244" y2="7"/>
	<line class="st0" x1="-242" y1="11" x2="-244" y2="11"/>
	<line class="st0" x1="-242" y1="15" x2="-244" y2="15"/>
	<line class="st0" x1="-238" y1="19" x2="-244" y2="19"/>
	<polyline class="st0" points="-224,31 -224,9 -219,1 -214,9 -220,9 	"/>
	<polyline class="st0" points="-238,31 -244,31 -244,1 -228,1 -228,31 	"/>
	<line class="st0" x1="-242" y1="23" x2="-244" y2="23"/>
	<line class="st0" x1="-242" y1="27" x2="-244" y2="27"/>
	<line class="st0" x1="-214" y1="13" x2="-214" y2="31"/>
	<line class="st0" x1="-219" y1="31" x2="-219" y2="13"/>
</g>
<text transform="matrix(1 0 0 1 -258 94)" style="font-family:'Roboto-Bold'; font-size:20px;">Design</text>
<text transform="matrix(1 0 0 1 1 94)" style="font-family:'Roboto-Bold'; font-size:20px;">Finish </text>
<text transform="matrix(1 0 0 1 -142 94)" style="font-family:'Roboto-Bold'; font-size:20px;">Optimization </text>
<g>
	<g>
		<polyline class="st0" points="-343,40.6 -370,40.6 -360.7,31.3 -356.5,35.6 -348.9,28 -343,33.9 		"/>
		<circle class="st0" cx="-362" cy="19.6" r="3.3"/>
		<line class="st0" x1="-362" y1="13" x2="-362" y2="16.3"/>
		<line class="st0" x1="-367.6" y1="16.3" x2="-364.8" y2="17.9"/>
		<line class="st0" x1="-367.6" y1="22.8" x2="-364.8" y2="21.2"/>
		<line class="st0" x1="-362" y1="26.1" x2="-362" y2="22.8"/>
		<line class="st0" x1="-356.3" y1="22.8" x2="-359.1" y2="21.2"/>
		<line class="st0" x1="-356.3" y1="16.3" x2="-359.1" y2="17.9"/>
	</g>
	<g>
		<polyline class="st0" points="-312,30 -333.3,30 -326,22.7 -322.7,26 -316.7,20 -312,24.7 		"/>
		<circle class="st0" cx="-325.3" cy="12.5" r="2.7"/>
		<line class="st0" x1="-325.3" y1="7" x2="-325.3" y2="9.7"/>
		<line class="st0" x1="-330.1" y1="9.8" x2="-327.7" y2="11.1"/>
		<line class="st0" x1="-330.1" y1="15.3" x2="-327.7" y2="13.9"/>
		<line class="st0" x1="-325.3" y1="18" x2="-325.3" y2="15.2"/>
		<line class="st0" x1="-320.5" y1="15.2" x2="-322.9" y2="13.9"/>
		<line class="st0" x1="-320.5" y1="9.7" x2="-322.9" y2="11.1"/>
	</g>
	<g>
		<polyline class="st0" points="-313.2,59.7 -332.2,59.7 -325.6,53.1 -322.7,56.1 -317.3,50.8 -313.2,54.9 		"/>
		<circle class="st1" cx="-328" cy="47.1" r="1.2"/>
		<line class="st1" x1="-328" y1="44.7" x2="-328" y2="45.9"/>
		<line class="st1" x1="-330" y1="45.9" x2="-329" y2="46.5"/>
		<line class="st1" x1="-330" y1="48.2" x2="-329" y2="47.7"/>
		<line class="st1" x1="-328" y1="49.4" x2="-328" y2="48.2"/>
		<line class="st1" x1="-326" y1="48.2" x2="-327" y2="47.7"/>
		<line class="st1" x1="-326" y1="45.9" x2="-327" y2="46.5"/>
	</g>
	<path class="st0" d="M-313.4,38h-18.2c-2.4,0-4.4-2-4.4-4.4V5.4c0-2.4,2-4.4,4.4-4.4h18.2c2.4,0,4.4,2,4.4,4.4v28.2
		C-309,36-311,38-313.4,38z"/>
	<path class="st0" d="M-344.4,60h-24.2c-2.4,0-4.4-2-4.4-4.4V5.4c0-2.4,2-4.4,4.4-4.4h24.2c2.4,0,4.4,2,4.4,4.4v50.2
		C-340,58-342,60-344.4,60z"/>
	<path class="st0" d="M-313.4,59.7h-18.2c-2.4,0-4.4-2-4.4-4.4v-9.2c0-2.4,2-4.4,4.4-4.4h18.2c2.4,0,4.4,2,4.4,4.4v9.2
		C-309,57.7-311,59.7-313.4,59.7z"/>
</g>
<g>
	<path class="st0" d="M-88,25l-5.9-1.3c-0.5-1.7-1.2-3.3-2-4.9l3.2-5.1c0.4-0.6,0.4-1,0-1.4l-5.7-5.7c-0.4-0.4-0.8-0.3-1.4,0
		l-5.1,3.2c-1.5-0.9-3.2-1.5-4.9-2L-111,2c-0.2-0.7-0.4-1-1-1h-8c-0.6,0-0.8,0.4-1,1l-1.3,5.9c-1.7,0.5-3.3,1.2-4.9,2l-5.1-3.2
		c-0.6-0.4-1-0.4-1.4,0l-5.7,5.7c-0.4,0.4-0.3,0.8,0,1.4l3.2,5.1c-0.9,1.5-1.5,3.2-2,4.9L-144,25c-0.7,0.2-1,0.4-1,1v8
		c0,0.6,0.4,0.8,1,1l5.9,1.3c0.5,1.7,1.2,3.3,2,4.9l-3.2,5.1c-0.4,0.6-0.4,1,0,1.4l5.7,5.7c0.4,0.4,0.8,0.3,1.4,0l5.1-3.2
		c1.5,0.9,3.2,1.5,4.9,2l1.3,5.9c0.2,0.7,0.4,1,1,1l8,0c0.6,0,0.8-0.4,1-1l1.3-5.9c1.7-0.5,3.3-1.2,4.9-2l5.1,3.2
		c0.6,0.4,1,0.4,1.4,0l5.7-5.7c0.4-0.4,0.3-0.8,0-1.4l-3.2-5.1c0.8-1.5,1.5-3.2,2-4.9L-88,35c0.7-0.2,1-0.4,1-1v-8
		C-87,25.4-87.4,25.2-88,25z"/>
	<path class="st0" d="M-112,42.4c5.2-1.7,9-6.6,9-12.4c0-7.2-5.8-13-13-13c-7.2,0-13,5.8-13,13s5.8,13,13,13"/>
	<circle class="st0" cx="-116" cy="30" r="3"/>
</g>
<g>
	<path class="st0" d="M37,6v5c0,2.2,1.8,4,4,4h10v40c0,2.2-1.8,4-4,4H5c-2.2,0-4-1.8-4-4V5c0-2.2,1.8-4,4-4h32l10,10"/>
	<circle class="st0" cx="26" cy="36" r="13"/>
	<polygon class="st0" points="23,32 23,40 30,36 	"/>
</g>
<g>
	<path class="st0" d="M-606,140h-6c-2,0-4,2-4,4v26"/>
	<path class="st0" d="M-562,174h-54v6c0,2,2,4,4,4h50c2,0,4-2,4-4v-36c0-2-2-4-4-4h-10"/>
	<circle class="st0" cx="-587" cy="179" r="1"/>
	<line class="st0" x1="-612" y1="198" x2="-576" y2="198"/>
	<line class="st0" x1="-602" y1="196" x2="-602" y2="198"/>
	<line class="st0" x1="-598" y1="196" x2="-598" y2="198"/>
	<line class="st0" x1="-594" y1="196" x2="-594" y2="198"/>
	<line class="st0" x1="-590" y1="196" x2="-590" y2="198"/>
	<line class="st0" x1="-592" y1="188" x2="-592" y2="192"/>
	<line class="st0" x1="-582" y1="188" x2="-582" y2="192"/>
	<line class="st0" x1="-582" y1="196" x2="-582" y2="198"/>
	<line class="st0" x1="-586" y1="196" x2="-586" y2="198"/>
	<line class="st0" x1="-578" y1="196" x2="-578" y2="198"/>
	<line class="st0" x1="-606" y1="196" x2="-606" y2="198"/>
	<line class="st0" x1="-610" y1="196" x2="-610" y2="198"/>
	<path class="st0" d="M-562,198v-1c0-1.7-1.3-3-3-3h-2c-1.7,0-3,1.3-3,3v1H-562z"/>
	<line class="st0" x1="-596" y1="146" x2="-602" y2="146"/>
	<line class="st0" x1="-600" y1="150" x2="-602" y2="150"/>
	<line class="st0" x1="-600" y1="154" x2="-602" y2="154"/>
	<line class="st0" x1="-596" y1="158" x2="-602" y2="158"/>
	<polyline class="st0" points="-582,170 -582,148 -577,140 -572,148 -578,148 	"/>
	<polyline class="st0" points="-596,170 -602,170 -602,140 -586,140 -586,170 	"/>
	<line class="st0" x1="-600" y1="162" x2="-602" y2="162"/>
	<line class="st0" x1="-600" y1="166" x2="-602" y2="166"/>
	<line class="st0" x1="-572" y1="152" x2="-572" y2="170"/>
	<line class="st0" x1="-577" y1="170" x2="-577" y2="152"/>
</g>
<text transform="matrix(1 0 0 1 -616 233)" style="font-family:'Roboto-Bold'; font-size:20px;">Design</text>
<text transform="matrix(1 0 0 1 -730 233)" style="font-family:'Roboto-Bold'; font-size:20px;">Start</text>
<g>
	<text transform="matrix(1 0 0 1 -968 177)" style="font-family:'Roboto-Light'; font-size:20px;">Web Development</text>
</g>
<g>
	<path class="st0" d="M-695,145v5c0,2.2,1.8,4,4,4h10v40c0,2.2-1.8,4-4,4h-42c-2.2,0-4-1.8-4-4v-50c0-2.2,1.8-4,4-4"/>
	<circle class="st0" cx="-718" cy="151" r="7"/>
	<circle class="st0" cx="-718" cy="169" r="7"/>
	<line class="st0" x1="-723" y1="178" x2="-723" y2="174"/>
	<polyline class="st0" points="-723,146 -723,140 -695,140 -685,150 	"/>
	<path class="st0" d="M-723,156c0,0-2,1-2,4s2,4,2,4"/>
	<path class="st0" d="M-715.3,149.7c-0.3-0.6-0.8-1.1-1.4-1.4"/>
	<path class="st0" d="M-715.3,167.7c-0.3-0.6-0.8-1.1-1.4-1.4"/>
	<line class="st0" x1="-703" y1="164" x2="-707" y2="164"/>
	<line class="st0" x1="-699" y1="164" x2="-691" y2="164"/>
	<line class="st0" x1="-706" y1="170" x2="-701" y2="170"/>
	<line class="st0" x1="-697" y1="170" x2="-693" y2="170"/>
	<line class="st0" x1="-721" y1="182" x2="-715" y2="182"/>
	<line class="st0" x1="-697" y1="182" x2="-691" y2="182"/>
	<line class="st0" x1="-711" y1="182" x2="-701" y2="182"/>
	<line class="st0" x1="-708" y1="176" x2="-693" y2="176"/>
	<line class="st0" x1="-721" y1="188" x2="-709" y2="188"/>
	<line class="st0" x1="-705" y1="188" x2="-695" y2="188"/>
</g>
<text transform="matrix(1 0 0 1 -730 366)" style="font-family:'Roboto-Bold'; font-size:20px;">Start</text>
<g>
	<path class="st0" d="M-695,278v5c0,2.2,1.8,4,4,4h10v40c0,2.2-1.8,4-4,4h-42c-2.2,0-4-1.8-4-4v-50c0-2.2,1.8-4,4-4"/>
	<circle class="st0" cx="-718" cy="284" r="7"/>
	<circle class="st0" cx="-718" cy="302" r="7"/>
	<line class="st0" x1="-723" y1="311" x2="-723" y2="307"/>
	<polyline class="st0" points="-723,279 -723,273 -695,273 -685,283 	"/>
	<path class="st0" d="M-723,289c0,0-2,1-2,4s2,4,2,4"/>
	<path class="st0" d="M-715.3,282.7c-0.3-0.6-0.8-1.1-1.4-1.4"/>
	<path class="st0" d="M-715.3,300.7c-0.3-0.6-0.8-1.1-1.4-1.4"/>
	<line class="st0" x1="-703" y1="297" x2="-707" y2="297"/>
	<line class="st0" x1="-699" y1="297" x2="-691" y2="297"/>
	<line class="st0" x1="-706" y1="303" x2="-701" y2="303"/>
	<line class="st0" x1="-697" y1="303" x2="-693" y2="303"/>
	<line class="st0" x1="-721" y1="315" x2="-715" y2="315"/>
	<line class="st0" x1="-697" y1="315" x2="-691" y2="315"/>
	<line class="st0" x1="-711" y1="315" x2="-701" y2="315"/>
	<line class="st0" x1="-708" y1="309" x2="-693" y2="309"/>
	<line class="st0" x1="-721" y1="321" x2="-709" y2="321"/>
	<line class="st0" x1="-705" y1="321" x2="-695" y2="321"/>
</g>
<text transform="matrix(1 0 0 1 -376 233)" style="font-family:'Roboto-Bold'; font-size:20px;">Back-end</text>
<text transform="matrix(1 0 0 1 -500 233)" style="font-family:'Roboto-Bold'; font-size:20px;">Front-end</text>
<text transform="matrix(1 0 0 1 -261 233)" style="font-family:'Roboto-Bold'; font-size:20px;">QA </text>
<text transform="matrix(1 0 0 1 -145 233)" style="font-family:'Roboto-Bold'; font-size:20px;">Finish </text>
<g>
	<path class="st0" d="M-461,198h-37c-2.3,0-4-1.8-4-4v-40"/>
	<path class="st0" d="M-494,145c0,0.6-0.4,1-1,1l0,0c-0.6,0-1-0.4-1-1l0,0c0-0.6,0.4-1,1-1l0,0C-494.4,144-494,144.4-494,145
		L-494,145z"/>
	<path class="st0" d="M-488,145c0,0.6-0.4,1-1,1l0,0c-0.6,0-1-0.4-1-1l0,0c0-0.6,0.4-1,1-1l0,0C-488.4,144-488,144.4-488,145
		L-488,145z"/>
	<path class="st0" d="M-482,145c0,0.6-0.4,1-1,1l0,0c-0.6,0-1-0.4-1-1l0,0c0-0.6,0.4-1,1-1l0,0C-482.4,144-482,144.4-482,145
		L-482,145z"/>
	<line class="st0" x1="-496" y1="156" x2="-488" y2="156"/>
	<line class="st0" x1="-462" y1="156" x2="-458" y2="156"/>
	<line class="st0" x1="-454" y1="156" x2="-450" y2="156"/>
	<line class="st0" x1="-470" y1="156" x2="-466" y2="156"/>
	<path class="st0" d="M-461,198h13c2.3,0,4-1.8,4-4v-50c0-2.2-1.8-4-4-4h-50c-2.2,0-4,1.8-4,4v6h54"/>
	<g>
		<path d="M-494.3,176.9l11.3-5.5v2.1l-9,4.2v0l9,4.2v2.1l-11.3-5.5V176.9z"/>
		<path d="M-476.5,185l5.8-17.3h2l-5.8,17.3H-476.5z"/>
		<path d="M-451,178.6l-11.3,5.4v-2.1l9.1-4.2v0l-9.1-4.2v-2.1l11.3,5.4V178.6z"/>
	</g>
</g>
<g>
	<path class="st0" d="M-214,188l2.8-2.8l7,7c1.6,1.6,1.6,4.1,0,5.7c-1.6,1.6-4.1,1.6-5.7,0l-11.8-11.8"/>
	<line class="st0" x1="-213.9" y1="182.4" x2="-216" y2="180.3"/>
	<circle class="st0" cx="-238" cy="164" r="23"/>
	<circle class="st0" cx="-238" cy="164" r="19"/>
	<line class="st0" x1="-245" y1="155" x2="-233" y2="155"/>
	<line class="st0" x1="-249" y1="161" x2="-235" y2="161"/>
	<line class="st0" x1="-249" y1="167" x2="-243" y2="167"/>
	<line class="st0" x1="-247" y1="173" x2="-239" y2="173"/>
	<line class="st0" x1="-231" y1="173" x2="-235" y2="173"/>
	<line class="st0" x1="-227" y1="161" x2="-231" y2="161"/>
	<line class="st0" x1="-227" y1="167" x2="-239" y2="167"/>
</g>
<g>
	<path class="st0" d="M-367,145c0,0.6-0.4,1-1,1l0,0c-0.6,0-1-0.4-1-1l0,0c0-0.6,0.4-1,1-1l0,0C-367.4,144-367,144.4-367,145
		L-367,145z"/>
	<path class="st0" d="M-361,145c0,0.6-0.4,1-1,1l0,0c-0.6,0-1-0.4-1-1l0,0c0-0.6,0.4-1,1-1l0,0C-361.4,144-361,144.4-361,145
		L-361,145z"/>
	<path class="st0" d="M-355,145c0,0.6-0.4,1-1,1l0,0c-0.6,0-1-0.4-1-1l0,0c0-0.6,0.4-1,1-1l0,0C-355.4,144-355,144.4-355,145
		L-355,145z"/>
	<line class="st0" x1="-367" y1="158" x2="-365" y2="158"/>
	<line class="st0" x1="-367" y1="162" x2="-365" y2="162"/>
	<line class="st0" x1="-367" y1="166" x2="-365" y2="166"/>
	<line class="st0" x1="-367" y1="170" x2="-365" y2="170"/>
	<line class="st0" x1="-367" y1="174" x2="-365" y2="174"/>
	<line class="st0" x1="-367" y1="178" x2="-365" y2="178"/>
	<line class="st0" x1="-367" y1="182" x2="-365" y2="182"/>
	<line class="st0" x1="-367" y1="186" x2="-365" y2="186"/>
	<line class="st0" x1="-367" y1="190" x2="-365" y2="190"/>
	<line class="st0" x1="-333" y1="158" x2="-337" y2="158"/>
	<line class="st0" x1="-331" y1="162" x2="-341" y2="162"/>
	<line class="st0" x1="-345" y1="162" x2="-361" y2="162"/>
	<line class="st0" x1="-351" y1="158" x2="-361" y2="158"/>
	<line class="st0" x1="-341" y1="158" x2="-347" y2="158"/>
	<line class="st0" x1="-327" y1="166" x2="-343" y2="166"/>
	<line class="st0" x1="-333" y1="170" x2="-341" y2="170"/>
	<line class="st0" x1="-345" y1="170" x2="-361" y2="170"/>
	<line class="st0" x1="-357" y1="166" x2="-361" y2="166"/>
	<line class="st0" x1="-347" y1="166" x2="-353" y2="166"/>
	<line class="st0" x1="-340" y1="182" x2="-343" y2="182"/>
	<line class="st0" x1="-357" y1="182" x2="-361" y2="182"/>
	<line class="st0" x1="-347" y1="182" x2="-353" y2="182"/>
	<line class="st0" x1="-349" y1="186" x2="-361" y2="186"/>
	<line class="st0" x1="-343" y1="186" x2="-345" y2="186"/>
	<line class="st0" x1="-355" y1="190" x2="-361" y2="190"/>
	<line class="st0" x1="-341" y1="190" x2="-351" y2="190"/>
	<line class="st0" x1="-331" y1="174" x2="-347" y2="174"/>
	<line class="st0" x1="-338" y1="178" x2="-345" y2="178"/>
	<line class="st0" x1="-349" y1="178" x2="-361" y2="178"/>
	<line class="st0" x1="-351" y1="174" x2="-361" y2="174"/>
	<path class="st0" d="M-317,190v-4h-2.3c-0.2-0.7-0.5-1.4-0.9-2.1l1.6-1.6l-2.8-2.8l-1.6,1.6c-0.6-0.4-1.3-0.7-2.1-0.9V178h-4v2.3
		c-0.7,0.2-1.4,0.5-2.1,0.9l-1.6-1.6l-2.8,2.8l1.6,1.6c-0.4,0.6-0.7,1.3-0.9,2.1h-2.3v4h2.3c0.2,0.7,0.5,1.4,0.9,2.1l-1.6,1.6
		l2.8,2.8l1.6-1.6c0.6,0.4,1.3,0.7,2.1,0.9v2.3h4v-2.3c0.7-0.2,1.4-0.5,2.1-0.9l1.6,1.6l2.8-2.8l-1.6-1.6c0.4-0.6,0.7-1.3,0.9-2.1
		H-317z"/>
	<circle class="st0" cx="-327" cy="188" r="2"/>
	<path class="st0" d="M-337,198h-34c-2.2,0-4-1.8-4-4v-40"/>
	<path class="st0" d="M-321,150h-54v-6c0-2.2,1.8-4,4-4h50c2.2,0,4,1.8,4,4v34"/>
</g>
<g>
	<path class="st0" d="M-110,196c0,1.1-0.9,2-2,2h-34c-1.1,0-2-0.9-2-2v-18c0-1.1,0.9-2,2-2h34c1.1,0,2,0.9,2,2V196z"/>
	<path class="st0" d="M-90,176v-34c0-1.1-0.9-2-2-2h-38c-1.1,0-2,0.9-2,2v30"/>
	<circle class="st0" cx="-121" cy="151" r="3"/>
	<circle class="st0" cx="-139" cy="185" r="3"/>
	<line class="st0" x1="-108" y1="148" x2="-100" y2="148"/>
	<line class="st0" x1="-108" y1="152" x2="-98" y2="152"/>
	<line class="st0" x1="-124" y1="162" x2="-116" y2="162"/>
	<line class="st0" x1="-124" y1="168" x2="-110" y2="168"/>
	<line class="st0" x1="-124" y1="172" x2="-116" y2="172"/>
	<line class="st0" x1="-106" y1="168" x2="-98" y2="168"/>
	<line class="st0" x1="-112" y1="172" x2="-100" y2="172"/>
	<line class="st0" x1="-130" y1="182" x2="-124" y2="182"/>
	<line class="st0" x1="-130" y1="186" x2="-122" y2="186"/>
	<line class="st0" x1="-130" y1="192" x2="-116" y2="192"/>
	<path class="st0" d="M-87,180c1.1,0,2,0.9,2,2v14c0,1.1-0.9,2-2,2h-6c-1.1,0-2-0.9-2-2v-14c0-1.1,0.9-2,2-2H-87z"/>
	<line class="st0" x1="-98.3" y1="198" x2="-106" y2="198"/>
	<line class="st0" x1="-98" y1="176" x2="-106" y2="176"/>
	<line class="st0" x1="-99" y1="180" x2="-106" y2="180"/>
	<line class="st0" x1="-99" y1="184" x2="-106" y2="184"/>
	<circle class="st0" cx="-90" cy="189" r="1"/>
</g>
<text transform="matrix(1 0 0 1 -498 365)" style="font-family:'Roboto-Bold'; font-size:20px;">Prototyping</text>
<text transform="matrix(1 0 0 1 -612 365)" style="font-family:'Roboto-Bold'; font-size:20px;">Concept</text>
<g>
	<text transform="matrix(1 0 0 1 -968 310)" style="font-family:'Roboto-Light'; font-size:20px;">Web Design</text>
</g>
<text transform="matrix(1 0 0 1 -258 365)" style="font-family:'Roboto-Bold'; font-size:20px;">Testing</text>
<text transform="matrix(1 0 0 1 -138 365)" style="font-family:'Roboto-Bold'; font-size:20px;">Finish </text>
<g>
	<path class="st0" d="M-103,328c0,1.1-0.9,2-2,2h-34c-1.1,0-2-0.9-2-2v-18c0-1.1,0.9-2,2-2h34c1.1,0,2,0.9,2,2V328z"/>
	<path class="st0" d="M-83,308v-34c0-1.1-0.9-2-2-2h-38c-1.1,0-2,0.9-2,2v30"/>
	<circle class="st0" cx="-114" cy="283" r="3"/>
	<circle class="st0" cx="-132" cy="317" r="3"/>
	<line class="st0" x1="-101" y1="280" x2="-93" y2="280"/>
	<line class="st0" x1="-101" y1="284" x2="-91" y2="284"/>
	<line class="st0" x1="-117" y1="294" x2="-109" y2="294"/>
	<line class="st0" x1="-117" y1="300" x2="-103" y2="300"/>
	<line class="st0" x1="-117" y1="304" x2="-109" y2="304"/>
	<line class="st0" x1="-99" y1="300" x2="-91" y2="300"/>
	<line class="st0" x1="-105" y1="304" x2="-93" y2="304"/>
	<line class="st0" x1="-123" y1="314" x2="-117" y2="314"/>
	<line class="st0" x1="-123" y1="318" x2="-115" y2="318"/>
	<line class="st0" x1="-123" y1="324" x2="-109" y2="324"/>
	<path class="st0" d="M-80,312c1.1,0,2,0.9,2,2v14c0,1.1-0.9,2-2,2h-6c-1.1,0-2-0.9-2-2v-14c0-1.1,0.9-2,2-2H-80z"/>
	<line class="st0" x1="-91.3" y1="330" x2="-99" y2="330"/>
	<line class="st0" x1="-91" y1="308" x2="-99" y2="308"/>
	<line class="st0" x1="-92" y1="312" x2="-99" y2="312"/>
	<line class="st0" x1="-92" y1="316" x2="-99" y2="316"/>
	<circle class="st0" cx="-83" cy="321" r="1"/>
</g>
<g>
	<line class="st0" x1="-589" y1="330" x2="-589" y2="318"/>
	<path class="st0" d="M-593,328v-3c0,0,0-3-2-5s-5-2-5-2h-3v3c0,0,0,3,2,5s5,2,5,2H-593z"/>
	<path class="st0" d="M-585,328v-3c0,0,0-3,2-5s5-2,5-2h3v3c0,0,0,3-2,5s-5,2-5,2H-585z"/>
	<path class="st0" d="M-574,287c0-8.3-6.7-15-15-15s-15,6.7-15,15c0,6,6,10.7,7,15l1,4h14l1-4C-580,297.7-574,293-574,287z"/>
	<line class="st0" x1="-594" y1="310" x2="-584" y2="310"/>
	<line class="st0" x1="-592" y1="314" x2="-586" y2="314"/>
	<path class="st0" d="M-591,302l-3-14c0,0,3,2,5,2s5-2,5-2l-3,14"/>
	<path class="st0" d="M-582,278.5c-1.2-1-2.5-1.7-4-2.1c-0.6-0.2-1.2-0.3-1.8-0.3"/>
	<path class="st0" d="M-578.4,284c-0.2-0.7-0.5-1.4-0.8-2"/>
	<line class="st0" x1="-610" y1="287" x2="-614" y2="287"/>
	<line class="st0" x1="-564" y1="287" x2="-568" y2="287"/>
	<line class="st0" x1="-567.3" y1="274.5" x2="-570.8" y2="276.5"/>
	<line class="st0" x1="-567.3" y1="299.5" x2="-570.8" y2="297.5"/>
	<line class="st0" x1="-607.2" y1="276.5" x2="-610.7" y2="274.5"/>
	<line class="st0" x1="-607.2" y1="297.5" x2="-610.7" y2="299.5"/>
</g>
<g>
	<path class="st0" d="M-490,277c0,0.6-0.4,1-1,1l0,0c-0.6,0-1-0.4-1-1l0,0c0-0.6,0.4-1,1-1l0,0C-490.4,276-490,276.4-490,277
		L-490,277z"/>
	<path class="st0" d="M-484,277c0,0.6-0.4,1-1,1l0,0c-0.6,0-1-0.4-1-1l0,0c0-0.6,0.4-1,1-1l0,0C-484.4,276-484,276.4-484,277
		L-484,277z"/>
	<path class="st0" d="M-478,277c0,0.6-0.4,1-1,1l0,0c-0.6,0-1-0.4-1-1l0,0c0-0.6,0.4-1,1-1l0,0C-478.4,276-478,276.4-478,277
		L-478,277z"/>
	<path class="st0" d="M-446,325.9c2.7-2.7,2.7-7.2,0-9.9c-2.7-2.7-7.2-2.7-9.9,0c-4,4-4,13.9-4,13.9S-450,330-446,325.9z"/>
	<line class="st0" x1="-444" y1="310" x2="-448.5" y2="314.5"/>
	<line class="st0" x1="-440" y1="314" x2="-444.4" y2="318.4"/>
	<path class="st0" d="M-448.2,322c0.4-1.1,0.1-2.3-0.7-3.1"/>
	<rect x="-494" y="286" class="st0" width="10" height="16"/>
	<rect x="-480" y="286" class="st0" width="36" height="10"/>
	<polyline class="st0" points="-494,326 -494,306 -484,306 -484,326 	"/>
	<polyline class="st0" points="-450,310 -450,300 -444,300 -444,306 	"/>
	<polyline class="st0" points="-480,326 -480,300 -454,300 -454,310 	"/>
	<path class="st0" d="M-464,330h-30c-2.2,0-4-1.8-4-4v-40"/>
	<path class="st0" d="M-444,282h-54v-6c0-2.2,1.8-4,4-4h50c2.2,0,4,1.8,4,4v34"/>
</g>
<g>
	<circle class="st0" cx="-228" cy="311" r="1"/>
	<path class="st0" d="M-227,302l-7.6-12.2c-0.7-1.3-0.5-2.7,0.7-3.5c1.3-0.7,2.4-0.1,3.3,1.1l7.7,10.7c-0.7-1.3-0.3-2.9,1-3.6
		c1.3-0.7,2.9-0.3,3.6,1l0.7,1.1c-0.7-1.3-0.3-2.9,1-3.6c1.3-0.7,2.9-0.3,3.6,1l1,1.7c-0.5-0.9-0.2-2.2,0.7-2.7
		c0.9-0.5,2.2-0.1,2.7,0.7c0,0,3.7,5.2,5.7,12.2h-54v6c0,2.3,1.8,4,4,4h50c2.3,0,4-1.7,4-4v-36c0-2.2-1.8-4-4-4h-50
		c-2.2,0-3.9,1.9-4,4v26"/>
	<line class="st0" x1="-233" y1="278" x2="-233" y2="282"/>
	<line class="st0" x1="-225.9" y1="280.9" x2="-228.8" y2="283.8"/>
	<line class="st0" x1="-240.1" y1="280.9" x2="-237.2" y2="283.8"/>
	<line class="st0" x1="-243" y1="288" x2="-239" y2="288"/>
	<line class="st0" x1="-240.1" y1="295.1" x2="-237.2" y2="292.2"/>
	<path class="st0" d="M-223,320v6h4c2,0,4,2,4,4h-26c0-2,2-4,4-4h10"/>
	<line class="st0" x1="-233" y1="326" x2="-233" y2="320"/>
</g>
</svg>
