<?xml version="1.0" encoding="utf-8"?>
<!-- Generator: Adobe Illustrator 21.0.2, SVG Export Plug-In . SVG Version: 6.00 Build 0)  -->
<svg version="1.1" id="Layer_1" xmlns="http://www.w3.org/2000/svg" xmlns:xlink="http://www.w3.org/1999/xlink" x="0px" y="0px"
	 viewBox="0 0 60 60" style="enable-background:new 0 0 60 60;" xml:space="preserve">
<style type="text/css">
	.st0{fill:none;stroke:#000000;stroke-width:2;stroke-linecap:round;stroke-linejoin:round;stroke-miterlimit:10;}
	.st1{fill:none;stroke:#000000;stroke-linecap:round;stroke-linejoin:round;stroke-miterlimit:10;}
</style>
<g>
	<path class="st0" d="M-457,1h-6c-2,0-4,2-4,4v26"/>
	<path class="st0" d="M-413,35h-54v6c0,2,2,4,4,4h50c2,0,4-2,4-4V5c0-2-2-4-4-4h-10"/>
	<circle class="st0" cx="-438" cy="40" r="1"/>
	<line class="st0" x1="-463" y1="59" x2="-427" y2="59"/>
	<line class="st0" x1="-453" y1="57" x2="-453" y2="59"/>
	<line class="st0" x1="-449" y1="57" x2="-449" y2="59"/>
	<line class="st0" x1="-445" y1="57" x2="-445" y2="59"/>
	<line class="st0" x1="-441" y1="57" x2="-441" y2="59"/>
	<line class="st0" x1="-443" y1="49" x2="-443" y2="53"/>
	<line class="st0" x1="-433" y1="49" x2="-433" y2="53"/>
	<line class="st0" x1="-433" y1="57" x2="-433" y2="59"/>
	<line class="st0" x1="-437" y1="57" x2="-437" y2="59"/>
	<line class="st0" x1="-429" y1="57" x2="-429" y2="59"/>
	<line class="st0" x1="-457" y1="57" x2="-457" y2="59"/>
	<line class="st0" x1="-461" y1="57" x2="-461" y2="59"/>
	<path class="st0" d="M-413,59v-1c0-1.7-1.3-3-3-3h-2c-1.7,0-3,1.3-3,3v1H-413z"/>
	<line class="st0" x1="-447" y1="7" x2="-453" y2="7"/>
	<line class="st0" x1="-451" y1="11" x2="-453" y2="11"/>
	<line class="st0" x1="-451" y1="15" x2="-453" y2="15"/>
	<line class="st0" x1="-447" y1="19" x2="-453" y2="19"/>
	<polyline class="st0" points="-433,31 -433,9 -428,1 -423,9 -429,9 	"/>
	<polyline class="st0" points="-447,31 -453,31 -453,1 -437,1 -437,31 	"/>
	<line class="st0" x1="-451" y1="23" x2="-453" y2="23"/>
	<line class="st0" x1="-451" y1="27" x2="-453" y2="27"/>
	<line class="st0" x1="-423" y1="13" x2="-423" y2="31"/>
	<line class="st0" x1="-428" y1="31" x2="-428" y2="13"/>
</g>
<g>
	<line class="st0" x1="-347" y1="46" x2="-301" y2="46"/>
	<line class="st0" x1="-317" y1="30" x2="-317" y2="46"/>
	<path class="st0" d="M-333,17h38v38c0,2.2-1.8,4-4,4h-50c-2.2,0-4-1.8-4-4V9h10l6,8l-6,8h-6"/>
	<line class="st0" x1="-337" y1="25" x2="-295" y2="25"/>
	<line class="st0" x1="-327" y1="17" x2="-333" y2="25"/>
	<line class="st0" x1="-318" y1="17" x2="-324" y2="25"/>
	<line class="st0" x1="-309" y1="17" x2="-315" y2="25"/>
	<line class="st0" x1="-300" y1="17" x2="-306" y2="25"/>
	<polyline class="st0" points="-333,15.2 -295.6,9 -296.9,1 -338.7,7.9 	"/>
	<line class="st0" x1="-333.9" y1="7.2" x2="-328.4" y2="14.4"/>
	<line class="st0" x1="-324.5" y1="5.7" x2="-319.1" y2="12.9"/>
	<line class="st0" x1="-315.8" y1="4.2" x2="-310.5" y2="11.4"/>
	<line class="st0" x1="-306.5" y1="2.7" x2="-301.1" y2="9.8"/>
</g>
<text transform="matrix(1 0 0 1 -467 94)" style="font-family:'Roboto-Bold'; font-size:20px;">Design</text>
<g>
	<path class="st0" d="M-207,272h-6c-2,0-4,2-4,4v26"/>
	<path class="st0" d="M-163,306h-54v6c0,2,2,4,4,4h50c2,0,4-2,4-4v-36c0-2-2-4-4-4h-10"/>
	<circle class="st0" cx="-188" cy="311" r="1"/>
	<line class="st0" x1="-213" y1="330" x2="-177" y2="330"/>
	<line class="st0" x1="-203" y1="328" x2="-203" y2="330"/>
	<line class="st0" x1="-199" y1="328" x2="-199" y2="330"/>
	<line class="st0" x1="-195" y1="328" x2="-195" y2="330"/>
	<line class="st0" x1="-191" y1="328" x2="-191" y2="330"/>
	<line class="st0" x1="-193" y1="320" x2="-193" y2="324"/>
	<line class="st0" x1="-183" y1="320" x2="-183" y2="324"/>
	<line class="st0" x1="-183" y1="328" x2="-183" y2="330"/>
	<line class="st0" x1="-187" y1="328" x2="-187" y2="330"/>
	<line class="st0" x1="-179" y1="328" x2="-179" y2="330"/>
	<line class="st0" x1="-207" y1="328" x2="-207" y2="330"/>
	<line class="st0" x1="-211" y1="328" x2="-211" y2="330"/>
	<path class="st0" d="M-163,330v-1c0-1.7-1.3-3-3-3h-2c-1.7,0-3,1.3-3,3v1H-163z"/>
	<line class="st0" x1="-197" y1="278" x2="-203" y2="278"/>
	<line class="st0" x1="-201" y1="282" x2="-203" y2="282"/>
	<line class="st0" x1="-201" y1="286" x2="-203" y2="286"/>
	<line class="st0" x1="-197" y1="290" x2="-203" y2="290"/>
	<polyline class="st0" points="-183,302 -183,280 -178,272 -173,280 -179,280 	"/>
	<polyline class="st0" points="-197,302 -203,302 -203,272 -187,272 -187,302 	"/>
	<line class="st0" x1="-201" y1="294" x2="-203" y2="294"/>
	<line class="st0" x1="-201" y1="298" x2="-203" y2="298"/>
	<line class="st0" x1="-173" y1="284" x2="-173" y2="302"/>
	<line class="st0" x1="-178" y1="302" x2="-178" y2="284"/>
</g>
<text transform="matrix(1 0 0 1 -217 365)" style="font-family:'Roboto-Bold'; font-size:20px;">Design</text>
<text transform="matrix(1 0 0 1 -581 94)" style="font-family:'Roboto-Bold'; font-size:20px;">Start</text>
<g>
	<text transform="matrix(1 0 0 1 -819 38)" style="font-family:'Roboto-Light'; font-size:20px;">HTML5 Banners</text>
</g>
<g>
	<path class="st0" d="M-546,6v5c0,2.2,1.8,4,4,4h10v40c0,2.2-1.8,4-4,4h-42c-2.2,0-4-1.8-4-4V5c0-2.2,1.8-4,4-4"/>
	<circle class="st0" cx="-569" cy="12" r="7"/>
	<circle class="st0" cx="-569" cy="30" r="7"/>
	<line class="st0" x1="-574" y1="39" x2="-574" y2="35"/>
	<polyline class="st0" points="-574,7 -574,1 -546,1 -536,11 	"/>
	<path class="st0" d="M-574,17c0,0-2,1-2,4s2,4,2,4"/>
	<path class="st0" d="M-566.3,10.7c-0.3-0.6-0.8-1.1-1.4-1.4"/>
	<path class="st0" d="M-566.3,28.7c-0.3-0.6-0.8-1.1-1.4-1.4"/>
	<line class="st0" x1="-554" y1="25" x2="-558" y2="25"/>
	<line class="st0" x1="-550" y1="25" x2="-542" y2="25"/>
	<line class="st0" x1="-557" y1="31" x2="-552" y2="31"/>
	<line class="st0" x1="-548" y1="31" x2="-544" y2="31"/>
	<line class="st0" x1="-572" y1="43" x2="-566" y2="43"/>
	<line class="st0" x1="-548" y1="43" x2="-542" y2="43"/>
	<line class="st0" x1="-562" y1="43" x2="-552" y2="43"/>
	<line class="st0" x1="-559" y1="37" x2="-544" y2="37"/>
	<line class="st0" x1="-572" y1="49" x2="-560" y2="49"/>
	<line class="st0" x1="-556" y1="49" x2="-546" y2="49"/>
</g>
<text transform="matrix(1 0 0 1 -227 94)" style="font-family:'Roboto-Bold'; font-size:20px;">Resize</text>
<text transform="matrix(1 0 0 1 -351 94)" style="font-family:'Roboto-Bold'; font-size:20px;">Animation</text>
<g>
	<path class="st0" d="M-102,1h-6c-2,0-4,2-4,4v26"/>
	<path class="st0" d="M-58,35h-54v6c0,2,2,4,4,4h50c2,0,4-2,4-4V5c0-2-2-4-4-4h-10"/>
	<circle class="st0" cx="-83" cy="40" r="1"/>
	<line class="st0" x1="-108" y1="59" x2="-72" y2="59"/>
	<line class="st0" x1="-98" y1="57" x2="-98" y2="59"/>
	<line class="st0" x1="-94" y1="57" x2="-94" y2="59"/>
	<line class="st0" x1="-90" y1="57" x2="-90" y2="59"/>
	<line class="st0" x1="-86" y1="57" x2="-86" y2="59"/>
	<line class="st0" x1="-88" y1="49" x2="-88" y2="53"/>
	<line class="st0" x1="-78" y1="49" x2="-78" y2="53"/>
	<line class="st0" x1="-78" y1="57" x2="-78" y2="59"/>
	<line class="st0" x1="-82" y1="57" x2="-82" y2="59"/>
	<line class="st0" x1="-74" y1="57" x2="-74" y2="59"/>
	<line class="st0" x1="-102" y1="57" x2="-102" y2="59"/>
	<line class="st0" x1="-106" y1="57" x2="-106" y2="59"/>
	<path class="st0" d="M-58,59v-1c0-1.7-1.3-3-3-3h-2c-1.7,0-3,1.3-3,3v1H-58z"/>
	<line class="st0" x1="-92" y1="7" x2="-98" y2="7"/>
	<line class="st0" x1="-96" y1="11" x2="-98" y2="11"/>
	<line class="st0" x1="-96" y1="15" x2="-98" y2="15"/>
	<line class="st0" x1="-92" y1="19" x2="-98" y2="19"/>
	<polyline class="st0" points="-78,31 -78,9 -73,1 -68,9 -74,9 	"/>
	<polyline class="st0" points="-92,31 -98,31 -98,1 -82,1 -82,31 	"/>
	<line class="st0" x1="-96" y1="23" x2="-98" y2="23"/>
	<line class="st0" x1="-96" y1="27" x2="-98" y2="27"/>
	<line class="st0" x1="-68" y1="13" x2="-68" y2="31"/>
	<line class="st0" x1="-73" y1="31" x2="-73" y2="13"/>
</g>
<text transform="matrix(1 0 0 1 -112 94)" style="font-family:'Roboto-Bold'; font-size:20px;">Design</text>
<text transform="matrix(1 0 0 1 147 94)" style="font-family:'Roboto-Bold'; font-size:20px;">Finish </text>
<text transform="matrix(1 0 0 1 4 94)" style="font-family:'Roboto-Bold'; font-size:20px;">Optimization </text>
<g>
	<g>
		<polyline class="st0" points="-197,40.6 -224,40.6 -214.7,31.3 -210.5,35.6 -202.9,28 -197,33.9 		"/>
		<circle class="st0" cx="-216" cy="19.6" r="3.3"/>
		<line class="st0" x1="-216" y1="13" x2="-216" y2="16.3"/>
		<line class="st0" x1="-221.6" y1="16.3" x2="-218.8" y2="17.9"/>
		<line class="st0" x1="-221.6" y1="22.8" x2="-218.8" y2="21.2"/>
		<line class="st0" x1="-216" y1="26.1" x2="-216" y2="22.8"/>
		<line class="st0" x1="-210.3" y1="22.8" x2="-213.1" y2="21.2"/>
		<line class="st0" x1="-210.3" y1="16.3" x2="-213.1" y2="17.9"/>
	</g>
	<g>
		<polyline class="st0" points="-166,30 -187.3,30 -180,22.7 -176.7,26 -170.7,20 -166,24.7 		"/>
		<circle class="st0" cx="-179.3" cy="12.5" r="2.7"/>
		<line class="st0" x1="-179.3" y1="7" x2="-179.3" y2="9.7"/>
		<line class="st0" x1="-184.1" y1="9.8" x2="-181.7" y2="11.1"/>
		<line class="st0" x1="-184.1" y1="15.3" x2="-181.7" y2="13.9"/>
		<line class="st0" x1="-179.3" y1="18" x2="-179.3" y2="15.2"/>
		<line class="st0" x1="-174.5" y1="15.2" x2="-176.9" y2="13.9"/>
		<line class="st0" x1="-174.5" y1="9.7" x2="-176.9" y2="11.1"/>
	</g>
	<g>
		<polyline class="st0" points="-167.2,59.7 -186.2,59.7 -179.6,53.1 -176.7,56.1 -171.3,50.8 -167.2,54.9 		"/>
		<circle class="st1" cx="-182" cy="47.1" r="1.2"/>
		<line class="st1" x1="-182" y1="44.7" x2="-182" y2="45.9"/>
		<line class="st1" x1="-184" y1="45.9" x2="-183" y2="46.5"/>
		<line class="st1" x1="-184" y1="48.2" x2="-183" y2="47.7"/>
		<line class="st1" x1="-182" y1="49.4" x2="-182" y2="48.2"/>
		<line class="st1" x1="-180" y1="48.2" x2="-181" y2="47.7"/>
		<line class="st1" x1="-180" y1="45.9" x2="-181" y2="46.5"/>
	</g>
	<path class="st0" d="M-167.4,38h-18.2c-2.4,0-4.4-2-4.4-4.4V5.4c0-2.4,2-4.4,4.4-4.4h18.2c2.4,0,4.4,2,4.4,4.4v28.2
		C-163,36-165,38-167.4,38z"/>
	<path class="st0" d="M-198.4,60h-24.2c-2.4,0-4.4-2-4.4-4.4V5.4c0-2.4,2-4.4,4.4-4.4h24.2c2.4,0,4.4,2,4.4,4.4v50.2
		C-194,58-196,60-198.4,60z"/>
	<path class="st0" d="M-167.4,59.7h-18.2c-2.4,0-4.4-2-4.4-4.4v-9.2c0-2.4,2-4.4,4.4-4.4h18.2c2.4,0,4.4,2,4.4,4.4v9.2
		C-163,57.7-165,59.7-167.4,59.7z"/>
</g>
<g>
	<path class="st0" d="M58,25l-5.9-1.3c-0.5-1.7-1.2-3.3-2-4.9l3.2-5.1c0.4-0.6,0.4-1,0-1.4l-5.7-5.7c-0.4-0.4-0.8-0.3-1.4,0
		l-5.1,3.2c-1.5-0.9-3.2-1.5-4.9-2L35,2c-0.2-0.7-0.4-1-1-1h-8c-0.6,0-0.8,0.4-1,1l-1.3,5.9c-1.7,0.5-3.3,1.2-4.9,2l-5.1-3.2
		c-0.6-0.4-1-0.4-1.4,0l-5.7,5.7c-0.4,0.4-0.3,0.8,0,1.4l3.2,5.1c-0.9,1.5-1.5,3.2-2,4.9L2,25c-0.7,0.2-1,0.4-1,1v8
		c0,0.6,0.4,0.8,1,1l5.9,1.3c0.5,1.7,1.2,3.3,2,4.9l-3.2,5.1c-0.4,0.6-0.4,1,0,1.4l5.7,5.7c0.4,0.4,0.8,0.3,1.4,0l5.1-3.2
		c1.5,0.9,3.2,1.5,4.9,2L25,58c0.2,0.7,0.4,1,1,1l8,0c0.6,0,0.8-0.4,1-1l1.3-5.9c1.7-0.5,3.3-1.2,4.9-2l5.1,3.2c0.6,0.4,1,0.4,1.4,0
		l5.7-5.7c0.4-0.4,0.3-0.8,0-1.4l-3.2-5.1c0.8-1.5,1.5-3.2,2-4.9L58,35c0.7-0.2,1-0.4,1-1v-8C59,25.4,58.6,25.2,58,25z"/>
	<path class="st0" d="M34,42.4c5.2-1.7,9-6.6,9-12.4c0-7.2-5.8-13-13-13c-7.2,0-13,5.8-13,13s5.8,13,13,13"/>
	<circle class="st0" cx="30" cy="30" r="3"/>
</g>
<g>
	<path class="st0" d="M183,6v5c0,2.2,1.8,4,4,4h10v40c0,2.2-1.8,4-4,4h-42c-2.2,0-4-1.8-4-4V5c0-2.2,1.8-4,4-4h32l10,10"/>
	<circle class="st0" cx="172" cy="36" r="13"/>
	<polygon class="st0" points="169,32 169,40 176,36 	"/>
</g>
<g>
	<path class="st0" d="M-460,140h-6c-2,0-4,2-4,4v26"/>
	<path class="st0" d="M-416,174h-54v6c0,2,2,4,4,4h50c2,0,4-2,4-4v-36c0-2-2-4-4-4h-10"/>
	<circle class="st0" cx="-441" cy="179" r="1"/>
	<line class="st0" x1="-466" y1="198" x2="-430" y2="198"/>
	<line class="st0" x1="-456" y1="196" x2="-456" y2="198"/>
	<line class="st0" x1="-452" y1="196" x2="-452" y2="198"/>
	<line class="st0" x1="-448" y1="196" x2="-448" y2="198"/>
	<line class="st0" x1="-444" y1="196" x2="-444" y2="198"/>
	<line class="st0" x1="-446" y1="188" x2="-446" y2="192"/>
	<line class="st0" x1="-436" y1="188" x2="-436" y2="192"/>
	<line class="st0" x1="-436" y1="196" x2="-436" y2="198"/>
	<line class="st0" x1="-440" y1="196" x2="-440" y2="198"/>
	<line class="st0" x1="-432" y1="196" x2="-432" y2="198"/>
	<line class="st0" x1="-460" y1="196" x2="-460" y2="198"/>
	<line class="st0" x1="-464" y1="196" x2="-464" y2="198"/>
	<path class="st0" d="M-416,198v-1c0-1.7-1.3-3-3-3h-2c-1.7,0-3,1.3-3,3v1H-416z"/>
	<line class="st0" x1="-450" y1="146" x2="-456" y2="146"/>
	<line class="st0" x1="-454" y1="150" x2="-456" y2="150"/>
	<line class="st0" x1="-454" y1="154" x2="-456" y2="154"/>
	<line class="st0" x1="-450" y1="158" x2="-456" y2="158"/>
	<polyline class="st0" points="-436,170 -436,148 -431,140 -426,148 -432,148 	"/>
	<polyline class="st0" points="-450,170 -456,170 -456,140 -440,140 -440,170 	"/>
	<line class="st0" x1="-454" y1="162" x2="-456" y2="162"/>
	<line class="st0" x1="-454" y1="166" x2="-456" y2="166"/>
	<line class="st0" x1="-426" y1="152" x2="-426" y2="170"/>
	<line class="st0" x1="-431" y1="170" x2="-431" y2="152"/>
</g>
<text transform="matrix(1 0 0 1 -470 233)" style="font-family:'Roboto-Bold'; font-size:20px;">Design</text>
<text transform="matrix(1 0 0 1 -584 233)" style="font-family:'Roboto-Bold'; font-size:20px;">Start</text>
<g>
	<text transform="matrix(1 0 0 1 -822 177)" style="font-family:'Roboto-Light'; font-size:20px;">Web Development</text>
</g>
<g>
	<path class="st0" d="M-549,145v5c0,2.2,1.8,4,4,4h10v40c0,2.2-1.8,4-4,4h-42c-2.2,0-4-1.8-4-4v-50c0-2.2,1.8-4,4-4"/>
	<circle class="st0" cx="-572" cy="151" r="7"/>
	<circle class="st0" cx="-572" cy="169" r="7"/>
	<line class="st0" x1="-577" y1="178" x2="-577" y2="174"/>
	<polyline class="st0" points="-577,146 -577,140 -549,140 -539,150 	"/>
	<path class="st0" d="M-577,156c0,0-2,1-2,4s2,4,2,4"/>
	<path class="st0" d="M-569.3,149.7c-0.3-0.6-0.8-1.1-1.4-1.4"/>
	<path class="st0" d="M-569.3,167.7c-0.3-0.6-0.8-1.1-1.4-1.4"/>
	<line class="st0" x1="-557" y1="164" x2="-561" y2="164"/>
	<line class="st0" x1="-553" y1="164" x2="-545" y2="164"/>
	<line class="st0" x1="-560" y1="170" x2="-555" y2="170"/>
	<line class="st0" x1="-551" y1="170" x2="-547" y2="170"/>
	<line class="st0" x1="-575" y1="182" x2="-569" y2="182"/>
	<line class="st0" x1="-551" y1="182" x2="-545" y2="182"/>
	<line class="st0" x1="-565" y1="182" x2="-555" y2="182"/>
	<line class="st0" x1="-562" y1="176" x2="-547" y2="176"/>
	<line class="st0" x1="-575" y1="188" x2="-563" y2="188"/>
	<line class="st0" x1="-559" y1="188" x2="-549" y2="188"/>
</g>
<text transform="matrix(1 0 0 1 -584 366)" style="font-family:'Roboto-Bold'; font-size:20px;">Start</text>
<g>
	<path class="st0" d="M-549,278v5c0,2.2,1.8,4,4,4h10v40c0,2.2-1.8,4-4,4h-42c-2.2,0-4-1.8-4-4v-50c0-2.2,1.8-4,4-4"/>
	<circle class="st0" cx="-572" cy="284" r="7"/>
	<circle class="st0" cx="-572" cy="302" r="7"/>
	<line class="st0" x1="-577" y1="311" x2="-577" y2="307"/>
	<polyline class="st0" points="-577,279 -577,273 -549,273 -539,283 	"/>
	<path class="st0" d="M-577,289c0,0-2,1-2,4s2,4,2,4"/>
	<path class="st0" d="M-569.3,282.7c-0.3-0.6-0.8-1.1-1.4-1.4"/>
	<path class="st0" d="M-569.3,300.7c-0.3-0.6-0.8-1.1-1.4-1.4"/>
	<line class="st0" x1="-557" y1="297" x2="-561" y2="297"/>
	<line class="st0" x1="-553" y1="297" x2="-545" y2="297"/>
	<line class="st0" x1="-560" y1="303" x2="-555" y2="303"/>
	<line class="st0" x1="-551" y1="303" x2="-547" y2="303"/>
	<line class="st0" x1="-575" y1="315" x2="-569" y2="315"/>
	<line class="st0" x1="-551" y1="315" x2="-545" y2="315"/>
	<line class="st0" x1="-565" y1="315" x2="-555" y2="315"/>
	<line class="st0" x1="-562" y1="309" x2="-547" y2="309"/>
	<line class="st0" x1="-575" y1="321" x2="-563" y2="321"/>
	<line class="st0" x1="-559" y1="321" x2="-549" y2="321"/>
</g>
<text transform="matrix(1 0 0 1 -230 233)" style="font-family:'Roboto-Bold'; font-size:20px;">Back-end</text>
<text transform="matrix(1 0 0 1 -354 233)" style="font-family:'Roboto-Bold'; font-size:20px;">Front-end</text>
<text transform="matrix(1 0 0 1 -115 233)" style="font-family:'Roboto-Bold'; font-size:20px;">QA </text>
<text transform="matrix(1 0 0 1 1 233)" style="font-family:'Roboto-Bold'; font-size:20px;">Finish </text>
<g>
	<path class="st0" d="M-315,198h-37c-2.3,0-4-1.8-4-4v-40"/>
	<path class="st0" d="M-348,145c0,0.6-0.4,1-1,1l0,0c-0.6,0-1-0.4-1-1l0,0c0-0.6,0.4-1,1-1l0,0C-348.4,144-348,144.4-348,145
		L-348,145z"/>
	<path class="st0" d="M-342,145c0,0.6-0.4,1-1,1l0,0c-0.6,0-1-0.4-1-1l0,0c0-0.6,0.4-1,1-1l0,0C-342.4,144-342,144.4-342,145
		L-342,145z"/>
	<path class="st0" d="M-336,145c0,0.6-0.4,1-1,1l0,0c-0.6,0-1-0.4-1-1l0,0c0-0.6,0.4-1,1-1l0,0C-336.4,144-336,144.4-336,145
		L-336,145z"/>
	<line class="st0" x1="-350" y1="156" x2="-342" y2="156"/>
	<line class="st0" x1="-316" y1="156" x2="-312" y2="156"/>
	<line class="st0" x1="-308" y1="156" x2="-304" y2="156"/>
	<line class="st0" x1="-324" y1="156" x2="-320" y2="156"/>
	<path class="st0" d="M-315,198h13c2.3,0,4-1.8,4-4v-50c0-2.2-1.8-4-4-4h-50c-2.2,0-4,1.8-4,4v6h54"/>
	<g>
		<path d="M-348.3,176.9l11.3-5.5v2.1l-9,4.2v0l9,4.2v2.1l-11.3-5.5V176.9z"/>
		<path d="M-330.5,185l5.8-17.3h2l-5.8,17.3H-330.5z"/>
		<path d="M-305,178.6l-11.3,5.4v-2.1l9.1-4.2v0l-9.1-4.2v-2.1l11.3,5.4V178.6z"/>
	</g>
</g>
<g>
	<path class="st0" d="M-68,188l2.8-2.8l7,7c1.6,1.6,1.6,4.1,0,5.7c-1.6,1.6-4.1,1.6-5.7,0L-75.7,186"/>
	<line class="st0" x1="-67.9" y1="182.4" x2="-70" y2="180.3"/>
	<circle class="st0" cx="-92" cy="164" r="23"/>
	<circle class="st0" cx="-92" cy="164" r="19"/>
	<line class="st0" x1="-99" y1="155" x2="-87" y2="155"/>
	<line class="st0" x1="-103" y1="161" x2="-89" y2="161"/>
	<line class="st0" x1="-103" y1="167" x2="-97" y2="167"/>
	<line class="st0" x1="-101" y1="173" x2="-93" y2="173"/>
	<line class="st0" x1="-85" y1="173" x2="-89" y2="173"/>
	<line class="st0" x1="-81" y1="161" x2="-85" y2="161"/>
	<line class="st0" x1="-81" y1="167" x2="-93" y2="167"/>
</g>
<g>
	<path class="st0" d="M-221,145c0,0.6-0.4,1-1,1l0,0c-0.6,0-1-0.4-1-1l0,0c0-0.6,0.4-1,1-1l0,0C-221.4,144-221,144.4-221,145
		L-221,145z"/>
	<path class="st0" d="M-215,145c0,0.6-0.4,1-1,1l0,0c-0.6,0-1-0.4-1-1l0,0c0-0.6,0.4-1,1-1l0,0C-215.4,144-215,144.4-215,145
		L-215,145z"/>
	<path class="st0" d="M-209,145c0,0.6-0.4,1-1,1l0,0c-0.6,0-1-0.4-1-1l0,0c0-0.6,0.4-1,1-1l0,0C-209.4,144-209,144.4-209,145
		L-209,145z"/>
	<line class="st0" x1="-221" y1="158" x2="-219" y2="158"/>
	<line class="st0" x1="-221" y1="162" x2="-219" y2="162"/>
	<line class="st0" x1="-221" y1="166" x2="-219" y2="166"/>
	<line class="st0" x1="-221" y1="170" x2="-219" y2="170"/>
	<line class="st0" x1="-221" y1="174" x2="-219" y2="174"/>
	<line class="st0" x1="-221" y1="178" x2="-219" y2="178"/>
	<line class="st0" x1="-221" y1="182" x2="-219" y2="182"/>
	<line class="st0" x1="-221" y1="186" x2="-219" y2="186"/>
	<line class="st0" x1="-221" y1="190" x2="-219" y2="190"/>
	<line class="st0" x1="-187" y1="158" x2="-191" y2="158"/>
	<line class="st0" x1="-185" y1="162" x2="-195" y2="162"/>
	<line class="st0" x1="-199" y1="162" x2="-215" y2="162"/>
	<line class="st0" x1="-205" y1="158" x2="-215" y2="158"/>
	<line class="st0" x1="-195" y1="158" x2="-201" y2="158"/>
	<line class="st0" x1="-181" y1="166" x2="-197" y2="166"/>
	<line class="st0" x1="-187" y1="170" x2="-195" y2="170"/>
	<line class="st0" x1="-199" y1="170" x2="-215" y2="170"/>
	<line class="st0" x1="-211" y1="166" x2="-215" y2="166"/>
	<line class="st0" x1="-201" y1="166" x2="-207" y2="166"/>
	<line class="st0" x1="-194" y1="182" x2="-197" y2="182"/>
	<line class="st0" x1="-211" y1="182" x2="-215" y2="182"/>
	<line class="st0" x1="-201" y1="182" x2="-207" y2="182"/>
	<line class="st0" x1="-203" y1="186" x2="-215" y2="186"/>
	<line class="st0" x1="-197" y1="186" x2="-199" y2="186"/>
	<line class="st0" x1="-209" y1="190" x2="-215" y2="190"/>
	<line class="st0" x1="-195" y1="190" x2="-205" y2="190"/>
	<line class="st0" x1="-185" y1="174" x2="-201" y2="174"/>
	<line class="st0" x1="-192" y1="178" x2="-199" y2="178"/>
	<line class="st0" x1="-203" y1="178" x2="-215" y2="178"/>
	<line class="st0" x1="-205" y1="174" x2="-215" y2="174"/>
	<path class="st0" d="M-171,190v-4h-2.3c-0.2-0.7-0.5-1.4-0.9-2.1l1.6-1.6l-2.8-2.8l-1.6,1.6c-0.6-0.4-1.3-0.7-2.1-0.9V178h-4v2.3
		c-0.7,0.2-1.4,0.5-2.1,0.9l-1.6-1.6l-2.8,2.8l1.6,1.6c-0.4,0.6-0.7,1.3-0.9,2.1h-2.3v4h2.3c0.2,0.7,0.5,1.4,0.9,2.1l-1.6,1.6
		l2.8,2.8l1.6-1.6c0.6,0.4,1.3,0.7,2.1,0.9v2.3h4v-2.3c0.7-0.2,1.4-0.5,2.1-0.9l1.6,1.6l2.8-2.8l-1.6-1.6c0.4-0.6,0.7-1.3,0.9-2.1
		H-171z"/>
	<circle class="st0" cx="-181" cy="188" r="2"/>
	<path class="st0" d="M-191,198h-34c-2.2,0-4-1.8-4-4v-40"/>
	<path class="st0" d="M-175,150h-54v-6c0-2.2,1.8-4,4-4h50c2.2,0,4,1.8,4,4v34"/>
</g>
<g>
	<path class="st0" d="M36,196c0,1.1-0.9,2-2,2H0c-1.1,0-2-0.9-2-2v-18c0-1.1,0.9-2,2-2h34c1.1,0,2,0.9,2,2V196z"/>
	<path class="st0" d="M56,176v-34c0-1.1-0.9-2-2-2H16c-1.1,0-2,0.9-2,2v30"/>
	<circle class="st0" cx="25" cy="151" r="3"/>
	<circle class="st0" cx="7" cy="185" r="3"/>
	<line class="st0" x1="38" y1="148" x2="46" y2="148"/>
	<line class="st0" x1="38" y1="152" x2="48" y2="152"/>
	<line class="st0" x1="22" y1="162" x2="30" y2="162"/>
	<line class="st0" x1="22" y1="168" x2="36" y2="168"/>
	<line class="st0" x1="22" y1="172" x2="30" y2="172"/>
	<line class="st0" x1="40" y1="168" x2="48" y2="168"/>
	<line class="st0" x1="34" y1="172" x2="46" y2="172"/>
	<line class="st0" x1="16" y1="182" x2="22" y2="182"/>
	<line class="st0" x1="16" y1="186" x2="24" y2="186"/>
	<line class="st0" x1="16" y1="192" x2="30" y2="192"/>
	<path class="st0" d="M59,180c1.1,0,2,0.9,2,2v14c0,1.1-0.9,2-2,2h-6c-1.1,0-2-0.9-2-2v-14c0-1.1,0.9-2,2-2H59z"/>
	<line class="st0" x1="47.8" y1="198" x2="40" y2="198"/>
	<line class="st0" x1="48" y1="176" x2="40" y2="176"/>
	<line class="st0" x1="47" y1="180" x2="40" y2="180"/>
	<line class="st0" x1="47" y1="184" x2="40" y2="184"/>
	<circle class="st0" cx="56" cy="189" r="1"/>
</g>
<text transform="matrix(1 0 0 1 -352 365)" style="font-family:'Roboto-Bold'; font-size:20px;">Prototyping</text>
<text transform="matrix(1 0 0 1 -466 365)" style="font-family:'Roboto-Bold'; font-size:20px;">Concept</text>
<g>
	<text transform="matrix(1 0 0 1 -822 310)" style="font-family:'Roboto-Light'; font-size:20px;">Web Design</text>
</g>
<text transform="matrix(1 0 0 1 -112 365)" style="font-family:'Roboto-Bold'; font-size:20px;">Testing</text>
<text transform="matrix(1 0 0 1 8 365)" style="font-family:'Roboto-Bold'; font-size:20px;">Finish </text>
<g>
	<path class="st0" d="M43,328c0,1.1-0.9,2-2,2H7c-1.1,0-2-0.9-2-2v-18c0-1.1,0.9-2,2-2h34c1.1,0,2,0.9,2,2V328z"/>
	<path class="st0" d="M63,308v-34c0-1.1-0.9-2-2-2H23c-1.1,0-2,0.9-2,2v30"/>
	<circle class="st0" cx="32" cy="283" r="3"/>
	<circle class="st0" cx="14" cy="317" r="3"/>
	<line class="st0" x1="45" y1="280" x2="53" y2="280"/>
	<line class="st0" x1="45" y1="284" x2="55" y2="284"/>
	<line class="st0" x1="29" y1="294" x2="37" y2="294"/>
	<line class="st0" x1="29" y1="300" x2="43" y2="300"/>
	<line class="st0" x1="29" y1="304" x2="37" y2="304"/>
	<line class="st0" x1="47" y1="300" x2="55" y2="300"/>
	<line class="st0" x1="41" y1="304" x2="53" y2="304"/>
	<line class="st0" x1="23" y1="314" x2="29" y2="314"/>
	<line class="st0" x1="23" y1="318" x2="31" y2="318"/>
	<line class="st0" x1="23" y1="324" x2="37" y2="324"/>
	<path class="st0" d="M66,312c1.1,0,2,0.9,2,2v14c0,1.1-0.9,2-2,2h-6c-1.1,0-2-0.9-2-2v-14c0-1.1,0.9-2,2-2H66z"/>
	<line class="st0" x1="54.8" y1="330" x2="47" y2="330"/>
	<line class="st0" x1="55" y1="308" x2="47" y2="308"/>
	<line class="st0" x1="54" y1="312" x2="47" y2="312"/>
	<line class="st0" x1="54" y1="316" x2="47" y2="316"/>
	<circle class="st0" cx="63" cy="321" r="1"/>
</g>
<g>
	<line class="st0" x1="-443" y1="330" x2="-443" y2="318"/>
	<path class="st0" d="M-447,328v-3c0,0,0-3-2-5s-5-2-5-2h-3v3c0,0,0,3,2,5s5,2,5,2H-447z"/>
	<path class="st0" d="M-439,328v-3c0,0,0-3,2-5s5-2,5-2h3v3c0,0,0,3-2,5s-5,2-5,2H-439z"/>
	<path class="st0" d="M-428,287c0-8.3-6.7-15-15-15c-8.3,0-15,6.7-15,15c0,6,6,10.7,7,15l1,4h14l1-4C-434,297.7-428,293-428,287z"/>
	<line class="st0" x1="-448" y1="310" x2="-438" y2="310"/>
	<line class="st0" x1="-446" y1="314" x2="-440" y2="314"/>
	<path class="st0" d="M-445,302l-3-14c0,0,3,2,5,2s5-2,5-2l-3,14"/>
	<path class="st0" d="M-436,278.5c-1.2-1-2.5-1.7-4-2.1c-0.6-0.2-1.2-0.3-1.8-0.3"/>
	<path class="st0" d="M-432.4,284c-0.2-0.7-0.5-1.4-0.8-2"/>
	<line class="st0" x1="-464" y1="287" x2="-468" y2="287"/>
	<line class="st0" x1="-418" y1="287" x2="-422" y2="287"/>
	<line class="st0" x1="-421.3" y1="274.5" x2="-424.8" y2="276.5"/>
	<line class="st0" x1="-421.3" y1="299.5" x2="-424.8" y2="297.5"/>
	<line class="st0" x1="-461.2" y1="276.5" x2="-464.7" y2="274.5"/>
	<line class="st0" x1="-461.2" y1="297.5" x2="-464.7" y2="299.5"/>
</g>
<g>
	<path class="st0" d="M-344,277c0,0.6-0.4,1-1,1l0,0c-0.6,0-1-0.4-1-1l0,0c0-0.6,0.4-1,1-1l0,0C-344.4,276-344,276.4-344,277
		L-344,277z"/>
	<path class="st0" d="M-338,277c0,0.6-0.4,1-1,1l0,0c-0.6,0-1-0.4-1-1l0,0c0-0.6,0.4-1,1-1l0,0C-338.4,276-338,276.4-338,277
		L-338,277z"/>
	<path class="st0" d="M-332,277c0,0.6-0.4,1-1,1l0,0c-0.6,0-1-0.4-1-1l0,0c0-0.6,0.4-1,1-1l0,0C-332.4,276-332,276.4-332,277
		L-332,277z"/>
	<path class="st0" d="M-300,325.9c2.7-2.7,2.7-7.2,0-9.9c-2.7-2.7-7.2-2.7-9.9,0c-4,4-4,13.9-4,13.9S-304,330-300,325.9z"/>
	<line class="st0" x1="-298" y1="310" x2="-302.5" y2="314.5"/>
	<line class="st0" x1="-294" y1="314" x2="-298.4" y2="318.4"/>
	<path class="st0" d="M-302.2,322c0.4-1.1,0.1-2.3-0.7-3.1"/>
	<rect x="-348" y="286" class="st0" width="10" height="16"/>
	<rect x="-334" y="286" class="st0" width="36" height="10"/>
	<polyline class="st0" points="-348,326 -348,306 -338,306 -338,326 	"/>
	<polyline class="st0" points="-304,310 -304,300 -298,300 -298,306 	"/>
	<polyline class="st0" points="-334,326 -334,300 -308,300 -308,310 	"/>
	<path class="st0" d="M-318,330h-30c-2.2,0-4-1.8-4-4v-40"/>
	<path class="st0" d="M-298,282h-54v-6c0-2.2,1.8-4,4-4h50c2.2,0,4,1.8,4,4v34"/>
</g>
<g>
	<circle class="st0" cx="-82" cy="311" r="1"/>
	<path class="st0" d="M-81,302l-7.6-12.2c-0.7-1.3-0.5-2.7,0.7-3.5c1.3-0.7,2.4-0.1,3.3,1.1l7.7,10.7c-0.7-1.3-0.3-2.9,1-3.6
		c1.3-0.7,2.9-0.3,3.6,1l0.7,1.1c-0.7-1.3-0.3-2.9,1-3.6c1.3-0.7,2.9-0.3,3.6,1l1,1.7c-0.5-0.9-0.2-2.2,0.7-2.7
		c0.9-0.5,2.2-0.1,2.7,0.7c0,0,3.7,5.2,5.7,12.2h-54v6c0,2.3,1.8,4,4,4h50c2.3,0,4-1.7,4-4v-36c0-2.2-1.8-4-4-4h-50
		c-2.2,0-3.9,1.9-4,4v26"/>
	<line class="st0" x1="-87" y1="278" x2="-87" y2="282"/>
	<line class="st0" x1="-79.9" y1="280.9" x2="-82.8" y2="283.8"/>
	<line class="st0" x1="-94.1" y1="280.9" x2="-91.2" y2="283.8"/>
	<line class="st0" x1="-97" y1="288" x2="-93" y2="288"/>
	<line class="st0" x1="-94.1" y1="295.1" x2="-91.2" y2="292.2"/>
	<path class="st0" d="M-77,320v6h4c2,0,4,2,4,4h-26c0-2,2-4,4-4h10"/>
	<line class="st0" x1="-87" y1="326" x2="-87" y2="320"/>
</g>
</svg>
