<?xml version="1.0" encoding="utf-8"?>
<!-- Generator: Adobe Illustrator 21.0.2, SVG Export Plug-In . SVG Version: 6.00 Build 0)  -->
<svg version="1.1" id="Layer_1" xmlns="http://www.w3.org/2000/svg" xmlns:xlink="http://www.w3.org/1999/xlink" x="0px" y="0px"
	 viewBox="0 0 66 61" style="enable-background:new 0 0 66 61;" xml:space="preserve">
<style type="text/css">
	.st0{fill:none;stroke:#000000;stroke-width:2;stroke-linecap:round;stroke-linejoin:round;stroke-miterlimit:10;}
	.st1{fill:none;stroke:#000000;stroke-linecap:round;stroke-linejoin:round;stroke-miterlimit:10;}
</style>
<g>
	<path class="st0" d="M-229,1h-6c-2,0-4,2-4,4v26"/>
	<path class="st0" d="M-185,35h-54v6c0,2,2,4,4,4h50c2,0,4-2,4-4V5c0-2-2-4-4-4h-10"/>
	<circle class="st0" cx="-210" cy="40" r="1"/>
	<line class="st0" x1="-235" y1="59" x2="-199" y2="59"/>
	<line class="st0" x1="-225" y1="57" x2="-225" y2="59"/>
	<line class="st0" x1="-221" y1="57" x2="-221" y2="59"/>
	<line class="st0" x1="-217" y1="57" x2="-217" y2="59"/>
	<line class="st0" x1="-213" y1="57" x2="-213" y2="59"/>
	<line class="st0" x1="-215" y1="49" x2="-215" y2="53"/>
	<line class="st0" x1="-205" y1="49" x2="-205" y2="53"/>
	<line class="st0" x1="-205" y1="57" x2="-205" y2="59"/>
	<line class="st0" x1="-209" y1="57" x2="-209" y2="59"/>
	<line class="st0" x1="-201" y1="57" x2="-201" y2="59"/>
	<line class="st0" x1="-229" y1="57" x2="-229" y2="59"/>
	<line class="st0" x1="-233" y1="57" x2="-233" y2="59"/>
	<path class="st0" d="M-185,59v-1c0-1.7-1.3-3-3-3h-2c-1.7,0-3,1.3-3,3v1H-185z"/>
	<line class="st0" x1="-219" y1="7" x2="-225" y2="7"/>
	<line class="st0" x1="-223" y1="11" x2="-225" y2="11"/>
	<line class="st0" x1="-223" y1="15" x2="-225" y2="15"/>
	<line class="st0" x1="-219" y1="19" x2="-225" y2="19"/>
	<polyline class="st0" points="-205,31 -205,9 -200,1 -195,9 -201,9 	"/>
	<polyline class="st0" points="-219,31 -225,31 -225,1 -209,1 -209,31 	"/>
	<line class="st0" x1="-223" y1="23" x2="-225" y2="23"/>
	<line class="st0" x1="-223" y1="27" x2="-225" y2="27"/>
	<line class="st0" x1="-195" y1="13" x2="-195" y2="31"/>
	<line class="st0" x1="-200" y1="31" x2="-200" y2="13"/>
</g>
<g>
	<line class="st0" x1="-119" y1="46" x2="-73" y2="46"/>
	<line class="st0" x1="-89" y1="30" x2="-89" y2="46"/>
	<path class="st0" d="M-105,17h38v38c0,2.2-1.8,4-4,4h-50c-2.2,0-4-1.8-4-4V9h10l6,8l-6,8h-6"/>
	<line class="st0" x1="-109" y1="25" x2="-67" y2="25"/>
	<line class="st0" x1="-99" y1="17" x2="-105" y2="25"/>
	<line class="st0" x1="-90" y1="17" x2="-96" y2="25"/>
	<line class="st0" x1="-81" y1="17" x2="-87" y2="25"/>
	<line class="st0" x1="-72" y1="17" x2="-78" y2="25"/>
	<polyline class="st0" points="-105,15.2 -67.6,9 -68.9,1 -110.7,7.9 	"/>
	<line class="st0" x1="-105.9" y1="7.2" x2="-100.4" y2="14.4"/>
	<line class="st0" x1="-96.5" y1="5.7" x2="-91.1" y2="12.9"/>
	<line class="st0" x1="-87.8" y1="4.2" x2="-82.5" y2="11.4"/>
	<line class="st0" x1="-78.5" y1="2.7" x2="-73.1" y2="9.8"/>
</g>
<text transform="matrix(1 0 0 1 -239 94)" style="font-family:'Roboto-Bold'; font-size:20px;">Design</text>
<g>
	<path class="st0" d="M21,272h-6c-2,0-4,2-4,4v26"/>
	<path class="st0" d="M65,306H11v6c0,2,2,4,4,4h50c2,0,4-2,4-4v-36c0-2-2-4-4-4H55"/>
	<circle class="st0" cx="40" cy="311" r="1"/>
	<line class="st0" x1="15" y1="330" x2="51" y2="330"/>
	<line class="st0" x1="25" y1="328" x2="25" y2="330"/>
	<line class="st0" x1="29" y1="328" x2="29" y2="330"/>
	<line class="st0" x1="33" y1="328" x2="33" y2="330"/>
	<line class="st0" x1="37" y1="328" x2="37" y2="330"/>
	<line class="st0" x1="35" y1="320" x2="35" y2="324"/>
	<line class="st0" x1="45" y1="320" x2="45" y2="324"/>
	<line class="st0" x1="45" y1="328" x2="45" y2="330"/>
	<line class="st0" x1="41" y1="328" x2="41" y2="330"/>
	<line class="st0" x1="49" y1="328" x2="49" y2="330"/>
	<line class="st0" x1="21" y1="328" x2="21" y2="330"/>
	<line class="st0" x1="17" y1="328" x2="17" y2="330"/>
	<path class="st0" d="M65,330v-1c0-1.7-1.3-3-3-3h-2c-1.7,0-3,1.3-3,3v1H65z"/>
	<line class="st0" x1="31" y1="278" x2="25" y2="278"/>
	<line class="st0" x1="27" y1="282" x2="25" y2="282"/>
	<line class="st0" x1="27" y1="286" x2="25" y2="286"/>
	<line class="st0" x1="31" y1="290" x2="25" y2="290"/>
	<polyline class="st0" points="45,302 45,280 50,272 55,280 49,280 	"/>
	<polyline class="st0" points="31,302 25,302 25,272 41,272 41,302 	"/>
	<line class="st0" x1="27" y1="294" x2="25" y2="294"/>
	<line class="st0" x1="27" y1="298" x2="25" y2="298"/>
	<line class="st0" x1="55" y1="284" x2="55" y2="302"/>
	<line class="st0" x1="50" y1="302" x2="50" y2="284"/>
</g>
<text transform="matrix(1 0 0 1 11 365)" style="font-family:'Roboto-Bold'; font-size:20px;">Design</text>
<text transform="matrix(1 0 0 1 -353 94)" style="font-family:'Roboto-Bold'; font-size:20px;">Start</text>
<g>
	<text transform="matrix(1 0 0 1 -591 38)" style="font-family:'Roboto-Light'; font-size:20px;">HTML5 Banners</text>
</g>
<g>
	<path class="st0" d="M-318,6v5c0,2.2,1.8,4,4,4h10v40c0,2.2-1.8,4-4,4h-42c-2.2,0-4-1.8-4-4V5c0-2.2,1.8-4,4-4"/>
	<circle class="st0" cx="-341" cy="12" r="7"/>
	<circle class="st0" cx="-341" cy="30" r="7"/>
	<line class="st0" x1="-346" y1="39" x2="-346" y2="35"/>
	<polyline class="st0" points="-346,7 -346,1 -318,1 -308,11 	"/>
	<path class="st0" d="M-346,17c0,0-2,1-2,4s2,4,2,4"/>
	<path class="st0" d="M-338.3,10.7c-0.3-0.6-0.8-1.1-1.4-1.4"/>
	<path class="st0" d="M-338.3,28.7c-0.3-0.6-0.8-1.1-1.4-1.4"/>
	<line class="st0" x1="-326" y1="25" x2="-330" y2="25"/>
	<line class="st0" x1="-322" y1="25" x2="-314" y2="25"/>
	<line class="st0" x1="-329" y1="31" x2="-324" y2="31"/>
	<line class="st0" x1="-320" y1="31" x2="-316" y2="31"/>
	<line class="st0" x1="-344" y1="43" x2="-338" y2="43"/>
	<line class="st0" x1="-320" y1="43" x2="-314" y2="43"/>
	<line class="st0" x1="-334" y1="43" x2="-324" y2="43"/>
	<line class="st0" x1="-331" y1="37" x2="-316" y2="37"/>
	<line class="st0" x1="-344" y1="49" x2="-332" y2="49"/>
	<line class="st0" x1="-328" y1="49" x2="-318" y2="49"/>
</g>
<text transform="matrix(1 0 0 1 1 94)" style="font-family:'Roboto-Bold'; font-size:20px;">Resize</text>
<text transform="matrix(1 0 0 1 -123 94)" style="font-family:'Roboto-Bold'; font-size:20px;">Animation</text>
<g>
	<path class="st0" d="M126,1h-6c-2,0-4,2-4,4v26"/>
	<path class="st0" d="M170,35h-54v6c0,2,2,4,4,4h50c2,0,4-2,4-4V5c0-2-2-4-4-4h-10"/>
	<circle class="st0" cx="145" cy="40" r="1"/>
	<line class="st0" x1="120" y1="59" x2="156" y2="59"/>
	<line class="st0" x1="130" y1="57" x2="130" y2="59"/>
	<line class="st0" x1="134" y1="57" x2="134" y2="59"/>
	<line class="st0" x1="138" y1="57" x2="138" y2="59"/>
	<line class="st0" x1="142" y1="57" x2="142" y2="59"/>
	<line class="st0" x1="140" y1="49" x2="140" y2="53"/>
	<line class="st0" x1="150" y1="49" x2="150" y2="53"/>
	<line class="st0" x1="150" y1="57" x2="150" y2="59"/>
	<line class="st0" x1="146" y1="57" x2="146" y2="59"/>
	<line class="st0" x1="154" y1="57" x2="154" y2="59"/>
	<line class="st0" x1="126" y1="57" x2="126" y2="59"/>
	<line class="st0" x1="122" y1="57" x2="122" y2="59"/>
	<path class="st0" d="M170,59v-1c0-1.7-1.3-3-3-3h-2c-1.7,0-3,1.3-3,3v1H170z"/>
	<line class="st0" x1="136" y1="7" x2="130" y2="7"/>
	<line class="st0" x1="132" y1="11" x2="130" y2="11"/>
	<line class="st0" x1="132" y1="15" x2="130" y2="15"/>
	<line class="st0" x1="136" y1="19" x2="130" y2="19"/>
	<polyline class="st0" points="150,31 150,9 155,1 160,9 154,9 	"/>
	<polyline class="st0" points="136,31 130,31 130,1 146,1 146,31 	"/>
	<line class="st0" x1="132" y1="23" x2="130" y2="23"/>
	<line class="st0" x1="132" y1="27" x2="130" y2="27"/>
	<line class="st0" x1="160" y1="13" x2="160" y2="31"/>
	<line class="st0" x1="155" y1="31" x2="155" y2="13"/>
</g>
<text transform="matrix(1 0 0 1 116 94)" style="font-family:'Roboto-Bold'; font-size:20px;">Design</text>
<text transform="matrix(1 0 0 1 375 94)" style="font-family:'Roboto-Bold'; font-size:20px;">Finish </text>
<text transform="matrix(1 0 0 1 232 94)" style="font-family:'Roboto-Bold'; font-size:20px;">Optimization </text>
<g>
	<g>
		<polyline class="st0" points="31,40.6 4,40.6 13.3,31.3 17.5,35.6 25.1,28 31,33.9 		"/>
		<circle class="st0" cx="12" cy="19.6" r="3.3"/>
		<line class="st0" x1="12" y1="13" x2="12" y2="16.3"/>
		<line class="st0" x1="6.4" y1="16.3" x2="9.2" y2="17.9"/>
		<line class="st0" x1="6.4" y1="22.8" x2="9.2" y2="21.2"/>
		<line class="st0" x1="12" y1="26.1" x2="12" y2="22.8"/>
		<line class="st0" x1="17.7" y1="22.8" x2="14.9" y2="21.2"/>
		<line class="st0" x1="17.7" y1="16.3" x2="14.9" y2="17.9"/>
	</g>
	<g>
		<polyline class="st0" points="62,30 40.7,30 48,22.7 51.3,26 57.3,20 62,24.7 		"/>
		<circle class="st0" cx="48.7" cy="12.5" r="2.7"/>
		<line class="st0" x1="48.7" y1="7" x2="48.7" y2="9.7"/>
		<line class="st0" x1="43.9" y1="9.8" x2="46.3" y2="11.1"/>
		<line class="st0" x1="43.9" y1="15.3" x2="46.3" y2="13.9"/>
		<line class="st0" x1="48.7" y1="18" x2="48.7" y2="15.2"/>
		<line class="st0" x1="53.5" y1="15.2" x2="51.1" y2="13.9"/>
		<line class="st0" x1="53.5" y1="9.7" x2="51.1" y2="11.1"/>
	</g>
	<g>
		<polyline class="st0" points="60.8,59.7 41.8,59.7 48.4,53.1 51.3,56.1 56.7,50.8 60.8,54.9 		"/>
		<circle class="st1" cx="46" cy="47.1" r="1.2"/>
		<line class="st1" x1="46" y1="44.7" x2="46" y2="45.9"/>
		<line class="st1" x1="44" y1="45.9" x2="45" y2="46.5"/>
		<line class="st1" x1="44" y1="48.2" x2="45" y2="47.7"/>
		<line class="st1" x1="46" y1="49.4" x2="46" y2="48.2"/>
		<line class="st1" x1="48" y1="48.2" x2="47" y2="47.7"/>
		<line class="st1" x1="48" y1="45.9" x2="47" y2="46.5"/>
	</g>
	<path class="st0" d="M60.6,38H42.4C40,38,38,36,38,33.6V5.4C38,3,40,1,42.4,1h18.2C63,1,65,3,65,5.4v28.2C65,36,63,38,60.6,38z"/>
	<path class="st0" d="M29.6,60H5.4C3,60,1,58,1,55.6V5.4C1,3,3,1,5.4,1h24.2C32,1,34,3,34,5.4v50.2C34,58,32,60,29.6,60z"/>
	<path class="st0" d="M60.6,59.7H42.4c-2.4,0-4.4-2-4.4-4.4v-9.2c0-2.4,2-4.4,4.4-4.4h18.2c2.4,0,4.4,2,4.4,4.4v9.2
		C65,57.7,63,59.7,60.6,59.7z"/>
</g>
<g>
	<path class="st0" d="M286,25l-5.9-1.3c-0.5-1.7-1.2-3.3-2-4.9l3.2-5.1c0.4-0.6,0.4-1,0-1.4l-5.7-5.7c-0.4-0.4-0.8-0.3-1.4,0
		l-5.1,3.2c-1.5-0.9-3.2-1.5-4.9-2L263,2c-0.2-0.7-0.4-1-1-1h-8c-0.6,0-0.8,0.4-1,1l-1.3,5.9c-1.7,0.5-3.3,1.2-4.9,2l-5.1-3.2
		c-0.6-0.4-1-0.4-1.4,0l-5.7,5.7c-0.4,0.4-0.3,0.8,0,1.4l3.2,5.1c-0.9,1.5-1.5,3.2-2,4.9L230,25c-0.7,0.2-1,0.4-1,1v8
		c0,0.6,0.4,0.8,1,1l5.9,1.3c0.5,1.7,1.2,3.3,2,4.9l-3.2,5.1c-0.4,0.6-0.4,1,0,1.4l5.7,5.7c0.4,0.4,0.8,0.3,1.4,0l5.1-3.2
		c1.5,0.9,3.2,1.5,4.9,2L253,58c0.2,0.7,0.4,1,1,1l8,0c0.6,0,0.8-0.4,1-1l1.3-5.9c1.7-0.5,3.3-1.2,4.9-2l5.1,3.2
		c0.6,0.4,1,0.4,1.4,0l5.7-5.7c0.4-0.4,0.3-0.8,0-1.4l-3.2-5.1c0.8-1.5,1.5-3.2,2-4.9L286,35c0.7-0.2,1-0.4,1-1v-8
		C287,25.4,286.6,25.2,286,25z"/>
	<path class="st0" d="M262,42.4c5.2-1.7,9-6.6,9-12.4c0-7.2-5.8-13-13-13c-7.2,0-13,5.8-13,13s5.8,13,13,13"/>
	<circle class="st0" cx="258" cy="30" r="3"/>
</g>
<g>
	<path class="st0" d="M411,6v5c0,2.2,1.8,4,4,4h10v40c0,2.2-1.8,4-4,4h-42c-2.2,0-4-1.8-4-4V5c0-2.2,1.8-4,4-4h32l10,10"/>
	<circle class="st0" cx="400" cy="36" r="13"/>
	<polygon class="st0" points="397,32 397,40 404,36 	"/>
</g>
<g>
	<path class="st0" d="M-232,140h-6c-2,0-4,2-4,4v26"/>
	<path class="st0" d="M-188,174h-54v6c0,2,2,4,4,4h50c2,0,4-2,4-4v-36c0-2-2-4-4-4h-10"/>
	<circle class="st0" cx="-213" cy="179" r="1"/>
	<line class="st0" x1="-238" y1="198" x2="-202" y2="198"/>
	<line class="st0" x1="-228" y1="196" x2="-228" y2="198"/>
	<line class="st0" x1="-224" y1="196" x2="-224" y2="198"/>
	<line class="st0" x1="-220" y1="196" x2="-220" y2="198"/>
	<line class="st0" x1="-216" y1="196" x2="-216" y2="198"/>
	<line class="st0" x1="-218" y1="188" x2="-218" y2="192"/>
	<line class="st0" x1="-208" y1="188" x2="-208" y2="192"/>
	<line class="st0" x1="-208" y1="196" x2="-208" y2="198"/>
	<line class="st0" x1="-212" y1="196" x2="-212" y2="198"/>
	<line class="st0" x1="-204" y1="196" x2="-204" y2="198"/>
	<line class="st0" x1="-232" y1="196" x2="-232" y2="198"/>
	<line class="st0" x1="-236" y1="196" x2="-236" y2="198"/>
	<path class="st0" d="M-188,198v-1c0-1.7-1.3-3-3-3h-2c-1.7,0-3,1.3-3,3v1H-188z"/>
	<line class="st0" x1="-222" y1="146" x2="-228" y2="146"/>
	<line class="st0" x1="-226" y1="150" x2="-228" y2="150"/>
	<line class="st0" x1="-226" y1="154" x2="-228" y2="154"/>
	<line class="st0" x1="-222" y1="158" x2="-228" y2="158"/>
	<polyline class="st0" points="-208,170 -208,148 -203,140 -198,148 -204,148 	"/>
	<polyline class="st0" points="-222,170 -228,170 -228,140 -212,140 -212,170 	"/>
	<line class="st0" x1="-226" y1="162" x2="-228" y2="162"/>
	<line class="st0" x1="-226" y1="166" x2="-228" y2="166"/>
	<line class="st0" x1="-198" y1="152" x2="-198" y2="170"/>
	<line class="st0" x1="-203" y1="170" x2="-203" y2="152"/>
</g>
<text transform="matrix(1 0 0 1 -242 233)" style="font-family:'Roboto-Bold'; font-size:20px;">Design</text>
<text transform="matrix(1 0 0 1 -356 233)" style="font-family:'Roboto-Bold'; font-size:20px;">Start</text>
<g>
	<text transform="matrix(1 0 0 1 -594 177)" style="font-family:'Roboto-Light'; font-size:20px;">Web Development</text>
</g>
<g>
	<path class="st0" d="M-321,145v5c0,2.2,1.8,4,4,4h10v40c0,2.2-1.8,4-4,4h-42c-2.2,0-4-1.8-4-4v-50c0-2.2,1.8-4,4-4"/>
	<circle class="st0" cx="-344" cy="151" r="7"/>
	<circle class="st0" cx="-344" cy="169" r="7"/>
	<line class="st0" x1="-349" y1="178" x2="-349" y2="174"/>
	<polyline class="st0" points="-349,146 -349,140 -321,140 -311,150 	"/>
	<path class="st0" d="M-349,156c0,0-2,1-2,4s2,4,2,4"/>
	<path class="st0" d="M-341.3,149.7c-0.3-0.6-0.8-1.1-1.4-1.4"/>
	<path class="st0" d="M-341.3,167.7c-0.3-0.6-0.8-1.1-1.4-1.4"/>
	<line class="st0" x1="-329" y1="164" x2="-333" y2="164"/>
	<line class="st0" x1="-325" y1="164" x2="-317" y2="164"/>
	<line class="st0" x1="-332" y1="170" x2="-327" y2="170"/>
	<line class="st0" x1="-323" y1="170" x2="-319" y2="170"/>
	<line class="st0" x1="-347" y1="182" x2="-341" y2="182"/>
	<line class="st0" x1="-323" y1="182" x2="-317" y2="182"/>
	<line class="st0" x1="-337" y1="182" x2="-327" y2="182"/>
	<line class="st0" x1="-334" y1="176" x2="-319" y2="176"/>
	<line class="st0" x1="-347" y1="188" x2="-335" y2="188"/>
	<line class="st0" x1="-331" y1="188" x2="-321" y2="188"/>
</g>
<text transform="matrix(1 0 0 1 -356 366)" style="font-family:'Roboto-Bold'; font-size:20px;">Start</text>
<g>
	<path class="st0" d="M-321,278v5c0,2.2,1.8,4,4,4h10v40c0,2.2-1.8,4-4,4h-42c-2.2,0-4-1.8-4-4v-50c0-2.2,1.8-4,4-4"/>
	<circle class="st0" cx="-344" cy="284" r="7"/>
	<circle class="st0" cx="-344" cy="302" r="7"/>
	<line class="st0" x1="-349" y1="311" x2="-349" y2="307"/>
	<polyline class="st0" points="-349,279 -349,273 -321,273 -311,283 	"/>
	<path class="st0" d="M-349,289c0,0-2,1-2,4s2,4,2,4"/>
	<path class="st0" d="M-341.3,282.7c-0.3-0.6-0.8-1.1-1.4-1.4"/>
	<path class="st0" d="M-341.3,300.7c-0.3-0.6-0.8-1.1-1.4-1.4"/>
	<line class="st0" x1="-329" y1="297" x2="-333" y2="297"/>
	<line class="st0" x1="-325" y1="297" x2="-317" y2="297"/>
	<line class="st0" x1="-332" y1="303" x2="-327" y2="303"/>
	<line class="st0" x1="-323" y1="303" x2="-319" y2="303"/>
	<line class="st0" x1="-347" y1="315" x2="-341" y2="315"/>
	<line class="st0" x1="-323" y1="315" x2="-317" y2="315"/>
	<line class="st0" x1="-337" y1="315" x2="-327" y2="315"/>
	<line class="st0" x1="-334" y1="309" x2="-319" y2="309"/>
	<line class="st0" x1="-347" y1="321" x2="-335" y2="321"/>
	<line class="st0" x1="-331" y1="321" x2="-321" y2="321"/>
</g>
<text transform="matrix(1 0 0 1 -2 233)" style="font-family:'Roboto-Bold'; font-size:20px;">Back-end</text>
<text transform="matrix(1 0 0 1 -126 233)" style="font-family:'Roboto-Bold'; font-size:20px;">Front-end</text>
<text transform="matrix(1 0 0 1 113 233)" style="font-family:'Roboto-Bold'; font-size:20px;">QA </text>
<text transform="matrix(1 0 0 1 229 233)" style="font-family:'Roboto-Bold'; font-size:20px;">Finish </text>
<g>
	<path class="st0" d="M-87,198h-37c-2.3,0-4-1.8-4-4v-40"/>
	<path class="st0" d="M-120,145c0,0.6-0.4,1-1,1l0,0c-0.6,0-1-0.4-1-1l0,0c0-0.6,0.4-1,1-1l0,0C-120.4,144-120,144.4-120,145
		L-120,145z"/>
	<path class="st0" d="M-114,145c0,0.6-0.4,1-1,1l0,0c-0.6,0-1-0.4-1-1l0,0c0-0.6,0.4-1,1-1l0,0C-114.4,144-114,144.4-114,145
		L-114,145z"/>
	<path class="st0" d="M-108,145c0,0.6-0.4,1-1,1l0,0c-0.6,0-1-0.4-1-1l0,0c0-0.6,0.4-1,1-1l0,0C-108.4,144-108,144.4-108,145
		L-108,145z"/>
	<line class="st0" x1="-122" y1="156" x2="-114" y2="156"/>
	<line class="st0" x1="-88" y1="156" x2="-84" y2="156"/>
	<line class="st0" x1="-80" y1="156" x2="-76" y2="156"/>
	<line class="st0" x1="-96" y1="156" x2="-92" y2="156"/>
	<path class="st0" d="M-87,198h13c2.3,0,4-1.8,4-4v-50c0-2.2-1.8-4-4-4h-50c-2.2,0-4,1.8-4,4v6h54"/>
	<g>
		<path d="M-120.3,176.9l11.3-5.5v2.1l-9,4.2v0l9,4.2v2.1l-11.3-5.5V176.9z"/>
		<path d="M-102.5,185l5.8-17.3h2l-5.8,17.3H-102.5z"/>
		<path d="M-77,178.6l-11.3,5.4v-2.1l9.1-4.2v0l-9.1-4.2v-2.1l11.3,5.4V178.6z"/>
	</g>
</g>
<g>
	<path class="st0" d="M160,188l2.8-2.8l7,7c1.6,1.6,1.6,4.1,0,5.7c-1.6,1.6-4.1,1.6-5.7,0L152.3,186"/>
	<line class="st0" x1="160.1" y1="182.4" x2="158" y2="180.3"/>
	<circle class="st0" cx="136" cy="164" r="23"/>
	<circle class="st0" cx="136" cy="164" r="19"/>
	<line class="st0" x1="129" y1="155" x2="141" y2="155"/>
	<line class="st0" x1="125" y1="161" x2="139" y2="161"/>
	<line class="st0" x1="125" y1="167" x2="131" y2="167"/>
	<line class="st0" x1="127" y1="173" x2="135" y2="173"/>
	<line class="st0" x1="143" y1="173" x2="139" y2="173"/>
	<line class="st0" x1="147" y1="161" x2="143" y2="161"/>
	<line class="st0" x1="147" y1="167" x2="135" y2="167"/>
</g>
<g>
	<path class="st0" d="M7,145c0,0.6-0.4,1-1,1l0,0c-0.6,0-1-0.4-1-1l0,0c0-0.6,0.4-1,1-1l0,0C6.6,144,7,144.4,7,145L7,145z"/>
	<path class="st0" d="M13,145c0,0.6-0.4,1-1,1l0,0c-0.6,0-1-0.4-1-1l0,0c0-0.6,0.4-1,1-1l0,0C12.6,144,13,144.4,13,145L13,145z"/>
	<path class="st0" d="M19,145c0,0.6-0.4,1-1,1l0,0c-0.6,0-1-0.4-1-1l0,0c0-0.6,0.4-1,1-1l0,0C18.6,144,19,144.4,19,145L19,145z"/>
	<line class="st0" x1="7" y1="158" x2="9" y2="158"/>
	<line class="st0" x1="7" y1="162" x2="9" y2="162"/>
	<line class="st0" x1="7" y1="166" x2="9" y2="166"/>
	<line class="st0" x1="7" y1="170" x2="9" y2="170"/>
	<line class="st0" x1="7" y1="174" x2="9" y2="174"/>
	<line class="st0" x1="7" y1="178" x2="9" y2="178"/>
	<line class="st0" x1="7" y1="182" x2="9" y2="182"/>
	<line class="st0" x1="7" y1="186" x2="9" y2="186"/>
	<line class="st0" x1="7" y1="190" x2="9" y2="190"/>
	<line class="st0" x1="41" y1="158" x2="37" y2="158"/>
	<line class="st0" x1="43" y1="162" x2="33" y2="162"/>
	<line class="st0" x1="29" y1="162" x2="13" y2="162"/>
	<line class="st0" x1="23" y1="158" x2="13" y2="158"/>
	<line class="st0" x1="33" y1="158" x2="27" y2="158"/>
	<line class="st0" x1="47" y1="166" x2="31" y2="166"/>
	<line class="st0" x1="41" y1="170" x2="33" y2="170"/>
	<line class="st0" x1="29" y1="170" x2="13" y2="170"/>
	<line class="st0" x1="17" y1="166" x2="13" y2="166"/>
	<line class="st0" x1="27" y1="166" x2="21" y2="166"/>
	<line class="st0" x1="34" y1="182" x2="31" y2="182"/>
	<line class="st0" x1="17" y1="182" x2="13" y2="182"/>
	<line class="st0" x1="27" y1="182" x2="21" y2="182"/>
	<line class="st0" x1="25" y1="186" x2="13" y2="186"/>
	<line class="st0" x1="31" y1="186" x2="29" y2="186"/>
	<line class="st0" x1="19" y1="190" x2="13" y2="190"/>
	<line class="st0" x1="33" y1="190" x2="23" y2="190"/>
	<line class="st0" x1="43" y1="174" x2="27" y2="174"/>
	<line class="st0" x1="36" y1="178" x2="29" y2="178"/>
	<line class="st0" x1="25" y1="178" x2="13" y2="178"/>
	<line class="st0" x1="23" y1="174" x2="13" y2="174"/>
	<path class="st0" d="M57,190v-4h-2.3c-0.2-0.7-0.5-1.4-0.9-2.1l1.6-1.6l-2.8-2.8l-1.6,1.6c-0.6-0.4-1.3-0.7-2.1-0.9V178h-4v2.3
		c-0.7,0.2-1.4,0.5-2.1,0.9l-1.6-1.6l-2.8,2.8l1.6,1.6c-0.4,0.6-0.7,1.3-0.9,2.1H37v4h2.3c0.2,0.7,0.5,1.4,0.9,2.1l-1.6,1.6l2.8,2.8
		l1.6-1.6c0.6,0.4,1.3,0.7,2.1,0.9v2.3h4v-2.3c0.7-0.2,1.4-0.5,2.1-0.9l1.6,1.6l2.8-2.8l-1.6-1.6c0.4-0.6,0.7-1.3,0.9-2.1H57z"/>
	<circle class="st0" cx="47" cy="188" r="2"/>
	<path class="st0" d="M37,198H3c-2.2,0-4-1.8-4-4v-40"/>
	<path class="st0" d="M53,150H-1v-6c0-2.2,1.8-4,4-4h50c2.2,0,4,1.8,4,4v34"/>
</g>
<g>
	<path class="st0" d="M264,196c0,1.1-0.9,2-2,2h-34c-1.1,0-2-0.9-2-2v-18c0-1.1,0.9-2,2-2h34c1.1,0,2,0.9,2,2V196z"/>
	<path class="st0" d="M284,176v-34c0-1.1-0.9-2-2-2h-38c-1.1,0-2,0.9-2,2v30"/>
	<circle class="st0" cx="253" cy="151" r="3"/>
	<circle class="st0" cx="235" cy="185" r="3"/>
	<line class="st0" x1="266" y1="148" x2="274" y2="148"/>
	<line class="st0" x1="266" y1="152" x2="276" y2="152"/>
	<line class="st0" x1="250" y1="162" x2="258" y2="162"/>
	<line class="st0" x1="250" y1="168" x2="264" y2="168"/>
	<line class="st0" x1="250" y1="172" x2="258" y2="172"/>
	<line class="st0" x1="268" y1="168" x2="276" y2="168"/>
	<line class="st0" x1="262" y1="172" x2="274" y2="172"/>
	<line class="st0" x1="244" y1="182" x2="250" y2="182"/>
	<line class="st0" x1="244" y1="186" x2="252" y2="186"/>
	<line class="st0" x1="244" y1="192" x2="258" y2="192"/>
	<path class="st0" d="M287,180c1.1,0,2,0.9,2,2v14c0,1.1-0.9,2-2,2h-6c-1.1,0-2-0.9-2-2v-14c0-1.1,0.9-2,2-2H287z"/>
	<line class="st0" x1="275.8" y1="198" x2="268" y2="198"/>
	<line class="st0" x1="276" y1="176" x2="268" y2="176"/>
	<line class="st0" x1="275" y1="180" x2="268" y2="180"/>
	<line class="st0" x1="275" y1="184" x2="268" y2="184"/>
	<circle class="st0" cx="284" cy="189" r="1"/>
</g>
<text transform="matrix(1 0 0 1 -124 365)" style="font-family:'Roboto-Bold'; font-size:20px;">Prototyping</text>
<text transform="matrix(1 0 0 1 -238 365)" style="font-family:'Roboto-Bold'; font-size:20px;">Concept</text>
<g>
	<text transform="matrix(1 0 0 1 -594 310)" style="font-family:'Roboto-Light'; font-size:20px;">Web Design</text>
</g>
<text transform="matrix(1 0 0 1 116 365)" style="font-family:'Roboto-Bold'; font-size:20px;">Testing</text>
<text transform="matrix(1 0 0 1 236 365)" style="font-family:'Roboto-Bold'; font-size:20px;">Finish </text>
<g>
	<path class="st0" d="M271,328c0,1.1-0.9,2-2,2h-34c-1.1,0-2-0.9-2-2v-18c0-1.1,0.9-2,2-2h34c1.1,0,2,0.9,2,2V328z"/>
	<path class="st0" d="M291,308v-34c0-1.1-0.9-2-2-2h-38c-1.1,0-2,0.9-2,2v30"/>
	<circle class="st0" cx="260" cy="283" r="3"/>
	<circle class="st0" cx="242" cy="317" r="3"/>
	<line class="st0" x1="273" y1="280" x2="281" y2="280"/>
	<line class="st0" x1="273" y1="284" x2="283" y2="284"/>
	<line class="st0" x1="257" y1="294" x2="265" y2="294"/>
	<line class="st0" x1="257" y1="300" x2="271" y2="300"/>
	<line class="st0" x1="257" y1="304" x2="265" y2="304"/>
	<line class="st0" x1="275" y1="300" x2="283" y2="300"/>
	<line class="st0" x1="269" y1="304" x2="281" y2="304"/>
	<line class="st0" x1="251" y1="314" x2="257" y2="314"/>
	<line class="st0" x1="251" y1="318" x2="259" y2="318"/>
	<line class="st0" x1="251" y1="324" x2="265" y2="324"/>
	<path class="st0" d="M294,312c1.1,0,2,0.9,2,2v14c0,1.1-0.9,2-2,2h-6c-1.1,0-2-0.9-2-2v-14c0-1.1,0.9-2,2-2H294z"/>
	<line class="st0" x1="282.8" y1="330" x2="275" y2="330"/>
	<line class="st0" x1="283" y1="308" x2="275" y2="308"/>
	<line class="st0" x1="282" y1="312" x2="275" y2="312"/>
	<line class="st0" x1="282" y1="316" x2="275" y2="316"/>
	<circle class="st0" cx="291" cy="321" r="1"/>
</g>
<g>
	<line class="st0" x1="-215" y1="330" x2="-215" y2="318"/>
	<path class="st0" d="M-219,328v-3c0,0,0-3-2-5s-5-2-5-2h-3v3c0,0,0,3,2,5s5,2,5,2H-219z"/>
	<path class="st0" d="M-211,328v-3c0,0,0-3,2-5s5-2,5-2h3v3c0,0,0,3-2,5s-5,2-5,2H-211z"/>
	<path class="st0" d="M-200,287c0-8.3-6.7-15-15-15s-15,6.7-15,15c0,6,6,10.7,7,15l1,4h14l1-4C-206,297.7-200,293-200,287z"/>
	<line class="st0" x1="-220" y1="310" x2="-210" y2="310"/>
	<line class="st0" x1="-218" y1="314" x2="-212" y2="314"/>
	<path class="st0" d="M-217,302l-3-14c0,0,3,2,5,2s5-2,5-2l-3,14"/>
	<path class="st0" d="M-208,278.5c-1.2-1-2.5-1.7-4-2.1c-0.6-0.2-1.2-0.3-1.8-0.3"/>
	<path class="st0" d="M-204.4,284c-0.2-0.7-0.5-1.4-0.8-2"/>
	<line class="st0" x1="-236" y1="287" x2="-240" y2="287"/>
	<line class="st0" x1="-190" y1="287" x2="-194" y2="287"/>
	<line class="st0" x1="-193.3" y1="274.5" x2="-196.8" y2="276.5"/>
	<line class="st0" x1="-193.3" y1="299.5" x2="-196.8" y2="297.5"/>
	<line class="st0" x1="-233.2" y1="276.5" x2="-236.7" y2="274.5"/>
	<line class="st0" x1="-233.2" y1="297.5" x2="-236.7" y2="299.5"/>
</g>
<g>
	<path class="st0" d="M-116,277c0,0.6-0.4,1-1,1l0,0c-0.6,0-1-0.4-1-1l0,0c0-0.6,0.4-1,1-1l0,0C-116.4,276-116,276.4-116,277
		L-116,277z"/>
	<path class="st0" d="M-110,277c0,0.6-0.4,1-1,1l0,0c-0.6,0-1-0.4-1-1l0,0c0-0.6,0.4-1,1-1l0,0C-110.4,276-110,276.4-110,277
		L-110,277z"/>
	<path class="st0" d="M-104,277c0,0.6-0.4,1-1,1l0,0c-0.6,0-1-0.4-1-1l0,0c0-0.6,0.4-1,1-1l0,0C-104.4,276-104,276.4-104,277
		L-104,277z"/>
	<path class="st0" d="M-72,325.9c2.7-2.7,2.7-7.2,0-9.9c-2.7-2.7-7.2-2.7-9.9,0c-4,4-4,13.9-4,13.9S-76,330-72,325.9z"/>
	<line class="st0" x1="-70" y1="310" x2="-74.5" y2="314.5"/>
	<line class="st0" x1="-66" y1="314" x2="-70.4" y2="318.4"/>
	<path class="st0" d="M-74.2,322c0.4-1.1,0.1-2.3-0.7-3.1"/>
	<rect x="-120" y="286" class="st0" width="10" height="16"/>
	<rect x="-106" y="286" class="st0" width="36" height="10"/>
	<polyline class="st0" points="-120,326 -120,306 -110,306 -110,326 	"/>
	<polyline class="st0" points="-76,310 -76,300 -70,300 -70,306 	"/>
	<polyline class="st0" points="-106,326 -106,300 -80,300 -80,310 	"/>
	<path class="st0" d="M-90,330h-30c-2.2,0-4-1.8-4-4v-40"/>
	<path class="st0" d="M-70,282h-54v-6c0-2.2,1.8-4,4-4h50c2.2,0,4,1.8,4,4v34"/>
</g>
<g>
	<circle class="st0" cx="146" cy="311" r="1"/>
	<path class="st0" d="M147,302l-7.6-12.2c-0.7-1.3-0.5-2.7,0.7-3.5c1.3-0.7,2.4-0.1,3.3,1.1l7.7,10.7c-0.7-1.3-0.3-2.9,1-3.6
		c1.3-0.7,2.9-0.3,3.6,1l0.7,1.1c-0.7-1.3-0.3-2.9,1-3.6c1.3-0.7,2.9-0.3,3.6,1l1,1.7c-0.5-0.9-0.2-2.2,0.7-2.7
		c0.9-0.5,2.2-0.1,2.7,0.7c0,0,3.7,5.2,5.7,12.2h-54v6c0,2.3,1.8,4,4,4h50c2.3,0,4-1.7,4-4v-36c0-2.2-1.8-4-4-4h-50
		c-2.2,0-3.9,1.9-4,4v26"/>
	<line class="st0" x1="141" y1="278" x2="141" y2="282"/>
	<line class="st0" x1="148.1" y1="280.9" x2="145.2" y2="283.8"/>
	<line class="st0" x1="133.9" y1="280.9" x2="136.8" y2="283.8"/>
	<line class="st0" x1="131" y1="288" x2="135" y2="288"/>
	<line class="st0" x1="133.9" y1="295.1" x2="136.8" y2="292.2"/>
	<path class="st0" d="M151,320v6h4c2,0,4,2,4,4h-26c0-2,2-4,4-4h10"/>
	<line class="st0" x1="141" y1="326" x2="141" y2="320"/>
</g>
</svg>
