<?xml version="1.0" encoding="utf-8"?>
<!-- Generator: Adobe Illustrator 21.0.2, SVG Export Plug-In . SVG Version: 6.00 Build 0)  -->
<svg version="1.1" id="Layer_1" xmlns="http://www.w3.org/2000/svg" xmlns:xlink="http://www.w3.org/1999/xlink" x="0px" y="0px"
	 viewBox="0 0 52 60" style="enable-background:new 0 0 52 60;" xml:space="preserve">
<style type="text/css">
	.st0{fill:none;stroke:#000000;stroke-width:2;stroke-linecap:round;stroke-linejoin:round;stroke-miterlimit:10;}
	.st1{fill:none;stroke:#000000;stroke-linecap:round;stroke-linejoin:round;stroke-miterlimit:10;}
</style>
<g>
	<path class="st0" d="M126,1h-6c-2,0-4,2-4,4v26"/>
	<path class="st0" d="M170,35h-54v6c0,2,2,4,4,4h50c2,0,4-2,4-4V5c0-2-2-4-4-4h-10"/>
	<circle class="st0" cx="145" cy="40" r="1"/>
	<line class="st0" x1="120" y1="59" x2="156" y2="59"/>
	<line class="st0" x1="130" y1="57" x2="130" y2="59"/>
	<line class="st0" x1="134" y1="57" x2="134" y2="59"/>
	<line class="st0" x1="138" y1="57" x2="138" y2="59"/>
	<line class="st0" x1="142" y1="57" x2="142" y2="59"/>
	<line class="st0" x1="140" y1="49" x2="140" y2="53"/>
	<line class="st0" x1="150" y1="49" x2="150" y2="53"/>
	<line class="st0" x1="150" y1="57" x2="150" y2="59"/>
	<line class="st0" x1="146" y1="57" x2="146" y2="59"/>
	<line class="st0" x1="154" y1="57" x2="154" y2="59"/>
	<line class="st0" x1="126" y1="57" x2="126" y2="59"/>
	<line class="st0" x1="122" y1="57" x2="122" y2="59"/>
	<path class="st0" d="M170,59v-1c0-1.7-1.3-3-3-3h-2c-1.7,0-3,1.3-3,3v1H170z"/>
	<line class="st0" x1="136" y1="7" x2="130" y2="7"/>
	<line class="st0" x1="132" y1="11" x2="130" y2="11"/>
	<line class="st0" x1="132" y1="15" x2="130" y2="15"/>
	<line class="st0" x1="136" y1="19" x2="130" y2="19"/>
	<polyline class="st0" points="150,31 150,9 155,1 160,9 154,9 	"/>
	<polyline class="st0" points="136,31 130,31 130,1 146,1 146,31 	"/>
	<line class="st0" x1="132" y1="23" x2="130" y2="23"/>
	<line class="st0" x1="132" y1="27" x2="130" y2="27"/>
	<line class="st0" x1="160" y1="13" x2="160" y2="31"/>
	<line class="st0" x1="155" y1="31" x2="155" y2="13"/>
</g>
<g>
	<line class="st0" x1="236" y1="46" x2="282" y2="46"/>
	<line class="st0" x1="266" y1="30" x2="266" y2="46"/>
	<path class="st0" d="M250,17h38v38c0,2.2-1.8,4-4,4h-50c-2.2,0-4-1.8-4-4V9h10l6,8l-6,8h-6"/>
	<line class="st0" x1="246" y1="25" x2="288" y2="25"/>
	<line class="st0" x1="256" y1="17" x2="250" y2="25"/>
	<line class="st0" x1="265" y1="17" x2="259" y2="25"/>
	<line class="st0" x1="274" y1="17" x2="268" y2="25"/>
	<line class="st0" x1="283" y1="17" x2="277" y2="25"/>
	<polyline class="st0" points="250,15.2 287.4,9 286.1,1 244.3,7.9 	"/>
	<line class="st0" x1="249.1" y1="7.2" x2="254.6" y2="14.4"/>
	<line class="st0" x1="258.5" y1="5.7" x2="263.9" y2="12.9"/>
	<line class="st0" x1="267.2" y1="4.2" x2="272.5" y2="11.4"/>
	<line class="st0" x1="276.5" y1="2.7" x2="281.9" y2="9.8"/>
</g>
<text transform="matrix(1 0 0 1 116 94)" style="font-family:'Roboto-Bold'; font-size:20px;">Design</text>
<g>
	<path class="st0" d="M376,272h-6c-2,0-4,2-4,4v26"/>
	<path class="st0" d="M420,306h-54v6c0,2,2,4,4,4h50c2,0,4-2,4-4v-36c0-2-2-4-4-4h-10"/>
	<circle class="st0" cx="395" cy="311" r="1"/>
	<line class="st0" x1="370" y1="330" x2="406" y2="330"/>
	<line class="st0" x1="380" y1="328" x2="380" y2="330"/>
	<line class="st0" x1="384" y1="328" x2="384" y2="330"/>
	<line class="st0" x1="388" y1="328" x2="388" y2="330"/>
	<line class="st0" x1="392" y1="328" x2="392" y2="330"/>
	<line class="st0" x1="390" y1="320" x2="390" y2="324"/>
	<line class="st0" x1="400" y1="320" x2="400" y2="324"/>
	<line class="st0" x1="400" y1="328" x2="400" y2="330"/>
	<line class="st0" x1="396" y1="328" x2="396" y2="330"/>
	<line class="st0" x1="404" y1="328" x2="404" y2="330"/>
	<line class="st0" x1="376" y1="328" x2="376" y2="330"/>
	<line class="st0" x1="372" y1="328" x2="372" y2="330"/>
	<path class="st0" d="M420,330v-1c0-1.7-1.3-3-3-3h-2c-1.7,0-3,1.3-3,3v1H420z"/>
	<line class="st0" x1="386" y1="278" x2="380" y2="278"/>
	<line class="st0" x1="382" y1="282" x2="380" y2="282"/>
	<line class="st0" x1="382" y1="286" x2="380" y2="286"/>
	<line class="st0" x1="386" y1="290" x2="380" y2="290"/>
	<polyline class="st0" points="400,302 400,280 405,272 410,280 404,280 	"/>
	<polyline class="st0" points="386,302 380,302 380,272 396,272 396,302 	"/>
	<line class="st0" x1="382" y1="294" x2="380" y2="294"/>
	<line class="st0" x1="382" y1="298" x2="380" y2="298"/>
	<line class="st0" x1="410" y1="284" x2="410" y2="302"/>
	<line class="st0" x1="405" y1="302" x2="405" y2="284"/>
</g>
<text transform="matrix(1 0 0 1 366 365)" style="font-family:'Roboto-Bold'; font-size:20px;">Design</text>
<text transform="matrix(1 0 0 1 2 94)" style="font-family:'Roboto-Bold'; font-size:20px;">Start</text>
<g>
	<text transform="matrix(1 0 0 1 -236 38)" style="font-family:'Roboto-Light'; font-size:20px;">HTML5 Banners</text>
</g>
<g>
	<path class="st0" d="M37,6v5c0,2.2,1.8,4,4,4h10v40c0,2.2-1.8,4-4,4H5c-2.2,0-4-1.8-4-4V5c0-2.2,1.8-4,4-4"/>
	<circle class="st0" cx="14" cy="12" r="7"/>
	<circle class="st0" cx="14" cy="30" r="7"/>
	<line class="st0" x1="9" y1="39" x2="9" y2="35"/>
	<polyline class="st0" points="9,7 9,1 37,1 47,11 	"/>
	<path class="st0" d="M9,17c0,0-2,1-2,4s2,4,2,4"/>
	<path class="st0" d="M16.7,10.7c-0.3-0.6-0.8-1.1-1.4-1.4"/>
	<path class="st0" d="M16.7,28.7c-0.3-0.6-0.8-1.1-1.4-1.4"/>
	<line class="st0" x1="29" y1="25" x2="25" y2="25"/>
	<line class="st0" x1="33" y1="25" x2="41" y2="25"/>
	<line class="st0" x1="26" y1="31" x2="31" y2="31"/>
	<line class="st0" x1="35" y1="31" x2="39" y2="31"/>
	<line class="st0" x1="11" y1="43" x2="17" y2="43"/>
	<line class="st0" x1="35" y1="43" x2="41" y2="43"/>
	<line class="st0" x1="21" y1="43" x2="31" y2="43"/>
	<line class="st0" x1="24" y1="37" x2="39" y2="37"/>
	<line class="st0" x1="11" y1="49" x2="23" y2="49"/>
	<line class="st0" x1="27" y1="49" x2="37" y2="49"/>
</g>
<text transform="matrix(1 0 0 1 356 94)" style="font-family:'Roboto-Bold'; font-size:20px;">Resize</text>
<text transform="matrix(1 0 0 1 232 94)" style="font-family:'Roboto-Bold'; font-size:20px;">Animation</text>
<g>
	<path class="st0" d="M481,1h-6c-2,0-4,2-4,4v26"/>
	<path class="st0" d="M525,35h-54v6c0,2,2,4,4,4h50c2,0,4-2,4-4V5c0-2-2-4-4-4h-10"/>
	<circle class="st0" cx="500" cy="40" r="1"/>
	<line class="st0" x1="475" y1="59" x2="511" y2="59"/>
	<line class="st0" x1="485" y1="57" x2="485" y2="59"/>
	<line class="st0" x1="489" y1="57" x2="489" y2="59"/>
	<line class="st0" x1="493" y1="57" x2="493" y2="59"/>
	<line class="st0" x1="497" y1="57" x2="497" y2="59"/>
	<line class="st0" x1="495" y1="49" x2="495" y2="53"/>
	<line class="st0" x1="505" y1="49" x2="505" y2="53"/>
	<line class="st0" x1="505" y1="57" x2="505" y2="59"/>
	<line class="st0" x1="501" y1="57" x2="501" y2="59"/>
	<line class="st0" x1="509" y1="57" x2="509" y2="59"/>
	<line class="st0" x1="481" y1="57" x2="481" y2="59"/>
	<line class="st0" x1="477" y1="57" x2="477" y2="59"/>
	<path class="st0" d="M525,59v-1c0-1.7-1.3-3-3-3h-2c-1.7,0-3,1.3-3,3v1H525z"/>
	<line class="st0" x1="491" y1="7" x2="485" y2="7"/>
	<line class="st0" x1="487" y1="11" x2="485" y2="11"/>
	<line class="st0" x1="487" y1="15" x2="485" y2="15"/>
	<line class="st0" x1="491" y1="19" x2="485" y2="19"/>
	<polyline class="st0" points="505,31 505,9 510,1 515,9 509,9 	"/>
	<polyline class="st0" points="491,31 485,31 485,1 501,1 501,31 	"/>
	<line class="st0" x1="487" y1="23" x2="485" y2="23"/>
	<line class="st0" x1="487" y1="27" x2="485" y2="27"/>
	<line class="st0" x1="515" y1="13" x2="515" y2="31"/>
	<line class="st0" x1="510" y1="31" x2="510" y2="13"/>
</g>
<text transform="matrix(1 0 0 1 471 94)" style="font-family:'Roboto-Bold'; font-size:20px;">Design</text>
<text transform="matrix(1 0 0 1 730 94)" style="font-family:'Roboto-Bold'; font-size:20px;">Finish </text>
<text transform="matrix(1 0 0 1 587 94)" style="font-family:'Roboto-Bold'; font-size:20px;">Optimization </text>
<g>
	<g>
		<polyline class="st0" points="386,40.6 359,40.6 368.3,31.3 372.5,35.6 380.1,28 386,33.9 		"/>
		<circle class="st0" cx="367" cy="19.6" r="3.3"/>
		<line class="st0" x1="367" y1="13" x2="367" y2="16.3"/>
		<line class="st0" x1="361.4" y1="16.3" x2="364.2" y2="17.9"/>
		<line class="st0" x1="361.4" y1="22.8" x2="364.2" y2="21.2"/>
		<line class="st0" x1="367" y1="26.1" x2="367" y2="22.8"/>
		<line class="st0" x1="372.7" y1="22.8" x2="369.9" y2="21.2"/>
		<line class="st0" x1="372.7" y1="16.3" x2="369.9" y2="17.9"/>
	</g>
	<g>
		<polyline class="st0" points="417,30 395.7,30 403,22.7 406.3,26 412.3,20 417,24.7 		"/>
		<circle class="st0" cx="403.7" cy="12.5" r="2.7"/>
		<line class="st0" x1="403.7" y1="7" x2="403.7" y2="9.7"/>
		<line class="st0" x1="398.9" y1="9.8" x2="401.3" y2="11.1"/>
		<line class="st0" x1="398.9" y1="15.3" x2="401.3" y2="13.9"/>
		<line class="st0" x1="403.7" y1="18" x2="403.7" y2="15.2"/>
		<line class="st0" x1="408.5" y1="15.2" x2="406.1" y2="13.9"/>
		<line class="st0" x1="408.5" y1="9.7" x2="406.1" y2="11.1"/>
	</g>
	<g>
		<polyline class="st0" points="415.8,59.7 396.8,59.7 403.4,53.1 406.3,56.1 411.7,50.8 415.8,54.9 		"/>
		<circle class="st1" cx="401" cy="47.1" r="1.2"/>
		<line class="st1" x1="401" y1="44.7" x2="401" y2="45.9"/>
		<line class="st1" x1="399" y1="45.9" x2="400" y2="46.5"/>
		<line class="st1" x1="399" y1="48.2" x2="400" y2="47.7"/>
		<line class="st1" x1="401" y1="49.4" x2="401" y2="48.2"/>
		<line class="st1" x1="403" y1="48.2" x2="402" y2="47.7"/>
		<line class="st1" x1="403" y1="45.9" x2="402" y2="46.5"/>
	</g>
	<path class="st0" d="M415.6,38h-18.2c-2.4,0-4.4-2-4.4-4.4V5.4c0-2.4,2-4.4,4.4-4.4h18.2c2.4,0,4.4,2,4.4,4.4v28.2
		C420,36,418,38,415.6,38z"/>
	<path class="st0" d="M384.6,60h-24.2c-2.4,0-4.4-2-4.4-4.4V5.4c0-2.4,2-4.4,4.4-4.4h24.2c2.4,0,4.4,2,4.4,4.4v50.2
		C389,58,387,60,384.6,60z"/>
	<path class="st0" d="M415.6,59.7h-18.2c-2.4,0-4.4-2-4.4-4.4v-9.2c0-2.4,2-4.4,4.4-4.4h18.2c2.4,0,4.4,2,4.4,4.4v9.2
		C420,57.7,418,59.7,415.6,59.7z"/>
</g>
<g>
	<path class="st0" d="M641,25l-5.9-1.3c-0.5-1.7-1.2-3.3-2-4.9l3.2-5.1c0.4-0.6,0.4-1,0-1.4l-5.7-5.7c-0.4-0.4-0.8-0.3-1.4,0
		l-5.1,3.2c-1.5-0.9-3.2-1.5-4.9-2L618,2c-0.2-0.7-0.4-1-1-1h-8c-0.6,0-0.8,0.4-1,1l-1.3,5.9c-1.7,0.5-3.3,1.2-4.9,2l-5.1-3.2
		c-0.6-0.4-1-0.4-1.4,0l-5.7,5.7c-0.4,0.4-0.3,0.8,0,1.4l3.2,5.1c-0.9,1.5-1.5,3.2-2,4.9L585,25c-0.7,0.2-1,0.4-1,1v8
		c0,0.6,0.4,0.8,1,1l5.9,1.3c0.5,1.7,1.2,3.3,2,4.9l-3.2,5.1c-0.4,0.6-0.4,1,0,1.4l5.7,5.7c0.4,0.4,0.8,0.3,1.4,0l5.1-3.2
		c1.5,0.9,3.2,1.5,4.9,2L608,58c0.2,0.7,0.4,1,1,1l8,0c0.6,0,0.8-0.4,1-1l1.3-5.9c1.7-0.5,3.3-1.2,4.9-2l5.1,3.2
		c0.6,0.4,1,0.4,1.4,0l5.7-5.7c0.4-0.4,0.3-0.8,0-1.4l-3.2-5.1c0.8-1.5,1.5-3.2,2-4.9L641,35c0.7-0.2,1-0.4,1-1v-8
		C642,25.4,641.6,25.2,641,25z"/>
	<path class="st0" d="M617,42.4c5.2-1.7,9-6.6,9-12.4c0-7.2-5.8-13-13-13s-13,5.8-13,13s5.8,13,13,13"/>
	<circle class="st0" cx="613" cy="30" r="3"/>
</g>
<g>
	<path class="st0" d="M766,6v5c0,2.2,1.8,4,4,4h10v40c0,2.2-1.8,4-4,4h-42c-2.2,0-4-1.8-4-4V5c0-2.2,1.8-4,4-4h32l10,10"/>
	<circle class="st0" cx="755" cy="36" r="13"/>
	<polygon class="st0" points="752,32 752,40 759,36 	"/>
</g>
<g>
	<path class="st0" d="M123,140h-6c-2,0-4,2-4,4v26"/>
	<path class="st0" d="M167,174h-54v6c0,2,2,4,4,4h50c2,0,4-2,4-4v-36c0-2-2-4-4-4h-10"/>
	<circle class="st0" cx="142" cy="179" r="1"/>
	<line class="st0" x1="117" y1="198" x2="153" y2="198"/>
	<line class="st0" x1="127" y1="196" x2="127" y2="198"/>
	<line class="st0" x1="131" y1="196" x2="131" y2="198"/>
	<line class="st0" x1="135" y1="196" x2="135" y2="198"/>
	<line class="st0" x1="139" y1="196" x2="139" y2="198"/>
	<line class="st0" x1="137" y1="188" x2="137" y2="192"/>
	<line class="st0" x1="147" y1="188" x2="147" y2="192"/>
	<line class="st0" x1="147" y1="196" x2="147" y2="198"/>
	<line class="st0" x1="143" y1="196" x2="143" y2="198"/>
	<line class="st0" x1="151" y1="196" x2="151" y2="198"/>
	<line class="st0" x1="123" y1="196" x2="123" y2="198"/>
	<line class="st0" x1="119" y1="196" x2="119" y2="198"/>
	<path class="st0" d="M167,198v-1c0-1.7-1.3-3-3-3h-2c-1.7,0-3,1.3-3,3v1H167z"/>
	<line class="st0" x1="133" y1="146" x2="127" y2="146"/>
	<line class="st0" x1="129" y1="150" x2="127" y2="150"/>
	<line class="st0" x1="129" y1="154" x2="127" y2="154"/>
	<line class="st0" x1="133" y1="158" x2="127" y2="158"/>
	<polyline class="st0" points="147,170 147,148 152,140 157,148 151,148 	"/>
	<polyline class="st0" points="133,170 127,170 127,140 143,140 143,170 	"/>
	<line class="st0" x1="129" y1="162" x2="127" y2="162"/>
	<line class="st0" x1="129" y1="166" x2="127" y2="166"/>
	<line class="st0" x1="157" y1="152" x2="157" y2="170"/>
	<line class="st0" x1="152" y1="170" x2="152" y2="152"/>
</g>
<text transform="matrix(1 0 0 1 113 233)" style="font-family:'Roboto-Bold'; font-size:20px;">Design</text>
<text transform="matrix(1 0 0 1 -1 233)" style="font-family:'Roboto-Bold'; font-size:20px;">Start</text>
<g>
	<text transform="matrix(1 0 0 1 -239 177)" style="font-family:'Roboto-Light'; font-size:20px;">Web Development</text>
</g>
<g>
	<path class="st0" d="M34,145v5c0,2.2,1.8,4,4,4h10v40c0,2.2-1.8,4-4,4H2c-2.2,0-4-1.8-4-4v-50c0-2.2,1.8-4,4-4"/>
	<circle class="st0" cx="11" cy="151" r="7"/>
	<circle class="st0" cx="11" cy="169" r="7"/>
	<line class="st0" x1="6" y1="178" x2="6" y2="174"/>
	<polyline class="st0" points="6,146 6,140 34,140 44,150 	"/>
	<path class="st0" d="M6,156c0,0-2,1-2,4s2,4,2,4"/>
	<path class="st0" d="M13.7,149.7c-0.3-0.6-0.8-1.1-1.4-1.4"/>
	<path class="st0" d="M13.7,167.7c-0.3-0.6-0.8-1.1-1.4-1.4"/>
	<line class="st0" x1="26" y1="164" x2="22" y2="164"/>
	<line class="st0" x1="30" y1="164" x2="38" y2="164"/>
	<line class="st0" x1="23" y1="170" x2="28" y2="170"/>
	<line class="st0" x1="32" y1="170" x2="36" y2="170"/>
	<line class="st0" x1="8" y1="182" x2="14" y2="182"/>
	<line class="st0" x1="32" y1="182" x2="38" y2="182"/>
	<line class="st0" x1="18" y1="182" x2="28" y2="182"/>
	<line class="st0" x1="21" y1="176" x2="36" y2="176"/>
	<line class="st0" x1="8" y1="188" x2="20" y2="188"/>
	<line class="st0" x1="24" y1="188" x2="34" y2="188"/>
</g>
<text transform="matrix(1 0 0 1 -1 366)" style="font-family:'Roboto-Bold'; font-size:20px;">Start</text>
<g>
	<path class="st0" d="M34,278v5c0,2.2,1.8,4,4,4h10v40c0,2.2-1.8,4-4,4H2c-2.2,0-4-1.8-4-4v-50c0-2.2,1.8-4,4-4"/>
	<circle class="st0" cx="11" cy="284" r="7"/>
	<circle class="st0" cx="11" cy="302" r="7"/>
	<line class="st0" x1="6" y1="311" x2="6" y2="307"/>
	<polyline class="st0" points="6,279 6,273 34,273 44,283 	"/>
	<path class="st0" d="M6,289c0,0-2,1-2,4s2,4,2,4"/>
	<path class="st0" d="M13.7,282.7c-0.3-0.6-0.8-1.1-1.4-1.4"/>
	<path class="st0" d="M13.7,300.7c-0.3-0.6-0.8-1.1-1.4-1.4"/>
	<line class="st0" x1="26" y1="297" x2="22" y2="297"/>
	<line class="st0" x1="30" y1="297" x2="38" y2="297"/>
	<line class="st0" x1="23" y1="303" x2="28" y2="303"/>
	<line class="st0" x1="32" y1="303" x2="36" y2="303"/>
	<line class="st0" x1="8" y1="315" x2="14" y2="315"/>
	<line class="st0" x1="32" y1="315" x2="38" y2="315"/>
	<line class="st0" x1="18" y1="315" x2="28" y2="315"/>
	<line class="st0" x1="21" y1="309" x2="36" y2="309"/>
	<line class="st0" x1="8" y1="321" x2="20" y2="321"/>
	<line class="st0" x1="24" y1="321" x2="34" y2="321"/>
</g>
<text transform="matrix(1 0 0 1 353 233)" style="font-family:'Roboto-Bold'; font-size:20px;">Back-end</text>
<text transform="matrix(1 0 0 1 229 233)" style="font-family:'Roboto-Bold'; font-size:20px;">Front-end</text>
<text transform="matrix(1 0 0 1 468 233)" style="font-family:'Roboto-Bold'; font-size:20px;">QA </text>
<text transform="matrix(1 0 0 1 584 233)" style="font-family:'Roboto-Bold'; font-size:20px;">Finish </text>
<g>
	<path class="st0" d="M268,198h-37c-2.3,0-4-1.8-4-4v-40"/>
	<path class="st0" d="M235,145c0,0.6-0.4,1-1,1l0,0c-0.6,0-1-0.4-1-1l0,0c0-0.6,0.4-1,1-1l0,0C234.6,144,235,144.4,235,145L235,145z
		"/>
	<path class="st0" d="M241,145c0,0.6-0.4,1-1,1l0,0c-0.6,0-1-0.4-1-1l0,0c0-0.6,0.4-1,1-1l0,0C240.6,144,241,144.4,241,145L241,145z
		"/>
	<path class="st0" d="M247,145c0,0.6-0.4,1-1,1l0,0c-0.6,0-1-0.4-1-1l0,0c0-0.6,0.4-1,1-1l0,0C246.6,144,247,144.4,247,145L247,145z
		"/>
	<line class="st0" x1="233" y1="156" x2="241" y2="156"/>
	<line class="st0" x1="267" y1="156" x2="271" y2="156"/>
	<line class="st0" x1="275" y1="156" x2="279" y2="156"/>
	<line class="st0" x1="259" y1="156" x2="263" y2="156"/>
	<path class="st0" d="M268,198h13c2.3,0,4-1.8,4-4v-50c0-2.2-1.8-4-4-4h-50c-2.2,0-4,1.8-4,4v6h54"/>
	<g>
		<path d="M234.7,176.9l11.3-5.5v2.1l-9,4.2v0l9,4.2v2.1l-11.3-5.5V176.9z"/>
		<path d="M252.5,185l5.8-17.3h2l-5.8,17.3H252.5z"/>
		<path d="M278,178.6l-11.3,5.4v-2.1l9.1-4.2v0l-9.1-4.2v-2.1l11.3,5.4V178.6z"/>
	</g>
</g>
<g>
	<path class="st0" d="M515,188l2.8-2.8l7,7c1.6,1.6,1.6,4.1,0,5.7c-1.6,1.6-4.1,1.6-5.7,0L507.3,186"/>
	<line class="st0" x1="515.1" y1="182.4" x2="513" y2="180.3"/>
	<circle class="st0" cx="491" cy="164" r="23"/>
	<circle class="st0" cx="491" cy="164" r="19"/>
	<line class="st0" x1="484" y1="155" x2="496" y2="155"/>
	<line class="st0" x1="480" y1="161" x2="494" y2="161"/>
	<line class="st0" x1="480" y1="167" x2="486" y2="167"/>
	<line class="st0" x1="482" y1="173" x2="490" y2="173"/>
	<line class="st0" x1="498" y1="173" x2="494" y2="173"/>
	<line class="st0" x1="502" y1="161" x2="498" y2="161"/>
	<line class="st0" x1="502" y1="167" x2="490" y2="167"/>
</g>
<g>
	<path class="st0" d="M362,145c0,0.6-0.4,1-1,1l0,0c-0.6,0-1-0.4-1-1l0,0c0-0.6,0.4-1,1-1l0,0C361.6,144,362,144.4,362,145L362,145z
		"/>
	<path class="st0" d="M368,145c0,0.6-0.4,1-1,1l0,0c-0.6,0-1-0.4-1-1l0,0c0-0.6,0.4-1,1-1l0,0C367.6,144,368,144.4,368,145L368,145z
		"/>
	<path class="st0" d="M374,145c0,0.6-0.4,1-1,1l0,0c-0.6,0-1-0.4-1-1l0,0c0-0.6,0.4-1,1-1l0,0C373.6,144,374,144.4,374,145L374,145z
		"/>
	<line class="st0" x1="362" y1="158" x2="364" y2="158"/>
	<line class="st0" x1="362" y1="162" x2="364" y2="162"/>
	<line class="st0" x1="362" y1="166" x2="364" y2="166"/>
	<line class="st0" x1="362" y1="170" x2="364" y2="170"/>
	<line class="st0" x1="362" y1="174" x2="364" y2="174"/>
	<line class="st0" x1="362" y1="178" x2="364" y2="178"/>
	<line class="st0" x1="362" y1="182" x2="364" y2="182"/>
	<line class="st0" x1="362" y1="186" x2="364" y2="186"/>
	<line class="st0" x1="362" y1="190" x2="364" y2="190"/>
	<line class="st0" x1="396" y1="158" x2="392" y2="158"/>
	<line class="st0" x1="398" y1="162" x2="388" y2="162"/>
	<line class="st0" x1="384" y1="162" x2="368" y2="162"/>
	<line class="st0" x1="378" y1="158" x2="368" y2="158"/>
	<line class="st0" x1="388" y1="158" x2="382" y2="158"/>
	<line class="st0" x1="402" y1="166" x2="386" y2="166"/>
	<line class="st0" x1="396" y1="170" x2="388" y2="170"/>
	<line class="st0" x1="384" y1="170" x2="368" y2="170"/>
	<line class="st0" x1="372" y1="166" x2="368" y2="166"/>
	<line class="st0" x1="382" y1="166" x2="376" y2="166"/>
	<line class="st0" x1="389" y1="182" x2="386" y2="182"/>
	<line class="st0" x1="372" y1="182" x2="368" y2="182"/>
	<line class="st0" x1="382" y1="182" x2="376" y2="182"/>
	<line class="st0" x1="380" y1="186" x2="368" y2="186"/>
	<line class="st0" x1="386" y1="186" x2="384" y2="186"/>
	<line class="st0" x1="374" y1="190" x2="368" y2="190"/>
	<line class="st0" x1="388" y1="190" x2="378" y2="190"/>
	<line class="st0" x1="398" y1="174" x2="382" y2="174"/>
	<line class="st0" x1="391" y1="178" x2="384" y2="178"/>
	<line class="st0" x1="380" y1="178" x2="368" y2="178"/>
	<line class="st0" x1="378" y1="174" x2="368" y2="174"/>
	<path class="st0" d="M412,190v-4h-2.3c-0.2-0.7-0.5-1.4-0.9-2.1l1.6-1.6l-2.8-2.8l-1.6,1.6c-0.6-0.4-1.3-0.7-2.1-0.9V178h-4v2.3
		c-0.7,0.2-1.4,0.5-2.1,0.9l-1.6-1.6l-2.8,2.8l1.6,1.6c-0.4,0.6-0.7,1.3-0.9,2.1H392v4h2.3c0.2,0.7,0.5,1.4,0.9,2.1l-1.6,1.6
		l2.8,2.8l1.6-1.6c0.6,0.4,1.3,0.7,2.1,0.9v2.3h4v-2.3c0.7-0.2,1.4-0.5,2.1-0.9l1.6,1.6l2.8-2.8l-1.6-1.6c0.4-0.6,0.7-1.3,0.9-2.1
		H412z"/>
	<circle class="st0" cx="402" cy="188" r="2"/>
	<path class="st0" d="M392,198h-34c-2.2,0-4-1.8-4-4v-40"/>
	<path class="st0" d="M408,150h-54v-6c0-2.2,1.8-4,4-4h50c2.2,0,4,1.8,4,4v34"/>
</g>
<g>
	<path class="st0" d="M619,196c0,1.1-0.9,2-2,2h-34c-1.1,0-2-0.9-2-2v-18c0-1.1,0.9-2,2-2h34c1.1,0,2,0.9,2,2V196z"/>
	<path class="st0" d="M639,176v-34c0-1.1-0.9-2-2-2h-38c-1.1,0-2,0.9-2,2v30"/>
	<circle class="st0" cx="608" cy="151" r="3"/>
	<circle class="st0" cx="590" cy="185" r="3"/>
	<line class="st0" x1="621" y1="148" x2="629" y2="148"/>
	<line class="st0" x1="621" y1="152" x2="631" y2="152"/>
	<line class="st0" x1="605" y1="162" x2="613" y2="162"/>
	<line class="st0" x1="605" y1="168" x2="619" y2="168"/>
	<line class="st0" x1="605" y1="172" x2="613" y2="172"/>
	<line class="st0" x1="623" y1="168" x2="631" y2="168"/>
	<line class="st0" x1="617" y1="172" x2="629" y2="172"/>
	<line class="st0" x1="599" y1="182" x2="605" y2="182"/>
	<line class="st0" x1="599" y1="186" x2="607" y2="186"/>
	<line class="st0" x1="599" y1="192" x2="613" y2="192"/>
	<path class="st0" d="M642,180c1.1,0,2,0.9,2,2v14c0,1.1-0.9,2-2,2h-6c-1.1,0-2-0.9-2-2v-14c0-1.1,0.9-2,2-2H642z"/>
	<line class="st0" x1="630.8" y1="198" x2="623" y2="198"/>
	<line class="st0" x1="631" y1="176" x2="623" y2="176"/>
	<line class="st0" x1="630" y1="180" x2="623" y2="180"/>
	<line class="st0" x1="630" y1="184" x2="623" y2="184"/>
	<circle class="st0" cx="639" cy="189" r="1"/>
</g>
<text transform="matrix(1 0 0 1 231 365)" style="font-family:'Roboto-Bold'; font-size:20px;">Prototyping</text>
<text transform="matrix(1 0 0 1 117 365)" style="font-family:'Roboto-Bold'; font-size:20px;">Concept</text>
<g>
	<text transform="matrix(1 0 0 1 -239 310)" style="font-family:'Roboto-Light'; font-size:20px;">Web Design</text>
</g>
<text transform="matrix(1 0 0 1 471 365)" style="font-family:'Roboto-Bold'; font-size:20px;">Testing</text>
<text transform="matrix(1 0 0 1 591 365)" style="font-family:'Roboto-Bold'; font-size:20px;">Finish </text>
<g>
	<path class="st0" d="M626,328c0,1.1-0.9,2-2,2h-34c-1.1,0-2-0.9-2-2v-18c0-1.1,0.9-2,2-2h34c1.1,0,2,0.9,2,2V328z"/>
	<path class="st0" d="M646,308v-34c0-1.1-0.9-2-2-2h-38c-1.1,0-2,0.9-2,2v30"/>
	<circle class="st0" cx="615" cy="283" r="3"/>
	<circle class="st0" cx="597" cy="317" r="3"/>
	<line class="st0" x1="628" y1="280" x2="636" y2="280"/>
	<line class="st0" x1="628" y1="284" x2="638" y2="284"/>
	<line class="st0" x1="612" y1="294" x2="620" y2="294"/>
	<line class="st0" x1="612" y1="300" x2="626" y2="300"/>
	<line class="st0" x1="612" y1="304" x2="620" y2="304"/>
	<line class="st0" x1="630" y1="300" x2="638" y2="300"/>
	<line class="st0" x1="624" y1="304" x2="636" y2="304"/>
	<line class="st0" x1="606" y1="314" x2="612" y2="314"/>
	<line class="st0" x1="606" y1="318" x2="614" y2="318"/>
	<line class="st0" x1="606" y1="324" x2="620" y2="324"/>
	<path class="st0" d="M649,312c1.1,0,2,0.9,2,2v14c0,1.1-0.9,2-2,2h-6c-1.1,0-2-0.9-2-2v-14c0-1.1,0.9-2,2-2H649z"/>
	<line class="st0" x1="637.8" y1="330" x2="630" y2="330"/>
	<line class="st0" x1="638" y1="308" x2="630" y2="308"/>
	<line class="st0" x1="637" y1="312" x2="630" y2="312"/>
	<line class="st0" x1="637" y1="316" x2="630" y2="316"/>
	<circle class="st0" cx="646" cy="321" r="1"/>
</g>
<g>
	<line class="st0" x1="140" y1="330" x2="140" y2="318"/>
	<path class="st0" d="M136,328v-3c0,0,0-3-2-5s-5-2-5-2h-3v3c0,0,0,3,2,5s5,2,5,2H136z"/>
	<path class="st0" d="M144,328v-3c0,0,0-3,2-5s5-2,5-2h3v3c0,0,0,3-2,5s-5,2-5,2H144z"/>
	<path class="st0" d="M155,287c0-8.3-6.7-15-15-15s-15,6.7-15,15c0,6,6,10.7,7,15l1,4h14l1-4C149,297.7,155,293,155,287z"/>
	<line class="st0" x1="135" y1="310" x2="145" y2="310"/>
	<line class="st0" x1="137" y1="314" x2="143" y2="314"/>
	<path class="st0" d="M138,302l-3-14c0,0,3,2,5,2s5-2,5-2l-3,14"/>
	<path class="st0" d="M147,278.5c-1.2-1-2.5-1.7-4-2.1c-0.6-0.2-1.2-0.3-1.8-0.3"/>
	<path class="st0" d="M150.6,284c-0.2-0.7-0.5-1.4-0.8-2"/>
	<line class="st0" x1="119" y1="287" x2="115" y2="287"/>
	<line class="st0" x1="165" y1="287" x2="161" y2="287"/>
	<line class="st0" x1="161.7" y1="274.5" x2="158.2" y2="276.5"/>
	<line class="st0" x1="161.7" y1="299.5" x2="158.2" y2="297.5"/>
	<line class="st0" x1="121.8" y1="276.5" x2="118.3" y2="274.5"/>
	<line class="st0" x1="121.8" y1="297.5" x2="118.3" y2="299.5"/>
</g>
<g>
	<path class="st0" d="M239,277c0,0.6-0.4,1-1,1l0,0c-0.6,0-1-0.4-1-1l0,0c0-0.6,0.4-1,1-1l0,0C238.6,276,239,276.4,239,277L239,277z
		"/>
	<path class="st0" d="M245,277c0,0.6-0.4,1-1,1l0,0c-0.6,0-1-0.4-1-1l0,0c0-0.6,0.4-1,1-1l0,0C244.6,276,245,276.4,245,277L245,277z
		"/>
	<path class="st0" d="M251,277c0,0.6-0.4,1-1,1l0,0c-0.6,0-1-0.4-1-1l0,0c0-0.6,0.4-1,1-1l0,0C250.6,276,251,276.4,251,277L251,277z
		"/>
	<path class="st0" d="M283,325.9c2.7-2.7,2.7-7.2,0-9.9c-2.7-2.7-7.2-2.7-9.9,0c-4,4-4,13.9-4,13.9S279,330,283,325.9z"/>
	<line class="st0" x1="285" y1="310" x2="280.5" y2="314.5"/>
	<line class="st0" x1="289" y1="314" x2="284.6" y2="318.4"/>
	<path class="st0" d="M280.8,322c0.4-1.1,0.1-2.3-0.7-3.1"/>
	<rect x="235" y="286" class="st0" width="10" height="16"/>
	<rect x="249" y="286" class="st0" width="36" height="10"/>
	<polyline class="st0" points="235,326 235,306 245,306 245,326 	"/>
	<polyline class="st0" points="279,310 279,300 285,300 285,306 	"/>
	<polyline class="st0" points="249,326 249,300 275,300 275,310 	"/>
	<path class="st0" d="M265,330h-30c-2.2,0-4-1.8-4-4v-40"/>
	<path class="st0" d="M285,282h-54v-6c0-2.2,1.8-4,4-4h50c2.2,0,4,1.8,4,4v34"/>
</g>
<g>
	<circle class="st0" cx="501" cy="311" r="1"/>
	<path class="st0" d="M502,302l-7.6-12.2c-0.7-1.3-0.5-2.7,0.7-3.5c1.3-0.7,2.4-0.1,3.3,1.1l7.7,10.7c-0.7-1.3-0.3-2.9,1-3.6
		c1.3-0.7,2.9-0.3,3.6,1l0.7,1.1c-0.7-1.3-0.3-2.9,1-3.6c1.3-0.7,2.9-0.3,3.6,1l1,1.7c-0.5-0.9-0.2-2.2,0.7-2.7
		c0.9-0.5,2.2-0.1,2.7,0.7c0,0,3.7,5.2,5.7,12.2h-54v6c0,2.3,1.8,4,4,4h50c2.3,0,4-1.7,4-4v-36c0-2.2-1.8-4-4-4h-50
		c-2.2,0-3.9,1.9-4,4v26"/>
	<line class="st0" x1="496" y1="278" x2="496" y2="282"/>
	<line class="st0" x1="503.1" y1="280.9" x2="500.2" y2="283.8"/>
	<line class="st0" x1="488.9" y1="280.9" x2="491.8" y2="283.8"/>
	<line class="st0" x1="486" y1="288" x2="490" y2="288"/>
	<line class="st0" x1="488.9" y1="295.1" x2="491.8" y2="292.2"/>
	<path class="st0" d="M506,320v6h4c2,0,4,2,4,4h-26c0-2,2-4,4-4h10"/>
	<line class="st0" x1="496" y1="326" x2="496" y2="320"/>
</g>
</svg>
