<?xml version="1.0" encoding="utf-8"?>
<!-- Generator: Adobe Illustrator 21.0.2, SVG Export Plug-In . SVG Version: 6.00 Build 0)  -->
<svg version="1.1" id="Layer_1" xmlns="http://www.w3.org/2000/svg" xmlns:xlink="http://www.w3.org/1999/xlink" x="0px" y="0px"
	 viewBox="0 0 60 60" style="enable-background:new 0 0 60 60;" xml:space="preserve">
<style type="text/css">
	.st0{fill:none;stroke:#000000;stroke-width:2;stroke-linecap:round;stroke-linejoin:round;stroke-miterlimit:10;}
</style>
<g>
	<line class="st0" x1="7" y1="46" x2="53" y2="46"/>
	<line class="st0" x1="37" y1="30" x2="37" y2="46"/>
	<path class="st0" d="M21,17h38v38c0,2.2-1.8,4-4,4H5c-2.2,0-4-1.8-4-4V9h10l6,8l-6,8H5"/>
	<line class="st0" x1="17" y1="25" x2="59" y2="25"/>
	<line class="st0" x1="27" y1="17" x2="21" y2="25"/>
	<line class="st0" x1="36" y1="17" x2="30" y2="25"/>
	<line class="st0" x1="45" y1="17" x2="39" y2="25"/>
	<line class="st0" x1="54" y1="17" x2="48" y2="25"/>
	<polyline class="st0" points="21,15.2 58.4,9 57.1,1 15.3,7.9 	"/>
	<line class="st0" x1="20.1" y1="7.2" x2="25.6" y2="14.4"/>
	<line class="st0" x1="29.5" y1="5.7" x2="34.9" y2="12.9"/>
	<line class="st0" x1="38.2" y1="4.2" x2="43.5" y2="11.4"/>
	<line class="st0" x1="47.5" y1="2.7" x2="52.9" y2="9.8"/>
</g>
</svg>
