<?xml version="1.0" encoding="utf-8"?>
<!-- Generator: Adobe Illustrator 21.0.2, SVG Export Plug-In . SVG Version: 6.00 Build 0)  -->
<svg version="1.1" id="Layer_1" xmlns="http://www.w3.org/2000/svg" xmlns:xlink="http://www.w3.org/1999/xlink" x="0px" y="0px"
	 viewBox="0 0 60 60" style="enable-background:new 0 0 60 60;" xml:space="preserve">
<style type="text/css">
	.st0{fill:none;stroke:#000000;stroke-width:2;stroke-linecap:round;stroke-linejoin:round;stroke-miterlimit:10;}
</style>
<g>
	<path class="st0" d="M11,1H5C3,1,1,3,1,5v26"/>
	<path class="st0" d="M55,35H1v6c0,2,2,4,4,4h50c2,0,4-2,4-4V5c0-2-2-4-4-4H45"/>
	<circle class="st0" cx="30" cy="40" r="1"/>
	<line class="st0" x1="5" y1="59" x2="41" y2="59"/>
	<line class="st0" x1="15" y1="57" x2="15" y2="59"/>
	<line class="st0" x1="19" y1="57" x2="19" y2="59"/>
	<line class="st0" x1="23" y1="57" x2="23" y2="59"/>
	<line class="st0" x1="27" y1="57" x2="27" y2="59"/>
	<line class="st0" x1="25" y1="49" x2="25" y2="53"/>
	<line class="st0" x1="35" y1="49" x2="35" y2="53"/>
	<line class="st0" x1="35" y1="57" x2="35" y2="59"/>
	<line class="st0" x1="31" y1="57" x2="31" y2="59"/>
	<line class="st0" x1="39" y1="57" x2="39" y2="59"/>
	<line class="st0" x1="11" y1="57" x2="11" y2="59"/>
	<line class="st0" x1="7" y1="57" x2="7" y2="59"/>
	<path class="st0" d="M55,59v-1c0-1.7-1.3-3-3-3h-2c-1.7,0-3,1.3-3,3v1H55z"/>
	<line class="st0" x1="21" y1="7" x2="15" y2="7"/>
	<line class="st0" x1="17" y1="11" x2="15" y2="11"/>
	<line class="st0" x1="17" y1="15" x2="15" y2="15"/>
	<line class="st0" x1="21" y1="19" x2="15" y2="19"/>
	<polyline class="st0" points="35,31 35,9 40,1 45,9 39,9 	"/>
	<polyline class="st0" points="21,31 15,31 15,1 31,1 31,31 	"/>
	<line class="st0" x1="17" y1="23" x2="15" y2="23"/>
	<line class="st0" x1="17" y1="27" x2="15" y2="27"/>
	<line class="st0" x1="45" y1="13" x2="45" y2="31"/>
	<line class="st0" x1="40" y1="31" x2="40" y2="13"/>
</g>
</svg>
