<?xml version="1.0" encoding="utf-8"?>
<!-- Generator: Adobe Illustrator 21.0.2, SVG Export Plug-In . SVG Version: 6.00 Build 0)  -->
<svg version="1.1" id="Layer_1" xmlns="http://www.w3.org/2000/svg" xmlns:xlink="http://www.w3.org/1999/xlink" x="0px" y="0px"
	 viewBox="0 0 60 60" style="enable-background:new 0 0 60 60;" xml:space="preserve">
<style type="text/css">
	.st0{fill:none;stroke:#000000;stroke-width:2;stroke-linecap:round;stroke-linejoin:round;stroke-miterlimit:10;}
</style>
<g>
	<path class="st0" d="M58.7,26c0.2,1.3,0.3,2.7,0.3,4c0,16-13,29-29,29S1,46,1,30S14,1,30,1c3.5,0,6.9,0.6,10,1.7"/>
	<path class="st0" d="M41,30.5c0,0.2,0,0.3,0,0.5c-0.5,5.6-5.2,10-11,10c-6.1,0-11-4.9-11-11s4.9-11,11-11c0.7,0,1.3,0.1,2,0.2"/>
	<circle class="st0" cx="30" cy="30" r="3"/>
	<path class="st0" d="M39,19c-2.2,0-4,1.8-4,4s1.8,4,4,4s4-1.8,4-4V5l16-4v18c0,2.2-1.8,4-4,4s-4-1.8-4-4s1.8-4,4-4"/>
	<line class="st0" x1="43" y1="9.4" x2="56" y2="6"/>
	<line class="st0" x1="9.2" y1="18" x2="16.5" y2="22.2"/>
	<line class="st0" x1="18" y1="9.2" x2="22.2" y2="16.5"/>
	<line class="st0" x1="50.8" y1="42" x2="43.5" y2="37.8"/>
	<line class="st0" x1="42" y1="50.8" x2="37.8" y2="43.5"/>
</g>
</svg>
