<?xml version="1.0" encoding="utf-8"?>
<!-- Generator: Adobe Illustrator 21.0.2, SVG Export Plug-In . SVG Version: 6.00 Build 0)  -->
<svg version="1.1" id="Layer_1" xmlns="http://www.w3.org/2000/svg" xmlns:xlink="http://www.w3.org/1999/xlink" x="0px" y="0px"
	 viewBox="0 0 60 60" style="enable-background:new 0 0 60 60;" xml:space="preserve">
<style type="text/css">
	.st0{fill:none;stroke:#000000;stroke-width:2;stroke-linecap:round;stroke-linejoin:round;stroke-miterlimit:10;}
</style>
<path class="st0" d="M59,55c0,2.2-1.8,4-4,4H5c-2.2,0-4-1.8-4-4V5c0-2.2,1.8-4,4-4h50c2.2,0,4,1.8,4,4V55z"/>
<circle class="st0" cx="14" cy="49" r="2"/>
<circle class="st0" cx="30" cy="49" r="2"/>
<circle class="st0" cx="47" cy="49" r="2"/>
<line class="st0" x1="30" y1="23" x2="30" y2="41"/>
<path class="st0" d="M26.6,15.6C26.2,15.9,26,16.4,26,17c0,1.1,0.9,2,2,2h4c1.1,0,2-0.9,2-2s-0.9-2-2-2h-2V9"/>
<line class="st0" x1="14" y1="33" x2="14" y2="41"/>
<path class="st0" d="M9.6,25.6C9.2,25.9,9,26.4,9,27c0,1.1,0.9,2,2,2h4c1.1,0,2-0.9,2-2s-0.9-2-2-2h-2V9"/>
<line class="st0" x1="47" y1="37" x2="47" y2="41"/>
<path class="st0" d="M43.6,29.6C43.2,29.9,43,30.4,43,31c0,1.1,0.9,2,2,2h4c1.1,0,2-0.9,2-2s-0.9-2-2-2h-2V9"/>
</svg>
