<svg id="Layer_1" data-name="Layer 1" xmlns="http://www.w3.org/2000/svg" viewBox="0 0 60 60"><defs><style>.cls-1{fill:none;stroke:#000;stroke-linecap:round;stroke-linejoin:round;stroke-width:2px;}</style></defs><title>start</title><path class="cls-1" d="M19,21H10c-1,0-3,1-3,2V51H53V23a2.15,2.15,0,0,0-2-2H41"/><path class="cls-1" d="M55,55H1a4.3,4.3,0,0,0,4,4H55a4.3,4.3,0,0,0,4-4V51H57V21a4.3,4.3,0,0,0-4-4H41"/><path class="cls-1" d="M19,17H7a4.3,4.3,0,0,0-4,4V51"/><circle class="cls-1" cx="30" cy="16" r="3"/><path class="cls-1" d="M19,25"/><line class="cls-1" x1="30" y1="29" x2="30" y2="37"/><line class="cls-1" x1="37" y1="35" x2="37" y2="37"/><line class="cls-1" x1="23" y1="35" x2="23" y2="37"/><path class="cls-1" d="M34,35h7V33c0-6-4-6-4-10V13a8.76,8.76,0,0,0-2-6L30,1,25,7a8.76,8.76,0,0,0-2,6V23c0,4-4,4-4,10v2h7"/><path class="cls-1" d="M47,47a4,4,0,0,0-6-3.42,3,3,0,0,0-5.93.15,6,6,0,0,0-10.05,0A3,3,0,0,0,19,43.58,4,4,0,0,0,13,47"/></svg>