<?xml version="1.0" encoding="utf-8"?>
<!-- Generator: Adobe Illustrator 21.0.2, SVG Export Plug-In . SVG Version: 6.00 Build 0)  -->
<svg version="1.1" id="Layer_1" xmlns="http://www.w3.org/2000/svg" xmlns:xlink="http://www.w3.org/1999/xlink" x="0px" y="0px"
	 viewBox="0 0 60 60" style="enable-background:new 0 0 60 60;" xml:space="preserve">
<style type="text/css">
	.st0{fill:none;stroke:#000000;stroke-width:2;stroke-linecap:round;stroke-linejoin:round;stroke-miterlimit:10;}
	.st1{fill:none;stroke:#000000;stroke-linecap:round;stroke-linejoin:round;stroke-miterlimit:10;}
</style>
<g>
	<path class="st0" d="M-227-138h-6c-2,0-4,2-4,4v26"/>
	<path class="st0" d="M-183-104h-54v6c0,2,2,4,4,4h50c2,0,4-2,4-4v-36c0-2-2-4-4-4h-10"/>
	<circle class="st0" cx="-208" cy="-99" r="1"/>
	<line class="st0" x1="-233" y1="-80" x2="-197" y2="-80"/>
	<line class="st0" x1="-223" y1="-82" x2="-223" y2="-80"/>
	<line class="st0" x1="-219" y1="-82" x2="-219" y2="-80"/>
	<line class="st0" x1="-215" y1="-82" x2="-215" y2="-80"/>
	<line class="st0" x1="-211" y1="-82" x2="-211" y2="-80"/>
	<line class="st0" x1="-213" y1="-90" x2="-213" y2="-86"/>
	<line class="st0" x1="-203" y1="-90" x2="-203" y2="-86"/>
	<line class="st0" x1="-203" y1="-82" x2="-203" y2="-80"/>
	<line class="st0" x1="-207" y1="-82" x2="-207" y2="-80"/>
	<line class="st0" x1="-199" y1="-82" x2="-199" y2="-80"/>
	<line class="st0" x1="-227" y1="-82" x2="-227" y2="-80"/>
	<line class="st0" x1="-231" y1="-82" x2="-231" y2="-80"/>
	<path class="st0" d="M-183-80v-1c0-1.7-1.3-3-3-3h-2c-1.7,0-3,1.3-3,3v1H-183z"/>
	<line class="st0" x1="-217" y1="-132" x2="-223" y2="-132"/>
	<line class="st0" x1="-221" y1="-128" x2="-223" y2="-128"/>
	<line class="st0" x1="-221" y1="-124" x2="-223" y2="-124"/>
	<line class="st0" x1="-217" y1="-120" x2="-223" y2="-120"/>
	<polyline class="st0" points="-203,-108 -203,-130 -198,-138 -193,-130 -199,-130 	"/>
	<polyline class="st0" points="-217,-108 -223,-108 -223,-138 -207,-138 -207,-108 	"/>
	<line class="st0" x1="-221" y1="-116" x2="-223" y2="-116"/>
	<line class="st0" x1="-221" y1="-112" x2="-223" y2="-112"/>
	<line class="st0" x1="-193" y1="-126" x2="-193" y2="-108"/>
	<line class="st0" x1="-198" y1="-108" x2="-198" y2="-126"/>
</g>
<g>
	<line class="st0" x1="-117" y1="-93" x2="-71" y2="-93"/>
	<line class="st0" x1="-87" y1="-109" x2="-87" y2="-93"/>
	<path class="st0" d="M-103-122h38v38c0,2.2-1.8,4-4,4h-50c-2.2,0-4-1.8-4-4v-46h10l6,8l-6,8h-6"/>
	<line class="st0" x1="-107" y1="-114" x2="-65" y2="-114"/>
	<line class="st0" x1="-97" y1="-122" x2="-103" y2="-114"/>
	<line class="st0" x1="-88" y1="-122" x2="-94" y2="-114"/>
	<line class="st0" x1="-79" y1="-122" x2="-85" y2="-114"/>
	<line class="st0" x1="-70" y1="-122" x2="-76" y2="-114"/>
	<polyline class="st0" points="-103,-123.8 -65.6,-130 -66.9,-138 -108.7,-131.1 	"/>
	<line class="st0" x1="-103.9" y1="-131.8" x2="-98.4" y2="-124.6"/>
	<line class="st0" x1="-94.5" y1="-133.3" x2="-89.1" y2="-126.1"/>
	<line class="st0" x1="-85.8" y1="-134.8" x2="-80.5" y2="-127.6"/>
	<line class="st0" x1="-76.5" y1="-136.3" x2="-71.1" y2="-129.2"/>
</g>
<text transform="matrix(1 0 0 1 -237 -45)" style="font-family:'Roboto-Bold'; font-size:20px;">Design</text>
<g>
	<path class="st0" d="M23,133h-6c-2,0-4,2-4,4v26"/>
	<path class="st0" d="M67,167H13v6c0,2,2,4,4,4h50c2,0,4-2,4-4v-36c0-2-2-4-4-4H57"/>
	<circle class="st0" cx="42" cy="172" r="1"/>
	<line class="st0" x1="17" y1="191" x2="53" y2="191"/>
	<line class="st0" x1="27" y1="189" x2="27" y2="191"/>
	<line class="st0" x1="31" y1="189" x2="31" y2="191"/>
	<line class="st0" x1="35" y1="189" x2="35" y2="191"/>
	<line class="st0" x1="39" y1="189" x2="39" y2="191"/>
	<line class="st0" x1="37" y1="181" x2="37" y2="185"/>
	<line class="st0" x1="47" y1="181" x2="47" y2="185"/>
	<line class="st0" x1="47" y1="189" x2="47" y2="191"/>
	<line class="st0" x1="43" y1="189" x2="43" y2="191"/>
	<line class="st0" x1="51" y1="189" x2="51" y2="191"/>
	<line class="st0" x1="23" y1="189" x2="23" y2="191"/>
	<line class="st0" x1="19" y1="189" x2="19" y2="191"/>
	<path class="st0" d="M67,191v-1c0-1.7-1.3-3-3-3h-2c-1.7,0-3,1.3-3,3v1H67z"/>
	<line class="st0" x1="33" y1="139" x2="27" y2="139"/>
	<line class="st0" x1="29" y1="143" x2="27" y2="143"/>
	<line class="st0" x1="29" y1="147" x2="27" y2="147"/>
	<line class="st0" x1="33" y1="151" x2="27" y2="151"/>
	<polyline class="st0" points="47,163 47,141 52,133 57,141 51,141 	"/>
	<polyline class="st0" points="33,163 27,163 27,133 43,133 43,163 	"/>
	<line class="st0" x1="29" y1="155" x2="27" y2="155"/>
	<line class="st0" x1="29" y1="159" x2="27" y2="159"/>
	<line class="st0" x1="57" y1="145" x2="57" y2="163"/>
	<line class="st0" x1="52" y1="163" x2="52" y2="145"/>
</g>
<text transform="matrix(1 0 0 1 13 226)" style="font-family:'Roboto-Bold'; font-size:20px;">Design</text>
<text transform="matrix(1 0 0 1 -351 -45)" style="font-family:'Roboto-Bold'; font-size:20px;">Start</text>
<g>
	<text transform="matrix(1 0 0 1 -589 -101)" style="font-family:'Roboto-Light'; font-size:20px;">HTML5 Banners</text>
</g>
<g>
	<path class="st0" d="M-316-133v5c0,2.2,1.8,4,4,4h10v40c0,2.2-1.8,4-4,4h-42c-2.2,0-4-1.8-4-4v-50c0-2.2,1.8-4,4-4"/>
	<circle class="st0" cx="-339" cy="-127" r="7"/>
	<circle class="st0" cx="-339" cy="-109" r="7"/>
	<line class="st0" x1="-344" y1="-100" x2="-344" y2="-104"/>
	<polyline class="st0" points="-344,-132 -344,-138 -316,-138 -306,-128 	"/>
	<path class="st0" d="M-344-122c0,0-2,1-2,4s2,4,2,4"/>
	<path class="st0" d="M-336.3-128.3c-0.3-0.6-0.8-1.1-1.4-1.4"/>
	<path class="st0" d="M-336.3-110.3c-0.3-0.6-0.8-1.1-1.4-1.4"/>
	<line class="st0" x1="-324" y1="-114" x2="-328" y2="-114"/>
	<line class="st0" x1="-320" y1="-114" x2="-312" y2="-114"/>
	<line class="st0" x1="-327" y1="-108" x2="-322" y2="-108"/>
	<line class="st0" x1="-318" y1="-108" x2="-314" y2="-108"/>
	<line class="st0" x1="-342" y1="-96" x2="-336" y2="-96"/>
	<line class="st0" x1="-318" y1="-96" x2="-312" y2="-96"/>
	<line class="st0" x1="-332" y1="-96" x2="-322" y2="-96"/>
	<line class="st0" x1="-329" y1="-102" x2="-314" y2="-102"/>
	<line class="st0" x1="-342" y1="-90" x2="-330" y2="-90"/>
	<line class="st0" x1="-326" y1="-90" x2="-316" y2="-90"/>
</g>
<text transform="matrix(1 0 0 1 3 -45)" style="font-family:'Roboto-Bold'; font-size:20px;">Resize</text>
<text transform="matrix(1 0 0 1 -121 -45)" style="font-family:'Roboto-Bold'; font-size:20px;">Animation</text>
<g>
	<path class="st0" d="M128-138h-6c-2,0-4,2-4,4v26"/>
	<path class="st0" d="M172-104h-54v6c0,2,2,4,4,4h50c2,0,4-2,4-4v-36c0-2-2-4-4-4h-10"/>
	<circle class="st0" cx="147" cy="-99" r="1"/>
	<line class="st0" x1="122" y1="-80" x2="158" y2="-80"/>
	<line class="st0" x1="132" y1="-82" x2="132" y2="-80"/>
	<line class="st0" x1="136" y1="-82" x2="136" y2="-80"/>
	<line class="st0" x1="140" y1="-82" x2="140" y2="-80"/>
	<line class="st0" x1="144" y1="-82" x2="144" y2="-80"/>
	<line class="st0" x1="142" y1="-90" x2="142" y2="-86"/>
	<line class="st0" x1="152" y1="-90" x2="152" y2="-86"/>
	<line class="st0" x1="152" y1="-82" x2="152" y2="-80"/>
	<line class="st0" x1="148" y1="-82" x2="148" y2="-80"/>
	<line class="st0" x1="156" y1="-82" x2="156" y2="-80"/>
	<line class="st0" x1="128" y1="-82" x2="128" y2="-80"/>
	<line class="st0" x1="124" y1="-82" x2="124" y2="-80"/>
	<path class="st0" d="M172-80v-1c0-1.7-1.3-3-3-3h-2c-1.7,0-3,1.3-3,3v1H172z"/>
	<line class="st0" x1="138" y1="-132" x2="132" y2="-132"/>
	<line class="st0" x1="134" y1="-128" x2="132" y2="-128"/>
	<line class="st0" x1="134" y1="-124" x2="132" y2="-124"/>
	<line class="st0" x1="138" y1="-120" x2="132" y2="-120"/>
	<polyline class="st0" points="152,-108 152,-130 157,-138 162,-130 156,-130 	"/>
	<polyline class="st0" points="138,-108 132,-108 132,-138 148,-138 148,-108 	"/>
	<line class="st0" x1="134" y1="-116" x2="132" y2="-116"/>
	<line class="st0" x1="134" y1="-112" x2="132" y2="-112"/>
	<line class="st0" x1="162" y1="-126" x2="162" y2="-108"/>
	<line class="st0" x1="157" y1="-108" x2="157" y2="-126"/>
</g>
<text transform="matrix(1 0 0 1 118 -45)" style="font-family:'Roboto-Bold'; font-size:20px;">Design</text>
<text transform="matrix(1 0 0 1 377 -45)" style="font-family:'Roboto-Bold'; font-size:20px;">Finish </text>
<text transform="matrix(1 0 0 1 234 -45)" style="font-family:'Roboto-Bold'; font-size:20px;">Optimization </text>
<g>
	<g>
		<polyline class="st0" points="33,-98.4 6,-98.4 15.3,-107.7 19.5,-103.4 27.1,-111 33,-105.1 		"/>
		<circle class="st0" cx="14" cy="-119.4" r="3.3"/>
		<line class="st0" x1="14" y1="-126" x2="14" y2="-122.7"/>
		<line class="st0" x1="8.4" y1="-122.7" x2="11.2" y2="-121.1"/>
		<line class="st0" x1="8.4" y1="-116.2" x2="11.2" y2="-117.8"/>
		<line class="st0" x1="14" y1="-112.9" x2="14" y2="-116.2"/>
		<line class="st0" x1="19.7" y1="-116.2" x2="16.9" y2="-117.8"/>
		<line class="st0" x1="19.7" y1="-122.7" x2="16.9" y2="-121.1"/>
	</g>
	<g>
		<polyline class="st0" points="64,-109 42.7,-109 50,-116.3 53.3,-113 59.3,-119 64,-114.3 		"/>
		<circle class="st0" cx="50.7" cy="-126.5" r="2.7"/>
		<line class="st0" x1="50.7" y1="-132" x2="50.7" y2="-129.3"/>
		<line class="st0" x1="45.9" y1="-129.2" x2="48.3" y2="-127.9"/>
		<line class="st0" x1="45.9" y1="-123.7" x2="48.3" y2="-125.1"/>
		<line class="st0" x1="50.7" y1="-121" x2="50.7" y2="-123.8"/>
		<line class="st0" x1="55.5" y1="-123.8" x2="53.1" y2="-125.1"/>
		<line class="st0" x1="55.5" y1="-129.3" x2="53.1" y2="-127.9"/>
	</g>
	<g>
		<polyline class="st0" points="62.8,-79.3 43.8,-79.3 50.4,-85.9 53.3,-82.9 58.7,-88.2 62.8,-84.1 		"/>
		<circle class="st1" cx="48" cy="-91.9" r="1.2"/>
		<line class="st1" x1="48" y1="-94.3" x2="48" y2="-93.1"/>
		<line class="st1" x1="46" y1="-93.1" x2="47" y2="-92.5"/>
		<line class="st1" x1="46" y1="-90.8" x2="47" y2="-91.3"/>
		<line class="st1" x1="48" y1="-89.6" x2="48" y2="-90.8"/>
		<line class="st1" x1="50" y1="-90.8" x2="49" y2="-91.3"/>
		<line class="st1" x1="50" y1="-93.1" x2="49" y2="-92.5"/>
	</g>
	<path class="st0" d="M62.6-101H44.4c-2.4,0-4.4-2-4.4-4.4v-28.2c0-2.4,2-4.4,4.4-4.4h18.2c2.4,0,4.4,2,4.4,4.4v28.2
		C67-103,65-101,62.6-101z"/>
	<path class="st0" d="M31.6-79H7.4C5-79,3-81,3-83.4v-50.2c0-2.4,2-4.4,4.4-4.4h24.2c2.4,0,4.4,2,4.4,4.4v50.2C36-81,34-79,31.6-79z
		"/>
	<path class="st0" d="M62.6-79.3H44.4c-2.4,0-4.4-2-4.4-4.4v-9.2c0-2.4,2-4.4,4.4-4.4h18.2c2.4,0,4.4,2,4.4,4.4v9.2
		C67-81.3,65-79.3,62.6-79.3z"/>
</g>
<g>
	<path class="st0" d="M288-114l-5.9-1.3c-0.5-1.7-1.2-3.3-2-4.9l3.2-5.1c0.4-0.6,0.4-1,0-1.4l-5.7-5.7c-0.4-0.4-0.8-0.3-1.4,0
		l-5.1,3.2c-1.5-0.9-3.2-1.5-4.9-2L265-137c-0.2-0.7-0.4-1-1-1h-8c-0.6,0-0.8,0.4-1,1l-1.3,5.9c-1.7,0.5-3.3,1.2-4.9,2l-5.1-3.2
		c-0.6-0.4-1-0.4-1.4,0l-5.7,5.7c-0.4,0.4-0.3,0.8,0,1.4l3.2,5.1c-0.9,1.5-1.5,3.2-2,4.9L232-114c-0.7,0.2-1,0.4-1,1v8
		c0,0.6,0.4,0.8,1,1l5.9,1.3c0.5,1.7,1.2,3.3,2,4.9l-3.2,5.1c-0.4,0.6-0.4,1,0,1.4l5.7,5.7c0.4,0.4,0.8,0.3,1.4,0l5.1-3.2
		c1.5,0.9,3.2,1.5,4.9,2L255-81c0.2,0.7,0.4,1,1,1l8,0c0.6,0,0.8-0.4,1-1l1.3-5.9c1.7-0.5,3.3-1.2,4.9-2l5.1,3.2
		c0.6,0.4,1,0.4,1.4,0l5.7-5.7c0.4-0.4,0.3-0.8,0-1.4l-3.2-5.1c0.8-1.5,1.5-3.2,2-4.9l5.9-1.3c0.7-0.2,1-0.4,1-1v-8
		C289-113.6,288.6-113.8,288-114z"/>
	<path class="st0" d="M264-96.6c5.2-1.7,9-6.6,9-12.4c0-7.2-5.8-13-13-13c-7.2,0-13,5.8-13,13s5.8,13,13,13"/>
	<circle class="st0" cx="260" cy="-109" r="3"/>
</g>
<g>
	<path class="st0" d="M413-133v5c0,2.2,1.8,4,4,4h10v40c0,2.2-1.8,4-4,4h-42c-2.2,0-4-1.8-4-4v-50c0-2.2,1.8-4,4-4h32l10,10"/>
	<circle class="st0" cx="402" cy="-103" r="13"/>
	<polygon class="st0" points="399,-107 399,-99 406,-103 	"/>
</g>
<g>
	<path class="st0" d="M-230,1h-6c-2,0-4,2-4,4v26"/>
	<path class="st0" d="M-186,35h-54v6c0,2,2,4,4,4h50c2,0,4-2,4-4V5c0-2-2-4-4-4h-10"/>
	<circle class="st0" cx="-211" cy="40" r="1"/>
	<line class="st0" x1="-236" y1="59" x2="-200" y2="59"/>
	<line class="st0" x1="-226" y1="57" x2="-226" y2="59"/>
	<line class="st0" x1="-222" y1="57" x2="-222" y2="59"/>
	<line class="st0" x1="-218" y1="57" x2="-218" y2="59"/>
	<line class="st0" x1="-214" y1="57" x2="-214" y2="59"/>
	<line class="st0" x1="-216" y1="49" x2="-216" y2="53"/>
	<line class="st0" x1="-206" y1="49" x2="-206" y2="53"/>
	<line class="st0" x1="-206" y1="57" x2="-206" y2="59"/>
	<line class="st0" x1="-210" y1="57" x2="-210" y2="59"/>
	<line class="st0" x1="-202" y1="57" x2="-202" y2="59"/>
	<line class="st0" x1="-230" y1="57" x2="-230" y2="59"/>
	<line class="st0" x1="-234" y1="57" x2="-234" y2="59"/>
	<path class="st0" d="M-186,59v-1c0-1.7-1.3-3-3-3h-2c-1.7,0-3,1.3-3,3v1H-186z"/>
	<line class="st0" x1="-220" y1="7" x2="-226" y2="7"/>
	<line class="st0" x1="-224" y1="11" x2="-226" y2="11"/>
	<line class="st0" x1="-224" y1="15" x2="-226" y2="15"/>
	<line class="st0" x1="-220" y1="19" x2="-226" y2="19"/>
	<polyline class="st0" points="-206,31 -206,9 -201,1 -196,9 -202,9 	"/>
	<polyline class="st0" points="-220,31 -226,31 -226,1 -210,1 -210,31 	"/>
	<line class="st0" x1="-224" y1="23" x2="-226" y2="23"/>
	<line class="st0" x1="-224" y1="27" x2="-226" y2="27"/>
	<line class="st0" x1="-196" y1="13" x2="-196" y2="31"/>
	<line class="st0" x1="-201" y1="31" x2="-201" y2="13"/>
</g>
<text transform="matrix(1 0 0 1 -240 94)" style="font-family:'Roboto-Bold'; font-size:20px;">Design</text>
<text transform="matrix(1 0 0 1 -354 94)" style="font-family:'Roboto-Bold'; font-size:20px;">Start</text>
<g>
	<text transform="matrix(1 0 0 1 -592 38)" style="font-family:'Roboto-Light'; font-size:20px;">Web Development</text>
</g>
<g>
	<path class="st0" d="M-319,6v5c0,2.2,1.8,4,4,4h10v40c0,2.2-1.8,4-4,4h-42c-2.2,0-4-1.8-4-4V5c0-2.2,1.8-4,4-4"/>
	<circle class="st0" cx="-342" cy="12" r="7"/>
	<circle class="st0" cx="-342" cy="30" r="7"/>
	<line class="st0" x1="-347" y1="39" x2="-347" y2="35"/>
	<polyline class="st0" points="-347,7 -347,1 -319,1 -309,11 	"/>
	<path class="st0" d="M-347,17c0,0-2,1-2,4s2,4,2,4"/>
	<path class="st0" d="M-339.3,10.7c-0.3-0.6-0.8-1.1-1.4-1.4"/>
	<path class="st0" d="M-339.3,28.7c-0.3-0.6-0.8-1.1-1.4-1.4"/>
	<line class="st0" x1="-327" y1="25" x2="-331" y2="25"/>
	<line class="st0" x1="-323" y1="25" x2="-315" y2="25"/>
	<line class="st0" x1="-330" y1="31" x2="-325" y2="31"/>
	<line class="st0" x1="-321" y1="31" x2="-317" y2="31"/>
	<line class="st0" x1="-345" y1="43" x2="-339" y2="43"/>
	<line class="st0" x1="-321" y1="43" x2="-315" y2="43"/>
	<line class="st0" x1="-335" y1="43" x2="-325" y2="43"/>
	<line class="st0" x1="-332" y1="37" x2="-317" y2="37"/>
	<line class="st0" x1="-345" y1="49" x2="-333" y2="49"/>
	<line class="st0" x1="-329" y1="49" x2="-319" y2="49"/>
</g>
<text transform="matrix(1 0 0 1 -354 227)" style="font-family:'Roboto-Bold'; font-size:20px;">Start</text>
<g>
	<path class="st0" d="M-319,139v5c0,2.2,1.8,4,4,4h10v40c0,2.2-1.8,4-4,4h-42c-2.2,0-4-1.8-4-4v-50c0-2.2,1.8-4,4-4"/>
	<circle class="st0" cx="-342" cy="145" r="7"/>
	<circle class="st0" cx="-342" cy="163" r="7"/>
	<line class="st0" x1="-347" y1="172" x2="-347" y2="168"/>
	<polyline class="st0" points="-347,140 -347,134 -319,134 -309,144 	"/>
	<path class="st0" d="M-347,150c0,0-2,1-2,4s2,4,2,4"/>
	<path class="st0" d="M-339.3,143.7c-0.3-0.6-0.8-1.1-1.4-1.4"/>
	<path class="st0" d="M-339.3,161.7c-0.3-0.6-0.8-1.1-1.4-1.4"/>
	<line class="st0" x1="-327" y1="158" x2="-331" y2="158"/>
	<line class="st0" x1="-323" y1="158" x2="-315" y2="158"/>
	<line class="st0" x1="-330" y1="164" x2="-325" y2="164"/>
	<line class="st0" x1="-321" y1="164" x2="-317" y2="164"/>
	<line class="st0" x1="-345" y1="176" x2="-339" y2="176"/>
	<line class="st0" x1="-321" y1="176" x2="-315" y2="176"/>
	<line class="st0" x1="-335" y1="176" x2="-325" y2="176"/>
	<line class="st0" x1="-332" y1="170" x2="-317" y2="170"/>
	<line class="st0" x1="-345" y1="182" x2="-333" y2="182"/>
	<line class="st0" x1="-329" y1="182" x2="-319" y2="182"/>
</g>
<text transform="matrix(1 0 0 1 0 94)" style="font-family:'Roboto-Bold'; font-size:20px;">Back-end</text>
<text transform="matrix(1 0 0 1 -124 94)" style="font-family:'Roboto-Bold'; font-size:20px;">Front-end</text>
<text transform="matrix(1 0 0 1 115 94)" style="font-family:'Roboto-Bold'; font-size:20px;">QA </text>
<text transform="matrix(1 0 0 1 231 94)" style="font-family:'Roboto-Bold'; font-size:20px;">Finish </text>
<g>
	<path class="st0" d="M-85,59h-37c-2.3,0-4-1.8-4-4V15"/>
	<path class="st0" d="M-118,6c0,0.6-0.4,1-1,1l0,0c-0.6,0-1-0.4-1-1l0,0c0-0.6,0.4-1,1-1l0,0C-118.4,5-118,5.4-118,6L-118,6z"/>
	<path class="st0" d="M-112,6c0,0.6-0.4,1-1,1l0,0c-0.6,0-1-0.4-1-1l0,0c0-0.6,0.4-1,1-1l0,0C-112.4,5-112,5.4-112,6L-112,6z"/>
	<path class="st0" d="M-106,6c0,0.6-0.4,1-1,1l0,0c-0.6,0-1-0.4-1-1l0,0c0-0.6,0.4-1,1-1l0,0C-106.4,5-106,5.4-106,6L-106,6z"/>
	<line class="st0" x1="-120" y1="17" x2="-112" y2="17"/>
	<line class="st0" x1="-86" y1="17" x2="-82" y2="17"/>
	<line class="st0" x1="-78" y1="17" x2="-74" y2="17"/>
	<line class="st0" x1="-94" y1="17" x2="-90" y2="17"/>
	<path class="st0" d="M-85,59h13c2.3,0,4-1.8,4-4V5c0-2.2-1.8-4-4-4h-50c-2.2,0-4,1.8-4,4v6h54"/>
	<g>
		<path d="M-118.3,37.9l11.3-5.5v2.1l-9,4.2v0l9,4.2V45l-11.3-5.5V37.9z"/>
		<path d="M-100.5,46l5.8-17.3h2L-98.4,46H-100.5z"/>
		<path d="M-75,39.6L-86.3,45v-2.1l9.1-4.2v0l-9.1-4.2v-2.1l11.3,5.4V39.6z"/>
	</g>
</g>
<g>
	<path class="st0" d="M162,49l2.8-2.8l7,7c1.6,1.6,1.6,4.1,0,5.7c-1.6,1.6-4.1,1.6-5.7,0L154.3,47"/>
	<line class="st0" x1="162.1" y1="43.4" x2="160" y2="41.3"/>
	<circle class="st0" cx="138" cy="25" r="23"/>
	<circle class="st0" cx="138" cy="25" r="19"/>
	<line class="st0" x1="131" y1="16" x2="143" y2="16"/>
	<line class="st0" x1="127" y1="22" x2="141" y2="22"/>
	<line class="st0" x1="127" y1="28" x2="133" y2="28"/>
	<line class="st0" x1="129" y1="34" x2="137" y2="34"/>
	<line class="st0" x1="145" y1="34" x2="141" y2="34"/>
	<line class="st0" x1="149" y1="22" x2="145" y2="22"/>
	<line class="st0" x1="149" y1="28" x2="137" y2="28"/>
</g>
<g>
	<path class="st0" d="M9,6c0,0.6-0.4,1-1,1l0,0C7.4,7,7,6.6,7,6l0,0c0-0.6,0.4-1,1-1l0,0C8.6,5,9,5.4,9,6L9,6z"/>
	<path class="st0" d="M15,6c0,0.6-0.4,1-1,1l0,0c-0.6,0-1-0.4-1-1l0,0c0-0.6,0.4-1,1-1l0,0C14.6,5,15,5.4,15,6L15,6z"/>
	<path class="st0" d="M21,6c0,0.6-0.4,1-1,1l0,0c-0.6,0-1-0.4-1-1l0,0c0-0.6,0.4-1,1-1l0,0C20.6,5,21,5.4,21,6L21,6z"/>
	<line class="st0" x1="9" y1="19" x2="11" y2="19"/>
	<line class="st0" x1="9" y1="23" x2="11" y2="23"/>
	<line class="st0" x1="9" y1="27" x2="11" y2="27"/>
	<line class="st0" x1="9" y1="31" x2="11" y2="31"/>
	<line class="st0" x1="9" y1="35" x2="11" y2="35"/>
	<line class="st0" x1="9" y1="39" x2="11" y2="39"/>
	<line class="st0" x1="9" y1="43" x2="11" y2="43"/>
	<line class="st0" x1="9" y1="47" x2="11" y2="47"/>
	<line class="st0" x1="9" y1="51" x2="11" y2="51"/>
	<line class="st0" x1="43" y1="19" x2="39" y2="19"/>
	<line class="st0" x1="45" y1="23" x2="35" y2="23"/>
	<line class="st0" x1="31" y1="23" x2="15" y2="23"/>
	<line class="st0" x1="25" y1="19" x2="15" y2="19"/>
	<line class="st0" x1="35" y1="19" x2="29" y2="19"/>
	<line class="st0" x1="49" y1="27" x2="33" y2="27"/>
	<line class="st0" x1="43" y1="31" x2="35" y2="31"/>
	<line class="st0" x1="31" y1="31" x2="15" y2="31"/>
	<line class="st0" x1="19" y1="27" x2="15" y2="27"/>
	<line class="st0" x1="29" y1="27" x2="23" y2="27"/>
	<line class="st0" x1="36" y1="43" x2="33" y2="43"/>
	<line class="st0" x1="19" y1="43" x2="15" y2="43"/>
	<line class="st0" x1="29" y1="43" x2="23" y2="43"/>
	<line class="st0" x1="27" y1="47" x2="15" y2="47"/>
	<line class="st0" x1="33" y1="47" x2="31" y2="47"/>
	<line class="st0" x1="21" y1="51" x2="15" y2="51"/>
	<line class="st0" x1="35" y1="51" x2="25" y2="51"/>
	<line class="st0" x1="45" y1="35" x2="29" y2="35"/>
	<line class="st0" x1="38" y1="39" x2="31" y2="39"/>
	<line class="st0" x1="27" y1="39" x2="15" y2="39"/>
	<line class="st0" x1="25" y1="35" x2="15" y2="35"/>
	<path class="st0" d="M59,51v-4h-2.3c-0.2-0.7-0.5-1.4-0.9-2.1l1.6-1.6l-2.8-2.8l-1.6,1.6c-0.6-0.4-1.3-0.7-2.1-0.9V39h-4v2.3
		c-0.7,0.2-1.4,0.5-2.1,0.9l-1.6-1.6l-2.8,2.8l1.6,1.6c-0.4,0.6-0.7,1.3-0.9,2.1H39v4h2.3c0.2,0.7,0.5,1.4,0.9,2.1l-1.6,1.6l2.8,2.8
		l1.6-1.6c0.6,0.4,1.3,0.7,2.1,0.9V59h4v-2.3c0.7-0.2,1.4-0.5,2.1-0.9l1.6,1.6l2.8-2.8l-1.6-1.6c0.4-0.6,0.7-1.3,0.9-2.1H59z"/>
	<circle class="st0" cx="49" cy="49" r="2"/>
	<path class="st0" d="M39,59H5c-2.2,0-4-1.8-4-4V15"/>
	<path class="st0" d="M55,11H1V5c0-2.2,1.8-4,4-4h50c2.2,0,4,1.8,4,4v34"/>
</g>
<g>
	<path class="st0" d="M266,57c0,1.1-0.9,2-2,2h-34c-1.1,0-2-0.9-2-2V39c0-1.1,0.9-2,2-2h34c1.1,0,2,0.9,2,2V57z"/>
	<path class="st0" d="M286,37V3c0-1.1-0.9-2-2-2h-38c-1.1,0-2,0.9-2,2v30"/>
	<circle class="st0" cx="255" cy="12" r="3"/>
	<circle class="st0" cx="237" cy="46" r="3"/>
	<line class="st0" x1="268" y1="9" x2="276" y2="9"/>
	<line class="st0" x1="268" y1="13" x2="278" y2="13"/>
	<line class="st0" x1="252" y1="23" x2="260" y2="23"/>
	<line class="st0" x1="252" y1="29" x2="266" y2="29"/>
	<line class="st0" x1="252" y1="33" x2="260" y2="33"/>
	<line class="st0" x1="270" y1="29" x2="278" y2="29"/>
	<line class="st0" x1="264" y1="33" x2="276" y2="33"/>
	<line class="st0" x1="246" y1="43" x2="252" y2="43"/>
	<line class="st0" x1="246" y1="47" x2="254" y2="47"/>
	<line class="st0" x1="246" y1="53" x2="260" y2="53"/>
	<path class="st0" d="M289,41c1.1,0,2,0.9,2,2v14c0,1.1-0.9,2-2,2h-6c-1.1,0-2-0.9-2-2V43c0-1.1,0.9-2,2-2H289z"/>
	<line class="st0" x1="277.8" y1="59" x2="270" y2="59"/>
	<line class="st0" x1="278" y1="37" x2="270" y2="37"/>
	<line class="st0" x1="277" y1="41" x2="270" y2="41"/>
	<line class="st0" x1="277" y1="45" x2="270" y2="45"/>
	<circle class="st0" cx="286" cy="50" r="1"/>
</g>
<text transform="matrix(1 0 0 1 -122 226)" style="font-family:'Roboto-Bold'; font-size:20px;">Prototyping</text>
<text transform="matrix(1 0 0 1 -236 226)" style="font-family:'Roboto-Bold'; font-size:20px;">Concept</text>
<g>
	<text transform="matrix(1 0 0 1 -592 171)" style="font-family:'Roboto-Light'; font-size:20px;">Web Design</text>
</g>
<text transform="matrix(1 0 0 1 118 226)" style="font-family:'Roboto-Bold'; font-size:20px;">Testing</text>
<text transform="matrix(1 0 0 1 238 226)" style="font-family:'Roboto-Bold'; font-size:20px;">Finish </text>
<g>
	<path class="st0" d="M273,189c0,1.1-0.9,2-2,2h-34c-1.1,0-2-0.9-2-2v-18c0-1.1,0.9-2,2-2h34c1.1,0,2,0.9,2,2V189z"/>
	<path class="st0" d="M293,169v-34c0-1.1-0.9-2-2-2h-38c-1.1,0-2,0.9-2,2v30"/>
	<circle class="st0" cx="262" cy="144" r="3"/>
	<circle class="st0" cx="244" cy="178" r="3"/>
	<line class="st0" x1="275" y1="141" x2="283" y2="141"/>
	<line class="st0" x1="275" y1="145" x2="285" y2="145"/>
	<line class="st0" x1="259" y1="155" x2="267" y2="155"/>
	<line class="st0" x1="259" y1="161" x2="273" y2="161"/>
	<line class="st0" x1="259" y1="165" x2="267" y2="165"/>
	<line class="st0" x1="277" y1="161" x2="285" y2="161"/>
	<line class="st0" x1="271" y1="165" x2="283" y2="165"/>
	<line class="st0" x1="253" y1="175" x2="259" y2="175"/>
	<line class="st0" x1="253" y1="179" x2="261" y2="179"/>
	<line class="st0" x1="253" y1="185" x2="267" y2="185"/>
	<path class="st0" d="M296,173c1.1,0,2,0.9,2,2v14c0,1.1-0.9,2-2,2h-6c-1.1,0-2-0.9-2-2v-14c0-1.1,0.9-2,2-2H296z"/>
	<line class="st0" x1="284.8" y1="191" x2="277" y2="191"/>
	<line class="st0" x1="285" y1="169" x2="277" y2="169"/>
	<line class="st0" x1="284" y1="173" x2="277" y2="173"/>
	<line class="st0" x1="284" y1="177" x2="277" y2="177"/>
	<circle class="st0" cx="293" cy="182" r="1"/>
</g>
<g>
	<line class="st0" x1="-213" y1="191" x2="-213" y2="179"/>
	<path class="st0" d="M-217,189v-3c0,0,0-3-2-5s-5-2-5-2h-3v3c0,0,0,3,2,5s5,2,5,2H-217z"/>
	<path class="st0" d="M-209,189v-3c0,0,0-3,2-5s5-2,5-2h3v3c0,0,0,3-2,5s-5,2-5,2H-209z"/>
	<path class="st0" d="M-198,148c0-8.3-6.7-15-15-15s-15,6.7-15,15c0,6,6,10.7,7,15l1,4h14l1-4C-204,158.7-198,154-198,148z"/>
	<line class="st0" x1="-218" y1="171" x2="-208" y2="171"/>
	<line class="st0" x1="-216" y1="175" x2="-210" y2="175"/>
	<path class="st0" d="M-215,163l-3-14c0,0,3,2,5,2s5-2,5-2l-3,14"/>
	<path class="st0" d="M-206,139.5c-1.2-1-2.5-1.7-4-2.1c-0.6-0.2-1.2-0.3-1.8-0.3"/>
	<path class="st0" d="M-202.4,145c-0.2-0.7-0.5-1.4-0.8-2"/>
	<line class="st0" x1="-234" y1="148" x2="-238" y2="148"/>
	<line class="st0" x1="-188" y1="148" x2="-192" y2="148"/>
	<line class="st0" x1="-191.3" y1="135.5" x2="-194.8" y2="137.5"/>
	<line class="st0" x1="-191.3" y1="160.5" x2="-194.8" y2="158.5"/>
	<line class="st0" x1="-231.2" y1="137.5" x2="-234.7" y2="135.5"/>
	<line class="st0" x1="-231.2" y1="158.5" x2="-234.7" y2="160.5"/>
</g>
<g>
	<path class="st0" d="M-114,138c0,0.6-0.4,1-1,1l0,0c-0.6,0-1-0.4-1-1l0,0c0-0.6,0.4-1,1-1l0,0C-114.4,137-114,137.4-114,138
		L-114,138z"/>
	<path class="st0" d="M-108,138c0,0.6-0.4,1-1,1l0,0c-0.6,0-1-0.4-1-1l0,0c0-0.6,0.4-1,1-1l0,0C-108.4,137-108,137.4-108,138
		L-108,138z"/>
	<path class="st0" d="M-102,138c0,0.6-0.4,1-1,1l0,0c-0.6,0-1-0.4-1-1l0,0c0-0.6,0.4-1,1-1l0,0C-102.4,137-102,137.4-102,138
		L-102,138z"/>
	<path class="st0" d="M-70,186.9c2.7-2.7,2.7-7.2,0-9.9c-2.7-2.7-7.2-2.7-9.9,0c-4,4-4,13.9-4,13.9S-74,191-70,186.9z"/>
	<line class="st0" x1="-68" y1="171" x2="-72.5" y2="175.5"/>
	<line class="st0" x1="-64" y1="175" x2="-68.4" y2="179.4"/>
	<path class="st0" d="M-72.2,183c0.4-1.1,0.1-2.3-0.7-3.1"/>
	<rect x="-118" y="147" class="st0" width="10" height="16"/>
	<rect x="-104" y="147" class="st0" width="36" height="10"/>
	<polyline class="st0" points="-118,187 -118,167 -108,167 -108,187 	"/>
	<polyline class="st0" points="-74,171 -74,161 -68,161 -68,167 	"/>
	<polyline class="st0" points="-104,187 -104,161 -78,161 -78,171 	"/>
	<path class="st0" d="M-88,191h-30c-2.2,0-4-1.8-4-4v-40"/>
	<path class="st0" d="M-68,143h-54v-6c0-2.2,1.8-4,4-4h50c2.2,0,4,1.8,4,4v34"/>
</g>
<g>
	<circle class="st0" cx="148" cy="172" r="1"/>
	<path class="st0" d="M149,163l-7.6-12.2c-0.7-1.3-0.5-2.7,0.7-3.5c1.3-0.7,2.4-0.1,3.3,1.1l7.7,10.7c-0.7-1.3-0.3-2.9,1-3.6
		c1.3-0.7,2.9-0.3,3.6,1l0.7,1.1c-0.7-1.3-0.3-2.9,1-3.6c1.3-0.7,2.9-0.3,3.6,1l1,1.7c-0.5-0.9-0.2-2.2,0.7-2.7
		c0.9-0.5,2.2-0.1,2.7,0.7c0,0,3.7,5.2,5.7,12.2h-54v6c0,2.3,1.8,4,4,4h50c2.3,0,4-1.7,4-4v-36c0-2.2-1.8-4-4-4h-50
		c-2.2,0-3.9,1.9-4,4v26"/>
	<line class="st0" x1="143" y1="139" x2="143" y2="143"/>
	<line class="st0" x1="150.1" y1="141.9" x2="147.2" y2="144.8"/>
	<line class="st0" x1="135.9" y1="141.9" x2="138.8" y2="144.8"/>
	<line class="st0" x1="133" y1="149" x2="137" y2="149"/>
	<line class="st0" x1="135.9" y1="156.1" x2="138.8" y2="153.2"/>
	<path class="st0" d="M153,181v6h4c2,0,4,2,4,4h-26c0-2,2-4,4-4h10"/>
	<line class="st0" x1="143" y1="187" x2="143" y2="181"/>
</g>
</svg>
