<?xml version="1.0" encoding="utf-8"?>
<!-- Generator: Adobe Illustrator 21.0.2, SVG Export Plug-In . SVG Version: 6.00 Build 0)  -->
<svg version="1.1" id="Layer_1" xmlns="http://www.w3.org/2000/svg" xmlns:xlink="http://www.w3.org/1999/xlink" x="0px" y="0px"
	 viewBox="0 0 60 60" style="enable-background:new 0 0 60 60;" xml:space="preserve">
<style type="text/css">
	.st0{fill:none;stroke:#000000;stroke-width:2;stroke-linecap:round;stroke-linejoin:round;stroke-miterlimit:10;}
	.st1{fill:none;stroke:#000000;stroke-linecap:round;stroke-linejoin:round;stroke-miterlimit:10;}
</style>
<g>
	<path class="st0" d="M14-138H8c-2,0-4,2-4,4v26"/>
	<path class="st0" d="M58-104H4v6c0,2,2,4,4,4h50c2,0,4-2,4-4v-36c0-2-2-4-4-4H48"/>
	<circle class="st0" cx="33" cy="-99" r="1"/>
	<line class="st0" x1="8" y1="-80" x2="44" y2="-80"/>
	<line class="st0" x1="18" y1="-82" x2="18" y2="-80"/>
	<line class="st0" x1="22" y1="-82" x2="22" y2="-80"/>
	<line class="st0" x1="26" y1="-82" x2="26" y2="-80"/>
	<line class="st0" x1="30" y1="-82" x2="30" y2="-80"/>
	<line class="st0" x1="28" y1="-90" x2="28" y2="-86"/>
	<line class="st0" x1="38" y1="-90" x2="38" y2="-86"/>
	<line class="st0" x1="38" y1="-82" x2="38" y2="-80"/>
	<line class="st0" x1="34" y1="-82" x2="34" y2="-80"/>
	<line class="st0" x1="42" y1="-82" x2="42" y2="-80"/>
	<line class="st0" x1="14" y1="-82" x2="14" y2="-80"/>
	<line class="st0" x1="10" y1="-82" x2="10" y2="-80"/>
	<path class="st0" d="M58-80v-1c0-1.7-1.3-3-3-3h-2c-1.7,0-3,1.3-3,3v1H58z"/>
	<line class="st0" x1="24" y1="-132" x2="18" y2="-132"/>
	<line class="st0" x1="20" y1="-128" x2="18" y2="-128"/>
	<line class="st0" x1="20" y1="-124" x2="18" y2="-124"/>
	<line class="st0" x1="24" y1="-120" x2="18" y2="-120"/>
	<polyline class="st0" points="38,-108 38,-130 43,-138 48,-130 42,-130 	"/>
	<polyline class="st0" points="24,-108 18,-108 18,-138 34,-138 34,-108 	"/>
	<line class="st0" x1="20" y1="-116" x2="18" y2="-116"/>
	<line class="st0" x1="20" y1="-112" x2="18" y2="-112"/>
	<line class="st0" x1="48" y1="-126" x2="48" y2="-108"/>
	<line class="st0" x1="43" y1="-108" x2="43" y2="-126"/>
</g>
<g>
	<line class="st0" x1="124" y1="-93" x2="170" y2="-93"/>
	<line class="st0" x1="154" y1="-109" x2="154" y2="-93"/>
	<path class="st0" d="M138-122h38v38c0,2.2-1.8,4-4,4h-50c-2.2,0-4-1.8-4-4v-46h10l6,8l-6,8h-6"/>
	<line class="st0" x1="134" y1="-114" x2="176" y2="-114"/>
	<line class="st0" x1="144" y1="-122" x2="138" y2="-114"/>
	<line class="st0" x1="153" y1="-122" x2="147" y2="-114"/>
	<line class="st0" x1="162" y1="-122" x2="156" y2="-114"/>
	<line class="st0" x1="171" y1="-122" x2="165" y2="-114"/>
	<polyline class="st0" points="138,-123.8 175.4,-130 174.1,-138 132.3,-131.1 	"/>
	<line class="st0" x1="137.1" y1="-131.8" x2="142.6" y2="-124.6"/>
	<line class="st0" x1="146.5" y1="-133.3" x2="151.9" y2="-126.1"/>
	<line class="st0" x1="155.2" y1="-134.8" x2="160.5" y2="-127.6"/>
	<line class="st0" x1="164.5" y1="-136.3" x2="169.9" y2="-129.2"/>
</g>
<text transform="matrix(1 0 0 1 4 -45)" style="font-family:'Roboto-Bold'; font-size:20px;">Design</text>
<g>
	<path class="st0" d="M264,133h-6c-2,0-4,2-4,4v26"/>
	<path class="st0" d="M308,167h-54v6c0,2,2,4,4,4h50c2,0,4-2,4-4v-36c0-2-2-4-4-4h-10"/>
	<circle class="st0" cx="283" cy="172" r="1"/>
	<line class="st0" x1="258" y1="191" x2="294" y2="191"/>
	<line class="st0" x1="268" y1="189" x2="268" y2="191"/>
	<line class="st0" x1="272" y1="189" x2="272" y2="191"/>
	<line class="st0" x1="276" y1="189" x2="276" y2="191"/>
	<line class="st0" x1="280" y1="189" x2="280" y2="191"/>
	<line class="st0" x1="278" y1="181" x2="278" y2="185"/>
	<line class="st0" x1="288" y1="181" x2="288" y2="185"/>
	<line class="st0" x1="288" y1="189" x2="288" y2="191"/>
	<line class="st0" x1="284" y1="189" x2="284" y2="191"/>
	<line class="st0" x1="292" y1="189" x2="292" y2="191"/>
	<line class="st0" x1="264" y1="189" x2="264" y2="191"/>
	<line class="st0" x1="260" y1="189" x2="260" y2="191"/>
	<path class="st0" d="M308,191v-1c0-1.7-1.3-3-3-3h-2c-1.7,0-3,1.3-3,3v1H308z"/>
	<line class="st0" x1="274" y1="139" x2="268" y2="139"/>
	<line class="st0" x1="270" y1="143" x2="268" y2="143"/>
	<line class="st0" x1="270" y1="147" x2="268" y2="147"/>
	<line class="st0" x1="274" y1="151" x2="268" y2="151"/>
	<polyline class="st0" points="288,163 288,141 293,133 298,141 292,141 	"/>
	<polyline class="st0" points="274,163 268,163 268,133 284,133 284,163 	"/>
	<line class="st0" x1="270" y1="155" x2="268" y2="155"/>
	<line class="st0" x1="270" y1="159" x2="268" y2="159"/>
	<line class="st0" x1="298" y1="145" x2="298" y2="163"/>
	<line class="st0" x1="293" y1="163" x2="293" y2="145"/>
</g>
<text transform="matrix(1 0 0 1 254 226)" style="font-family:'Roboto-Bold'; font-size:20px;">Design</text>
<text transform="matrix(1 0 0 1 -110 -45)" style="font-family:'Roboto-Bold'; font-size:20px;">Start</text>
<g>
	<text transform="matrix(1 0 0 1 -348 -101)" style="font-family:'Roboto-Light'; font-size:20px;">HTML5 Banners</text>
</g>
<g>
	<path class="st0" d="M-75-133v5c0,2.2,1.8,4,4,4h10v40c0,2.2-1.8,4-4,4h-42c-2.2,0-4-1.8-4-4v-50c0-2.2,1.8-4,4-4"/>
	<circle class="st0" cx="-98" cy="-127" r="7"/>
	<circle class="st0" cx="-98" cy="-109" r="7"/>
	<line class="st0" x1="-103" y1="-100" x2="-103" y2="-104"/>
	<polyline class="st0" points="-103,-132 -103,-138 -75,-138 -65,-128 	"/>
	<path class="st0" d="M-103-122c0,0-2,1-2,4s2,4,2,4"/>
	<path class="st0" d="M-95.3-128.3c-0.3-0.6-0.8-1.1-1.4-1.4"/>
	<path class="st0" d="M-95.3-110.3c-0.3-0.6-0.8-1.1-1.4-1.4"/>
	<line class="st0" x1="-83" y1="-114" x2="-87" y2="-114"/>
	<line class="st0" x1="-79" y1="-114" x2="-71" y2="-114"/>
	<line class="st0" x1="-86" y1="-108" x2="-81" y2="-108"/>
	<line class="st0" x1="-77" y1="-108" x2="-73" y2="-108"/>
	<line class="st0" x1="-101" y1="-96" x2="-95" y2="-96"/>
	<line class="st0" x1="-77" y1="-96" x2="-71" y2="-96"/>
	<line class="st0" x1="-91" y1="-96" x2="-81" y2="-96"/>
	<line class="st0" x1="-88" y1="-102" x2="-73" y2="-102"/>
	<line class="st0" x1="-101" y1="-90" x2="-89" y2="-90"/>
	<line class="st0" x1="-85" y1="-90" x2="-75" y2="-90"/>
</g>
<text transform="matrix(1 0 0 1 244 -45)" style="font-family:'Roboto-Bold'; font-size:20px;">Resize</text>
<text transform="matrix(1 0 0 1 120 -45)" style="font-family:'Roboto-Bold'; font-size:20px;">Animation</text>
<g>
	<path class="st0" d="M369-138h-6c-2,0-4,2-4,4v26"/>
	<path class="st0" d="M413-104h-54v6c0,2,2,4,4,4h50c2,0,4-2,4-4v-36c0-2-2-4-4-4h-10"/>
	<circle class="st0" cx="388" cy="-99" r="1"/>
	<line class="st0" x1="363" y1="-80" x2="399" y2="-80"/>
	<line class="st0" x1="373" y1="-82" x2="373" y2="-80"/>
	<line class="st0" x1="377" y1="-82" x2="377" y2="-80"/>
	<line class="st0" x1="381" y1="-82" x2="381" y2="-80"/>
	<line class="st0" x1="385" y1="-82" x2="385" y2="-80"/>
	<line class="st0" x1="383" y1="-90" x2="383" y2="-86"/>
	<line class="st0" x1="393" y1="-90" x2="393" y2="-86"/>
	<line class="st0" x1="393" y1="-82" x2="393" y2="-80"/>
	<line class="st0" x1="389" y1="-82" x2="389" y2="-80"/>
	<line class="st0" x1="397" y1="-82" x2="397" y2="-80"/>
	<line class="st0" x1="369" y1="-82" x2="369" y2="-80"/>
	<line class="st0" x1="365" y1="-82" x2="365" y2="-80"/>
	<path class="st0" d="M413-80v-1c0-1.7-1.3-3-3-3h-2c-1.7,0-3,1.3-3,3v1H413z"/>
	<line class="st0" x1="379" y1="-132" x2="373" y2="-132"/>
	<line class="st0" x1="375" y1="-128" x2="373" y2="-128"/>
	<line class="st0" x1="375" y1="-124" x2="373" y2="-124"/>
	<line class="st0" x1="379" y1="-120" x2="373" y2="-120"/>
	<polyline class="st0" points="393,-108 393,-130 398,-138 403,-130 397,-130 	"/>
	<polyline class="st0" points="379,-108 373,-108 373,-138 389,-138 389,-108 	"/>
	<line class="st0" x1="375" y1="-116" x2="373" y2="-116"/>
	<line class="st0" x1="375" y1="-112" x2="373" y2="-112"/>
	<line class="st0" x1="403" y1="-126" x2="403" y2="-108"/>
	<line class="st0" x1="398" y1="-108" x2="398" y2="-126"/>
</g>
<text transform="matrix(1 0 0 1 359 -45)" style="font-family:'Roboto-Bold'; font-size:20px;">Design</text>
<text transform="matrix(1 0 0 1 618 -45)" style="font-family:'Roboto-Bold'; font-size:20px;">Finish </text>
<text transform="matrix(1 0 0 1 475 -45)" style="font-family:'Roboto-Bold'; font-size:20px;">Optimization </text>
<g>
	<g>
		<polyline class="st0" points="274,-98.4 247,-98.4 256.3,-107.7 260.5,-103.4 268.1,-111 274,-105.1 		"/>
		<circle class="st0" cx="255" cy="-119.4" r="3.3"/>
		<line class="st0" x1="255" y1="-126" x2="255" y2="-122.7"/>
		<line class="st0" x1="249.4" y1="-122.7" x2="252.2" y2="-121.1"/>
		<line class="st0" x1="249.4" y1="-116.2" x2="252.2" y2="-117.8"/>
		<line class="st0" x1="255" y1="-112.9" x2="255" y2="-116.2"/>
		<line class="st0" x1="260.7" y1="-116.2" x2="257.9" y2="-117.8"/>
		<line class="st0" x1="260.7" y1="-122.7" x2="257.9" y2="-121.1"/>
	</g>
	<g>
		<polyline class="st0" points="305,-109 283.7,-109 291,-116.3 294.3,-113 300.3,-119 305,-114.3 		"/>
		<circle class="st0" cx="291.7" cy="-126.5" r="2.7"/>
		<line class="st0" x1="291.7" y1="-132" x2="291.7" y2="-129.3"/>
		<line class="st0" x1="286.9" y1="-129.2" x2="289.3" y2="-127.9"/>
		<line class="st0" x1="286.9" y1="-123.7" x2="289.3" y2="-125.1"/>
		<line class="st0" x1="291.7" y1="-121" x2="291.7" y2="-123.8"/>
		<line class="st0" x1="296.5" y1="-123.8" x2="294.1" y2="-125.1"/>
		<line class="st0" x1="296.5" y1="-129.3" x2="294.1" y2="-127.9"/>
	</g>
	<g>
		<polyline class="st0" points="303.8,-79.3 284.8,-79.3 291.4,-85.9 294.3,-82.9 299.7,-88.2 303.8,-84.1 		"/>
		<circle class="st1" cx="289" cy="-91.9" r="1.2"/>
		<line class="st1" x1="289" y1="-94.3" x2="289" y2="-93.1"/>
		<line class="st1" x1="287" y1="-93.1" x2="288" y2="-92.5"/>
		<line class="st1" x1="287" y1="-90.8" x2="288" y2="-91.3"/>
		<line class="st1" x1="289" y1="-89.6" x2="289" y2="-90.8"/>
		<line class="st1" x1="291" y1="-90.8" x2="290" y2="-91.3"/>
		<line class="st1" x1="291" y1="-93.1" x2="290" y2="-92.5"/>
	</g>
	<path class="st0" d="M303.6-101h-18.2c-2.4,0-4.4-2-4.4-4.4v-28.2c0-2.4,2-4.4,4.4-4.4h18.2c2.4,0,4.4,2,4.4,4.4v28.2
		C308-103,306-101,303.6-101z"/>
	<path class="st0" d="M272.6-79h-24.2c-2.4,0-4.4-2-4.4-4.4v-50.2c0-2.4,2-4.4,4.4-4.4h24.2c2.4,0,4.4,2,4.4,4.4v50.2
		C277-81,275-79,272.6-79z"/>
	<path class="st0" d="M303.6-79.3h-18.2c-2.4,0-4.4-2-4.4-4.4v-9.2c0-2.4,2-4.4,4.4-4.4h18.2c2.4,0,4.4,2,4.4,4.4v9.2
		C308-81.3,306-79.3,303.6-79.3z"/>
</g>
<g>
	<path class="st0" d="M529-114l-5.9-1.3c-0.5-1.7-1.2-3.3-2-4.9l3.2-5.1c0.4-0.6,0.4-1,0-1.4l-5.7-5.7c-0.4-0.4-0.8-0.3-1.4,0
		l-5.1,3.2c-1.5-0.9-3.2-1.5-4.9-2L506-137c-0.2-0.7-0.4-1-1-1h-8c-0.6,0-0.8,0.4-1,1l-1.3,5.9c-1.7,0.5-3.3,1.2-4.9,2l-5.1-3.2
		c-0.6-0.4-1-0.4-1.4,0l-5.7,5.7c-0.4,0.4-0.3,0.8,0,1.4l3.2,5.1c-0.9,1.5-1.5,3.2-2,4.9L473-114c-0.7,0.2-1,0.4-1,1v8
		c0,0.6,0.4,0.8,1,1l5.9,1.3c0.5,1.7,1.2,3.3,2,4.9l-3.2,5.1c-0.4,0.6-0.4,1,0,1.4l5.7,5.7c0.4,0.4,0.8,0.3,1.4,0l5.1-3.2
		c1.5,0.9,3.2,1.5,4.9,2L496-81c0.2,0.7,0.4,1,1,1l8,0c0.6,0,0.8-0.4,1-1l1.3-5.9c1.7-0.5,3.3-1.2,4.9-2l5.1,3.2
		c0.6,0.4,1,0.4,1.4,0l5.7-5.7c0.4-0.4,0.3-0.8,0-1.4l-3.2-5.1c0.8-1.5,1.5-3.2,2-4.9l5.9-1.3c0.7-0.2,1-0.4,1-1v-8
		C530-113.6,529.6-113.8,529-114z"/>
	<path class="st0" d="M505-96.6c5.2-1.7,9-6.6,9-12.4c0-7.2-5.8-13-13-13c-7.2,0-13,5.8-13,13s5.8,13,13,13"/>
	<circle class="st0" cx="501" cy="-109" r="3"/>
</g>
<g>
	<path class="st0" d="M654-133v5c0,2.2,1.8,4,4,4h10v40c0,2.2-1.8,4-4,4h-42c-2.2,0-4-1.8-4-4v-50c0-2.2,1.8-4,4-4h32l10,10"/>
	<circle class="st0" cx="643" cy="-103" r="13"/>
	<polygon class="st0" points="640,-107 640,-99 647,-103 	"/>
</g>
<g>
	<path class="st0" d="M11,1H5C3,1,1,3,1,5v26"/>
	<path class="st0" d="M55,35H1v6c0,2,2,4,4,4h50c2,0,4-2,4-4V5c0-2-2-4-4-4H45"/>
	<circle class="st0" cx="30" cy="40" r="1"/>
	<line class="st0" x1="5" y1="59" x2="41" y2="59"/>
	<line class="st0" x1="15" y1="57" x2="15" y2="59"/>
	<line class="st0" x1="19" y1="57" x2="19" y2="59"/>
	<line class="st0" x1="23" y1="57" x2="23" y2="59"/>
	<line class="st0" x1="27" y1="57" x2="27" y2="59"/>
	<line class="st0" x1="25" y1="49" x2="25" y2="53"/>
	<line class="st0" x1="35" y1="49" x2="35" y2="53"/>
	<line class="st0" x1="35" y1="57" x2="35" y2="59"/>
	<line class="st0" x1="31" y1="57" x2="31" y2="59"/>
	<line class="st0" x1="39" y1="57" x2="39" y2="59"/>
	<line class="st0" x1="11" y1="57" x2="11" y2="59"/>
	<line class="st0" x1="7" y1="57" x2="7" y2="59"/>
	<path class="st0" d="M55,59v-1c0-1.7-1.3-3-3-3h-2c-1.7,0-3,1.3-3,3v1H55z"/>
	<line class="st0" x1="21" y1="7" x2="15" y2="7"/>
	<line class="st0" x1="17" y1="11" x2="15" y2="11"/>
	<line class="st0" x1="17" y1="15" x2="15" y2="15"/>
	<line class="st0" x1="21" y1="19" x2="15" y2="19"/>
	<polyline class="st0" points="35,31 35,9 40,1 45,9 39,9 	"/>
	<polyline class="st0" points="21,31 15,31 15,1 31,1 31,31 	"/>
	<line class="st0" x1="17" y1="23" x2="15" y2="23"/>
	<line class="st0" x1="17" y1="27" x2="15" y2="27"/>
	<line class="st0" x1="45" y1="13" x2="45" y2="31"/>
	<line class="st0" x1="40" y1="31" x2="40" y2="13"/>
</g>
<text transform="matrix(1 0 0 1 1 94)" style="font-family:'Roboto-Bold'; font-size:20px;">Design</text>
<text transform="matrix(1 0 0 1 -113 94)" style="font-family:'Roboto-Bold'; font-size:20px;">Start</text>
<g>
	<text transform="matrix(1 0 0 1 -351 38)" style="font-family:'Roboto-Light'; font-size:20px;">Web Development</text>
</g>
<g>
	<path class="st0" d="M-78,6v5c0,2.2,1.8,4,4,4h10v40c0,2.2-1.8,4-4,4h-42c-2.2,0-4-1.8-4-4V5c0-2.2,1.8-4,4-4"/>
	<circle class="st0" cx="-101" cy="12" r="7"/>
	<circle class="st0" cx="-101" cy="30" r="7"/>
	<line class="st0" x1="-106" y1="39" x2="-106" y2="35"/>
	<polyline class="st0" points="-106,7 -106,1 -78,1 -68,11 	"/>
	<path class="st0" d="M-106,17c0,0-2,1-2,4s2,4,2,4"/>
	<path class="st0" d="M-98.3,10.7c-0.3-0.6-0.8-1.1-1.4-1.4"/>
	<path class="st0" d="M-98.3,28.7c-0.3-0.6-0.8-1.1-1.4-1.4"/>
	<line class="st0" x1="-86" y1="25" x2="-90" y2="25"/>
	<line class="st0" x1="-82" y1="25" x2="-74" y2="25"/>
	<line class="st0" x1="-89" y1="31" x2="-84" y2="31"/>
	<line class="st0" x1="-80" y1="31" x2="-76" y2="31"/>
	<line class="st0" x1="-104" y1="43" x2="-98" y2="43"/>
	<line class="st0" x1="-80" y1="43" x2="-74" y2="43"/>
	<line class="st0" x1="-94" y1="43" x2="-84" y2="43"/>
	<line class="st0" x1="-91" y1="37" x2="-76" y2="37"/>
	<line class="st0" x1="-104" y1="49" x2="-92" y2="49"/>
	<line class="st0" x1="-88" y1="49" x2="-78" y2="49"/>
</g>
<text transform="matrix(1 0 0 1 -113 227)" style="font-family:'Roboto-Bold'; font-size:20px;">Start</text>
<g>
	<path class="st0" d="M-78,139v5c0,2.2,1.8,4,4,4h10v40c0,2.2-1.8,4-4,4h-42c-2.2,0-4-1.8-4-4v-50c0-2.2,1.8-4,4-4"/>
	<circle class="st0" cx="-101" cy="145" r="7"/>
	<circle class="st0" cx="-101" cy="163" r="7"/>
	<line class="st0" x1="-106" y1="172" x2="-106" y2="168"/>
	<polyline class="st0" points="-106,140 -106,134 -78,134 -68,144 	"/>
	<path class="st0" d="M-106,150c0,0-2,1-2,4s2,4,2,4"/>
	<path class="st0" d="M-98.3,143.7c-0.3-0.6-0.8-1.1-1.4-1.4"/>
	<path class="st0" d="M-98.3,161.7c-0.3-0.6-0.8-1.1-1.4-1.4"/>
	<line class="st0" x1="-86" y1="158" x2="-90" y2="158"/>
	<line class="st0" x1="-82" y1="158" x2="-74" y2="158"/>
	<line class="st0" x1="-89" y1="164" x2="-84" y2="164"/>
	<line class="st0" x1="-80" y1="164" x2="-76" y2="164"/>
	<line class="st0" x1="-104" y1="176" x2="-98" y2="176"/>
	<line class="st0" x1="-80" y1="176" x2="-74" y2="176"/>
	<line class="st0" x1="-94" y1="176" x2="-84" y2="176"/>
	<line class="st0" x1="-91" y1="170" x2="-76" y2="170"/>
	<line class="st0" x1="-104" y1="182" x2="-92" y2="182"/>
	<line class="st0" x1="-88" y1="182" x2="-78" y2="182"/>
</g>
<text transform="matrix(1 0 0 1 241 94)" style="font-family:'Roboto-Bold'; font-size:20px;">Back-end</text>
<text transform="matrix(1 0 0 1 117 94)" style="font-family:'Roboto-Bold'; font-size:20px;">Front-end</text>
<text transform="matrix(1 0 0 1 356 94)" style="font-family:'Roboto-Bold'; font-size:20px;">QA </text>
<text transform="matrix(1 0 0 1 472 94)" style="font-family:'Roboto-Bold'; font-size:20px;">Finish </text>
<g>
	<path class="st0" d="M156,59h-37c-2.3,0-4-1.8-4-4V15"/>
	<path class="st0" d="M123,6c0,0.6-0.4,1-1,1l0,0c-0.6,0-1-0.4-1-1l0,0c0-0.6,0.4-1,1-1l0,0C122.6,5,123,5.4,123,6L123,6z"/>
	<path class="st0" d="M129,6c0,0.6-0.4,1-1,1l0,0c-0.6,0-1-0.4-1-1l0,0c0-0.6,0.4-1,1-1l0,0C128.6,5,129,5.4,129,6L129,6z"/>
	<path class="st0" d="M135,6c0,0.6-0.4,1-1,1l0,0c-0.6,0-1-0.4-1-1l0,0c0-0.6,0.4-1,1-1l0,0C134.6,5,135,5.4,135,6L135,6z"/>
	<line class="st0" x1="121" y1="17" x2="129" y2="17"/>
	<line class="st0" x1="155" y1="17" x2="159" y2="17"/>
	<line class="st0" x1="163" y1="17" x2="167" y2="17"/>
	<line class="st0" x1="147" y1="17" x2="151" y2="17"/>
	<path class="st0" d="M156,59h13c2.3,0,4-1.8,4-4V5c0-2.2-1.8-4-4-4h-50c-2.2,0-4,1.8-4,4v6h54"/>
	<g>
		<path d="M122.7,37.9l11.3-5.5v2.1l-9,4.2v0l9,4.2V45l-11.3-5.5V37.9z"/>
		<path d="M140.5,46l5.8-17.3h2L142.6,46H140.5z"/>
		<path d="M166,39.6L154.7,45v-2.1l9.1-4.2v0l-9.1-4.2v-2.1l11.3,5.4V39.6z"/>
	</g>
</g>
<g>
	<path class="st0" d="M403,49l2.8-2.8l7,7c1.6,1.6,1.6,4.1,0,5.7c-1.6,1.6-4.1,1.6-5.7,0L395.3,47"/>
	<line class="st0" x1="403.1" y1="43.4" x2="401" y2="41.3"/>
	<circle class="st0" cx="379" cy="25" r="23"/>
	<circle class="st0" cx="379" cy="25" r="19"/>
	<line class="st0" x1="372" y1="16" x2="384" y2="16"/>
	<line class="st0" x1="368" y1="22" x2="382" y2="22"/>
	<line class="st0" x1="368" y1="28" x2="374" y2="28"/>
	<line class="st0" x1="370" y1="34" x2="378" y2="34"/>
	<line class="st0" x1="386" y1="34" x2="382" y2="34"/>
	<line class="st0" x1="390" y1="22" x2="386" y2="22"/>
	<line class="st0" x1="390" y1="28" x2="378" y2="28"/>
</g>
<g>
	<path class="st0" d="M250,6c0,0.6-0.4,1-1,1l0,0c-0.6,0-1-0.4-1-1l0,0c0-0.6,0.4-1,1-1l0,0C249.6,5,250,5.4,250,6L250,6z"/>
	<path class="st0" d="M256,6c0,0.6-0.4,1-1,1l0,0c-0.6,0-1-0.4-1-1l0,0c0-0.6,0.4-1,1-1l0,0C255.6,5,256,5.4,256,6L256,6z"/>
	<path class="st0" d="M262,6c0,0.6-0.4,1-1,1l0,0c-0.6,0-1-0.4-1-1l0,0c0-0.6,0.4-1,1-1l0,0C261.6,5,262,5.4,262,6L262,6z"/>
	<line class="st0" x1="250" y1="19" x2="252" y2="19"/>
	<line class="st0" x1="250" y1="23" x2="252" y2="23"/>
	<line class="st0" x1="250" y1="27" x2="252" y2="27"/>
	<line class="st0" x1="250" y1="31" x2="252" y2="31"/>
	<line class="st0" x1="250" y1="35" x2="252" y2="35"/>
	<line class="st0" x1="250" y1="39" x2="252" y2="39"/>
	<line class="st0" x1="250" y1="43" x2="252" y2="43"/>
	<line class="st0" x1="250" y1="47" x2="252" y2="47"/>
	<line class="st0" x1="250" y1="51" x2="252" y2="51"/>
	<line class="st0" x1="284" y1="19" x2="280" y2="19"/>
	<line class="st0" x1="286" y1="23" x2="276" y2="23"/>
	<line class="st0" x1="272" y1="23" x2="256" y2="23"/>
	<line class="st0" x1="266" y1="19" x2="256" y2="19"/>
	<line class="st0" x1="276" y1="19" x2="270" y2="19"/>
	<line class="st0" x1="290" y1="27" x2="274" y2="27"/>
	<line class="st0" x1="284" y1="31" x2="276" y2="31"/>
	<line class="st0" x1="272" y1="31" x2="256" y2="31"/>
	<line class="st0" x1="260" y1="27" x2="256" y2="27"/>
	<line class="st0" x1="270" y1="27" x2="264" y2="27"/>
	<line class="st0" x1="277" y1="43" x2="274" y2="43"/>
	<line class="st0" x1="260" y1="43" x2="256" y2="43"/>
	<line class="st0" x1="270" y1="43" x2="264" y2="43"/>
	<line class="st0" x1="268" y1="47" x2="256" y2="47"/>
	<line class="st0" x1="274" y1="47" x2="272" y2="47"/>
	<line class="st0" x1="262" y1="51" x2="256" y2="51"/>
	<line class="st0" x1="276" y1="51" x2="266" y2="51"/>
	<line class="st0" x1="286" y1="35" x2="270" y2="35"/>
	<line class="st0" x1="279" y1="39" x2="272" y2="39"/>
	<line class="st0" x1="268" y1="39" x2="256" y2="39"/>
	<line class="st0" x1="266" y1="35" x2="256" y2="35"/>
	<path class="st0" d="M300,51v-4h-2.3c-0.2-0.7-0.5-1.4-0.9-2.1l1.6-1.6l-2.8-2.8l-1.6,1.6c-0.6-0.4-1.3-0.7-2.1-0.9V39h-4v2.3
		c-0.7,0.2-1.4,0.5-2.1,0.9l-1.6-1.6l-2.8,2.8l1.6,1.6c-0.4,0.6-0.7,1.3-0.9,2.1H280v4h2.3c0.2,0.7,0.5,1.4,0.9,2.1l-1.6,1.6
		l2.8,2.8l1.6-1.6c0.6,0.4,1.3,0.7,2.1,0.9V59h4v-2.3c0.7-0.2,1.4-0.5,2.1-0.9l1.6,1.6l2.8-2.8l-1.6-1.6c0.4-0.6,0.7-1.3,0.9-2.1
		H300z"/>
	<circle class="st0" cx="290" cy="49" r="2"/>
	<path class="st0" d="M280,59h-34c-2.2,0-4-1.8-4-4V15"/>
	<path class="st0" d="M296,11h-54V5c0-2.2,1.8-4,4-4h50c2.2,0,4,1.8,4,4v34"/>
</g>
<g>
	<path class="st0" d="M507,57c0,1.1-0.9,2-2,2h-34c-1.1,0-2-0.9-2-2V39c0-1.1,0.9-2,2-2h34c1.1,0,2,0.9,2,2V57z"/>
	<path class="st0" d="M527,37V3c0-1.1-0.9-2-2-2h-38c-1.1,0-2,0.9-2,2v30"/>
	<circle class="st0" cx="496" cy="12" r="3"/>
	<circle class="st0" cx="478" cy="46" r="3"/>
	<line class="st0" x1="509" y1="9" x2="517" y2="9"/>
	<line class="st0" x1="509" y1="13" x2="519" y2="13"/>
	<line class="st0" x1="493" y1="23" x2="501" y2="23"/>
	<line class="st0" x1="493" y1="29" x2="507" y2="29"/>
	<line class="st0" x1="493" y1="33" x2="501" y2="33"/>
	<line class="st0" x1="511" y1="29" x2="519" y2="29"/>
	<line class="st0" x1="505" y1="33" x2="517" y2="33"/>
	<line class="st0" x1="487" y1="43" x2="493" y2="43"/>
	<line class="st0" x1="487" y1="47" x2="495" y2="47"/>
	<line class="st0" x1="487" y1="53" x2="501" y2="53"/>
	<path class="st0" d="M530,41c1.1,0,2,0.9,2,2v14c0,1.1-0.9,2-2,2h-6c-1.1,0-2-0.9-2-2V43c0-1.1,0.9-2,2-2H530z"/>
	<line class="st0" x1="518.8" y1="59" x2="511" y2="59"/>
	<line class="st0" x1="519" y1="37" x2="511" y2="37"/>
	<line class="st0" x1="518" y1="41" x2="511" y2="41"/>
	<line class="st0" x1="518" y1="45" x2="511" y2="45"/>
	<circle class="st0" cx="527" cy="50" r="1"/>
</g>
<text transform="matrix(1 0 0 1 119 226)" style="font-family:'Roboto-Bold'; font-size:20px;">Prototyping</text>
<text transform="matrix(1 0 0 1 5 226)" style="font-family:'Roboto-Bold'; font-size:20px;">Concept</text>
<g>
	<text transform="matrix(1 0 0 1 -351 171)" style="font-family:'Roboto-Light'; font-size:20px;">Web Design</text>
</g>
<text transform="matrix(1 0 0 1 359 226)" style="font-family:'Roboto-Bold'; font-size:20px;">Testing</text>
<text transform="matrix(1 0 0 1 479 226)" style="font-family:'Roboto-Bold'; font-size:20px;">Finish </text>
<g>
	<path class="st0" d="M514,189c0,1.1-0.9,2-2,2h-34c-1.1,0-2-0.9-2-2v-18c0-1.1,0.9-2,2-2h34c1.1,0,2,0.9,2,2V189z"/>
	<path class="st0" d="M534,169v-34c0-1.1-0.9-2-2-2h-38c-1.1,0-2,0.9-2,2v30"/>
	<circle class="st0" cx="503" cy="144" r="3"/>
	<circle class="st0" cx="485" cy="178" r="3"/>
	<line class="st0" x1="516" y1="141" x2="524" y2="141"/>
	<line class="st0" x1="516" y1="145" x2="526" y2="145"/>
	<line class="st0" x1="500" y1="155" x2="508" y2="155"/>
	<line class="st0" x1="500" y1="161" x2="514" y2="161"/>
	<line class="st0" x1="500" y1="165" x2="508" y2="165"/>
	<line class="st0" x1="518" y1="161" x2="526" y2="161"/>
	<line class="st0" x1="512" y1="165" x2="524" y2="165"/>
	<line class="st0" x1="494" y1="175" x2="500" y2="175"/>
	<line class="st0" x1="494" y1="179" x2="502" y2="179"/>
	<line class="st0" x1="494" y1="185" x2="508" y2="185"/>
	<path class="st0" d="M537,173c1.1,0,2,0.9,2,2v14c0,1.1-0.9,2-2,2h-6c-1.1,0-2-0.9-2-2v-14c0-1.1,0.9-2,2-2H537z"/>
	<line class="st0" x1="525.8" y1="191" x2="518" y2="191"/>
	<line class="st0" x1="526" y1="169" x2="518" y2="169"/>
	<line class="st0" x1="525" y1="173" x2="518" y2="173"/>
	<line class="st0" x1="525" y1="177" x2="518" y2="177"/>
	<circle class="st0" cx="534" cy="182" r="1"/>
</g>
<g>
	<line class="st0" x1="28" y1="191" x2="28" y2="179"/>
	<path class="st0" d="M24,189v-3c0,0,0-3-2-5s-5-2-5-2h-3v3c0,0,0,3,2,5s5,2,5,2H24z"/>
	<path class="st0" d="M32,189v-3c0,0,0-3,2-5s5-2,5-2h3v3c0,0,0,3-2,5s-5,2-5,2H32z"/>
	<path class="st0" d="M43,148c0-8.3-6.7-15-15-15c-8.3,0-15,6.7-15,15c0,6,6,10.7,7,15l1,4h14l1-4C37,158.7,43,154,43,148z"/>
	<line class="st0" x1="23" y1="171" x2="33" y2="171"/>
	<line class="st0" x1="25" y1="175" x2="31" y2="175"/>
	<path class="st0" d="M26,163l-3-14c0,0,3,2,5,2s5-2,5-2l-3,14"/>
	<path class="st0" d="M35,139.5c-1.2-1-2.5-1.7-4-2.1c-0.6-0.2-1.2-0.3-1.8-0.3"/>
	<path class="st0" d="M38.6,145c-0.2-0.7-0.5-1.4-0.8-2"/>
	<line class="st0" x1="7" y1="148" x2="3" y2="148"/>
	<line class="st0" x1="53" y1="148" x2="49" y2="148"/>
	<line class="st0" x1="49.7" y1="135.5" x2="46.2" y2="137.5"/>
	<line class="st0" x1="49.7" y1="160.5" x2="46.2" y2="158.5"/>
	<line class="st0" x1="9.8" y1="137.5" x2="6.3" y2="135.5"/>
	<line class="st0" x1="9.8" y1="158.5" x2="6.3" y2="160.5"/>
</g>
<g>
	<path class="st0" d="M127,138c0,0.6-0.4,1-1,1l0,0c-0.6,0-1-0.4-1-1l0,0c0-0.6,0.4-1,1-1l0,0C126.6,137,127,137.4,127,138L127,138z
		"/>
	<path class="st0" d="M133,138c0,0.6-0.4,1-1,1l0,0c-0.6,0-1-0.4-1-1l0,0c0-0.6,0.4-1,1-1l0,0C132.6,137,133,137.4,133,138L133,138z
		"/>
	<path class="st0" d="M139,138c0,0.6-0.4,1-1,1l0,0c-0.6,0-1-0.4-1-1l0,0c0-0.6,0.4-1,1-1l0,0C138.6,137,139,137.4,139,138L139,138z
		"/>
	<path class="st0" d="M171,186.9c2.7-2.7,2.7-7.2,0-9.9c-2.7-2.7-7.2-2.7-9.9,0c-4,4-4,13.9-4,13.9S167,191,171,186.9z"/>
	<line class="st0" x1="173" y1="171" x2="168.5" y2="175.5"/>
	<line class="st0" x1="177" y1="175" x2="172.6" y2="179.4"/>
	<path class="st0" d="M168.8,183c0.4-1.1,0.1-2.3-0.7-3.1"/>
	<rect x="123" y="147" class="st0" width="10" height="16"/>
	<rect x="137" y="147" class="st0" width="36" height="10"/>
	<polyline class="st0" points="123,187 123,167 133,167 133,187 	"/>
	<polyline class="st0" points="167,171 167,161 173,161 173,167 	"/>
	<polyline class="st0" points="137,187 137,161 163,161 163,171 	"/>
	<path class="st0" d="M153,191h-30c-2.2,0-4-1.8-4-4v-40"/>
	<path class="st0" d="M173,143h-54v-6c0-2.2,1.8-4,4-4h50c2.2,0,4,1.8,4,4v34"/>
</g>
<g>
	<circle class="st0" cx="389" cy="172" r="1"/>
	<path class="st0" d="M390,163l-7.6-12.2c-0.7-1.3-0.5-2.7,0.7-3.5c1.3-0.7,2.4-0.1,3.3,1.1l7.7,10.7c-0.7-1.3-0.3-2.9,1-3.6
		c1.3-0.7,2.9-0.3,3.6,1l0.7,1.1c-0.7-1.3-0.3-2.9,1-3.6c1.3-0.7,2.9-0.3,3.6,1l1,1.7c-0.5-0.9-0.2-2.2,0.7-2.7
		c0.9-0.5,2.2-0.1,2.7,0.7c0,0,3.7,5.2,5.7,12.2h-54v6c0,2.3,1.8,4,4,4h50c2.3,0,4-1.7,4-4v-36c0-2.2-1.8-4-4-4h-50
		c-2.2,0-3.9,1.9-4,4v26"/>
	<line class="st0" x1="384" y1="139" x2="384" y2="143"/>
	<line class="st0" x1="391.1" y1="141.9" x2="388.2" y2="144.8"/>
	<line class="st0" x1="376.9" y1="141.9" x2="379.8" y2="144.8"/>
	<line class="st0" x1="374" y1="149" x2="378" y2="149"/>
	<line class="st0" x1="376.9" y1="156.1" x2="379.8" y2="153.2"/>
	<path class="st0" d="M394,181v6h4c2,0,4,2,4,4h-26c0-2,2-4,4-4h10"/>
	<line class="st0" x1="384" y1="187" x2="384" y2="181"/>
</g>
</svg>
