<?xml version="1.0" encoding="utf-8"?>
<!-- Generator: Adobe Illustrator 21.0.2, SVG Export Plug-In . SVG Version: 6.00 Build 0)  -->
<svg version="1.1" id="Layer_1" xmlns="http://www.w3.org/2000/svg" xmlns:xlink="http://www.w3.org/1999/xlink" x="0px" y="0px"
	 viewBox="0 0 65 60" style="enable-background:new 0 0 65 60;" xml:space="preserve">
<style type="text/css">
	.st0{fill:none;stroke:#000000;stroke-width:2;stroke-linecap:round;stroke-linejoin:round;stroke-miterlimit:10;}
	.st1{fill:none;stroke:#000000;stroke-linecap:round;stroke-linejoin:round;stroke-miterlimit:10;}
</style>
<g>
	<path class="st0" d="M-454-138h-6c-2,0-4,2-4,4v26"/>
	<path class="st0" d="M-410-104h-54v6c0,2,2,4,4,4h50c2,0,4-2,4-4v-36c0-2-2-4-4-4h-10"/>
	<circle class="st0" cx="-435" cy="-99" r="1"/>
	<line class="st0" x1="-460" y1="-80" x2="-424" y2="-80"/>
	<line class="st0" x1="-450" y1="-82" x2="-450" y2="-80"/>
	<line class="st0" x1="-446" y1="-82" x2="-446" y2="-80"/>
	<line class="st0" x1="-442" y1="-82" x2="-442" y2="-80"/>
	<line class="st0" x1="-438" y1="-82" x2="-438" y2="-80"/>
	<line class="st0" x1="-440" y1="-90" x2="-440" y2="-86"/>
	<line class="st0" x1="-430" y1="-90" x2="-430" y2="-86"/>
	<line class="st0" x1="-430" y1="-82" x2="-430" y2="-80"/>
	<line class="st0" x1="-434" y1="-82" x2="-434" y2="-80"/>
	<line class="st0" x1="-426" y1="-82" x2="-426" y2="-80"/>
	<line class="st0" x1="-454" y1="-82" x2="-454" y2="-80"/>
	<line class="st0" x1="-458" y1="-82" x2="-458" y2="-80"/>
	<path class="st0" d="M-410-80v-1c0-1.7-1.3-3-3-3h-2c-1.7,0-3,1.3-3,3v1H-410z"/>
	<line class="st0" x1="-444" y1="-132" x2="-450" y2="-132"/>
	<line class="st0" x1="-448" y1="-128" x2="-450" y2="-128"/>
	<line class="st0" x1="-448" y1="-124" x2="-450" y2="-124"/>
	<line class="st0" x1="-444" y1="-120" x2="-450" y2="-120"/>
	<polyline class="st0" points="-430,-108 -430,-130 -425,-138 -420,-130 -426,-130 	"/>
	<polyline class="st0" points="-444,-108 -450,-108 -450,-138 -434,-138 -434,-108 	"/>
	<line class="st0" x1="-448" y1="-116" x2="-450" y2="-116"/>
	<line class="st0" x1="-448" y1="-112" x2="-450" y2="-112"/>
	<line class="st0" x1="-420" y1="-126" x2="-420" y2="-108"/>
	<line class="st0" x1="-425" y1="-108" x2="-425" y2="-126"/>
</g>
<g>
	<line class="st0" x1="-344" y1="-93" x2="-298" y2="-93"/>
	<line class="st0" x1="-314" y1="-109" x2="-314" y2="-93"/>
	<path class="st0" d="M-330-122h38v38c0,2.2-1.8,4-4,4h-50c-2.2,0-4-1.8-4-4v-46h10l6,8l-6,8h-6"/>
	<line class="st0" x1="-334" y1="-114" x2="-292" y2="-114"/>
	<line class="st0" x1="-324" y1="-122" x2="-330" y2="-114"/>
	<line class="st0" x1="-315" y1="-122" x2="-321" y2="-114"/>
	<line class="st0" x1="-306" y1="-122" x2="-312" y2="-114"/>
	<line class="st0" x1="-297" y1="-122" x2="-303" y2="-114"/>
	<polyline class="st0" points="-330,-123.8 -292.6,-130 -293.9,-138 -335.7,-131.1 	"/>
	<line class="st0" x1="-330.9" y1="-131.8" x2="-325.4" y2="-124.6"/>
	<line class="st0" x1="-321.5" y1="-133.3" x2="-316.1" y2="-126.1"/>
	<line class="st0" x1="-312.8" y1="-134.8" x2="-307.5" y2="-127.6"/>
	<line class="st0" x1="-303.5" y1="-136.3" x2="-298.1" y2="-129.2"/>
</g>
<text transform="matrix(1 0 0 1 -464 -45)" style="font-family:'Roboto-Bold'; font-size:20px;">Design</text>
<g>
	<path class="st0" d="M-204,133h-6c-2,0-4,2-4,4v26"/>
	<path class="st0" d="M-160,167h-54v6c0,2,2,4,4,4h50c2,0,4-2,4-4v-36c0-2-2-4-4-4h-10"/>
	<circle class="st0" cx="-185" cy="172" r="1"/>
	<line class="st0" x1="-210" y1="191" x2="-174" y2="191"/>
	<line class="st0" x1="-200" y1="189" x2="-200" y2="191"/>
	<line class="st0" x1="-196" y1="189" x2="-196" y2="191"/>
	<line class="st0" x1="-192" y1="189" x2="-192" y2="191"/>
	<line class="st0" x1="-188" y1="189" x2="-188" y2="191"/>
	<line class="st0" x1="-190" y1="181" x2="-190" y2="185"/>
	<line class="st0" x1="-180" y1="181" x2="-180" y2="185"/>
	<line class="st0" x1="-180" y1="189" x2="-180" y2="191"/>
	<line class="st0" x1="-184" y1="189" x2="-184" y2="191"/>
	<line class="st0" x1="-176" y1="189" x2="-176" y2="191"/>
	<line class="st0" x1="-204" y1="189" x2="-204" y2="191"/>
	<line class="st0" x1="-208" y1="189" x2="-208" y2="191"/>
	<path class="st0" d="M-160,191v-1c0-1.7-1.3-3-3-3h-2c-1.7,0-3,1.3-3,3v1H-160z"/>
	<line class="st0" x1="-194" y1="139" x2="-200" y2="139"/>
	<line class="st0" x1="-198" y1="143" x2="-200" y2="143"/>
	<line class="st0" x1="-198" y1="147" x2="-200" y2="147"/>
	<line class="st0" x1="-194" y1="151" x2="-200" y2="151"/>
	<polyline class="st0" points="-180,163 -180,141 -175,133 -170,141 -176,141 	"/>
	<polyline class="st0" points="-194,163 -200,163 -200,133 -184,133 -184,163 	"/>
	<line class="st0" x1="-198" y1="155" x2="-200" y2="155"/>
	<line class="st0" x1="-198" y1="159" x2="-200" y2="159"/>
	<line class="st0" x1="-170" y1="145" x2="-170" y2="163"/>
	<line class="st0" x1="-175" y1="163" x2="-175" y2="145"/>
</g>
<text transform="matrix(1 0 0 1 -214 226)" style="font-family:'Roboto-Bold'; font-size:20px;">Design</text>
<text transform="matrix(1 0 0 1 -578 -45)" style="font-family:'Roboto-Bold'; font-size:20px;">Start</text>
<g>
	<text transform="matrix(1 0 0 1 -816 -101)" style="font-family:'Roboto-Light'; font-size:20px;">HTML5 Banners</text>
</g>
<g>
	<path class="st0" d="M-543-133v5c0,2.2,1.8,4,4,4h10v40c0,2.2-1.8,4-4,4h-42c-2.2,0-4-1.8-4-4v-50c0-2.2,1.8-4,4-4"/>
	<circle class="st0" cx="-566" cy="-127" r="7"/>
	<circle class="st0" cx="-566" cy="-109" r="7"/>
	<line class="st0" x1="-571" y1="-100" x2="-571" y2="-104"/>
	<polyline class="st0" points="-571,-132 -571,-138 -543,-138 -533,-128 	"/>
	<path class="st0" d="M-571-122c0,0-2,1-2,4s2,4,2,4"/>
	<path class="st0" d="M-563.3-128.3c-0.3-0.6-0.8-1.1-1.4-1.4"/>
	<path class="st0" d="M-563.3-110.3c-0.3-0.6-0.8-1.1-1.4-1.4"/>
	<line class="st0" x1="-551" y1="-114" x2="-555" y2="-114"/>
	<line class="st0" x1="-547" y1="-114" x2="-539" y2="-114"/>
	<line class="st0" x1="-554" y1="-108" x2="-549" y2="-108"/>
	<line class="st0" x1="-545" y1="-108" x2="-541" y2="-108"/>
	<line class="st0" x1="-569" y1="-96" x2="-563" y2="-96"/>
	<line class="st0" x1="-545" y1="-96" x2="-539" y2="-96"/>
	<line class="st0" x1="-559" y1="-96" x2="-549" y2="-96"/>
	<line class="st0" x1="-556" y1="-102" x2="-541" y2="-102"/>
	<line class="st0" x1="-569" y1="-90" x2="-557" y2="-90"/>
	<line class="st0" x1="-553" y1="-90" x2="-543" y2="-90"/>
</g>
<text transform="matrix(1 0 0 1 -224 -45)" style="font-family:'Roboto-Bold'; font-size:20px;">Resize</text>
<text transform="matrix(1 0 0 1 -348 -45)" style="font-family:'Roboto-Bold'; font-size:20px;">Animation</text>
<g>
	<path class="st0" d="M-99-138h-6c-2,0-4,2-4,4v26"/>
	<path class="st0" d="M-55-104h-54v6c0,2,2,4,4,4h50c2,0,4-2,4-4v-36c0-2-2-4-4-4h-10"/>
	<circle class="st0" cx="-80" cy="-99" r="1"/>
	<line class="st0" x1="-105" y1="-80" x2="-69" y2="-80"/>
	<line class="st0" x1="-95" y1="-82" x2="-95" y2="-80"/>
	<line class="st0" x1="-91" y1="-82" x2="-91" y2="-80"/>
	<line class="st0" x1="-87" y1="-82" x2="-87" y2="-80"/>
	<line class="st0" x1="-83" y1="-82" x2="-83" y2="-80"/>
	<line class="st0" x1="-85" y1="-90" x2="-85" y2="-86"/>
	<line class="st0" x1="-75" y1="-90" x2="-75" y2="-86"/>
	<line class="st0" x1="-75" y1="-82" x2="-75" y2="-80"/>
	<line class="st0" x1="-79" y1="-82" x2="-79" y2="-80"/>
	<line class="st0" x1="-71" y1="-82" x2="-71" y2="-80"/>
	<line class="st0" x1="-99" y1="-82" x2="-99" y2="-80"/>
	<line class="st0" x1="-103" y1="-82" x2="-103" y2="-80"/>
	<path class="st0" d="M-55-80v-1c0-1.7-1.3-3-3-3h-2c-1.7,0-3,1.3-3,3v1H-55z"/>
	<line class="st0" x1="-89" y1="-132" x2="-95" y2="-132"/>
	<line class="st0" x1="-93" y1="-128" x2="-95" y2="-128"/>
	<line class="st0" x1="-93" y1="-124" x2="-95" y2="-124"/>
	<line class="st0" x1="-89" y1="-120" x2="-95" y2="-120"/>
	<polyline class="st0" points="-75,-108 -75,-130 -70,-138 -65,-130 -71,-130 	"/>
	<polyline class="st0" points="-89,-108 -95,-108 -95,-138 -79,-138 -79,-108 	"/>
	<line class="st0" x1="-93" y1="-116" x2="-95" y2="-116"/>
	<line class="st0" x1="-93" y1="-112" x2="-95" y2="-112"/>
	<line class="st0" x1="-65" y1="-126" x2="-65" y2="-108"/>
	<line class="st0" x1="-70" y1="-108" x2="-70" y2="-126"/>
</g>
<text transform="matrix(1 0 0 1 -109 -45)" style="font-family:'Roboto-Bold'; font-size:20px;">Design</text>
<text transform="matrix(1 0 0 1 150 -45)" style="font-family:'Roboto-Bold'; font-size:20px;">Finish </text>
<text transform="matrix(1 0 0 1 7 -45)" style="font-family:'Roboto-Bold'; font-size:20px;">Optimization </text>
<g>
	<g>
		<polyline class="st0" points="-194,-98.4 -221,-98.4 -211.7,-107.7 -207.5,-103.4 -199.9,-111 -194,-105.1 		"/>
		<circle class="st0" cx="-213" cy="-119.4" r="3.3"/>
		<line class="st0" x1="-213" y1="-126" x2="-213" y2="-122.7"/>
		<line class="st0" x1="-218.6" y1="-122.7" x2="-215.8" y2="-121.1"/>
		<line class="st0" x1="-218.6" y1="-116.2" x2="-215.8" y2="-117.8"/>
		<line class="st0" x1="-213" y1="-112.9" x2="-213" y2="-116.2"/>
		<line class="st0" x1="-207.3" y1="-116.2" x2="-210.1" y2="-117.8"/>
		<line class="st0" x1="-207.3" y1="-122.7" x2="-210.1" y2="-121.1"/>
	</g>
	<g>
		<polyline class="st0" points="-163,-109 -184.3,-109 -177,-116.3 -173.7,-113 -167.7,-119 -163,-114.3 		"/>
		<circle class="st0" cx="-176.3" cy="-126.5" r="2.7"/>
		<line class="st0" x1="-176.3" y1="-132" x2="-176.3" y2="-129.3"/>
		<line class="st0" x1="-181.1" y1="-129.2" x2="-178.7" y2="-127.9"/>
		<line class="st0" x1="-181.1" y1="-123.7" x2="-178.7" y2="-125.1"/>
		<line class="st0" x1="-176.3" y1="-121" x2="-176.3" y2="-123.8"/>
		<line class="st0" x1="-171.5" y1="-123.8" x2="-173.9" y2="-125.1"/>
		<line class="st0" x1="-171.5" y1="-129.3" x2="-173.9" y2="-127.9"/>
	</g>
	<g>
		<polyline class="st0" points="-164.2,-79.3 -183.2,-79.3 -176.6,-85.9 -173.7,-82.9 -168.3,-88.2 -164.2,-84.1 		"/>
		<circle class="st1" cx="-179" cy="-91.9" r="1.2"/>
		<line class="st1" x1="-179" y1="-94.3" x2="-179" y2="-93.1"/>
		<line class="st1" x1="-181" y1="-93.1" x2="-180" y2="-92.5"/>
		<line class="st1" x1="-181" y1="-90.8" x2="-180" y2="-91.3"/>
		<line class="st1" x1="-179" y1="-89.6" x2="-179" y2="-90.8"/>
		<line class="st1" x1="-177" y1="-90.8" x2="-178" y2="-91.3"/>
		<line class="st1" x1="-177" y1="-93.1" x2="-178" y2="-92.5"/>
	</g>
	<path class="st0" d="M-164.4-101h-18.2c-2.4,0-4.4-2-4.4-4.4v-28.2c0-2.4,2-4.4,4.4-4.4h18.2c2.4,0,4.4,2,4.4,4.4v28.2
		C-160-103-162-101-164.4-101z"/>
	<path class="st0" d="M-195.4-79h-24.2c-2.4,0-4.4-2-4.4-4.4v-50.2c0-2.4,2-4.4,4.4-4.4h24.2c2.4,0,4.4,2,4.4,4.4v50.2
		C-191-81-193-79-195.4-79z"/>
	<path class="st0" d="M-164.4-79.3h-18.2c-2.4,0-4.4-2-4.4-4.4v-9.2c0-2.4,2-4.4,4.4-4.4h18.2c2.4,0,4.4,2,4.4,4.4v9.2
		C-160-81.3-162-79.3-164.4-79.3z"/>
</g>
<g>
	<path class="st0" d="M61-114l-5.9-1.3c-0.5-1.7-1.2-3.3-2-4.9l3.2-5.1c0.4-0.6,0.4-1,0-1.4l-5.7-5.7c-0.4-0.4-0.8-0.3-1.4,0
		l-5.1,3.2c-1.5-0.9-3.2-1.5-4.9-2L38-137c-0.2-0.7-0.4-1-1-1h-8c-0.6,0-0.8,0.4-1,1l-1.3,5.9c-1.7,0.5-3.3,1.2-4.9,2l-5.1-3.2
		c-0.6-0.4-1-0.4-1.4,0l-5.7,5.7c-0.4,0.4-0.3,0.8,0,1.4l3.2,5.1c-0.9,1.5-1.5,3.2-2,4.9L5-114c-0.7,0.2-1,0.4-1,1v8
		c0,0.6,0.4,0.8,1,1l5.9,1.3c0.5,1.7,1.2,3.3,2,4.9l-3.2,5.1c-0.4,0.6-0.4,1,0,1.4l5.7,5.7c0.4,0.4,0.8,0.3,1.4,0l5.1-3.2
		c1.5,0.9,3.2,1.5,4.9,2L28-81c0.2,0.7,0.4,1,1,1l8,0c0.6,0,0.8-0.4,1-1l1.3-5.9c1.7-0.5,3.3-1.2,4.9-2l5.1,3.2c0.6,0.4,1,0.4,1.4,0
		l5.7-5.7c0.4-0.4,0.3-0.8,0-1.4l-3.2-5.1c0.8-1.5,1.5-3.2,2-4.9L61-104c0.7-0.2,1-0.4,1-1v-8C62-113.6,61.6-113.8,61-114z"/>
	<path class="st0" d="M37-96.6c5.2-1.7,9-6.6,9-12.4c0-7.2-5.8-13-13-13c-7.2,0-13,5.8-13,13s5.8,13,13,13"/>
	<circle class="st0" cx="33" cy="-109" r="3"/>
</g>
<g>
	<path class="st0" d="M186-133v5c0,2.2,1.8,4,4,4h10v40c0,2.2-1.8,4-4,4h-42c-2.2,0-4-1.8-4-4v-50c0-2.2,1.8-4,4-4h32l10,10"/>
	<circle class="st0" cx="175" cy="-103" r="13"/>
	<polygon class="st0" points="172,-107 172,-99 179,-103 	"/>
</g>
<g>
	<path class="st0" d="M-457,1h-6c-2,0-4,2-4,4v26"/>
	<path class="st0" d="M-413,35h-54v6c0,2,2,4,4,4h50c2,0,4-2,4-4V5c0-2-2-4-4-4h-10"/>
	<circle class="st0" cx="-438" cy="40" r="1"/>
	<line class="st0" x1="-463" y1="59" x2="-427" y2="59"/>
	<line class="st0" x1="-453" y1="57" x2="-453" y2="59"/>
	<line class="st0" x1="-449" y1="57" x2="-449" y2="59"/>
	<line class="st0" x1="-445" y1="57" x2="-445" y2="59"/>
	<line class="st0" x1="-441" y1="57" x2="-441" y2="59"/>
	<line class="st0" x1="-443" y1="49" x2="-443" y2="53"/>
	<line class="st0" x1="-433" y1="49" x2="-433" y2="53"/>
	<line class="st0" x1="-433" y1="57" x2="-433" y2="59"/>
	<line class="st0" x1="-437" y1="57" x2="-437" y2="59"/>
	<line class="st0" x1="-429" y1="57" x2="-429" y2="59"/>
	<line class="st0" x1="-457" y1="57" x2="-457" y2="59"/>
	<line class="st0" x1="-461" y1="57" x2="-461" y2="59"/>
	<path class="st0" d="M-413,59v-1c0-1.7-1.3-3-3-3h-2c-1.7,0-3,1.3-3,3v1H-413z"/>
	<line class="st0" x1="-447" y1="7" x2="-453" y2="7"/>
	<line class="st0" x1="-451" y1="11" x2="-453" y2="11"/>
	<line class="st0" x1="-451" y1="15" x2="-453" y2="15"/>
	<line class="st0" x1="-447" y1="19" x2="-453" y2="19"/>
	<polyline class="st0" points="-433,31 -433,9 -428,1 -423,9 -429,9 	"/>
	<polyline class="st0" points="-447,31 -453,31 -453,1 -437,1 -437,31 	"/>
	<line class="st0" x1="-451" y1="23" x2="-453" y2="23"/>
	<line class="st0" x1="-451" y1="27" x2="-453" y2="27"/>
	<line class="st0" x1="-423" y1="13" x2="-423" y2="31"/>
	<line class="st0" x1="-428" y1="31" x2="-428" y2="13"/>
</g>
<text transform="matrix(1 0 0 1 -467 94)" style="font-family:'Roboto-Bold'; font-size:20px;">Design</text>
<text transform="matrix(1 0 0 1 -581 94)" style="font-family:'Roboto-Bold'; font-size:20px;">Start</text>
<g>
	<text transform="matrix(1 0 0 1 -819 38)" style="font-family:'Roboto-Light'; font-size:20px;">Web Development</text>
</g>
<g>
	<path class="st0" d="M-546,6v5c0,2.2,1.8,4,4,4h10v40c0,2.2-1.8,4-4,4h-42c-2.2,0-4-1.8-4-4V5c0-2.2,1.8-4,4-4"/>
	<circle class="st0" cx="-569" cy="12" r="7"/>
	<circle class="st0" cx="-569" cy="30" r="7"/>
	<line class="st0" x1="-574" y1="39" x2="-574" y2="35"/>
	<polyline class="st0" points="-574,7 -574,1 -546,1 -536,11 	"/>
	<path class="st0" d="M-574,17c0,0-2,1-2,4s2,4,2,4"/>
	<path class="st0" d="M-566.3,10.7c-0.3-0.6-0.8-1.1-1.4-1.4"/>
	<path class="st0" d="M-566.3,28.7c-0.3-0.6-0.8-1.1-1.4-1.4"/>
	<line class="st0" x1="-554" y1="25" x2="-558" y2="25"/>
	<line class="st0" x1="-550" y1="25" x2="-542" y2="25"/>
	<line class="st0" x1="-557" y1="31" x2="-552" y2="31"/>
	<line class="st0" x1="-548" y1="31" x2="-544" y2="31"/>
	<line class="st0" x1="-572" y1="43" x2="-566" y2="43"/>
	<line class="st0" x1="-548" y1="43" x2="-542" y2="43"/>
	<line class="st0" x1="-562" y1="43" x2="-552" y2="43"/>
	<line class="st0" x1="-559" y1="37" x2="-544" y2="37"/>
	<line class="st0" x1="-572" y1="49" x2="-560" y2="49"/>
	<line class="st0" x1="-556" y1="49" x2="-546" y2="49"/>
</g>
<text transform="matrix(1 0 0 1 -581 227)" style="font-family:'Roboto-Bold'; font-size:20px;">Start</text>
<g>
	<path class="st0" d="M-546,139v5c0,2.2,1.8,4,4,4h10v40c0,2.2-1.8,4-4,4h-42c-2.2,0-4-1.8-4-4v-50c0-2.2,1.8-4,4-4"/>
	<circle class="st0" cx="-569" cy="145" r="7"/>
	<circle class="st0" cx="-569" cy="163" r="7"/>
	<line class="st0" x1="-574" y1="172" x2="-574" y2="168"/>
	<polyline class="st0" points="-574,140 -574,134 -546,134 -536,144 	"/>
	<path class="st0" d="M-574,150c0,0-2,1-2,4s2,4,2,4"/>
	<path class="st0" d="M-566.3,143.7c-0.3-0.6-0.8-1.1-1.4-1.4"/>
	<path class="st0" d="M-566.3,161.7c-0.3-0.6-0.8-1.1-1.4-1.4"/>
	<line class="st0" x1="-554" y1="158" x2="-558" y2="158"/>
	<line class="st0" x1="-550" y1="158" x2="-542" y2="158"/>
	<line class="st0" x1="-557" y1="164" x2="-552" y2="164"/>
	<line class="st0" x1="-548" y1="164" x2="-544" y2="164"/>
	<line class="st0" x1="-572" y1="176" x2="-566" y2="176"/>
	<line class="st0" x1="-548" y1="176" x2="-542" y2="176"/>
	<line class="st0" x1="-562" y1="176" x2="-552" y2="176"/>
	<line class="st0" x1="-559" y1="170" x2="-544" y2="170"/>
	<line class="st0" x1="-572" y1="182" x2="-560" y2="182"/>
	<line class="st0" x1="-556" y1="182" x2="-546" y2="182"/>
</g>
<text transform="matrix(1 0 0 1 -227 94)" style="font-family:'Roboto-Bold'; font-size:20px;">Back-end</text>
<text transform="matrix(1 0 0 1 -351 94)" style="font-family:'Roboto-Bold'; font-size:20px;">Front-end</text>
<text transform="matrix(1 0 0 1 -112 94)" style="font-family:'Roboto-Bold'; font-size:20px;">QA </text>
<text transform="matrix(1 0 0 1 4 94)" style="font-family:'Roboto-Bold'; font-size:20px;">Finish </text>
<g>
	<path class="st0" d="M-312,59h-37c-2.3,0-4-1.8-4-4V15"/>
	<path class="st0" d="M-345,6c0,0.6-0.4,1-1,1l0,0c-0.6,0-1-0.4-1-1l0,0c0-0.6,0.4-1,1-1l0,0C-345.4,5-345,5.4-345,6L-345,6z"/>
	<path class="st0" d="M-339,6c0,0.6-0.4,1-1,1l0,0c-0.6,0-1-0.4-1-1l0,0c0-0.6,0.4-1,1-1l0,0C-339.4,5-339,5.4-339,6L-339,6z"/>
	<path class="st0" d="M-333,6c0,0.6-0.4,1-1,1l0,0c-0.6,0-1-0.4-1-1l0,0c0-0.6,0.4-1,1-1l0,0C-333.4,5-333,5.4-333,6L-333,6z"/>
	<line class="st0" x1="-347" y1="17" x2="-339" y2="17"/>
	<line class="st0" x1="-313" y1="17" x2="-309" y2="17"/>
	<line class="st0" x1="-305" y1="17" x2="-301" y2="17"/>
	<line class="st0" x1="-321" y1="17" x2="-317" y2="17"/>
	<path class="st0" d="M-312,59h13c2.3,0,4-1.8,4-4V5c0-2.2-1.8-4-4-4h-50c-2.2,0-4,1.8-4,4v6h54"/>
	<g>
		<path d="M-345.3,37.9l11.3-5.5v2.1l-9,4.2v0l9,4.2V45l-11.3-5.5V37.9z"/>
		<path d="M-327.5,46l5.8-17.3h2l-5.8,17.3H-327.5z"/>
		<path d="M-302,39.6l-11.3,5.4v-2.1l9.1-4.2v0l-9.1-4.2v-2.1l11.3,5.4V39.6z"/>
	</g>
</g>
<g>
	<path class="st0" d="M-65,49l2.8-2.8l7,7c1.6,1.6,1.6,4.1,0,5.7c-1.6,1.6-4.1,1.6-5.7,0L-72.7,47"/>
	<line class="st0" x1="-64.9" y1="43.4" x2="-67" y2="41.3"/>
	<circle class="st0" cx="-89" cy="25" r="23"/>
	<circle class="st0" cx="-89" cy="25" r="19"/>
	<line class="st0" x1="-96" y1="16" x2="-84" y2="16"/>
	<line class="st0" x1="-100" y1="22" x2="-86" y2="22"/>
	<line class="st0" x1="-100" y1="28" x2="-94" y2="28"/>
	<line class="st0" x1="-98" y1="34" x2="-90" y2="34"/>
	<line class="st0" x1="-82" y1="34" x2="-86" y2="34"/>
	<line class="st0" x1="-78" y1="22" x2="-82" y2="22"/>
	<line class="st0" x1="-78" y1="28" x2="-90" y2="28"/>
</g>
<g>
	<path class="st0" d="M-218,6c0,0.6-0.4,1-1,1l0,0c-0.6,0-1-0.4-1-1l0,0c0-0.6,0.4-1,1-1l0,0C-218.4,5-218,5.4-218,6L-218,6z"/>
	<path class="st0" d="M-212,6c0,0.6-0.4,1-1,1l0,0c-0.6,0-1-0.4-1-1l0,0c0-0.6,0.4-1,1-1l0,0C-212.4,5-212,5.4-212,6L-212,6z"/>
	<path class="st0" d="M-206,6c0,0.6-0.4,1-1,1l0,0c-0.6,0-1-0.4-1-1l0,0c0-0.6,0.4-1,1-1l0,0C-206.4,5-206,5.4-206,6L-206,6z"/>
	<line class="st0" x1="-218" y1="19" x2="-216" y2="19"/>
	<line class="st0" x1="-218" y1="23" x2="-216" y2="23"/>
	<line class="st0" x1="-218" y1="27" x2="-216" y2="27"/>
	<line class="st0" x1="-218" y1="31" x2="-216" y2="31"/>
	<line class="st0" x1="-218" y1="35" x2="-216" y2="35"/>
	<line class="st0" x1="-218" y1="39" x2="-216" y2="39"/>
	<line class="st0" x1="-218" y1="43" x2="-216" y2="43"/>
	<line class="st0" x1="-218" y1="47" x2="-216" y2="47"/>
	<line class="st0" x1="-218" y1="51" x2="-216" y2="51"/>
	<line class="st0" x1="-184" y1="19" x2="-188" y2="19"/>
	<line class="st0" x1="-182" y1="23" x2="-192" y2="23"/>
	<line class="st0" x1="-196" y1="23" x2="-212" y2="23"/>
	<line class="st0" x1="-202" y1="19" x2="-212" y2="19"/>
	<line class="st0" x1="-192" y1="19" x2="-198" y2="19"/>
	<line class="st0" x1="-178" y1="27" x2="-194" y2="27"/>
	<line class="st0" x1="-184" y1="31" x2="-192" y2="31"/>
	<line class="st0" x1="-196" y1="31" x2="-212" y2="31"/>
	<line class="st0" x1="-208" y1="27" x2="-212" y2="27"/>
	<line class="st0" x1="-198" y1="27" x2="-204" y2="27"/>
	<line class="st0" x1="-191" y1="43" x2="-194" y2="43"/>
	<line class="st0" x1="-208" y1="43" x2="-212" y2="43"/>
	<line class="st0" x1="-198" y1="43" x2="-204" y2="43"/>
	<line class="st0" x1="-200" y1="47" x2="-212" y2="47"/>
	<line class="st0" x1="-194" y1="47" x2="-196" y2="47"/>
	<line class="st0" x1="-206" y1="51" x2="-212" y2="51"/>
	<line class="st0" x1="-192" y1="51" x2="-202" y2="51"/>
	<line class="st0" x1="-182" y1="35" x2="-198" y2="35"/>
	<line class="st0" x1="-189" y1="39" x2="-196" y2="39"/>
	<line class="st0" x1="-200" y1="39" x2="-212" y2="39"/>
	<line class="st0" x1="-202" y1="35" x2="-212" y2="35"/>
	<path class="st0" d="M-168,51v-4h-2.3c-0.2-0.7-0.5-1.4-0.9-2.1l1.6-1.6l-2.8-2.8l-1.6,1.6c-0.6-0.4-1.3-0.7-2.1-0.9V39h-4v2.3
		c-0.7,0.2-1.4,0.5-2.1,0.9l-1.6-1.6l-2.8,2.8l1.6,1.6c-0.4,0.6-0.7,1.3-0.9,2.1h-2.3v4h2.3c0.2,0.7,0.5,1.4,0.9,2.1l-1.6,1.6
		l2.8,2.8l1.6-1.6c0.6,0.4,1.3,0.7,2.1,0.9V59h4v-2.3c0.7-0.2,1.4-0.5,2.1-0.9l1.6,1.6l2.8-2.8l-1.6-1.6c0.4-0.6,0.7-1.3,0.9-2.1
		H-168z"/>
	<circle class="st0" cx="-178" cy="49" r="2"/>
	<path class="st0" d="M-188,59h-34c-2.2,0-4-1.8-4-4V15"/>
	<path class="st0" d="M-172,11h-54V5c0-2.2,1.8-4,4-4h50c2.2,0,4,1.8,4,4v34"/>
</g>
<g>
	<path class="st0" d="M39,57c0,1.1-0.9,2-2,2H3c-1.1,0-2-0.9-2-2V39c0-1.1,0.9-2,2-2h34c1.1,0,2,0.9,2,2V57z"/>
	<path class="st0" d="M59,37V3c0-1.1-0.9-2-2-2H19c-1.1,0-2,0.9-2,2v30"/>
	<circle class="st0" cx="28" cy="12" r="3"/>
	<circle class="st0" cx="10" cy="46" r="3"/>
	<line class="st0" x1="41" y1="9" x2="49" y2="9"/>
	<line class="st0" x1="41" y1="13" x2="51" y2="13"/>
	<line class="st0" x1="25" y1="23" x2="33" y2="23"/>
	<line class="st0" x1="25" y1="29" x2="39" y2="29"/>
	<line class="st0" x1="25" y1="33" x2="33" y2="33"/>
	<line class="st0" x1="43" y1="29" x2="51" y2="29"/>
	<line class="st0" x1="37" y1="33" x2="49" y2="33"/>
	<line class="st0" x1="19" y1="43" x2="25" y2="43"/>
	<line class="st0" x1="19" y1="47" x2="27" y2="47"/>
	<line class="st0" x1="19" y1="53" x2="33" y2="53"/>
	<path class="st0" d="M62,41c1.1,0,2,0.9,2,2v14c0,1.1-0.9,2-2,2h-6c-1.1,0-2-0.9-2-2V43c0-1.1,0.9-2,2-2H62z"/>
	<line class="st0" x1="50.8" y1="59" x2="43" y2="59"/>
	<line class="st0" x1="51" y1="37" x2="43" y2="37"/>
	<line class="st0" x1="50" y1="41" x2="43" y2="41"/>
	<line class="st0" x1="50" y1="45" x2="43" y2="45"/>
	<circle class="st0" cx="59" cy="50" r="1"/>
</g>
<text transform="matrix(1 0 0 1 -349 226)" style="font-family:'Roboto-Bold'; font-size:20px;">Prototyping</text>
<text transform="matrix(1 0 0 1 -463 226)" style="font-family:'Roboto-Bold'; font-size:20px;">Concept</text>
<g>
	<text transform="matrix(1 0 0 1 -819 171)" style="font-family:'Roboto-Light'; font-size:20px;">Web Design</text>
</g>
<text transform="matrix(1 0 0 1 -109 226)" style="font-family:'Roboto-Bold'; font-size:20px;">Testing</text>
<text transform="matrix(1 0 0 1 11 226)" style="font-family:'Roboto-Bold'; font-size:20px;">Finish </text>
<g>
	<path class="st0" d="M46,189c0,1.1-0.9,2-2,2H10c-1.1,0-2-0.9-2-2v-18c0-1.1,0.9-2,2-2h34c1.1,0,2,0.9,2,2V189z"/>
	<path class="st0" d="M66,169v-34c0-1.1-0.9-2-2-2H26c-1.1,0-2,0.9-2,2v30"/>
	<circle class="st0" cx="35" cy="144" r="3"/>
	<circle class="st0" cx="17" cy="178" r="3"/>
	<line class="st0" x1="48" y1="141" x2="56" y2="141"/>
	<line class="st0" x1="48" y1="145" x2="58" y2="145"/>
	<line class="st0" x1="32" y1="155" x2="40" y2="155"/>
	<line class="st0" x1="32" y1="161" x2="46" y2="161"/>
	<line class="st0" x1="32" y1="165" x2="40" y2="165"/>
	<line class="st0" x1="50" y1="161" x2="58" y2="161"/>
	<line class="st0" x1="44" y1="165" x2="56" y2="165"/>
	<line class="st0" x1="26" y1="175" x2="32" y2="175"/>
	<line class="st0" x1="26" y1="179" x2="34" y2="179"/>
	<line class="st0" x1="26" y1="185" x2="40" y2="185"/>
	<path class="st0" d="M69,173c1.1,0,2,0.9,2,2v14c0,1.1-0.9,2-2,2h-6c-1.1,0-2-0.9-2-2v-14c0-1.1,0.9-2,2-2H69z"/>
	<line class="st0" x1="57.8" y1="191" x2="50" y2="191"/>
	<line class="st0" x1="58" y1="169" x2="50" y2="169"/>
	<line class="st0" x1="57" y1="173" x2="50" y2="173"/>
	<line class="st0" x1="57" y1="177" x2="50" y2="177"/>
	<circle class="st0" cx="66" cy="182" r="1"/>
</g>
<g>
	<line class="st0" x1="-440" y1="191" x2="-440" y2="179"/>
	<path class="st0" d="M-444,189v-3c0,0,0-3-2-5s-5-2-5-2h-3v3c0,0,0,3,2,5s5,2,5,2H-444z"/>
	<path class="st0" d="M-436,189v-3c0,0,0-3,2-5s5-2,5-2h3v3c0,0,0,3-2,5s-5,2-5,2H-436z"/>
	<path class="st0" d="M-425,148c0-8.3-6.7-15-15-15c-8.3,0-15,6.7-15,15c0,6,6,10.7,7,15l1,4h14l1-4C-431,158.7-425,154-425,148z"/>
	<line class="st0" x1="-445" y1="171" x2="-435" y2="171"/>
	<line class="st0" x1="-443" y1="175" x2="-437" y2="175"/>
	<path class="st0" d="M-442,163l-3-14c0,0,3,2,5,2s5-2,5-2l-3,14"/>
	<path class="st0" d="M-433,139.5c-1.2-1-2.5-1.7-4-2.1c-0.6-0.2-1.2-0.3-1.8-0.3"/>
	<path class="st0" d="M-429.4,145c-0.2-0.7-0.5-1.4-0.8-2"/>
	<line class="st0" x1="-461" y1="148" x2="-465" y2="148"/>
	<line class="st0" x1="-415" y1="148" x2="-419" y2="148"/>
	<line class="st0" x1="-418.3" y1="135.5" x2="-421.8" y2="137.5"/>
	<line class="st0" x1="-418.3" y1="160.5" x2="-421.8" y2="158.5"/>
	<line class="st0" x1="-458.2" y1="137.5" x2="-461.7" y2="135.5"/>
	<line class="st0" x1="-458.2" y1="158.5" x2="-461.7" y2="160.5"/>
</g>
<g>
	<path class="st0" d="M-341,138c0,0.6-0.4,1-1,1l0,0c-0.6,0-1-0.4-1-1l0,0c0-0.6,0.4-1,1-1l0,0C-341.4,137-341,137.4-341,138
		L-341,138z"/>
	<path class="st0" d="M-335,138c0,0.6-0.4,1-1,1l0,0c-0.6,0-1-0.4-1-1l0,0c0-0.6,0.4-1,1-1l0,0C-335.4,137-335,137.4-335,138
		L-335,138z"/>
	<path class="st0" d="M-329,138c0,0.6-0.4,1-1,1l0,0c-0.6,0-1-0.4-1-1l0,0c0-0.6,0.4-1,1-1l0,0C-329.4,137-329,137.4-329,138
		L-329,138z"/>
	<path class="st0" d="M-297,186.9c2.7-2.7,2.7-7.2,0-9.9c-2.7-2.7-7.2-2.7-9.9,0c-4,4-4,13.9-4,13.9S-301,191-297,186.9z"/>
	<line class="st0" x1="-295" y1="171" x2="-299.5" y2="175.5"/>
	<line class="st0" x1="-291" y1="175" x2="-295.4" y2="179.4"/>
	<path class="st0" d="M-299.2,183c0.4-1.1,0.1-2.3-0.7-3.1"/>
	<rect x="-345" y="147" class="st0" width="10" height="16"/>
	<rect x="-331" y="147" class="st0" width="36" height="10"/>
	<polyline class="st0" points="-345,187 -345,167 -335,167 -335,187 	"/>
	<polyline class="st0" points="-301,171 -301,161 -295,161 -295,167 	"/>
	<polyline class="st0" points="-331,187 -331,161 -305,161 -305,171 	"/>
	<path class="st0" d="M-315,191h-30c-2.2,0-4-1.8-4-4v-40"/>
	<path class="st0" d="M-295,143h-54v-6c0-2.2,1.8-4,4-4h50c2.2,0,4,1.8,4,4v34"/>
</g>
<g>
	<circle class="st0" cx="-79" cy="172" r="1"/>
	<path class="st0" d="M-78,163l-7.6-12.2c-0.7-1.3-0.5-2.7,0.7-3.5c1.3-0.7,2.4-0.1,3.3,1.1l7.7,10.7c-0.7-1.3-0.3-2.9,1-3.6
		c1.3-0.7,2.9-0.3,3.6,1l0.7,1.1c-0.7-1.3-0.3-2.9,1-3.6c1.3-0.7,2.9-0.3,3.6,1l1,1.7c-0.5-0.9-0.2-2.2,0.7-2.7
		c0.9-0.5,2.2-0.1,2.7,0.7c0,0,3.7,5.2,5.7,12.2h-54v6c0,2.3,1.8,4,4,4h50c2.3,0,4-1.7,4-4v-36c0-2.2-1.8-4-4-4h-50
		c-2.2,0-3.9,1.9-4,4v26"/>
	<line class="st0" x1="-84" y1="139" x2="-84" y2="143"/>
	<line class="st0" x1="-76.9" y1="141.9" x2="-79.8" y2="144.8"/>
	<line class="st0" x1="-91.1" y1="141.9" x2="-88.2" y2="144.8"/>
	<line class="st0" x1="-94" y1="149" x2="-90" y2="149"/>
	<line class="st0" x1="-91.1" y1="156.1" x2="-88.2" y2="153.2"/>
	<path class="st0" d="M-74,181v6h4c2,0,4,2,4,4h-26c0-2,2-4,4-4h10"/>
	<line class="st0" x1="-84" y1="187" x2="-84" y2="181"/>
</g>
</svg>
