<?xml version="1.0" encoding="utf-8"?>
<!-- Generator: Adobe Illustrator 21.0.2, SVG Export Plug-In . SVG Version: 6.00 Build 0)  -->
<svg version="1.1" id="Layer_1" xmlns="http://www.w3.org/2000/svg" xmlns:xlink="http://www.w3.org/1999/xlink" x="0px" y="0px"
	 viewBox="0 0 60 60" style="enable-background:new 0 0 60 60;" xml:space="preserve">
<style type="text/css">
	.st0{fill:none;stroke:#000000;stroke-width:2;stroke-linecap:round;stroke-linejoin:round;stroke-miterlimit:10;}
	.st1{fill:none;stroke:#000000;stroke-linecap:round;stroke-linejoin:round;stroke-miterlimit:10;}
</style>
<g>
	<path class="st0" d="M-100-138h-6c-2,0-4,2-4,4v26"/>
	<path class="st0" d="M-56-104h-54v6c0,2,2,4,4,4h50c2,0,4-2,4-4v-36c0-2-2-4-4-4h-10"/>
	<circle class="st0" cx="-81" cy="-99" r="1"/>
	<line class="st0" x1="-106" y1="-80" x2="-70" y2="-80"/>
	<line class="st0" x1="-96" y1="-82" x2="-96" y2="-80"/>
	<line class="st0" x1="-92" y1="-82" x2="-92" y2="-80"/>
	<line class="st0" x1="-88" y1="-82" x2="-88" y2="-80"/>
	<line class="st0" x1="-84" y1="-82" x2="-84" y2="-80"/>
	<line class="st0" x1="-86" y1="-90" x2="-86" y2="-86"/>
	<line class="st0" x1="-76" y1="-90" x2="-76" y2="-86"/>
	<line class="st0" x1="-76" y1="-82" x2="-76" y2="-80"/>
	<line class="st0" x1="-80" y1="-82" x2="-80" y2="-80"/>
	<line class="st0" x1="-72" y1="-82" x2="-72" y2="-80"/>
	<line class="st0" x1="-100" y1="-82" x2="-100" y2="-80"/>
	<line class="st0" x1="-104" y1="-82" x2="-104" y2="-80"/>
	<path class="st0" d="M-56-80v-1c0-1.7-1.3-3-3-3h-2c-1.7,0-3,1.3-3,3v1H-56z"/>
	<line class="st0" x1="-90" y1="-132" x2="-96" y2="-132"/>
	<line class="st0" x1="-94" y1="-128" x2="-96" y2="-128"/>
	<line class="st0" x1="-94" y1="-124" x2="-96" y2="-124"/>
	<line class="st0" x1="-90" y1="-120" x2="-96" y2="-120"/>
	<polyline class="st0" points="-76,-108 -76,-130 -71,-138 -66,-130 -72,-130 	"/>
	<polyline class="st0" points="-90,-108 -96,-108 -96,-138 -80,-138 -80,-108 	"/>
	<line class="st0" x1="-94" y1="-116" x2="-96" y2="-116"/>
	<line class="st0" x1="-94" y1="-112" x2="-96" y2="-112"/>
	<line class="st0" x1="-66" y1="-126" x2="-66" y2="-108"/>
	<line class="st0" x1="-71" y1="-108" x2="-71" y2="-126"/>
</g>
<g>
	<line class="st0" x1="10" y1="-93" x2="56" y2="-93"/>
	<line class="st0" x1="40" y1="-109" x2="40" y2="-93"/>
	<path class="st0" d="M24-122h38v38c0,2.2-1.8,4-4,4H8c-2.2,0-4-1.8-4-4v-46h10l6,8l-6,8H8"/>
	<line class="st0" x1="20" y1="-114" x2="62" y2="-114"/>
	<line class="st0" x1="30" y1="-122" x2="24" y2="-114"/>
	<line class="st0" x1="39" y1="-122" x2="33" y2="-114"/>
	<line class="st0" x1="48" y1="-122" x2="42" y2="-114"/>
	<line class="st0" x1="57" y1="-122" x2="51" y2="-114"/>
	<polyline class="st0" points="24,-123.8 61.4,-130 60.1,-138 18.3,-131.1 	"/>
	<line class="st0" x1="23.1" y1="-131.8" x2="28.6" y2="-124.6"/>
	<line class="st0" x1="32.5" y1="-133.3" x2="37.9" y2="-126.1"/>
	<line class="st0" x1="41.2" y1="-134.8" x2="46.5" y2="-127.6"/>
	<line class="st0" x1="50.5" y1="-136.3" x2="55.9" y2="-129.2"/>
</g>
<text transform="matrix(1 0 0 1 -110 -45)" style="font-family:'Roboto-Bold'; font-size:20px;">Design</text>
<g>
	<path class="st0" d="M150,133h-6c-2,0-4,2-4,4v26"/>
	<path class="st0" d="M194,167h-54v6c0,2,2,4,4,4h50c2,0,4-2,4-4v-36c0-2-2-4-4-4h-10"/>
	<circle class="st0" cx="169" cy="172" r="1"/>
	<line class="st0" x1="144" y1="191" x2="180" y2="191"/>
	<line class="st0" x1="154" y1="189" x2="154" y2="191"/>
	<line class="st0" x1="158" y1="189" x2="158" y2="191"/>
	<line class="st0" x1="162" y1="189" x2="162" y2="191"/>
	<line class="st0" x1="166" y1="189" x2="166" y2="191"/>
	<line class="st0" x1="164" y1="181" x2="164" y2="185"/>
	<line class="st0" x1="174" y1="181" x2="174" y2="185"/>
	<line class="st0" x1="174" y1="189" x2="174" y2="191"/>
	<line class="st0" x1="170" y1="189" x2="170" y2="191"/>
	<line class="st0" x1="178" y1="189" x2="178" y2="191"/>
	<line class="st0" x1="150" y1="189" x2="150" y2="191"/>
	<line class="st0" x1="146" y1="189" x2="146" y2="191"/>
	<path class="st0" d="M194,191v-1c0-1.7-1.3-3-3-3h-2c-1.7,0-3,1.3-3,3v1H194z"/>
	<line class="st0" x1="160" y1="139" x2="154" y2="139"/>
	<line class="st0" x1="156" y1="143" x2="154" y2="143"/>
	<line class="st0" x1="156" y1="147" x2="154" y2="147"/>
	<line class="st0" x1="160" y1="151" x2="154" y2="151"/>
	<polyline class="st0" points="174,163 174,141 179,133 184,141 178,141 	"/>
	<polyline class="st0" points="160,163 154,163 154,133 170,133 170,163 	"/>
	<line class="st0" x1="156" y1="155" x2="154" y2="155"/>
	<line class="st0" x1="156" y1="159" x2="154" y2="159"/>
	<line class="st0" x1="184" y1="145" x2="184" y2="163"/>
	<line class="st0" x1="179" y1="163" x2="179" y2="145"/>
</g>
<text transform="matrix(1 0 0 1 140 226)" style="font-family:'Roboto-Bold'; font-size:20px;">Design</text>
<text transform="matrix(1 0 0 1 -224 -45)" style="font-family:'Roboto-Bold'; font-size:20px;">Start</text>
<g>
	<text transform="matrix(1 0 0 1 -462 -101)" style="font-family:'Roboto-Light'; font-size:20px;">HTML5 Banners</text>
</g>
<g>
	<path class="st0" d="M-189-133v5c0,2.2,1.8,4,4,4h10v40c0,2.2-1.8,4-4,4h-42c-2.2,0-4-1.8-4-4v-50c0-2.2,1.8-4,4-4"/>
	<circle class="st0" cx="-212" cy="-127" r="7"/>
	<circle class="st0" cx="-212" cy="-109" r="7"/>
	<line class="st0" x1="-217" y1="-100" x2="-217" y2="-104"/>
	<polyline class="st0" points="-217,-132 -217,-138 -189,-138 -179,-128 	"/>
	<path class="st0" d="M-217-122c0,0-2,1-2,4s2,4,2,4"/>
	<path class="st0" d="M-209.3-128.3c-0.3-0.6-0.8-1.1-1.4-1.4"/>
	<path class="st0" d="M-209.3-110.3c-0.3-0.6-0.8-1.1-1.4-1.4"/>
	<line class="st0" x1="-197" y1="-114" x2="-201" y2="-114"/>
	<line class="st0" x1="-193" y1="-114" x2="-185" y2="-114"/>
	<line class="st0" x1="-200" y1="-108" x2="-195" y2="-108"/>
	<line class="st0" x1="-191" y1="-108" x2="-187" y2="-108"/>
	<line class="st0" x1="-215" y1="-96" x2="-209" y2="-96"/>
	<line class="st0" x1="-191" y1="-96" x2="-185" y2="-96"/>
	<line class="st0" x1="-205" y1="-96" x2="-195" y2="-96"/>
	<line class="st0" x1="-202" y1="-102" x2="-187" y2="-102"/>
	<line class="st0" x1="-215" y1="-90" x2="-203" y2="-90"/>
	<line class="st0" x1="-199" y1="-90" x2="-189" y2="-90"/>
</g>
<text transform="matrix(1 0 0 1 130 -45)" style="font-family:'Roboto-Bold'; font-size:20px;">Resize</text>
<text transform="matrix(1 0 0 1 6 -45)" style="font-family:'Roboto-Bold'; font-size:20px;">Animation</text>
<g>
	<path class="st0" d="M255-138h-6c-2,0-4,2-4,4v26"/>
	<path class="st0" d="M299-104h-54v6c0,2,2,4,4,4h50c2,0,4-2,4-4v-36c0-2-2-4-4-4h-10"/>
	<circle class="st0" cx="274" cy="-99" r="1"/>
	<line class="st0" x1="249" y1="-80" x2="285" y2="-80"/>
	<line class="st0" x1="259" y1="-82" x2="259" y2="-80"/>
	<line class="st0" x1="263" y1="-82" x2="263" y2="-80"/>
	<line class="st0" x1="267" y1="-82" x2="267" y2="-80"/>
	<line class="st0" x1="271" y1="-82" x2="271" y2="-80"/>
	<line class="st0" x1="269" y1="-90" x2="269" y2="-86"/>
	<line class="st0" x1="279" y1="-90" x2="279" y2="-86"/>
	<line class="st0" x1="279" y1="-82" x2="279" y2="-80"/>
	<line class="st0" x1="275" y1="-82" x2="275" y2="-80"/>
	<line class="st0" x1="283" y1="-82" x2="283" y2="-80"/>
	<line class="st0" x1="255" y1="-82" x2="255" y2="-80"/>
	<line class="st0" x1="251" y1="-82" x2="251" y2="-80"/>
	<path class="st0" d="M299-80v-1c0-1.7-1.3-3-3-3h-2c-1.7,0-3,1.3-3,3v1H299z"/>
	<line class="st0" x1="265" y1="-132" x2="259" y2="-132"/>
	<line class="st0" x1="261" y1="-128" x2="259" y2="-128"/>
	<line class="st0" x1="261" y1="-124" x2="259" y2="-124"/>
	<line class="st0" x1="265" y1="-120" x2="259" y2="-120"/>
	<polyline class="st0" points="279,-108 279,-130 284,-138 289,-130 283,-130 	"/>
	<polyline class="st0" points="265,-108 259,-108 259,-138 275,-138 275,-108 	"/>
	<line class="st0" x1="261" y1="-116" x2="259" y2="-116"/>
	<line class="st0" x1="261" y1="-112" x2="259" y2="-112"/>
	<line class="st0" x1="289" y1="-126" x2="289" y2="-108"/>
	<line class="st0" x1="284" y1="-108" x2="284" y2="-126"/>
</g>
<text transform="matrix(1 0 0 1 245 -45)" style="font-family:'Roboto-Bold'; font-size:20px;">Design</text>
<text transform="matrix(1 0 0 1 504 -45)" style="font-family:'Roboto-Bold'; font-size:20px;">Finish </text>
<text transform="matrix(1 0 0 1 361 -45)" style="font-family:'Roboto-Bold'; font-size:20px;">Optimization </text>
<g>
	<g>
		<polyline class="st0" points="160,-98.4 133,-98.4 142.3,-107.7 146.5,-103.4 154.1,-111 160,-105.1 		"/>
		<circle class="st0" cx="141" cy="-119.4" r="3.3"/>
		<line class="st0" x1="141" y1="-126" x2="141" y2="-122.7"/>
		<line class="st0" x1="135.4" y1="-122.7" x2="138.2" y2="-121.1"/>
		<line class="st0" x1="135.4" y1="-116.2" x2="138.2" y2="-117.8"/>
		<line class="st0" x1="141" y1="-112.9" x2="141" y2="-116.2"/>
		<line class="st0" x1="146.7" y1="-116.2" x2="143.9" y2="-117.8"/>
		<line class="st0" x1="146.7" y1="-122.7" x2="143.9" y2="-121.1"/>
	</g>
	<g>
		<polyline class="st0" points="191,-109 169.7,-109 177,-116.3 180.3,-113 186.3,-119 191,-114.3 		"/>
		<circle class="st0" cx="177.7" cy="-126.5" r="2.7"/>
		<line class="st0" x1="177.7" y1="-132" x2="177.7" y2="-129.3"/>
		<line class="st0" x1="172.9" y1="-129.2" x2="175.3" y2="-127.9"/>
		<line class="st0" x1="172.9" y1="-123.7" x2="175.3" y2="-125.1"/>
		<line class="st0" x1="177.7" y1="-121" x2="177.7" y2="-123.8"/>
		<line class="st0" x1="182.5" y1="-123.8" x2="180.1" y2="-125.1"/>
		<line class="st0" x1="182.5" y1="-129.3" x2="180.1" y2="-127.9"/>
	</g>
	<g>
		<polyline class="st0" points="189.8,-79.3 170.8,-79.3 177.4,-85.9 180.3,-82.9 185.7,-88.2 189.8,-84.1 		"/>
		<circle class="st1" cx="175" cy="-91.9" r="1.2"/>
		<line class="st1" x1="175" y1="-94.3" x2="175" y2="-93.1"/>
		<line class="st1" x1="173" y1="-93.1" x2="174" y2="-92.5"/>
		<line class="st1" x1="173" y1="-90.8" x2="174" y2="-91.3"/>
		<line class="st1" x1="175" y1="-89.6" x2="175" y2="-90.8"/>
		<line class="st1" x1="177" y1="-90.8" x2="176" y2="-91.3"/>
		<line class="st1" x1="177" y1="-93.1" x2="176" y2="-92.5"/>
	</g>
	<path class="st0" d="M189.6-101h-18.2c-2.4,0-4.4-2-4.4-4.4v-28.2c0-2.4,2-4.4,4.4-4.4h18.2c2.4,0,4.4,2,4.4,4.4v28.2
		C194-103,192-101,189.6-101z"/>
	<path class="st0" d="M158.6-79h-24.2c-2.4,0-4.4-2-4.4-4.4v-50.2c0-2.4,2-4.4,4.4-4.4h24.2c2.4,0,4.4,2,4.4,4.4v50.2
		C163-81,161-79,158.6-79z"/>
	<path class="st0" d="M189.6-79.3h-18.2c-2.4,0-4.4-2-4.4-4.4v-9.2c0-2.4,2-4.4,4.4-4.4h18.2c2.4,0,4.4,2,4.4,4.4v9.2
		C194-81.3,192-79.3,189.6-79.3z"/>
</g>
<g>
	<path class="st0" d="M415-114l-5.9-1.3c-0.5-1.7-1.2-3.3-2-4.9l3.2-5.1c0.4-0.6,0.4-1,0-1.4l-5.7-5.7c-0.4-0.4-0.8-0.3-1.4,0
		l-5.1,3.2c-1.5-0.9-3.2-1.5-4.9-2L392-137c-0.2-0.7-0.4-1-1-1h-8c-0.6,0-0.8,0.4-1,1l-1.3,5.9c-1.7,0.5-3.3,1.2-4.9,2l-5.1-3.2
		c-0.6-0.4-1-0.4-1.4,0l-5.7,5.7c-0.4,0.4-0.3,0.8,0,1.4l3.2,5.1c-0.9,1.5-1.5,3.2-2,4.9L359-114c-0.7,0.2-1,0.4-1,1v8
		c0,0.6,0.4,0.8,1,1l5.9,1.3c0.5,1.7,1.2,3.3,2,4.9l-3.2,5.1c-0.4,0.6-0.4,1,0,1.4l5.7,5.7c0.4,0.4,0.8,0.3,1.4,0l5.1-3.2
		c1.5,0.9,3.2,1.5,4.9,2L382-81c0.2,0.7,0.4,1,1,1l8,0c0.6,0,0.8-0.4,1-1l1.3-5.9c1.7-0.5,3.3-1.2,4.9-2l5.1,3.2
		c0.6,0.4,1,0.4,1.4,0l5.7-5.7c0.4-0.4,0.3-0.8,0-1.4l-3.2-5.1c0.8-1.5,1.5-3.2,2-4.9l5.9-1.3c0.7-0.2,1-0.4,1-1v-8
		C416-113.6,415.6-113.8,415-114z"/>
	<path class="st0" d="M391-96.6c5.2-1.7,9-6.6,9-12.4c0-7.2-5.8-13-13-13c-7.2,0-13,5.8-13,13s5.8,13,13,13"/>
	<circle class="st0" cx="387" cy="-109" r="3"/>
</g>
<g>
	<path class="st0" d="M540-133v5c0,2.2,1.8,4,4,4h10v40c0,2.2-1.8,4-4,4h-42c-2.2,0-4-1.8-4-4v-50c0-2.2,1.8-4,4-4h32l10,10"/>
	<circle class="st0" cx="529" cy="-103" r="13"/>
	<polygon class="st0" points="526,-107 526,-99 533,-103 	"/>
</g>
<g>
	<path class="st0" d="M-103,1h-6c-2,0-4,2-4,4v26"/>
	<path class="st0" d="M-59,35h-54v6c0,2,2,4,4,4h50c2,0,4-2,4-4V5c0-2-2-4-4-4h-10"/>
	<circle class="st0" cx="-84" cy="40" r="1"/>
	<line class="st0" x1="-109" y1="59" x2="-73" y2="59"/>
	<line class="st0" x1="-99" y1="57" x2="-99" y2="59"/>
	<line class="st0" x1="-95" y1="57" x2="-95" y2="59"/>
	<line class="st0" x1="-91" y1="57" x2="-91" y2="59"/>
	<line class="st0" x1="-87" y1="57" x2="-87" y2="59"/>
	<line class="st0" x1="-89" y1="49" x2="-89" y2="53"/>
	<line class="st0" x1="-79" y1="49" x2="-79" y2="53"/>
	<line class="st0" x1="-79" y1="57" x2="-79" y2="59"/>
	<line class="st0" x1="-83" y1="57" x2="-83" y2="59"/>
	<line class="st0" x1="-75" y1="57" x2="-75" y2="59"/>
	<line class="st0" x1="-103" y1="57" x2="-103" y2="59"/>
	<line class="st0" x1="-107" y1="57" x2="-107" y2="59"/>
	<path class="st0" d="M-59,59v-1c0-1.7-1.3-3-3-3h-2c-1.7,0-3,1.3-3,3v1H-59z"/>
	<line class="st0" x1="-93" y1="7" x2="-99" y2="7"/>
	<line class="st0" x1="-97" y1="11" x2="-99" y2="11"/>
	<line class="st0" x1="-97" y1="15" x2="-99" y2="15"/>
	<line class="st0" x1="-93" y1="19" x2="-99" y2="19"/>
	<polyline class="st0" points="-79,31 -79,9 -74,1 -69,9 -75,9 	"/>
	<polyline class="st0" points="-93,31 -99,31 -99,1 -83,1 -83,31 	"/>
	<line class="st0" x1="-97" y1="23" x2="-99" y2="23"/>
	<line class="st0" x1="-97" y1="27" x2="-99" y2="27"/>
	<line class="st0" x1="-69" y1="13" x2="-69" y2="31"/>
	<line class="st0" x1="-74" y1="31" x2="-74" y2="13"/>
</g>
<text transform="matrix(1 0 0 1 -113 94)" style="font-family:'Roboto-Bold'; font-size:20px;">Design</text>
<text transform="matrix(1 0 0 1 -227 94)" style="font-family:'Roboto-Bold'; font-size:20px;">Start</text>
<g>
	<text transform="matrix(1 0 0 1 -465 38)" style="font-family:'Roboto-Light'; font-size:20px;">Web Development</text>
</g>
<g>
	<path class="st0" d="M-192,6v5c0,2.2,1.8,4,4,4h10v40c0,2.2-1.8,4-4,4h-42c-2.2,0-4-1.8-4-4V5c0-2.2,1.8-4,4-4"/>
	<circle class="st0" cx="-215" cy="12" r="7"/>
	<circle class="st0" cx="-215" cy="30" r="7"/>
	<line class="st0" x1="-220" y1="39" x2="-220" y2="35"/>
	<polyline class="st0" points="-220,7 -220,1 -192,1 -182,11 	"/>
	<path class="st0" d="M-220,17c0,0-2,1-2,4s2,4,2,4"/>
	<path class="st0" d="M-212.3,10.7c-0.3-0.6-0.8-1.1-1.4-1.4"/>
	<path class="st0" d="M-212.3,28.7c-0.3-0.6-0.8-1.1-1.4-1.4"/>
	<line class="st0" x1="-200" y1="25" x2="-204" y2="25"/>
	<line class="st0" x1="-196" y1="25" x2="-188" y2="25"/>
	<line class="st0" x1="-203" y1="31" x2="-198" y2="31"/>
	<line class="st0" x1="-194" y1="31" x2="-190" y2="31"/>
	<line class="st0" x1="-218" y1="43" x2="-212" y2="43"/>
	<line class="st0" x1="-194" y1="43" x2="-188" y2="43"/>
	<line class="st0" x1="-208" y1="43" x2="-198" y2="43"/>
	<line class="st0" x1="-205" y1="37" x2="-190" y2="37"/>
	<line class="st0" x1="-218" y1="49" x2="-206" y2="49"/>
	<line class="st0" x1="-202" y1="49" x2="-192" y2="49"/>
</g>
<text transform="matrix(1 0 0 1 -227 227)" style="font-family:'Roboto-Bold'; font-size:20px;">Start</text>
<g>
	<path class="st0" d="M-192,139v5c0,2.2,1.8,4,4,4h10v40c0,2.2-1.8,4-4,4h-42c-2.2,0-4-1.8-4-4v-50c0-2.2,1.8-4,4-4"/>
	<circle class="st0" cx="-215" cy="145" r="7"/>
	<circle class="st0" cx="-215" cy="163" r="7"/>
	<line class="st0" x1="-220" y1="172" x2="-220" y2="168"/>
	<polyline class="st0" points="-220,140 -220,134 -192,134 -182,144 	"/>
	<path class="st0" d="M-220,150c0,0-2,1-2,4s2,4,2,4"/>
	<path class="st0" d="M-212.3,143.7c-0.3-0.6-0.8-1.1-1.4-1.4"/>
	<path class="st0" d="M-212.3,161.7c-0.3-0.6-0.8-1.1-1.4-1.4"/>
	<line class="st0" x1="-200" y1="158" x2="-204" y2="158"/>
	<line class="st0" x1="-196" y1="158" x2="-188" y2="158"/>
	<line class="st0" x1="-203" y1="164" x2="-198" y2="164"/>
	<line class="st0" x1="-194" y1="164" x2="-190" y2="164"/>
	<line class="st0" x1="-218" y1="176" x2="-212" y2="176"/>
	<line class="st0" x1="-194" y1="176" x2="-188" y2="176"/>
	<line class="st0" x1="-208" y1="176" x2="-198" y2="176"/>
	<line class="st0" x1="-205" y1="170" x2="-190" y2="170"/>
	<line class="st0" x1="-218" y1="182" x2="-206" y2="182"/>
	<line class="st0" x1="-202" y1="182" x2="-192" y2="182"/>
</g>
<text transform="matrix(1 0 0 1 127 94)" style="font-family:'Roboto-Bold'; font-size:20px;">Back-end</text>
<text transform="matrix(1 0 0 1 3 94)" style="font-family:'Roboto-Bold'; font-size:20px;">Front-end</text>
<text transform="matrix(1 0 0 1 242 94)" style="font-family:'Roboto-Bold'; font-size:20px;">QA </text>
<text transform="matrix(1 0 0 1 358 94)" style="font-family:'Roboto-Bold'; font-size:20px;">Finish </text>
<g>
	<path class="st0" d="M42,59H5c-2.3,0-4-1.8-4-4V15"/>
	<path class="st0" d="M9,6c0,0.6-0.4,1-1,1l0,0C7.4,7,7,6.6,7,6l0,0c0-0.6,0.4-1,1-1l0,0C8.6,5,9,5.4,9,6L9,6z"/>
	<path class="st0" d="M15,6c0,0.6-0.4,1-1,1l0,0c-0.6,0-1-0.4-1-1l0,0c0-0.6,0.4-1,1-1l0,0C14.6,5,15,5.4,15,6L15,6z"/>
	<path class="st0" d="M21,6c0,0.6-0.4,1-1,1l0,0c-0.6,0-1-0.4-1-1l0,0c0-0.6,0.4-1,1-1l0,0C20.6,5,21,5.4,21,6L21,6z"/>
	<line class="st0" x1="7" y1="17" x2="15" y2="17"/>
	<line class="st0" x1="41" y1="17" x2="45" y2="17"/>
	<line class="st0" x1="49" y1="17" x2="53" y2="17"/>
	<line class="st0" x1="33" y1="17" x2="37" y2="17"/>
	<path class="st0" d="M42,59h13c2.3,0,4-1.8,4-4V5c0-2.2-1.8-4-4-4H5C2.8,1,1,2.8,1,5v6h54"/>
	<g>
		<path d="M8.7,37.9l11.3-5.5v2.1l-9,4.2v0l9,4.2V45L8.7,39.6V37.9z"/>
		<path d="M26.5,46l5.8-17.3h2L28.6,46H26.5z"/>
		<path d="M52,39.6L40.7,45v-2.1l9.1-4.2v0l-9.1-4.2v-2.1L52,37.8V39.6z"/>
	</g>
</g>
<g>
	<path class="st0" d="M289,49l2.8-2.8l7,7c1.6,1.6,1.6,4.1,0,5.7c-1.6,1.6-4.1,1.6-5.7,0L281.3,47"/>
	<line class="st0" x1="289.1" y1="43.4" x2="287" y2="41.3"/>
	<circle class="st0" cx="265" cy="25" r="23"/>
	<circle class="st0" cx="265" cy="25" r="19"/>
	<line class="st0" x1="258" y1="16" x2="270" y2="16"/>
	<line class="st0" x1="254" y1="22" x2="268" y2="22"/>
	<line class="st0" x1="254" y1="28" x2="260" y2="28"/>
	<line class="st0" x1="256" y1="34" x2="264" y2="34"/>
	<line class="st0" x1="272" y1="34" x2="268" y2="34"/>
	<line class="st0" x1="276" y1="22" x2="272" y2="22"/>
	<line class="st0" x1="276" y1="28" x2="264" y2="28"/>
</g>
<g>
	<path class="st0" d="M136,6c0,0.6-0.4,1-1,1l0,0c-0.6,0-1-0.4-1-1l0,0c0-0.6,0.4-1,1-1l0,0C135.6,5,136,5.4,136,6L136,6z"/>
	<path class="st0" d="M142,6c0,0.6-0.4,1-1,1l0,0c-0.6,0-1-0.4-1-1l0,0c0-0.6,0.4-1,1-1l0,0C141.6,5,142,5.4,142,6L142,6z"/>
	<path class="st0" d="M148,6c0,0.6-0.4,1-1,1l0,0c-0.6,0-1-0.4-1-1l0,0c0-0.6,0.4-1,1-1l0,0C147.6,5,148,5.4,148,6L148,6z"/>
	<line class="st0" x1="136" y1="19" x2="138" y2="19"/>
	<line class="st0" x1="136" y1="23" x2="138" y2="23"/>
	<line class="st0" x1="136" y1="27" x2="138" y2="27"/>
	<line class="st0" x1="136" y1="31" x2="138" y2="31"/>
	<line class="st0" x1="136" y1="35" x2="138" y2="35"/>
	<line class="st0" x1="136" y1="39" x2="138" y2="39"/>
	<line class="st0" x1="136" y1="43" x2="138" y2="43"/>
	<line class="st0" x1="136" y1="47" x2="138" y2="47"/>
	<line class="st0" x1="136" y1="51" x2="138" y2="51"/>
	<line class="st0" x1="170" y1="19" x2="166" y2="19"/>
	<line class="st0" x1="172" y1="23" x2="162" y2="23"/>
	<line class="st0" x1="158" y1="23" x2="142" y2="23"/>
	<line class="st0" x1="152" y1="19" x2="142" y2="19"/>
	<line class="st0" x1="162" y1="19" x2="156" y2="19"/>
	<line class="st0" x1="176" y1="27" x2="160" y2="27"/>
	<line class="st0" x1="170" y1="31" x2="162" y2="31"/>
	<line class="st0" x1="158" y1="31" x2="142" y2="31"/>
	<line class="st0" x1="146" y1="27" x2="142" y2="27"/>
	<line class="st0" x1="156" y1="27" x2="150" y2="27"/>
	<line class="st0" x1="163" y1="43" x2="160" y2="43"/>
	<line class="st0" x1="146" y1="43" x2="142" y2="43"/>
	<line class="st0" x1="156" y1="43" x2="150" y2="43"/>
	<line class="st0" x1="154" y1="47" x2="142" y2="47"/>
	<line class="st0" x1="160" y1="47" x2="158" y2="47"/>
	<line class="st0" x1="148" y1="51" x2="142" y2="51"/>
	<line class="st0" x1="162" y1="51" x2="152" y2="51"/>
	<line class="st0" x1="172" y1="35" x2="156" y2="35"/>
	<line class="st0" x1="165" y1="39" x2="158" y2="39"/>
	<line class="st0" x1="154" y1="39" x2="142" y2="39"/>
	<line class="st0" x1="152" y1="35" x2="142" y2="35"/>
	<path class="st0" d="M186,51v-4h-2.3c-0.2-0.7-0.5-1.4-0.9-2.1l1.6-1.6l-2.8-2.8l-1.6,1.6c-0.6-0.4-1.3-0.7-2.1-0.9V39h-4v2.3
		c-0.7,0.2-1.4,0.5-2.1,0.9l-1.6-1.6l-2.8,2.8l1.6,1.6c-0.4,0.6-0.7,1.3-0.9,2.1H166v4h2.3c0.2,0.7,0.5,1.4,0.9,2.1l-1.6,1.6
		l2.8,2.8l1.6-1.6c0.6,0.4,1.3,0.7,2.1,0.9V59h4v-2.3c0.7-0.2,1.4-0.5,2.1-0.9l1.6,1.6l2.8-2.8l-1.6-1.6c0.4-0.6,0.7-1.3,0.9-2.1
		H186z"/>
	<circle class="st0" cx="176" cy="49" r="2"/>
	<path class="st0" d="M166,59h-34c-2.2,0-4-1.8-4-4V15"/>
	<path class="st0" d="M182,11h-54V5c0-2.2,1.8-4,4-4h50c2.2,0,4,1.8,4,4v34"/>
</g>
<g>
	<path class="st0" d="M393,57c0,1.1-0.9,2-2,2h-34c-1.1,0-2-0.9-2-2V39c0-1.1,0.9-2,2-2h34c1.1,0,2,0.9,2,2V57z"/>
	<path class="st0" d="M413,37V3c0-1.1-0.9-2-2-2h-38c-1.1,0-2,0.9-2,2v30"/>
	<circle class="st0" cx="382" cy="12" r="3"/>
	<circle class="st0" cx="364" cy="46" r="3"/>
	<line class="st0" x1="395" y1="9" x2="403" y2="9"/>
	<line class="st0" x1="395" y1="13" x2="405" y2="13"/>
	<line class="st0" x1="379" y1="23" x2="387" y2="23"/>
	<line class="st0" x1="379" y1="29" x2="393" y2="29"/>
	<line class="st0" x1="379" y1="33" x2="387" y2="33"/>
	<line class="st0" x1="397" y1="29" x2="405" y2="29"/>
	<line class="st0" x1="391" y1="33" x2="403" y2="33"/>
	<line class="st0" x1="373" y1="43" x2="379" y2="43"/>
	<line class="st0" x1="373" y1="47" x2="381" y2="47"/>
	<line class="st0" x1="373" y1="53" x2="387" y2="53"/>
	<path class="st0" d="M416,41c1.1,0,2,0.9,2,2v14c0,1.1-0.9,2-2,2h-6c-1.1,0-2-0.9-2-2V43c0-1.1,0.9-2,2-2H416z"/>
	<line class="st0" x1="404.8" y1="59" x2="397" y2="59"/>
	<line class="st0" x1="405" y1="37" x2="397" y2="37"/>
	<line class="st0" x1="404" y1="41" x2="397" y2="41"/>
	<line class="st0" x1="404" y1="45" x2="397" y2="45"/>
	<circle class="st0" cx="413" cy="50" r="1"/>
</g>
<text transform="matrix(1 0 0 1 5 226)" style="font-family:'Roboto-Bold'; font-size:20px;">Prototyping</text>
<text transform="matrix(1 0 0 1 -109 226)" style="font-family:'Roboto-Bold'; font-size:20px;">Concept</text>
<g>
	<text transform="matrix(1 0 0 1 -465 171)" style="font-family:'Roboto-Light'; font-size:20px;">Web Design</text>
</g>
<text transform="matrix(1 0 0 1 245 226)" style="font-family:'Roboto-Bold'; font-size:20px;">Testing</text>
<text transform="matrix(1 0 0 1 365 226)" style="font-family:'Roboto-Bold'; font-size:20px;">Finish </text>
<g>
	<path class="st0" d="M400,189c0,1.1-0.9,2-2,2h-34c-1.1,0-2-0.9-2-2v-18c0-1.1,0.9-2,2-2h34c1.1,0,2,0.9,2,2V189z"/>
	<path class="st0" d="M420,169v-34c0-1.1-0.9-2-2-2h-38c-1.1,0-2,0.9-2,2v30"/>
	<circle class="st0" cx="389" cy="144" r="3"/>
	<circle class="st0" cx="371" cy="178" r="3"/>
	<line class="st0" x1="402" y1="141" x2="410" y2="141"/>
	<line class="st0" x1="402" y1="145" x2="412" y2="145"/>
	<line class="st0" x1="386" y1="155" x2="394" y2="155"/>
	<line class="st0" x1="386" y1="161" x2="400" y2="161"/>
	<line class="st0" x1="386" y1="165" x2="394" y2="165"/>
	<line class="st0" x1="404" y1="161" x2="412" y2="161"/>
	<line class="st0" x1="398" y1="165" x2="410" y2="165"/>
	<line class="st0" x1="380" y1="175" x2="386" y2="175"/>
	<line class="st0" x1="380" y1="179" x2="388" y2="179"/>
	<line class="st0" x1="380" y1="185" x2="394" y2="185"/>
	<path class="st0" d="M423,173c1.1,0,2,0.9,2,2v14c0,1.1-0.9,2-2,2h-6c-1.1,0-2-0.9-2-2v-14c0-1.1,0.9-2,2-2H423z"/>
	<line class="st0" x1="411.8" y1="191" x2="404" y2="191"/>
	<line class="st0" x1="412" y1="169" x2="404" y2="169"/>
	<line class="st0" x1="411" y1="173" x2="404" y2="173"/>
	<line class="st0" x1="411" y1="177" x2="404" y2="177"/>
	<circle class="st0" cx="420" cy="182" r="1"/>
</g>
<g>
	<line class="st0" x1="-86" y1="191" x2="-86" y2="179"/>
	<path class="st0" d="M-90,189v-3c0,0,0-3-2-5s-5-2-5-2h-3v3c0,0,0,3,2,5s5,2,5,2H-90z"/>
	<path class="st0" d="M-82,189v-3c0,0,0-3,2-5s5-2,5-2h3v3c0,0,0,3-2,5s-5,2-5,2H-82z"/>
	<path class="st0" d="M-71,148c0-8.3-6.7-15-15-15s-15,6.7-15,15c0,6,6,10.7,7,15l1,4h14l1-4C-77,158.7-71,154-71,148z"/>
	<line class="st0" x1="-91" y1="171" x2="-81" y2="171"/>
	<line class="st0" x1="-89" y1="175" x2="-83" y2="175"/>
	<path class="st0" d="M-88,163l-3-14c0,0,3,2,5,2s5-2,5-2l-3,14"/>
	<path class="st0" d="M-79,139.5c-1.2-1-2.5-1.7-4-2.1c-0.6-0.2-1.2-0.3-1.8-0.3"/>
	<path class="st0" d="M-75.4,145c-0.2-0.7-0.5-1.4-0.8-2"/>
	<line class="st0" x1="-107" y1="148" x2="-111" y2="148"/>
	<line class="st0" x1="-61" y1="148" x2="-65" y2="148"/>
	<line class="st0" x1="-64.3" y1="135.5" x2="-67.8" y2="137.5"/>
	<line class="st0" x1="-64.3" y1="160.5" x2="-67.8" y2="158.5"/>
	<line class="st0" x1="-104.2" y1="137.5" x2="-107.7" y2="135.5"/>
	<line class="st0" x1="-104.2" y1="158.5" x2="-107.7" y2="160.5"/>
</g>
<g>
	<path class="st0" d="M13,138c0,0.6-0.4,1-1,1l0,0c-0.6,0-1-0.4-1-1l0,0c0-0.6,0.4-1,1-1l0,0C12.6,137,13,137.4,13,138L13,138z"/>
	<path class="st0" d="M19,138c0,0.6-0.4,1-1,1l0,0c-0.6,0-1-0.4-1-1l0,0c0-0.6,0.4-1,1-1l0,0C18.6,137,19,137.4,19,138L19,138z"/>
	<path class="st0" d="M25,138c0,0.6-0.4,1-1,1l0,0c-0.6,0-1-0.4-1-1l0,0c0-0.6,0.4-1,1-1l0,0C24.6,137,25,137.4,25,138L25,138z"/>
	<path class="st0" d="M57,186.9c2.7-2.7,2.7-7.2,0-9.9c-2.7-2.7-7.2-2.7-9.9,0c-4,4-4,13.9-4,13.9S53,191,57,186.9z"/>
	<line class="st0" x1="59" y1="171" x2="54.5" y2="175.5"/>
	<line class="st0" x1="63" y1="175" x2="58.6" y2="179.4"/>
	<path class="st0" d="M54.8,183c0.4-1.1,0.1-2.3-0.7-3.1"/>
	<rect x="9" y="147" class="st0" width="10" height="16"/>
	<rect x="23" y="147" class="st0" width="36" height="10"/>
	<polyline class="st0" points="9,187 9,167 19,167 19,187 	"/>
	<polyline class="st0" points="53,171 53,161 59,161 59,167 	"/>
	<polyline class="st0" points="23,187 23,161 49,161 49,171 	"/>
	<path class="st0" d="M39,191H9c-2.2,0-4-1.8-4-4v-40"/>
	<path class="st0" d="M59,143H5v-6c0-2.2,1.8-4,4-4h50c2.2,0,4,1.8,4,4v34"/>
</g>
<g>
	<circle class="st0" cx="275" cy="172" r="1"/>
	<path class="st0" d="M276,163l-7.6-12.2c-0.7-1.3-0.5-2.7,0.7-3.5c1.3-0.7,2.4-0.1,3.3,1.1l7.7,10.7c-0.7-1.3-0.3-2.9,1-3.6
		c1.3-0.7,2.9-0.3,3.6,1l0.7,1.1c-0.7-1.3-0.3-2.9,1-3.6c1.3-0.7,2.9-0.3,3.6,1l1,1.7c-0.5-0.9-0.2-2.2,0.7-2.7
		c0.9-0.5,2.2-0.1,2.7,0.7c0,0,3.7,5.2,5.7,12.2h-54v6c0,2.3,1.8,4,4,4h50c2.3,0,4-1.7,4-4v-36c0-2.2-1.8-4-4-4h-50
		c-2.2,0-3.9,1.9-4,4v26"/>
	<line class="st0" x1="270" y1="139" x2="270" y2="143"/>
	<line class="st0" x1="277.1" y1="141.9" x2="274.2" y2="144.8"/>
	<line class="st0" x1="262.9" y1="141.9" x2="265.8" y2="144.8"/>
	<line class="st0" x1="260" y1="149" x2="264" y2="149"/>
	<line class="st0" x1="262.9" y1="156.1" x2="265.8" y2="153.2"/>
	<path class="st0" d="M280,181v6h4c2,0,4,2,4,4h-26c0-2,2-4,4-4h10"/>
	<line class="st0" x1="270" y1="187" x2="270" y2="181"/>
</g>
</svg>
