<?xml version="1.0" encoding="utf-8"?>
<!-- Generator: Adobe Illustrator 21.0.2, SVG Export Plug-In . SVG Version: 6.00 Build 0)  -->
<svg version="1.1" id="Layer_1" xmlns="http://www.w3.org/2000/svg" xmlns:xlink="http://www.w3.org/1999/xlink" x="0px" y="0px"
	 viewBox="0 0 60 60" style="enable-background:new 0 0 60 60;" xml:space="preserve">
<style type="text/css">
	.st0{fill:none;stroke:#000000;stroke-width:2;stroke-linecap:round;stroke-linejoin:round;stroke-miterlimit:10;}
	.st1{fill:none;stroke:#000000;stroke-linecap:round;stroke-linejoin:round;stroke-miterlimit:10;}
</style>
<g>
	<path class="st0" d="M-341-139h-6c-2,0-4,2-4,4v26"/>
	<path class="st0" d="M-297-105h-54v6c0,2,2,4,4,4h50c2,0,4-2,4-4v-36c0-2-2-4-4-4h-10"/>
	<circle class="st0" cx="-322" cy="-100" r="1"/>
	<line class="st0" x1="-347" y1="-81" x2="-311" y2="-81"/>
	<line class="st0" x1="-337" y1="-83" x2="-337" y2="-81"/>
	<line class="st0" x1="-333" y1="-83" x2="-333" y2="-81"/>
	<line class="st0" x1="-329" y1="-83" x2="-329" y2="-81"/>
	<line class="st0" x1="-325" y1="-83" x2="-325" y2="-81"/>
	<line class="st0" x1="-327" y1="-91" x2="-327" y2="-87"/>
	<line class="st0" x1="-317" y1="-91" x2="-317" y2="-87"/>
	<line class="st0" x1="-317" y1="-83" x2="-317" y2="-81"/>
	<line class="st0" x1="-321" y1="-83" x2="-321" y2="-81"/>
	<line class="st0" x1="-313" y1="-83" x2="-313" y2="-81"/>
	<line class="st0" x1="-341" y1="-83" x2="-341" y2="-81"/>
	<line class="st0" x1="-345" y1="-83" x2="-345" y2="-81"/>
	<path class="st0" d="M-297-81v-1c0-1.7-1.3-3-3-3h-2c-1.7,0-3,1.3-3,3v1H-297z"/>
	<line class="st0" x1="-331" y1="-133" x2="-337" y2="-133"/>
	<line class="st0" x1="-335" y1="-129" x2="-337" y2="-129"/>
	<line class="st0" x1="-335" y1="-125" x2="-337" y2="-125"/>
	<line class="st0" x1="-331" y1="-121" x2="-337" y2="-121"/>
	<polyline class="st0" points="-317,-109 -317,-131 -312,-139 -307,-131 -313,-131 	"/>
	<polyline class="st0" points="-331,-109 -337,-109 -337,-139 -321,-139 -321,-109 	"/>
	<line class="st0" x1="-335" y1="-117" x2="-337" y2="-117"/>
	<line class="st0" x1="-335" y1="-113" x2="-337" y2="-113"/>
	<line class="st0" x1="-307" y1="-127" x2="-307" y2="-109"/>
	<line class="st0" x1="-312" y1="-109" x2="-312" y2="-127"/>
</g>
<g>
	<line class="st0" x1="-231" y1="-94" x2="-185" y2="-94"/>
	<line class="st0" x1="-201" y1="-110" x2="-201" y2="-94"/>
	<path class="st0" d="M-217-123h38v38c0,2.2-1.8,4-4,4h-50c-2.2,0-4-1.8-4-4v-46h10l6,8l-6,8h-6"/>
	<line class="st0" x1="-221" y1="-115" x2="-179" y2="-115"/>
	<line class="st0" x1="-211" y1="-123" x2="-217" y2="-115"/>
	<line class="st0" x1="-202" y1="-123" x2="-208" y2="-115"/>
	<line class="st0" x1="-193" y1="-123" x2="-199" y2="-115"/>
	<line class="st0" x1="-184" y1="-123" x2="-190" y2="-115"/>
	<polyline class="st0" points="-217,-124.8 -179.6,-131 -180.9,-139 -222.7,-132.1 	"/>
	<line class="st0" x1="-217.9" y1="-132.8" x2="-212.4" y2="-125.6"/>
	<line class="st0" x1="-208.5" y1="-134.3" x2="-203.1" y2="-127.1"/>
	<line class="st0" x1="-199.8" y1="-135.8" x2="-194.5" y2="-128.6"/>
	<line class="st0" x1="-190.5" y1="-137.3" x2="-185.1" y2="-130.2"/>
</g>
<text transform="matrix(1 0 0 1 -351 -46)" style="font-family:'Roboto-Bold'; font-size:20px;">Design</text>
<g>
	<path class="st0" d="M-91,132h-6c-2,0-4,2-4,4v26"/>
	<path class="st0" d="M-47,166h-54v6c0,2,2,4,4,4h50c2,0,4-2,4-4v-36c0-2-2-4-4-4h-10"/>
	<circle class="st0" cx="-72" cy="171" r="1"/>
	<line class="st0" x1="-97" y1="190" x2="-61" y2="190"/>
	<line class="st0" x1="-87" y1="188" x2="-87" y2="190"/>
	<line class="st0" x1="-83" y1="188" x2="-83" y2="190"/>
	<line class="st0" x1="-79" y1="188" x2="-79" y2="190"/>
	<line class="st0" x1="-75" y1="188" x2="-75" y2="190"/>
	<line class="st0" x1="-77" y1="180" x2="-77" y2="184"/>
	<line class="st0" x1="-67" y1="180" x2="-67" y2="184"/>
	<line class="st0" x1="-67" y1="188" x2="-67" y2="190"/>
	<line class="st0" x1="-71" y1="188" x2="-71" y2="190"/>
	<line class="st0" x1="-63" y1="188" x2="-63" y2="190"/>
	<line class="st0" x1="-91" y1="188" x2="-91" y2="190"/>
	<line class="st0" x1="-95" y1="188" x2="-95" y2="190"/>
	<path class="st0" d="M-47,190v-1c0-1.7-1.3-3-3-3h-2c-1.7,0-3,1.3-3,3v1H-47z"/>
	<line class="st0" x1="-81" y1="138" x2="-87" y2="138"/>
	<line class="st0" x1="-85" y1="142" x2="-87" y2="142"/>
	<line class="st0" x1="-85" y1="146" x2="-87" y2="146"/>
	<line class="st0" x1="-81" y1="150" x2="-87" y2="150"/>
	<polyline class="st0" points="-67,162 -67,140 -62,132 -57,140 -63,140 	"/>
	<polyline class="st0" points="-81,162 -87,162 -87,132 -71,132 -71,162 	"/>
	<line class="st0" x1="-85" y1="154" x2="-87" y2="154"/>
	<line class="st0" x1="-85" y1="158" x2="-87" y2="158"/>
	<line class="st0" x1="-57" y1="144" x2="-57" y2="162"/>
	<line class="st0" x1="-62" y1="162" x2="-62" y2="144"/>
</g>
<text transform="matrix(1 0 0 1 -101 225)" style="font-family:'Roboto-Bold'; font-size:20px;">Design</text>
<text transform="matrix(1 0 0 1 -465 -46)" style="font-family:'Roboto-Bold'; font-size:20px;">Start</text>
<g>
	<text transform="matrix(1 0 0 1 -703 -102)" style="font-family:'Roboto-Light'; font-size:20px;">HTML5 Banners</text>
</g>
<g>
	<path class="st0" d="M-430-134v5c0,2.2,1.8,4,4,4h10v40c0,2.2-1.8,4-4,4h-42c-2.2,0-4-1.8-4-4v-50c0-2.2,1.8-4,4-4"/>
	<circle class="st0" cx="-453" cy="-128" r="7"/>
	<circle class="st0" cx="-453" cy="-110" r="7"/>
	<line class="st0" x1="-458" y1="-101" x2="-458" y2="-105"/>
	<polyline class="st0" points="-458,-133 -458,-139 -430,-139 -420,-129 	"/>
	<path class="st0" d="M-458-123c0,0-2,1-2,4s2,4,2,4"/>
	<path class="st0" d="M-450.3-129.3c-0.3-0.6-0.8-1.1-1.4-1.4"/>
	<path class="st0" d="M-450.3-111.3c-0.3-0.6-0.8-1.1-1.4-1.4"/>
	<line class="st0" x1="-438" y1="-115" x2="-442" y2="-115"/>
	<line class="st0" x1="-434" y1="-115" x2="-426" y2="-115"/>
	<line class="st0" x1="-441" y1="-109" x2="-436" y2="-109"/>
	<line class="st0" x1="-432" y1="-109" x2="-428" y2="-109"/>
	<line class="st0" x1="-456" y1="-97" x2="-450" y2="-97"/>
	<line class="st0" x1="-432" y1="-97" x2="-426" y2="-97"/>
	<line class="st0" x1="-446" y1="-97" x2="-436" y2="-97"/>
	<line class="st0" x1="-443" y1="-103" x2="-428" y2="-103"/>
	<line class="st0" x1="-456" y1="-91" x2="-444" y2="-91"/>
	<line class="st0" x1="-440" y1="-91" x2="-430" y2="-91"/>
</g>
<text transform="matrix(1 0 0 1 -111 -46)" style="font-family:'Roboto-Bold'; font-size:20px;">Resize</text>
<text transform="matrix(1 0 0 1 -235 -46)" style="font-family:'Roboto-Bold'; font-size:20px;">Animation</text>
<g>
	<path class="st0" d="M14-139H8c-2,0-4,2-4,4v26"/>
	<path class="st0" d="M58-105H4v6c0,2,2,4,4,4h50c2,0,4-2,4-4v-36c0-2-2-4-4-4H48"/>
	<circle class="st0" cx="33" cy="-100" r="1"/>
	<line class="st0" x1="8" y1="-81" x2="44" y2="-81"/>
	<line class="st0" x1="18" y1="-83" x2="18" y2="-81"/>
	<line class="st0" x1="22" y1="-83" x2="22" y2="-81"/>
	<line class="st0" x1="26" y1="-83" x2="26" y2="-81"/>
	<line class="st0" x1="30" y1="-83" x2="30" y2="-81"/>
	<line class="st0" x1="28" y1="-91" x2="28" y2="-87"/>
	<line class="st0" x1="38" y1="-91" x2="38" y2="-87"/>
	<line class="st0" x1="38" y1="-83" x2="38" y2="-81"/>
	<line class="st0" x1="34" y1="-83" x2="34" y2="-81"/>
	<line class="st0" x1="42" y1="-83" x2="42" y2="-81"/>
	<line class="st0" x1="14" y1="-83" x2="14" y2="-81"/>
	<line class="st0" x1="10" y1="-83" x2="10" y2="-81"/>
	<path class="st0" d="M58-81v-1c0-1.7-1.3-3-3-3h-2c-1.7,0-3,1.3-3,3v1H58z"/>
	<line class="st0" x1="24" y1="-133" x2="18" y2="-133"/>
	<line class="st0" x1="20" y1="-129" x2="18" y2="-129"/>
	<line class="st0" x1="20" y1="-125" x2="18" y2="-125"/>
	<line class="st0" x1="24" y1="-121" x2="18" y2="-121"/>
	<polyline class="st0" points="38,-109 38,-131 43,-139 48,-131 42,-131 	"/>
	<polyline class="st0" points="24,-109 18,-109 18,-139 34,-139 34,-109 	"/>
	<line class="st0" x1="20" y1="-117" x2="18" y2="-117"/>
	<line class="st0" x1="20" y1="-113" x2="18" y2="-113"/>
	<line class="st0" x1="48" y1="-127" x2="48" y2="-109"/>
	<line class="st0" x1="43" y1="-109" x2="43" y2="-127"/>
</g>
<text transform="matrix(1 0 0 1 4 -46)" style="font-family:'Roboto-Bold'; font-size:20px;">Design</text>
<text transform="matrix(1 0 0 1 263 -46)" style="font-family:'Roboto-Bold'; font-size:20px;">Finish </text>
<text transform="matrix(1 0 0 1 120 -46)" style="font-family:'Roboto-Bold'; font-size:20px;">Optimization </text>
<g>
	<g>
		<polyline class="st0" points="-81,-99.4 -108,-99.4 -98.7,-108.7 -94.5,-104.4 -86.9,-112 -81,-106.1 		"/>
		<circle class="st0" cx="-100" cy="-120.4" r="3.3"/>
		<line class="st0" x1="-100" y1="-127" x2="-100" y2="-123.7"/>
		<line class="st0" x1="-105.6" y1="-123.7" x2="-102.8" y2="-122.1"/>
		<line class="st0" x1="-105.6" y1="-117.2" x2="-102.8" y2="-118.8"/>
		<line class="st0" x1="-100" y1="-113.9" x2="-100" y2="-117.2"/>
		<line class="st0" x1="-94.3" y1="-117.2" x2="-97.1" y2="-118.8"/>
		<line class="st0" x1="-94.3" y1="-123.7" x2="-97.1" y2="-122.1"/>
	</g>
	<g>
		<polyline class="st0" points="-50,-110 -71.3,-110 -64,-117.3 -60.7,-114 -54.7,-120 -50,-115.3 		"/>
		<circle class="st0" cx="-63.3" cy="-127.5" r="2.7"/>
		<line class="st0" x1="-63.3" y1="-133" x2="-63.3" y2="-130.3"/>
		<line class="st0" x1="-68.1" y1="-130.2" x2="-65.7" y2="-128.9"/>
		<line class="st0" x1="-68.1" y1="-124.7" x2="-65.7" y2="-126.1"/>
		<line class="st0" x1="-63.3" y1="-122" x2="-63.3" y2="-124.8"/>
		<line class="st0" x1="-58.5" y1="-124.8" x2="-60.9" y2="-126.1"/>
		<line class="st0" x1="-58.5" y1="-130.3" x2="-60.9" y2="-128.9"/>
	</g>
	<g>
		<polyline class="st0" points="-51.2,-80.3 -70.2,-80.3 -63.6,-86.9 -60.7,-83.9 -55.3,-89.2 -51.2,-85.1 		"/>
		<circle class="st1" cx="-66" cy="-92.9" r="1.2"/>
		<line class="st1" x1="-66" y1="-95.3" x2="-66" y2="-94.1"/>
		<line class="st1" x1="-68" y1="-94.1" x2="-67" y2="-93.5"/>
		<line class="st1" x1="-68" y1="-91.8" x2="-67" y2="-92.3"/>
		<line class="st1" x1="-66" y1="-90.6" x2="-66" y2="-91.8"/>
		<line class="st1" x1="-64" y1="-91.8" x2="-65" y2="-92.3"/>
		<line class="st1" x1="-64" y1="-94.1" x2="-65" y2="-93.5"/>
	</g>
	<path class="st0" d="M-51.4-102h-18.2c-2.4,0-4.4-2-4.4-4.4v-28.2c0-2.4,2-4.4,4.4-4.4h18.2c2.4,0,4.4,2,4.4,4.4v28.2
		C-47-104-49-102-51.4-102z"/>
	<path class="st0" d="M-82.4-80h-24.2c-2.4,0-4.4-2-4.4-4.4v-50.2c0-2.4,2-4.4,4.4-4.4h24.2c2.4,0,4.4,2,4.4,4.4v50.2
		C-78-82-80-80-82.4-80z"/>
	<path class="st0" d="M-51.4-80.3h-18.2c-2.4,0-4.4-2-4.4-4.4v-9.2c0-2.4,2-4.4,4.4-4.4h18.2c2.4,0,4.4,2,4.4,4.4v9.2
		C-47-82.3-49-80.3-51.4-80.3z"/>
</g>
<g>
	<path class="st0" d="M174-115l-5.9-1.3c-0.5-1.7-1.2-3.3-2-4.9l3.2-5.1c0.4-0.6,0.4-1,0-1.4l-5.7-5.7c-0.4-0.4-0.8-0.3-1.4,0
		l-5.1,3.2c-1.5-0.9-3.2-1.5-4.9-2L151-138c-0.2-0.7-0.4-1-1-1h-8c-0.6,0-0.8,0.4-1,1l-1.3,5.9c-1.7,0.5-3.3,1.2-4.9,2l-5.1-3.2
		c-0.6-0.4-1-0.4-1.4,0l-5.7,5.7c-0.4,0.4-0.3,0.8,0,1.4l3.2,5.1c-0.9,1.5-1.5,3.2-2,4.9L118-115c-0.7,0.2-1,0.4-1,1v8
		c0,0.6,0.4,0.8,1,1l5.9,1.3c0.5,1.7,1.2,3.3,2,4.9l-3.2,5.1c-0.4,0.6-0.4,1,0,1.4l5.7,5.7c0.4,0.4,0.8,0.3,1.4,0l5.1-3.2
		c1.5,0.9,3.2,1.5,4.9,2L141-82c0.2,0.7,0.4,1,1,1l8,0c0.6,0,0.8-0.4,1-1l1.3-5.9c1.7-0.5,3.3-1.2,4.9-2l5.1,3.2
		c0.6,0.4,1,0.4,1.4,0l5.7-5.7c0.4-0.4,0.3-0.8,0-1.4l-3.2-5.1c0.8-1.5,1.5-3.2,2-4.9l5.9-1.3c0.7-0.2,1-0.4,1-1v-8
		C175-114.6,174.6-114.8,174-115z"/>
	<path class="st0" d="M150-97.6c5.2-1.7,9-6.6,9-12.4c0-7.2-5.8-13-13-13s-13,5.8-13,13s5.8,13,13,13"/>
	<circle class="st0" cx="146" cy="-110" r="3"/>
</g>
<g>
	<path class="st0" d="M299-134v5c0,2.2,1.8,4,4,4h10v40c0,2.2-1.8,4-4,4h-42c-2.2,0-4-1.8-4-4v-50c0-2.2,1.8-4,4-4h32l10,10"/>
	<circle class="st0" cx="288" cy="-104" r="13"/>
	<polygon class="st0" points="285,-108 285,-100 292,-104 	"/>
</g>
<g>
	<path class="st0" d="M-344,0h-6c-2,0-4,2-4,4v26"/>
	<path class="st0" d="M-300,34h-54v6c0,2,2,4,4,4h50c2,0,4-2,4-4V4c0-2-2-4-4-4h-10"/>
	<circle class="st0" cx="-325" cy="39" r="1"/>
	<line class="st0" x1="-350" y1="58" x2="-314" y2="58"/>
	<line class="st0" x1="-340" y1="56" x2="-340" y2="58"/>
	<line class="st0" x1="-336" y1="56" x2="-336" y2="58"/>
	<line class="st0" x1="-332" y1="56" x2="-332" y2="58"/>
	<line class="st0" x1="-328" y1="56" x2="-328" y2="58"/>
	<line class="st0" x1="-330" y1="48" x2="-330" y2="52"/>
	<line class="st0" x1="-320" y1="48" x2="-320" y2="52"/>
	<line class="st0" x1="-320" y1="56" x2="-320" y2="58"/>
	<line class="st0" x1="-324" y1="56" x2="-324" y2="58"/>
	<line class="st0" x1="-316" y1="56" x2="-316" y2="58"/>
	<line class="st0" x1="-344" y1="56" x2="-344" y2="58"/>
	<line class="st0" x1="-348" y1="56" x2="-348" y2="58"/>
	<path class="st0" d="M-300,58v-1c0-1.7-1.3-3-3-3h-2c-1.7,0-3,1.3-3,3v1H-300z"/>
	<line class="st0" x1="-334" y1="6" x2="-340" y2="6"/>
	<line class="st0" x1="-338" y1="10" x2="-340" y2="10"/>
	<line class="st0" x1="-338" y1="14" x2="-340" y2="14"/>
	<line class="st0" x1="-334" y1="18" x2="-340" y2="18"/>
	<polyline class="st0" points="-320,30 -320,8 -315,0 -310,8 -316,8 	"/>
	<polyline class="st0" points="-334,30 -340,30 -340,0 -324,0 -324,30 	"/>
	<line class="st0" x1="-338" y1="22" x2="-340" y2="22"/>
	<line class="st0" x1="-338" y1="26" x2="-340" y2="26"/>
	<line class="st0" x1="-310" y1="12" x2="-310" y2="30"/>
	<line class="st0" x1="-315" y1="30" x2="-315" y2="12"/>
</g>
<text transform="matrix(1 0 0 1 -354 93)" style="font-family:'Roboto-Bold'; font-size:20px;">Design</text>
<text transform="matrix(1 0 0 1 -468 93)" style="font-family:'Roboto-Bold'; font-size:20px;">Start</text>
<g>
	<text transform="matrix(1 0 0 1 -706 37)" style="font-family:'Roboto-Light'; font-size:20px;">Web Development</text>
</g>
<g>
	<path class="st0" d="M-433,5v5c0,2.2,1.8,4,4,4h10v40c0,2.2-1.8,4-4,4h-42c-2.2,0-4-1.8-4-4V4c0-2.2,1.8-4,4-4"/>
	<circle class="st0" cx="-456" cy="11" r="7"/>
	<circle class="st0" cx="-456" cy="29" r="7"/>
	<line class="st0" x1="-461" y1="38" x2="-461" y2="34"/>
	<polyline class="st0" points="-461,6 -461,0 -433,0 -423,10 	"/>
	<path class="st0" d="M-461,16c0,0-2,1-2,4s2,4,2,4"/>
	<path class="st0" d="M-453.3,9.7c-0.3-0.6-0.8-1.1-1.4-1.4"/>
	<path class="st0" d="M-453.3,27.7c-0.3-0.6-0.8-1.1-1.4-1.4"/>
	<line class="st0" x1="-441" y1="24" x2="-445" y2="24"/>
	<line class="st0" x1="-437" y1="24" x2="-429" y2="24"/>
	<line class="st0" x1="-444" y1="30" x2="-439" y2="30"/>
	<line class="st0" x1="-435" y1="30" x2="-431" y2="30"/>
	<line class="st0" x1="-459" y1="42" x2="-453" y2="42"/>
	<line class="st0" x1="-435" y1="42" x2="-429" y2="42"/>
	<line class="st0" x1="-449" y1="42" x2="-439" y2="42"/>
	<line class="st0" x1="-446" y1="36" x2="-431" y2="36"/>
	<line class="st0" x1="-459" y1="48" x2="-447" y2="48"/>
	<line class="st0" x1="-443" y1="48" x2="-433" y2="48"/>
</g>
<text transform="matrix(1 0 0 1 -468 226)" style="font-family:'Roboto-Bold'; font-size:20px;">Start</text>
<g>
	<path class="st0" d="M-433,138v5c0,2.2,1.8,4,4,4h10v40c0,2.2-1.8,4-4,4h-42c-2.2,0-4-1.8-4-4v-50c0-2.2,1.8-4,4-4"/>
	<circle class="st0" cx="-456" cy="144" r="7"/>
	<circle class="st0" cx="-456" cy="162" r="7"/>
	<line class="st0" x1="-461" y1="171" x2="-461" y2="167"/>
	<polyline class="st0" points="-461,139 -461,133 -433,133 -423,143 	"/>
	<path class="st0" d="M-461,149c0,0-2,1-2,4s2,4,2,4"/>
	<path class="st0" d="M-453.3,142.7c-0.3-0.6-0.8-1.1-1.4-1.4"/>
	<path class="st0" d="M-453.3,160.7c-0.3-0.6-0.8-1.1-1.4-1.4"/>
	<line class="st0" x1="-441" y1="157" x2="-445" y2="157"/>
	<line class="st0" x1="-437" y1="157" x2="-429" y2="157"/>
	<line class="st0" x1="-444" y1="163" x2="-439" y2="163"/>
	<line class="st0" x1="-435" y1="163" x2="-431" y2="163"/>
	<line class="st0" x1="-459" y1="175" x2="-453" y2="175"/>
	<line class="st0" x1="-435" y1="175" x2="-429" y2="175"/>
	<line class="st0" x1="-449" y1="175" x2="-439" y2="175"/>
	<line class="st0" x1="-446" y1="169" x2="-431" y2="169"/>
	<line class="st0" x1="-459" y1="181" x2="-447" y2="181"/>
	<line class="st0" x1="-443" y1="181" x2="-433" y2="181"/>
</g>
<text transform="matrix(1 0 0 1 -114 93)" style="font-family:'Roboto-Bold'; font-size:20px;">Back-end</text>
<text transform="matrix(1 0 0 1 -238 93)" style="font-family:'Roboto-Bold'; font-size:20px;">Front-end</text>
<text transform="matrix(1 0 0 1 1 93)" style="font-family:'Roboto-Bold'; font-size:20px;">QA </text>
<text transform="matrix(1 0 0 1 117 93)" style="font-family:'Roboto-Bold'; font-size:20px;">Finish </text>
<g>
	<path class="st0" d="M-199,58h-37c-2.3,0-4-1.8-4-4V14"/>
	<path class="st0" d="M-232,5c0,0.6-0.4,1-1,1l0,0c-0.6,0-1-0.4-1-1l0,0c0-0.6,0.4-1,1-1l0,0C-232.4,4-232,4.4-232,5L-232,5z"/>
	<path class="st0" d="M-226,5c0,0.6-0.4,1-1,1l0,0c-0.6,0-1-0.4-1-1l0,0c0-0.6,0.4-1,1-1l0,0C-226.4,4-226,4.4-226,5L-226,5z"/>
	<path class="st0" d="M-220,5c0,0.6-0.4,1-1,1l0,0c-0.6,0-1-0.4-1-1l0,0c0-0.6,0.4-1,1-1l0,0C-220.4,4-220,4.4-220,5L-220,5z"/>
	<line class="st0" x1="-234" y1="16" x2="-226" y2="16"/>
	<line class="st0" x1="-200" y1="16" x2="-196" y2="16"/>
	<line class="st0" x1="-192" y1="16" x2="-188" y2="16"/>
	<line class="st0" x1="-208" y1="16" x2="-204" y2="16"/>
	<path class="st0" d="M-199,58h13c2.3,0,4-1.8,4-4V4c0-2.2-1.8-4-4-4h-50c-2.2,0-4,1.8-4,4v6h54"/>
	<g>
		<path d="M-232.3,36.9l11.3-5.5v2.1l-9,4.2v0l9,4.2V44l-11.3-5.5V36.9z"/>
		<path d="M-214.5,45l5.8-17.3h2l-5.8,17.3H-214.5z"/>
		<path d="M-189,38.6l-11.3,5.4v-2.1l9.1-4.2v0l-9.1-4.2v-2.1l11.3,5.4V38.6z"/>
	</g>
</g>
<g>
	<path class="st0" d="M48,48l2.8-2.8l7,7c1.6,1.6,1.6,4.1,0,5.7c-1.6,1.6-4.1,1.6-5.7,0L40.3,46"/>
	<line class="st0" x1="48.1" y1="42.4" x2="46" y2="40.3"/>
	<circle class="st0" cx="24" cy="24" r="23"/>
	<circle class="st0" cx="24" cy="24" r="19"/>
	<line class="st0" x1="17" y1="15" x2="29" y2="15"/>
	<line class="st0" x1="13" y1="21" x2="27" y2="21"/>
	<line class="st0" x1="13" y1="27" x2="19" y2="27"/>
	<line class="st0" x1="15" y1="33" x2="23" y2="33"/>
	<line class="st0" x1="31" y1="33" x2="27" y2="33"/>
	<line class="st0" x1="35" y1="21" x2="31" y2="21"/>
	<line class="st0" x1="35" y1="27" x2="23" y2="27"/>
</g>
<g>
	<path class="st0" d="M-105,5c0,0.6-0.4,1-1,1l0,0c-0.6,0-1-0.4-1-1l0,0c0-0.6,0.4-1,1-1l0,0C-105.4,4-105,4.4-105,5L-105,5z"/>
	<path class="st0" d="M-99,5c0,0.6-0.4,1-1,1l0,0c-0.6,0-1-0.4-1-1l0,0c0-0.6,0.4-1,1-1l0,0C-99.4,4-99,4.4-99,5L-99,5z"/>
	<path class="st0" d="M-93,5c0,0.6-0.4,1-1,1l0,0c-0.6,0-1-0.4-1-1l0,0c0-0.6,0.4-1,1-1l0,0C-93.4,4-93,4.4-93,5L-93,5z"/>
	<line class="st0" x1="-105" y1="18" x2="-103" y2="18"/>
	<line class="st0" x1="-105" y1="22" x2="-103" y2="22"/>
	<line class="st0" x1="-105" y1="26" x2="-103" y2="26"/>
	<line class="st0" x1="-105" y1="30" x2="-103" y2="30"/>
	<line class="st0" x1="-105" y1="34" x2="-103" y2="34"/>
	<line class="st0" x1="-105" y1="38" x2="-103" y2="38"/>
	<line class="st0" x1="-105" y1="42" x2="-103" y2="42"/>
	<line class="st0" x1="-105" y1="46" x2="-103" y2="46"/>
	<line class="st0" x1="-105" y1="50" x2="-103" y2="50"/>
	<line class="st0" x1="-71" y1="18" x2="-75" y2="18"/>
	<line class="st0" x1="-69" y1="22" x2="-79" y2="22"/>
	<line class="st0" x1="-83" y1="22" x2="-99" y2="22"/>
	<line class="st0" x1="-89" y1="18" x2="-99" y2="18"/>
	<line class="st0" x1="-79" y1="18" x2="-85" y2="18"/>
	<line class="st0" x1="-65" y1="26" x2="-81" y2="26"/>
	<line class="st0" x1="-71" y1="30" x2="-79" y2="30"/>
	<line class="st0" x1="-83" y1="30" x2="-99" y2="30"/>
	<line class="st0" x1="-95" y1="26" x2="-99" y2="26"/>
	<line class="st0" x1="-85" y1="26" x2="-91" y2="26"/>
	<line class="st0" x1="-78" y1="42" x2="-81" y2="42"/>
	<line class="st0" x1="-95" y1="42" x2="-99" y2="42"/>
	<line class="st0" x1="-85" y1="42" x2="-91" y2="42"/>
	<line class="st0" x1="-87" y1="46" x2="-99" y2="46"/>
	<line class="st0" x1="-81" y1="46" x2="-83" y2="46"/>
	<line class="st0" x1="-93" y1="50" x2="-99" y2="50"/>
	<line class="st0" x1="-79" y1="50" x2="-89" y2="50"/>
	<line class="st0" x1="-69" y1="34" x2="-85" y2="34"/>
	<line class="st0" x1="-76" y1="38" x2="-83" y2="38"/>
	<line class="st0" x1="-87" y1="38" x2="-99" y2="38"/>
	<line class="st0" x1="-89" y1="34" x2="-99" y2="34"/>
	<path class="st0" d="M-55,50v-4h-2.3c-0.2-0.7-0.5-1.4-0.9-2.1l1.6-1.6l-2.8-2.8l-1.6,1.6c-0.6-0.4-1.3-0.7-2.1-0.9V38h-4v2.3
		c-0.7,0.2-1.4,0.5-2.1,0.9l-1.6-1.6l-2.8,2.8l1.6,1.6c-0.4,0.6-0.7,1.3-0.9,2.1H-75v4h2.3c0.2,0.7,0.5,1.4,0.9,2.1l-1.6,1.6
		l2.8,2.8l1.6-1.6c0.6,0.4,1.3,0.7,2.1,0.9V58h4v-2.3c0.7-0.2,1.4-0.5,2.1-0.9l1.6,1.6l2.8-2.8l-1.6-1.6c0.4-0.6,0.7-1.3,0.9-2.1
		H-55z"/>
	<circle class="st0" cx="-65" cy="48" r="2"/>
	<path class="st0" d="M-75,58h-34c-2.2,0-4-1.8-4-4V14"/>
	<path class="st0" d="M-59,10h-54V4c0-2.2,1.8-4,4-4h50c2.2,0,4,1.8,4,4v34"/>
</g>
<g>
	<path class="st0" d="M152,56c0,1.1-0.9,2-2,2h-34c-1.1,0-2-0.9-2-2V38c0-1.1,0.9-2,2-2h34c1.1,0,2,0.9,2,2V56z"/>
	<path class="st0" d="M172,36V2c0-1.1-0.9-2-2-2h-38c-1.1,0-2,0.9-2,2v30"/>
	<circle class="st0" cx="141" cy="11" r="3"/>
	<circle class="st0" cx="123" cy="45" r="3"/>
	<line class="st0" x1="154" y1="8" x2="162" y2="8"/>
	<line class="st0" x1="154" y1="12" x2="164" y2="12"/>
	<line class="st0" x1="138" y1="22" x2="146" y2="22"/>
	<line class="st0" x1="138" y1="28" x2="152" y2="28"/>
	<line class="st0" x1="138" y1="32" x2="146" y2="32"/>
	<line class="st0" x1="156" y1="28" x2="164" y2="28"/>
	<line class="st0" x1="150" y1="32" x2="162" y2="32"/>
	<line class="st0" x1="132" y1="42" x2="138" y2="42"/>
	<line class="st0" x1="132" y1="46" x2="140" y2="46"/>
	<line class="st0" x1="132" y1="52" x2="146" y2="52"/>
	<path class="st0" d="M175,40c1.1,0,2,0.9,2,2v14c0,1.1-0.9,2-2,2h-6c-1.1,0-2-0.9-2-2V42c0-1.1,0.9-2,2-2H175z"/>
	<line class="st0" x1="163.8" y1="58" x2="156" y2="58"/>
	<line class="st0" x1="164" y1="36" x2="156" y2="36"/>
	<line class="st0" x1="163" y1="40" x2="156" y2="40"/>
	<line class="st0" x1="163" y1="44" x2="156" y2="44"/>
	<circle class="st0" cx="172" cy="49" r="1"/>
</g>
<text transform="matrix(1 0 0 1 -236 225)" style="font-family:'Roboto-Bold'; font-size:20px;">Prototyping</text>
<text transform="matrix(1 0 0 1 -350 225)" style="font-family:'Roboto-Bold'; font-size:20px;">Concept</text>
<g>
	<text transform="matrix(1 0 0 1 -706 170)" style="font-family:'Roboto-Light'; font-size:20px;">Web Design</text>
</g>
<text transform="matrix(1 0 0 1 4 225)" style="font-family:'Roboto-Bold'; font-size:20px;">Testing</text>
<text transform="matrix(1 0 0 1 124 225)" style="font-family:'Roboto-Bold'; font-size:20px;">Finish </text>
<g>
	<path class="st0" d="M159,188c0,1.1-0.9,2-2,2h-34c-1.1,0-2-0.9-2-2v-18c0-1.1,0.9-2,2-2h34c1.1,0,2,0.9,2,2V188z"/>
	<path class="st0" d="M179,168v-34c0-1.1-0.9-2-2-2h-38c-1.1,0-2,0.9-2,2v30"/>
	<circle class="st0" cx="148" cy="143" r="3"/>
	<circle class="st0" cx="130" cy="177" r="3"/>
	<line class="st0" x1="161" y1="140" x2="169" y2="140"/>
	<line class="st0" x1="161" y1="144" x2="171" y2="144"/>
	<line class="st0" x1="145" y1="154" x2="153" y2="154"/>
	<line class="st0" x1="145" y1="160" x2="159" y2="160"/>
	<line class="st0" x1="145" y1="164" x2="153" y2="164"/>
	<line class="st0" x1="163" y1="160" x2="171" y2="160"/>
	<line class="st0" x1="157" y1="164" x2="169" y2="164"/>
	<line class="st0" x1="139" y1="174" x2="145" y2="174"/>
	<line class="st0" x1="139" y1="178" x2="147" y2="178"/>
	<line class="st0" x1="139" y1="184" x2="153" y2="184"/>
	<path class="st0" d="M182,172c1.1,0,2,0.9,2,2v14c0,1.1-0.9,2-2,2h-6c-1.1,0-2-0.9-2-2v-14c0-1.1,0.9-2,2-2H182z"/>
	<line class="st0" x1="170.8" y1="190" x2="163" y2="190"/>
	<line class="st0" x1="171" y1="168" x2="163" y2="168"/>
	<line class="st0" x1="170" y1="172" x2="163" y2="172"/>
	<line class="st0" x1="170" y1="176" x2="163" y2="176"/>
	<circle class="st0" cx="179" cy="181" r="1"/>
</g>
<g>
	<line class="st0" x1="-327" y1="190" x2="-327" y2="178"/>
	<path class="st0" d="M-331,188v-3c0,0,0-3-2-5s-5-2-5-2h-3v3c0,0,0,3,2,5s5,2,5,2H-331z"/>
	<path class="st0" d="M-323,188v-3c0,0,0-3,2-5s5-2,5-2h3v3c0,0,0,3-2,5s-5,2-5,2H-323z"/>
	<path class="st0" d="M-312,147c0-8.3-6.7-15-15-15c-8.3,0-15,6.7-15,15c0,6,6,10.7,7,15l1,4h14l1-4C-318,157.7-312,153-312,147z"/>
	<line class="st0" x1="-332" y1="170" x2="-322" y2="170"/>
	<line class="st0" x1="-330" y1="174" x2="-324" y2="174"/>
	<path class="st0" d="M-329,162l-3-14c0,0,3,2,5,2s5-2,5-2l-3,14"/>
	<path class="st0" d="M-320,138.5c-1.2-1-2.5-1.7-4-2.1c-0.6-0.2-1.2-0.3-1.8-0.3"/>
	<path class="st0" d="M-316.4,144c-0.2-0.7-0.5-1.4-0.8-2"/>
	<line class="st0" x1="-348" y1="147" x2="-352" y2="147"/>
	<line class="st0" x1="-302" y1="147" x2="-306" y2="147"/>
	<line class="st0" x1="-305.3" y1="134.5" x2="-308.8" y2="136.5"/>
	<line class="st0" x1="-305.3" y1="159.5" x2="-308.8" y2="157.5"/>
	<line class="st0" x1="-345.2" y1="136.5" x2="-348.7" y2="134.5"/>
	<line class="st0" x1="-345.2" y1="157.5" x2="-348.7" y2="159.5"/>
</g>
<g>
	<path class="st0" d="M-228,137c0,0.6-0.4,1-1,1l0,0c-0.6,0-1-0.4-1-1l0,0c0-0.6,0.4-1,1-1l0,0C-228.4,136-228,136.4-228,137
		L-228,137z"/>
	<path class="st0" d="M-222,137c0,0.6-0.4,1-1,1l0,0c-0.6,0-1-0.4-1-1l0,0c0-0.6,0.4-1,1-1l0,0C-222.4,136-222,136.4-222,137
		L-222,137z"/>
	<path class="st0" d="M-216,137c0,0.6-0.4,1-1,1l0,0c-0.6,0-1-0.4-1-1l0,0c0-0.6,0.4-1,1-1l0,0C-216.4,136-216,136.4-216,137
		L-216,137z"/>
	<path class="st0" d="M-184,185.9c2.7-2.7,2.7-7.2,0-9.9c-2.7-2.7-7.2-2.7-9.9,0c-4,4-4,13.9-4,13.9S-188,190-184,185.9z"/>
	<line class="st0" x1="-182" y1="170" x2="-186.5" y2="174.5"/>
	<line class="st0" x1="-178" y1="174" x2="-182.4" y2="178.4"/>
	<path class="st0" d="M-186.2,182c0.4-1.1,0.1-2.3-0.7-3.1"/>
	<rect x="-232" y="146" class="st0" width="10" height="16"/>
	<rect x="-218" y="146" class="st0" width="36" height="10"/>
	<polyline class="st0" points="-232,186 -232,166 -222,166 -222,186 	"/>
	<polyline class="st0" points="-188,170 -188,160 -182,160 -182,166 	"/>
	<polyline class="st0" points="-218,186 -218,160 -192,160 -192,170 	"/>
	<path class="st0" d="M-202,190h-30c-2.2,0-4-1.8-4-4v-40"/>
	<path class="st0" d="M-182,142h-54v-6c0-2.2,1.8-4,4-4h50c2.2,0,4,1.8,4,4v34"/>
</g>
<g>
	<circle class="st0" cx="34" cy="171" r="1"/>
	<path class="st0" d="M35,162l-7.6-12.2c-0.7-1.3-0.5-2.7,0.7-3.5c1.3-0.7,2.4-0.1,3.3,1.1l7.7,10.7c-0.7-1.3-0.3-2.9,1-3.6
		c1.3-0.7,2.9-0.3,3.6,1l0.7,1.1c-0.7-1.3-0.3-2.9,1-3.6c1.3-0.7,2.9-0.3,3.6,1l1,1.7c-0.5-0.9-0.2-2.2,0.7-2.7
		c0.9-0.5,2.2-0.1,2.7,0.7c0,0,3.7,5.2,5.7,12.2H5v6c0,2.3,1.8,4,4,4h50c2.3,0,4-1.7,4-4v-36c0-2.2-1.8-4-4-4H9c-2.2,0-3.9,1.9-4,4
		v26"/>
	<line class="st0" x1="29" y1="138" x2="29" y2="142"/>
	<line class="st0" x1="36.1" y1="140.9" x2="33.2" y2="143.8"/>
	<line class="st0" x1="21.9" y1="140.9" x2="24.8" y2="143.8"/>
	<line class="st0" x1="19" y1="148" x2="23" y2="148"/>
	<line class="st0" x1="21.9" y1="155.1" x2="24.8" y2="152.2"/>
	<path class="st0" d="M39,180v6h4c2,0,4,2,4,4H21c0-2,2-4,4-4h10"/>
	<line class="st0" x1="29" y1="186" x2="29" y2="180"/>
</g>
</svg>
