<?xml version="1.0" encoding="utf-8"?>
<!-- Generator: Adobe Illustrator 21.0.2, SVG Export Plug-In . SVG Version: 6.00 Build 0)  -->
<svg version="1.1" id="Layer_1" xmlns="http://www.w3.org/2000/svg" xmlns:xlink="http://www.w3.org/1999/xlink" x="0px" y="0px"
	 viewBox="0 0 52 60" style="enable-background:new 0 0 52 60;" xml:space="preserve">
<style type="text/css">
	.st0{fill:none;stroke:#000000;stroke-width:2;stroke-linecap:round;stroke-linejoin:round;stroke-miterlimit:10;}
	.st1{fill:none;stroke:#000000;stroke-linecap:round;stroke-linejoin:round;stroke-miterlimit:10;}
</style>
<g>
	<path class="st0" d="M129-138h-6c-2,0-4,2-4,4v26"/>
	<path class="st0" d="M173-104h-54v6c0,2,2,4,4,4h50c2,0,4-2,4-4v-36c0-2-2-4-4-4h-10"/>
	<circle class="st0" cx="148" cy="-99" r="1"/>
	<line class="st0" x1="123" y1="-80" x2="159" y2="-80"/>
	<line class="st0" x1="133" y1="-82" x2="133" y2="-80"/>
	<line class="st0" x1="137" y1="-82" x2="137" y2="-80"/>
	<line class="st0" x1="141" y1="-82" x2="141" y2="-80"/>
	<line class="st0" x1="145" y1="-82" x2="145" y2="-80"/>
	<line class="st0" x1="143" y1="-90" x2="143" y2="-86"/>
	<line class="st0" x1="153" y1="-90" x2="153" y2="-86"/>
	<line class="st0" x1="153" y1="-82" x2="153" y2="-80"/>
	<line class="st0" x1="149" y1="-82" x2="149" y2="-80"/>
	<line class="st0" x1="157" y1="-82" x2="157" y2="-80"/>
	<line class="st0" x1="129" y1="-82" x2="129" y2="-80"/>
	<line class="st0" x1="125" y1="-82" x2="125" y2="-80"/>
	<path class="st0" d="M173-80v-1c0-1.7-1.3-3-3-3h-2c-1.7,0-3,1.3-3,3v1H173z"/>
	<line class="st0" x1="139" y1="-132" x2="133" y2="-132"/>
	<line class="st0" x1="135" y1="-128" x2="133" y2="-128"/>
	<line class="st0" x1="135" y1="-124" x2="133" y2="-124"/>
	<line class="st0" x1="139" y1="-120" x2="133" y2="-120"/>
	<polyline class="st0" points="153,-108 153,-130 158,-138 163,-130 157,-130 	"/>
	<polyline class="st0" points="139,-108 133,-108 133,-138 149,-138 149,-108 	"/>
	<line class="st0" x1="135" y1="-116" x2="133" y2="-116"/>
	<line class="st0" x1="135" y1="-112" x2="133" y2="-112"/>
	<line class="st0" x1="163" y1="-126" x2="163" y2="-108"/>
	<line class="st0" x1="158" y1="-108" x2="158" y2="-126"/>
</g>
<g>
	<line class="st0" x1="239" y1="-93" x2="285" y2="-93"/>
	<line class="st0" x1="269" y1="-109" x2="269" y2="-93"/>
	<path class="st0" d="M253-122h38v38c0,2.2-1.8,4-4,4h-50c-2.2,0-4-1.8-4-4v-46h10l6,8l-6,8h-6"/>
	<line class="st0" x1="249" y1="-114" x2="291" y2="-114"/>
	<line class="st0" x1="259" y1="-122" x2="253" y2="-114"/>
	<line class="st0" x1="268" y1="-122" x2="262" y2="-114"/>
	<line class="st0" x1="277" y1="-122" x2="271" y2="-114"/>
	<line class="st0" x1="286" y1="-122" x2="280" y2="-114"/>
	<polyline class="st0" points="253,-123.8 290.4,-130 289.1,-138 247.3,-131.1 	"/>
	<line class="st0" x1="252.1" y1="-131.8" x2="257.6" y2="-124.6"/>
	<line class="st0" x1="261.5" y1="-133.3" x2="266.9" y2="-126.1"/>
	<line class="st0" x1="270.2" y1="-134.8" x2="275.5" y2="-127.6"/>
	<line class="st0" x1="279.5" y1="-136.3" x2="284.9" y2="-129.2"/>
</g>
<text transform="matrix(1 0 0 1 119 -45)" style="font-family:'Roboto-Bold'; font-size:20px;">Design</text>
<g>
	<path class="st0" d="M379,133h-6c-2,0-4,2-4,4v26"/>
	<path class="st0" d="M423,167h-54v6c0,2,2,4,4,4h50c2,0,4-2,4-4v-36c0-2-2-4-4-4h-10"/>
	<circle class="st0" cx="398" cy="172" r="1"/>
	<line class="st0" x1="373" y1="191" x2="409" y2="191"/>
	<line class="st0" x1="383" y1="189" x2="383" y2="191"/>
	<line class="st0" x1="387" y1="189" x2="387" y2="191"/>
	<line class="st0" x1="391" y1="189" x2="391" y2="191"/>
	<line class="st0" x1="395" y1="189" x2="395" y2="191"/>
	<line class="st0" x1="393" y1="181" x2="393" y2="185"/>
	<line class="st0" x1="403" y1="181" x2="403" y2="185"/>
	<line class="st0" x1="403" y1="189" x2="403" y2="191"/>
	<line class="st0" x1="399" y1="189" x2="399" y2="191"/>
	<line class="st0" x1="407" y1="189" x2="407" y2="191"/>
	<line class="st0" x1="379" y1="189" x2="379" y2="191"/>
	<line class="st0" x1="375" y1="189" x2="375" y2="191"/>
	<path class="st0" d="M423,191v-1c0-1.7-1.3-3-3-3h-2c-1.7,0-3,1.3-3,3v1H423z"/>
	<line class="st0" x1="389" y1="139" x2="383" y2="139"/>
	<line class="st0" x1="385" y1="143" x2="383" y2="143"/>
	<line class="st0" x1="385" y1="147" x2="383" y2="147"/>
	<line class="st0" x1="389" y1="151" x2="383" y2="151"/>
	<polyline class="st0" points="403,163 403,141 408,133 413,141 407,141 	"/>
	<polyline class="st0" points="389,163 383,163 383,133 399,133 399,163 	"/>
	<line class="st0" x1="385" y1="155" x2="383" y2="155"/>
	<line class="st0" x1="385" y1="159" x2="383" y2="159"/>
	<line class="st0" x1="413" y1="145" x2="413" y2="163"/>
	<line class="st0" x1="408" y1="163" x2="408" y2="145"/>
</g>
<text transform="matrix(1 0 0 1 369 226)" style="font-family:'Roboto-Bold'; font-size:20px;">Design</text>
<text transform="matrix(1 0 0 1 5 -45)" style="font-family:'Roboto-Bold'; font-size:20px;">Start</text>
<g>
	<text transform="matrix(1 0 0 1 -233 -101)" style="font-family:'Roboto-Light'; font-size:20px;">HTML5 Banners</text>
</g>
<g>
	<path class="st0" d="M40-133v5c0,2.2,1.8,4,4,4h10v40c0,2.2-1.8,4-4,4H8c-2.2,0-4-1.8-4-4v-50c0-2.2,1.8-4,4-4"/>
	<circle class="st0" cx="17" cy="-127" r="7"/>
	<circle class="st0" cx="17" cy="-109" r="7"/>
	<line class="st0" x1="12" y1="-100" x2="12" y2="-104"/>
	<polyline class="st0" points="12,-132 12,-138 40,-138 50,-128 	"/>
	<path class="st0" d="M12-122c0,0-2,1-2,4s2,4,2,4"/>
	<path class="st0" d="M19.7-128.3c-0.3-0.6-0.8-1.1-1.4-1.4"/>
	<path class="st0" d="M19.7-110.3c-0.3-0.6-0.8-1.1-1.4-1.4"/>
	<line class="st0" x1="32" y1="-114" x2="28" y2="-114"/>
	<line class="st0" x1="36" y1="-114" x2="44" y2="-114"/>
	<line class="st0" x1="29" y1="-108" x2="34" y2="-108"/>
	<line class="st0" x1="38" y1="-108" x2="42" y2="-108"/>
	<line class="st0" x1="14" y1="-96" x2="20" y2="-96"/>
	<line class="st0" x1="38" y1="-96" x2="44" y2="-96"/>
	<line class="st0" x1="24" y1="-96" x2="34" y2="-96"/>
	<line class="st0" x1="27" y1="-102" x2="42" y2="-102"/>
	<line class="st0" x1="14" y1="-90" x2="26" y2="-90"/>
	<line class="st0" x1="30" y1="-90" x2="40" y2="-90"/>
</g>
<text transform="matrix(1 0 0 1 359 -45)" style="font-family:'Roboto-Bold'; font-size:20px;">Resize</text>
<text transform="matrix(1 0 0 1 235 -45)" style="font-family:'Roboto-Bold'; font-size:20px;">Animation</text>
<g>
	<path class="st0" d="M484-138h-6c-2,0-4,2-4,4v26"/>
	<path class="st0" d="M528-104h-54v6c0,2,2,4,4,4h50c2,0,4-2,4-4v-36c0-2-2-4-4-4h-10"/>
	<circle class="st0" cx="503" cy="-99" r="1"/>
	<line class="st0" x1="478" y1="-80" x2="514" y2="-80"/>
	<line class="st0" x1="488" y1="-82" x2="488" y2="-80"/>
	<line class="st0" x1="492" y1="-82" x2="492" y2="-80"/>
	<line class="st0" x1="496" y1="-82" x2="496" y2="-80"/>
	<line class="st0" x1="500" y1="-82" x2="500" y2="-80"/>
	<line class="st0" x1="498" y1="-90" x2="498" y2="-86"/>
	<line class="st0" x1="508" y1="-90" x2="508" y2="-86"/>
	<line class="st0" x1="508" y1="-82" x2="508" y2="-80"/>
	<line class="st0" x1="504" y1="-82" x2="504" y2="-80"/>
	<line class="st0" x1="512" y1="-82" x2="512" y2="-80"/>
	<line class="st0" x1="484" y1="-82" x2="484" y2="-80"/>
	<line class="st0" x1="480" y1="-82" x2="480" y2="-80"/>
	<path class="st0" d="M528-80v-1c0-1.7-1.3-3-3-3h-2c-1.7,0-3,1.3-3,3v1H528z"/>
	<line class="st0" x1="494" y1="-132" x2="488" y2="-132"/>
	<line class="st0" x1="490" y1="-128" x2="488" y2="-128"/>
	<line class="st0" x1="490" y1="-124" x2="488" y2="-124"/>
	<line class="st0" x1="494" y1="-120" x2="488" y2="-120"/>
	<polyline class="st0" points="508,-108 508,-130 513,-138 518,-130 512,-130 	"/>
	<polyline class="st0" points="494,-108 488,-108 488,-138 504,-138 504,-108 	"/>
	<line class="st0" x1="490" y1="-116" x2="488" y2="-116"/>
	<line class="st0" x1="490" y1="-112" x2="488" y2="-112"/>
	<line class="st0" x1="518" y1="-126" x2="518" y2="-108"/>
	<line class="st0" x1="513" y1="-108" x2="513" y2="-126"/>
</g>
<text transform="matrix(1 0 0 1 474 -45)" style="font-family:'Roboto-Bold'; font-size:20px;">Design</text>
<text transform="matrix(1 0 0 1 733 -45)" style="font-family:'Roboto-Bold'; font-size:20px;">Finish </text>
<text transform="matrix(1 0 0 1 590 -45)" style="font-family:'Roboto-Bold'; font-size:20px;">Optimization </text>
<g>
	<g>
		<polyline class="st0" points="389,-98.4 362,-98.4 371.3,-107.7 375.5,-103.4 383.1,-111 389,-105.1 		"/>
		<circle class="st0" cx="370" cy="-119.4" r="3.3"/>
		<line class="st0" x1="370" y1="-126" x2="370" y2="-122.7"/>
		<line class="st0" x1="364.4" y1="-122.7" x2="367.2" y2="-121.1"/>
		<line class="st0" x1="364.4" y1="-116.2" x2="367.2" y2="-117.8"/>
		<line class="st0" x1="370" y1="-112.9" x2="370" y2="-116.2"/>
		<line class="st0" x1="375.7" y1="-116.2" x2="372.9" y2="-117.8"/>
		<line class="st0" x1="375.7" y1="-122.7" x2="372.9" y2="-121.1"/>
	</g>
	<g>
		<polyline class="st0" points="420,-109 398.7,-109 406,-116.3 409.3,-113 415.3,-119 420,-114.3 		"/>
		<circle class="st0" cx="406.7" cy="-126.5" r="2.7"/>
		<line class="st0" x1="406.7" y1="-132" x2="406.7" y2="-129.3"/>
		<line class="st0" x1="401.9" y1="-129.2" x2="404.3" y2="-127.9"/>
		<line class="st0" x1="401.9" y1="-123.7" x2="404.3" y2="-125.1"/>
		<line class="st0" x1="406.7" y1="-121" x2="406.7" y2="-123.8"/>
		<line class="st0" x1="411.5" y1="-123.8" x2="409.1" y2="-125.1"/>
		<line class="st0" x1="411.5" y1="-129.3" x2="409.1" y2="-127.9"/>
	</g>
	<g>
		<polyline class="st0" points="418.8,-79.3 399.8,-79.3 406.4,-85.9 409.3,-82.9 414.7,-88.2 418.8,-84.1 		"/>
		<circle class="st1" cx="404" cy="-91.9" r="1.2"/>
		<line class="st1" x1="404" y1="-94.3" x2="404" y2="-93.1"/>
		<line class="st1" x1="402" y1="-93.1" x2="403" y2="-92.5"/>
		<line class="st1" x1="402" y1="-90.8" x2="403" y2="-91.3"/>
		<line class="st1" x1="404" y1="-89.6" x2="404" y2="-90.8"/>
		<line class="st1" x1="406" y1="-90.8" x2="405" y2="-91.3"/>
		<line class="st1" x1="406" y1="-93.1" x2="405" y2="-92.5"/>
	</g>
	<path class="st0" d="M418.6-101h-18.2c-2.4,0-4.4-2-4.4-4.4v-28.2c0-2.4,2-4.4,4.4-4.4h18.2c2.4,0,4.4,2,4.4,4.4v28.2
		C423-103,421-101,418.6-101z"/>
	<path class="st0" d="M387.6-79h-24.2c-2.4,0-4.4-2-4.4-4.4v-50.2c0-2.4,2-4.4,4.4-4.4h24.2c2.4,0,4.4,2,4.4,4.4v50.2
		C392-81,390-79,387.6-79z"/>
	<path class="st0" d="M418.6-79.3h-18.2c-2.4,0-4.4-2-4.4-4.4v-9.2c0-2.4,2-4.4,4.4-4.4h18.2c2.4,0,4.4,2,4.4,4.4v9.2
		C423-81.3,421-79.3,418.6-79.3z"/>
</g>
<g>
	<path class="st0" d="M644-114l-5.9-1.3c-0.5-1.7-1.2-3.3-2-4.9l3.2-5.1c0.4-0.6,0.4-1,0-1.4l-5.7-5.7c-0.4-0.4-0.8-0.3-1.4,0
		l-5.1,3.2c-1.5-0.9-3.2-1.5-4.9-2L621-137c-0.2-0.7-0.4-1-1-1h-8c-0.6,0-0.8,0.4-1,1l-1.3,5.9c-1.7,0.5-3.3,1.2-4.9,2l-5.1-3.2
		c-0.6-0.4-1-0.4-1.4,0l-5.7,5.7c-0.4,0.4-0.3,0.8,0,1.4l3.2,5.1c-0.9,1.5-1.5,3.2-2,4.9L588-114c-0.7,0.2-1,0.4-1,1v8
		c0,0.6,0.4,0.8,1,1l5.9,1.3c0.5,1.7,1.2,3.3,2,4.9l-3.2,5.1c-0.4,0.6-0.4,1,0,1.4l5.7,5.7c0.4,0.4,0.8,0.3,1.4,0l5.1-3.2
		c1.5,0.9,3.2,1.5,4.9,2L611-81c0.2,0.7,0.4,1,1,1l8,0c0.6,0,0.8-0.4,1-1l1.3-5.9c1.7-0.5,3.3-1.2,4.9-2l5.1,3.2
		c0.6,0.4,1,0.4,1.4,0l5.7-5.7c0.4-0.4,0.3-0.8,0-1.4l-3.2-5.1c0.8-1.5,1.5-3.2,2-4.9l5.9-1.3c0.7-0.2,1-0.4,1-1v-8
		C645-113.6,644.6-113.8,644-114z"/>
	<path class="st0" d="M620-96.6c5.2-1.7,9-6.6,9-12.4c0-7.2-5.8-13-13-13s-13,5.8-13,13s5.8,13,13,13"/>
	<circle class="st0" cx="616" cy="-109" r="3"/>
</g>
<g>
	<path class="st0" d="M769-133v5c0,2.2,1.8,4,4,4h10v40c0,2.2-1.8,4-4,4h-42c-2.2,0-4-1.8-4-4v-50c0-2.2,1.8-4,4-4h32l10,10"/>
	<circle class="st0" cx="758" cy="-103" r="13"/>
	<polygon class="st0" points="755,-107 755,-99 762,-103 	"/>
</g>
<g>
	<path class="st0" d="M126,1h-6c-2,0-4,2-4,4v26"/>
	<path class="st0" d="M170,35h-54v6c0,2,2,4,4,4h50c2,0,4-2,4-4V5c0-2-2-4-4-4h-10"/>
	<circle class="st0" cx="145" cy="40" r="1"/>
	<line class="st0" x1="120" y1="59" x2="156" y2="59"/>
	<line class="st0" x1="130" y1="57" x2="130" y2="59"/>
	<line class="st0" x1="134" y1="57" x2="134" y2="59"/>
	<line class="st0" x1="138" y1="57" x2="138" y2="59"/>
	<line class="st0" x1="142" y1="57" x2="142" y2="59"/>
	<line class="st0" x1="140" y1="49" x2="140" y2="53"/>
	<line class="st0" x1="150" y1="49" x2="150" y2="53"/>
	<line class="st0" x1="150" y1="57" x2="150" y2="59"/>
	<line class="st0" x1="146" y1="57" x2="146" y2="59"/>
	<line class="st0" x1="154" y1="57" x2="154" y2="59"/>
	<line class="st0" x1="126" y1="57" x2="126" y2="59"/>
	<line class="st0" x1="122" y1="57" x2="122" y2="59"/>
	<path class="st0" d="M170,59v-1c0-1.7-1.3-3-3-3h-2c-1.7,0-3,1.3-3,3v1H170z"/>
	<line class="st0" x1="136" y1="7" x2="130" y2="7"/>
	<line class="st0" x1="132" y1="11" x2="130" y2="11"/>
	<line class="st0" x1="132" y1="15" x2="130" y2="15"/>
	<line class="st0" x1="136" y1="19" x2="130" y2="19"/>
	<polyline class="st0" points="150,31 150,9 155,1 160,9 154,9 	"/>
	<polyline class="st0" points="136,31 130,31 130,1 146,1 146,31 	"/>
	<line class="st0" x1="132" y1="23" x2="130" y2="23"/>
	<line class="st0" x1="132" y1="27" x2="130" y2="27"/>
	<line class="st0" x1="160" y1="13" x2="160" y2="31"/>
	<line class="st0" x1="155" y1="31" x2="155" y2="13"/>
</g>
<text transform="matrix(1 0 0 1 116 94)" style="font-family:'Roboto-Bold'; font-size:20px;">Design</text>
<text transform="matrix(1 0 0 1 2 94)" style="font-family:'Roboto-Bold'; font-size:20px;">Start</text>
<g>
	<text transform="matrix(1 0 0 1 -236 38)" style="font-family:'Roboto-Light'; font-size:20px;">Web Development</text>
</g>
<g>
	<path class="st0" d="M37,6v5c0,2.2,1.8,4,4,4h10v40c0,2.2-1.8,4-4,4H5c-2.2,0-4-1.8-4-4V5c0-2.2,1.8-4,4-4"/>
	<circle class="st0" cx="14" cy="12" r="7"/>
	<circle class="st0" cx="14" cy="30" r="7"/>
	<line class="st0" x1="9" y1="39" x2="9" y2="35"/>
	<polyline class="st0" points="9,7 9,1 37,1 47,11 	"/>
	<path class="st0" d="M9,17c0,0-2,1-2,4s2,4,2,4"/>
	<path class="st0" d="M16.7,10.7c-0.3-0.6-0.8-1.1-1.4-1.4"/>
	<path class="st0" d="M16.7,28.7c-0.3-0.6-0.8-1.1-1.4-1.4"/>
	<line class="st0" x1="29" y1="25" x2="25" y2="25"/>
	<line class="st0" x1="33" y1="25" x2="41" y2="25"/>
	<line class="st0" x1="26" y1="31" x2="31" y2="31"/>
	<line class="st0" x1="35" y1="31" x2="39" y2="31"/>
	<line class="st0" x1="11" y1="43" x2="17" y2="43"/>
	<line class="st0" x1="35" y1="43" x2="41" y2="43"/>
	<line class="st0" x1="21" y1="43" x2="31" y2="43"/>
	<line class="st0" x1="24" y1="37" x2="39" y2="37"/>
	<line class="st0" x1="11" y1="49" x2="23" y2="49"/>
	<line class="st0" x1="27" y1="49" x2="37" y2="49"/>
</g>
<text transform="matrix(1 0 0 1 2 227)" style="font-family:'Roboto-Bold'; font-size:20px;">Start</text>
<g>
	<path class="st0" d="M37,139v5c0,2.2,1.8,4,4,4h10v40c0,2.2-1.8,4-4,4H5c-2.2,0-4-1.8-4-4v-50c0-2.2,1.8-4,4-4"/>
	<circle class="st0" cx="14" cy="145" r="7"/>
	<circle class="st0" cx="14" cy="163" r="7"/>
	<line class="st0" x1="9" y1="172" x2="9" y2="168"/>
	<polyline class="st0" points="9,140 9,134 37,134 47,144 	"/>
	<path class="st0" d="M9,150c0,0-2,1-2,4s2,4,2,4"/>
	<path class="st0" d="M16.7,143.7c-0.3-0.6-0.8-1.1-1.4-1.4"/>
	<path class="st0" d="M16.7,161.7c-0.3-0.6-0.8-1.1-1.4-1.4"/>
	<line class="st0" x1="29" y1="158" x2="25" y2="158"/>
	<line class="st0" x1="33" y1="158" x2="41" y2="158"/>
	<line class="st0" x1="26" y1="164" x2="31" y2="164"/>
	<line class="st0" x1="35" y1="164" x2="39" y2="164"/>
	<line class="st0" x1="11" y1="176" x2="17" y2="176"/>
	<line class="st0" x1="35" y1="176" x2="41" y2="176"/>
	<line class="st0" x1="21" y1="176" x2="31" y2="176"/>
	<line class="st0" x1="24" y1="170" x2="39" y2="170"/>
	<line class="st0" x1="11" y1="182" x2="23" y2="182"/>
	<line class="st0" x1="27" y1="182" x2="37" y2="182"/>
</g>
<text transform="matrix(1 0 0 1 356 94)" style="font-family:'Roboto-Bold'; font-size:20px;">Back-end</text>
<text transform="matrix(1 0 0 1 232 94)" style="font-family:'Roboto-Bold'; font-size:20px;">Front-end</text>
<text transform="matrix(1 0 0 1 471 94)" style="font-family:'Roboto-Bold'; font-size:20px;">QA </text>
<text transform="matrix(1 0 0 1 587 94)" style="font-family:'Roboto-Bold'; font-size:20px;">Finish </text>
<g>
	<path class="st0" d="M271,59h-37c-2.3,0-4-1.8-4-4V15"/>
	<path class="st0" d="M238,6c0,0.6-0.4,1-1,1l0,0c-0.6,0-1-0.4-1-1l0,0c0-0.6,0.4-1,1-1l0,0C237.6,5,238,5.4,238,6L238,6z"/>
	<path class="st0" d="M244,6c0,0.6-0.4,1-1,1l0,0c-0.6,0-1-0.4-1-1l0,0c0-0.6,0.4-1,1-1l0,0C243.6,5,244,5.4,244,6L244,6z"/>
	<path class="st0" d="M250,6c0,0.6-0.4,1-1,1l0,0c-0.6,0-1-0.4-1-1l0,0c0-0.6,0.4-1,1-1l0,0C249.6,5,250,5.4,250,6L250,6z"/>
	<line class="st0" x1="236" y1="17" x2="244" y2="17"/>
	<line class="st0" x1="270" y1="17" x2="274" y2="17"/>
	<line class="st0" x1="278" y1="17" x2="282" y2="17"/>
	<line class="st0" x1="262" y1="17" x2="266" y2="17"/>
	<path class="st0" d="M271,59h13c2.3,0,4-1.8,4-4V5c0-2.2-1.8-4-4-4h-50c-2.2,0-4,1.8-4,4v6h54"/>
	<g>
		<path d="M237.7,37.9l11.3-5.5v2.1l-9,4.2v0l9,4.2V45l-11.3-5.5V37.9z"/>
		<path d="M255.5,46l5.8-17.3h2L257.6,46H255.5z"/>
		<path d="M281,39.6L269.7,45v-2.1l9.1-4.2v0l-9.1-4.2v-2.1l11.3,5.4V39.6z"/>
	</g>
</g>
<g>
	<path class="st0" d="M518,49l2.8-2.8l7,7c1.6,1.6,1.6,4.1,0,5.7c-1.6,1.6-4.1,1.6-5.7,0L510.3,47"/>
	<line class="st0" x1="518.1" y1="43.4" x2="516" y2="41.3"/>
	<circle class="st0" cx="494" cy="25" r="23"/>
	<circle class="st0" cx="494" cy="25" r="19"/>
	<line class="st0" x1="487" y1="16" x2="499" y2="16"/>
	<line class="st0" x1="483" y1="22" x2="497" y2="22"/>
	<line class="st0" x1="483" y1="28" x2="489" y2="28"/>
	<line class="st0" x1="485" y1="34" x2="493" y2="34"/>
	<line class="st0" x1="501" y1="34" x2="497" y2="34"/>
	<line class="st0" x1="505" y1="22" x2="501" y2="22"/>
	<line class="st0" x1="505" y1="28" x2="493" y2="28"/>
</g>
<g>
	<path class="st0" d="M365,6c0,0.6-0.4,1-1,1l0,0c-0.6,0-1-0.4-1-1l0,0c0-0.6,0.4-1,1-1l0,0C364.6,5,365,5.4,365,6L365,6z"/>
	<path class="st0" d="M371,6c0,0.6-0.4,1-1,1l0,0c-0.6,0-1-0.4-1-1l0,0c0-0.6,0.4-1,1-1l0,0C370.6,5,371,5.4,371,6L371,6z"/>
	<path class="st0" d="M377,6c0,0.6-0.4,1-1,1l0,0c-0.6,0-1-0.4-1-1l0,0c0-0.6,0.4-1,1-1l0,0C376.6,5,377,5.4,377,6L377,6z"/>
	<line class="st0" x1="365" y1="19" x2="367" y2="19"/>
	<line class="st0" x1="365" y1="23" x2="367" y2="23"/>
	<line class="st0" x1="365" y1="27" x2="367" y2="27"/>
	<line class="st0" x1="365" y1="31" x2="367" y2="31"/>
	<line class="st0" x1="365" y1="35" x2="367" y2="35"/>
	<line class="st0" x1="365" y1="39" x2="367" y2="39"/>
	<line class="st0" x1="365" y1="43" x2="367" y2="43"/>
	<line class="st0" x1="365" y1="47" x2="367" y2="47"/>
	<line class="st0" x1="365" y1="51" x2="367" y2="51"/>
	<line class="st0" x1="399" y1="19" x2="395" y2="19"/>
	<line class="st0" x1="401" y1="23" x2="391" y2="23"/>
	<line class="st0" x1="387" y1="23" x2="371" y2="23"/>
	<line class="st0" x1="381" y1="19" x2="371" y2="19"/>
	<line class="st0" x1="391" y1="19" x2="385" y2="19"/>
	<line class="st0" x1="405" y1="27" x2="389" y2="27"/>
	<line class="st0" x1="399" y1="31" x2="391" y2="31"/>
	<line class="st0" x1="387" y1="31" x2="371" y2="31"/>
	<line class="st0" x1="375" y1="27" x2="371" y2="27"/>
	<line class="st0" x1="385" y1="27" x2="379" y2="27"/>
	<line class="st0" x1="392" y1="43" x2="389" y2="43"/>
	<line class="st0" x1="375" y1="43" x2="371" y2="43"/>
	<line class="st0" x1="385" y1="43" x2="379" y2="43"/>
	<line class="st0" x1="383" y1="47" x2="371" y2="47"/>
	<line class="st0" x1="389" y1="47" x2="387" y2="47"/>
	<line class="st0" x1="377" y1="51" x2="371" y2="51"/>
	<line class="st0" x1="391" y1="51" x2="381" y2="51"/>
	<line class="st0" x1="401" y1="35" x2="385" y2="35"/>
	<line class="st0" x1="394" y1="39" x2="387" y2="39"/>
	<line class="st0" x1="383" y1="39" x2="371" y2="39"/>
	<line class="st0" x1="381" y1="35" x2="371" y2="35"/>
	<path class="st0" d="M415,51v-4h-2.3c-0.2-0.7-0.5-1.4-0.9-2.1l1.6-1.6l-2.8-2.8l-1.6,1.6c-0.6-0.4-1.3-0.7-2.1-0.9V39h-4v2.3
		c-0.7,0.2-1.4,0.5-2.1,0.9l-1.6-1.6l-2.8,2.8l1.6,1.6c-0.4,0.6-0.7,1.3-0.9,2.1H395v4h2.3c0.2,0.7,0.5,1.4,0.9,2.1l-1.6,1.6
		l2.8,2.8l1.6-1.6c0.6,0.4,1.3,0.7,2.1,0.9V59h4v-2.3c0.7-0.2,1.4-0.5,2.1-0.9l1.6,1.6l2.8-2.8l-1.6-1.6c0.4-0.6,0.7-1.3,0.9-2.1
		H415z"/>
	<circle class="st0" cx="405" cy="49" r="2"/>
	<path class="st0" d="M395,59h-34c-2.2,0-4-1.8-4-4V15"/>
	<path class="st0" d="M411,11h-54V5c0-2.2,1.8-4,4-4h50c2.2,0,4,1.8,4,4v34"/>
</g>
<g>
	<path class="st0" d="M622,57c0,1.1-0.9,2-2,2h-34c-1.1,0-2-0.9-2-2V39c0-1.1,0.9-2,2-2h34c1.1,0,2,0.9,2,2V57z"/>
	<path class="st0" d="M642,37V3c0-1.1-0.9-2-2-2h-38c-1.1,0-2,0.9-2,2v30"/>
	<circle class="st0" cx="611" cy="12" r="3"/>
	<circle class="st0" cx="593" cy="46" r="3"/>
	<line class="st0" x1="624" y1="9" x2="632" y2="9"/>
	<line class="st0" x1="624" y1="13" x2="634" y2="13"/>
	<line class="st0" x1="608" y1="23" x2="616" y2="23"/>
	<line class="st0" x1="608" y1="29" x2="622" y2="29"/>
	<line class="st0" x1="608" y1="33" x2="616" y2="33"/>
	<line class="st0" x1="626" y1="29" x2="634" y2="29"/>
	<line class="st0" x1="620" y1="33" x2="632" y2="33"/>
	<line class="st0" x1="602" y1="43" x2="608" y2="43"/>
	<line class="st0" x1="602" y1="47" x2="610" y2="47"/>
	<line class="st0" x1="602" y1="53" x2="616" y2="53"/>
	<path class="st0" d="M645,41c1.1,0,2,0.9,2,2v14c0,1.1-0.9,2-2,2h-6c-1.1,0-2-0.9-2-2V43c0-1.1,0.9-2,2-2H645z"/>
	<line class="st0" x1="633.8" y1="59" x2="626" y2="59"/>
	<line class="st0" x1="634" y1="37" x2="626" y2="37"/>
	<line class="st0" x1="633" y1="41" x2="626" y2="41"/>
	<line class="st0" x1="633" y1="45" x2="626" y2="45"/>
	<circle class="st0" cx="642" cy="50" r="1"/>
</g>
<text transform="matrix(1 0 0 1 234 226)" style="font-family:'Roboto-Bold'; font-size:20px;">Prototyping</text>
<text transform="matrix(1 0 0 1 120 226)" style="font-family:'Roboto-Bold'; font-size:20px;">Concept</text>
<g>
	<text transform="matrix(1 0 0 1 -236 171)" style="font-family:'Roboto-Light'; font-size:20px;">Web Design</text>
</g>
<text transform="matrix(1 0 0 1 474 226)" style="font-family:'Roboto-Bold'; font-size:20px;">Testing</text>
<text transform="matrix(1 0 0 1 594 226)" style="font-family:'Roboto-Bold'; font-size:20px;">Finish </text>
<g>
	<path class="st0" d="M629,189c0,1.1-0.9,2-2,2h-34c-1.1,0-2-0.9-2-2v-18c0-1.1,0.9-2,2-2h34c1.1,0,2,0.9,2,2V189z"/>
	<path class="st0" d="M649,169v-34c0-1.1-0.9-2-2-2h-38c-1.1,0-2,0.9-2,2v30"/>
	<circle class="st0" cx="618" cy="144" r="3"/>
	<circle class="st0" cx="600" cy="178" r="3"/>
	<line class="st0" x1="631" y1="141" x2="639" y2="141"/>
	<line class="st0" x1="631" y1="145" x2="641" y2="145"/>
	<line class="st0" x1="615" y1="155" x2="623" y2="155"/>
	<line class="st0" x1="615" y1="161" x2="629" y2="161"/>
	<line class="st0" x1="615" y1="165" x2="623" y2="165"/>
	<line class="st0" x1="633" y1="161" x2="641" y2="161"/>
	<line class="st0" x1="627" y1="165" x2="639" y2="165"/>
	<line class="st0" x1="609" y1="175" x2="615" y2="175"/>
	<line class="st0" x1="609" y1="179" x2="617" y2="179"/>
	<line class="st0" x1="609" y1="185" x2="623" y2="185"/>
	<path class="st0" d="M652,173c1.1,0,2,0.9,2,2v14c0,1.1-0.9,2-2,2h-6c-1.1,0-2-0.9-2-2v-14c0-1.1,0.9-2,2-2H652z"/>
	<line class="st0" x1="640.8" y1="191" x2="633" y2="191"/>
	<line class="st0" x1="641" y1="169" x2="633" y2="169"/>
	<line class="st0" x1="640" y1="173" x2="633" y2="173"/>
	<line class="st0" x1="640" y1="177" x2="633" y2="177"/>
	<circle class="st0" cx="649" cy="182" r="1"/>
</g>
<g>
	<line class="st0" x1="143" y1="191" x2="143" y2="179"/>
	<path class="st0" d="M139,189v-3c0,0,0-3-2-5s-5-2-5-2h-3v3c0,0,0,3,2,5s5,2,5,2H139z"/>
	<path class="st0" d="M147,189v-3c0,0,0-3,2-5s5-2,5-2h3v3c0,0,0,3-2,5s-5,2-5,2H147z"/>
	<path class="st0" d="M158,148c0-8.3-6.7-15-15-15s-15,6.7-15,15c0,6,6,10.7,7,15l1,4h14l1-4C152,158.7,158,154,158,148z"/>
	<line class="st0" x1="138" y1="171" x2="148" y2="171"/>
	<line class="st0" x1="140" y1="175" x2="146" y2="175"/>
	<path class="st0" d="M141,163l-3-14c0,0,3,2,5,2s5-2,5-2l-3,14"/>
	<path class="st0" d="M150,139.5c-1.2-1-2.5-1.7-4-2.1c-0.6-0.2-1.2-0.3-1.8-0.3"/>
	<path class="st0" d="M153.6,145c-0.2-0.7-0.5-1.4-0.8-2"/>
	<line class="st0" x1="122" y1="148" x2="118" y2="148"/>
	<line class="st0" x1="168" y1="148" x2="164" y2="148"/>
	<line class="st0" x1="164.7" y1="135.5" x2="161.2" y2="137.5"/>
	<line class="st0" x1="164.7" y1="160.5" x2="161.2" y2="158.5"/>
	<line class="st0" x1="124.8" y1="137.5" x2="121.3" y2="135.5"/>
	<line class="st0" x1="124.8" y1="158.5" x2="121.3" y2="160.5"/>
</g>
<g>
	<path class="st0" d="M242,138c0,0.6-0.4,1-1,1l0,0c-0.6,0-1-0.4-1-1l0,0c0-0.6,0.4-1,1-1l0,0C241.6,137,242,137.4,242,138L242,138z
		"/>
	<path class="st0" d="M248,138c0,0.6-0.4,1-1,1l0,0c-0.6,0-1-0.4-1-1l0,0c0-0.6,0.4-1,1-1l0,0C247.6,137,248,137.4,248,138L248,138z
		"/>
	<path class="st0" d="M254,138c0,0.6-0.4,1-1,1l0,0c-0.6,0-1-0.4-1-1l0,0c0-0.6,0.4-1,1-1l0,0C253.6,137,254,137.4,254,138L254,138z
		"/>
	<path class="st0" d="M286,186.9c2.7-2.7,2.7-7.2,0-9.9c-2.7-2.7-7.2-2.7-9.9,0c-4,4-4,13.9-4,13.9S282,191,286,186.9z"/>
	<line class="st0" x1="288" y1="171" x2="283.5" y2="175.5"/>
	<line class="st0" x1="292" y1="175" x2="287.6" y2="179.4"/>
	<path class="st0" d="M283.8,183c0.4-1.1,0.1-2.3-0.7-3.1"/>
	<rect x="238" y="147" class="st0" width="10" height="16"/>
	<rect x="252" y="147" class="st0" width="36" height="10"/>
	<polyline class="st0" points="238,187 238,167 248,167 248,187 	"/>
	<polyline class="st0" points="282,171 282,161 288,161 288,167 	"/>
	<polyline class="st0" points="252,187 252,161 278,161 278,171 	"/>
	<path class="st0" d="M268,191h-30c-2.2,0-4-1.8-4-4v-40"/>
	<path class="st0" d="M288,143h-54v-6c0-2.2,1.8-4,4-4h50c2.2,0,4,1.8,4,4v34"/>
</g>
<g>
	<circle class="st0" cx="504" cy="172" r="1"/>
	<path class="st0" d="M505,163l-7.6-12.2c-0.7-1.3-0.5-2.7,0.7-3.5c1.3-0.7,2.4-0.1,3.3,1.1l7.7,10.7c-0.7-1.3-0.3-2.9,1-3.6
		c1.3-0.7,2.9-0.3,3.6,1l0.7,1.1c-0.7-1.3-0.3-2.9,1-3.6c1.3-0.7,2.9-0.3,3.6,1l1,1.7c-0.5-0.9-0.2-2.2,0.7-2.7
		c0.9-0.5,2.2-0.1,2.7,0.7c0,0,3.7,5.2,5.7,12.2h-54v6c0,2.3,1.8,4,4,4h50c2.3,0,4-1.7,4-4v-36c0-2.2-1.8-4-4-4h-50
		c-2.2,0-3.9,1.9-4,4v26"/>
	<line class="st0" x1="499" y1="139" x2="499" y2="143"/>
	<line class="st0" x1="506.1" y1="141.9" x2="503.2" y2="144.8"/>
	<line class="st0" x1="491.9" y1="141.9" x2="494.8" y2="144.8"/>
	<line class="st0" x1="489" y1="149" x2="493" y2="149"/>
	<line class="st0" x1="491.9" y1="156.1" x2="494.8" y2="153.2"/>
	<path class="st0" d="M509,181v6h4c2,0,4,2,4,4h-26c0-2,2-4,4-4h10"/>
	<line class="st0" x1="499" y1="187" x2="499" y2="181"/>
</g>
</svg>
