<svg id="Layer_1" xmlns="http://www.w3.org/2000/svg" viewBox="0 0 52 60"><style>.st0{stroke-width:2}.st0,.st1{fill:none;stroke:#000;stroke-linecap:round;stroke-linejoin:round;stroke-miterlimit:10}</style><path class="st0" d="M12-270H6c-2 0-4 2-4 4v26m54 4H2v6c0 2 2 4 4 4h50c2 0 4-2 4-4v-36c0-2-2-4-4-4H46"/><circle class="st0" cx="31" cy="-231" r="1"/><path class="st0" d="M6-212h36m-26-2v2m4-2v2m4-2v2m4-2v2m-2-10v4m10-4v4m0 4v2m-4-2v2m8-2v2m-28-2v2m-4-2v2m48 0v-1c0-1.7-1.3-3-3-3h-2c-1.7 0-3 1.3-3 3v1h8zm-34-52h-6m2 4h-2m2 4h-2m6 4h-6m20 12v-22l5-8 5 8h-6m-18 22h-6v-30h16v30m-14-8h-2m2 4h-2m30-14v18m-5 0v-18m81 33h46m-16-16v16m-16-29h38v38c0 2.2-1.8 4-4 4h-50c-2.2 0-4-1.8-4-4v-46h10l6 8-6 8h-6m12 0h42m-32-8l-6 8m15-8l-6 8m15-8l-6 8m15-8l-6 8"/><path class="st0" d="M136-255.8l37.4-6.2-1.3-8-41.8 6.9m4.8-.7l5.5 7.2m3.9-8.7l5.4 7.2m3.3-8.7l5.3 7.2m4-8.7l5.4 7.1"/><text transform="translate(2 -177)" font-family="Roboto-Bold" font-size="20">Design</text><path class="st0" d="M262 1h-6c-2 0-4 2-4 4v26m54 4h-54v6c0 2 2 4 4 4h50c2 0 4-2 4-4V5c0-2-2-4-4-4h-10"/><circle class="st0" cx="281" cy="40" r="1"/><path class="st0" d="M256 59h36m-26-2v2m4-2v2m4-2v2m4-2v2m-2-10v4m10-4v4m0 4v2m-4-2v2m8-2v2m-28-2v2m-4-2v2m48 0v-1c0-1.7-1.3-3-3-3h-2c-1.7 0-3 1.3-3 3v1h8zM272 7h-6m2 4h-2m2 4h-2m6 4h-6m20 12V9l5-8 5 8h-6m-18 22h-6V1h16v30m-14-8h-2m2 4h-2m30-14v18m-5 0V13"/><text transform="translate(252 94)" font-family="Roboto-Bold" font-size="20">Design</text><text transform="translate(-112 -177)" font-family="Roboto-Bold" font-size="20">Start</text><text transform="translate(-350 -233)" font-family="Roboto-Light" font-size="20">HTML5 Banners</text><path class="st0" d="M-77-265v5c0 2.2 1.8 4 4 4h10v40c0 2.2-1.8 4-4 4h-42c-2.2 0-4-1.8-4-4v-50c0-2.2 1.8-4 4-4"/><circle class="st0" cx="-100" cy="-259" r="7"/><circle class="st0" cx="-100" cy="-241" r="7"/><path class="st0" d="M-105-232v-4m0-28v-6h28l10 10m-38 6s-2 1-2 4 2 4 2 4m7.7-14.3c-.3-.6-.8-1.1-1.4-1.4m1.4 19.4c-.3-.6-.8-1.1-1.4-1.4M-85-246h-4m8 0h8m-15 6h5m4 0h4m-28 12h6m18 0h6m-20 0h10m-7-6h15m-28 12h12m4 0h10"/><text transform="translate(242 -177)" font-family="Roboto-Bold" font-size="20">Resize</text><text transform="translate(118 -177)" font-family="Roboto-Bold" font-size="20">Animation</text><path class="st0" d="M367-270h-6c-2 0-4 2-4 4v26m54 4h-54v6c0 2 2 4 4 4h50c2 0 4-2 4-4v-36c0-2-2-4-4-4h-10"/><circle class="st0" cx="386" cy="-231" r="1"/><path class="st0" d="M361-212h36m-26-2v2m4-2v2m4-2v2m4-2v2m-2-10v4m10-4v4m0 4v2m-4-2v2m8-2v2m-28-2v2m-4-2v2m48 0v-1c0-1.7-1.3-3-3-3h-2c-1.7 0-3 1.3-3 3v1h8zm-34-52h-6m2 4h-2m2 4h-2m6 4h-6m20 12v-22l5-8 5 8h-6m-18 22h-6v-30h16v30m-14-8h-2m2 4h-2m30-14v18m-5 0v-18"/><text transform="translate(357 -177)" font-family="Roboto-Bold" font-size="20">Design</text><text transform="translate(616 -177)" font-family="Roboto-Bold" font-size="20">Finish</text><text transform="translate(473 -177)" font-family="Roboto-Bold" font-size="20">Optimization</text><path class="st0" d="M272-230.4h-27l9.3-9.3 4.2 4.3 7.6-7.6 5.9 5.9"/><circle class="st0" cx="253" cy="-251.4" r="3.3"/><path class="st0" d="M253-258v3.3m-5.6 0l2.8 1.6m-2.8 4.9l2.8-1.6m2.8 4.9v-3.3m5.7 0l-2.8-1.6m2.8-4.9l-2.8 1.6M303-241h-21.3l7.3-7.3 3.3 3.3 6-6 4.7 4.7"/><circle class="st0" cx="289.7" cy="-258.5" r="2.7"/><path class="st0" d="M289.7-264v2.7m-4.8.1l2.4 1.3m-2.4 4.2l2.4-1.4m2.4 4.1v-2.8m4.8 0l-2.4-1.3m2.4-4.2l-2.4 1.4m9.7 48.6h-19l6.6-6.6 2.9 3 5.4-5.3 4.1 4.1"/><circle class="st1" cx="287" cy="-223.9" r="1.2"/><path class="st1" d="M287-226.3v1.2m-2 0l1 .6m-1 1.7l1-.5m1 1.7v-1.2m2 0l-1-.5m1-1.8l-1 .6"/><path class="st0" d="M301.6-233h-18.2c-2.4 0-4.4-2-4.4-4.4v-28.2c0-2.4 2-4.4 4.4-4.4h18.2c2.4 0 4.4 2 4.4 4.4v28.2c0 2.4-2 4.4-4.4 4.4zm-31 22h-24.2c-2.4 0-4.4-2-4.4-4.4v-50.2c0-2.4 2-4.4 4.4-4.4h24.2c2.4 0 4.4 2 4.4 4.4v50.2c0 2.4-2 4.4-4.4 4.4zm31-.3h-18.2c-2.4 0-4.4-2-4.4-4.4v-9.2c0-2.4 2-4.4 4.4-4.4h18.2c2.4 0 4.4 2 4.4 4.4v9.2c0 2.4-2 4.4-4.4 4.4zM527-246l-5.9-1.3c-.5-1.7-1.2-3.3-2-4.9l3.2-5.1c.4-.6.4-1 0-1.4l-5.7-5.7c-.4-.4-.8-.3-1.4 0l-5.1 3.2c-1.5-.9-3.2-1.5-4.9-2L504-269c-.2-.7-.4-1-1-1h-8c-.6 0-.8.4-1 1l-1.3 5.9c-1.7.5-3.3 1.2-4.9 2l-5.1-3.2c-.6-.4-1-.4-1.4 0l-5.7 5.7c-.4.4-.3.8 0 1.4l3.2 5.1c-.9 1.5-1.5 3.2-2 4.9L471-246c-.7.2-1 .4-1 1v8c0 .6.4.8 1 1l5.9 1.3c.5 1.7 1.2 3.3 2 4.9l-3.2 5.1c-.4.6-.4 1 0 1.4l5.7 5.7c.4.4.8.3 1.4 0l5.1-3.2c1.5.9 3.2 1.5 4.9 2l1.3 5.9c.2.7.4 1 1 1h8c.6 0 .8-.4 1-1l1.3-5.9c1.7-.5 3.3-1.2 4.9-2l5.1 3.2c.6.4 1 .4 1.4 0l5.7-5.7c.4-.4.3-.8 0-1.4l-3.2-5.1c.8-1.5 1.5-3.2 2-4.9l5.9-1.3c.7-.2 1-.4 1-1v-8c-.2-.6-.6-.8-1.2-1z"/><path class="st0" d="M503-228.6c5.2-1.7 9-6.6 9-12.4 0-7.2-5.8-13-13-13s-13 5.8-13 13 5.8 13 13 13"/><circle class="st0" cx="499" cy="-241" r="3"/><path class="st0" d="M652-265v5c0 2.2 1.8 4 4 4h10v40c0 2.2-1.8 4-4 4h-42c-2.2 0-4-1.8-4-4v-50c0-2.2 1.8-4 4-4h32l10 10"/><circle class="st0" cx="641" cy="-235" r="13"/><path class="st0" d="M638-239v8l7-4zM9-131H3c-2 0-4 2-4 4v26m54 4H-1v6c0 2 2 4 4 4h50c2 0 4-2 4-4v-36c0-2-2-4-4-4H43"/><circle class="st0" cx="28" cy="-92" r="1"/><path class="st0" d="M3-73h36m-26-2v2m4-2v2m4-2v2m4-2v2m-2-10v4m10-4v4m0 4v2m-4-2v2m8-2v2M9-75v2m-4-2v2m48 0v-1c0-1.7-1.3-3-3-3h-2c-1.7 0-3 1.3-3 3v1h8zm-34-52h-6m2 4h-2m2 4h-2m6 4h-6m20 12v-22l5-8 5 8h-6m-18 22h-6v-30h16v30m-14-8h-2m2 4h-2m30-14v18m-5 0v-18"/><text transform="translate(-1 -38)" font-family="Roboto-Bold" font-size="20">Design</text><text transform="translate(-115 -38)" font-family="Roboto-Bold" font-size="20">Start</text><text transform="translate(-353 -94)" font-family="Roboto-Light" font-size="20">Web Development</text><path class="st0" d="M-80-126v5c0 2.2 1.8 4 4 4h10v40c0 2.2-1.8 4-4 4h-42c-2.2 0-4-1.8-4-4v-50c0-2.2 1.8-4 4-4"/><circle class="st0" cx="-103" cy="-120" r="7"/><circle class="st0" cx="-103" cy="-102" r="7"/><path class="st0" d="M-108-93v-4m0-28v-6h28l10 10m-38 6s-2 1-2 4 2 4 2 4m7.7-14.3c-.3-.6-.8-1.1-1.4-1.4m1.4 19.4c-.3-.6-.8-1.1-1.4-1.4M-88-107h-4m8 0h8m-15 6h5m4 0h4m-28 12h6m18 0h6m-20 0h10m-7-6h15m-28 12h12m4 0h10"/><text transform="translate(-115 95)" font-family="Roboto-Bold" font-size="20">Start</text><path class="st0" d="M-80 7v5c0 2.2 1.8 4 4 4h10v40c0 2.2-1.8 4-4 4h-42c-2.2 0-4-1.8-4-4V6c0-2.2 1.8-4 4-4"/><circle class="st0" cx="-103" cy="13" r="7"/><circle class="st0" cx="-103" cy="31" r="7"/><path class="st0" d="M-108 40v-4m0-28V2h28l10 10m-38 6s-2 1-2 4 2 4 2 4m7.7-14.3c-.3-.6-.8-1.1-1.4-1.4m1.4 19.4c-.3-.6-.8-1.1-1.4-1.4M-88 26h-4m8 0h8m-15 6h5m4 0h4m-28 12h6m18 0h6m-20 0h10m-7-6h15m-28 12h12m4 0h10"/><text transform="translate(239 -38)" font-family="Roboto-Bold" font-size="20">Back-end</text><text transform="translate(115 -38)" font-family="Roboto-Bold" font-size="20">Front-end</text><text transform="translate(354 -38)" font-family="Roboto-Bold" font-size="20">QA</text><text transform="translate(470 -38)" font-family="Roboto-Bold" font-size="20">Finish</text><path class="st0" d="M154-73h-37c-2.3 0-4-1.8-4-4v-40m8-9c0 .6-.4 1-1 1s-1-.4-1-1 .4-1 1-1 1 .4 1 1zm6 0c0 .6-.4 1-1 1s-1-.4-1-1 .4-1 1-1 1 .4 1 1zm6 0c0 .6-.4 1-1 1s-1-.4-1-1 .4-1 1-1 1 .4 1 1zm-14 11h8m26 0h4m4 0h4m-20 0h4"/><path class="st0" d="M154-73h13c2.3 0 4-1.8 4-4v-50c0-2.2-1.8-4-4-4h-50c-2.2 0-4 1.8-4 4v6h54"/><path d="M120.7-94.1l11.3-5.5v2.1l-9 4.2 9 4.2v2.1l-11.3-5.5v-1.6zm17.8 8.1l5.8-17.3h2L140.6-86h-2.1zm25.5-6.4L152.7-87v-2.1l9.1-4.2-9.1-4.2v-2.1l11.3 5.4v1.8z"/><path class="st0" d="M401-83l2.8-2.8 7 7c1.6 1.6 1.6 4.1 0 5.7-1.6 1.6-4.1 1.6-5.7 0L393.3-85m7.8-3.6l-2.1-2.1"/><circle class="st0" cx="377" cy="-107" r="23"/><circle class="st0" cx="377" cy="-107" r="19"/><path class="st0" d="M370-116h12m-16 6h14m-14 6h6m-4 6h8m8 0h-4m8-12h-4m4 6h-12m-128-22c0 .6-.4 1-1 1s-1-.4-1-1 .4-1 1-1 1 .4 1 1zm6 0c0 .6-.4 1-1 1s-1-.4-1-1 .4-1 1-1 1 .4 1 1zm6 0c0 .6-.4 1-1 1s-1-.4-1-1 .4-1 1-1 1 .4 1 1zm-12 13h2m-2 4h2m-2 4h2m-2 4h2m-2 4h2m-2 4h2m-2 4h2m-2 4h2m-2 4h2m32-32h-4m6 4h-10m-4 0h-16m10-4h-10m20 0h-6m20 8h-16m10 4h-8m-4 0h-16m4-4h-4m14 0h-6m13 16h-3m-14 0h-4m14 0h-6m4 4h-12m18 0h-2m-10 4h-6m20 0h-10m20-16h-16m9 4h-7m-4 0h-12m10-4h-10m44 16v-4h-2.3c-.2-.7-.5-1.4-.9-2.1l1.6-1.6-2.8-2.8-1.6 1.6c-.6-.4-1.3-.7-2.1-.9V-93h-4v2.3c-.7.2-1.4.5-2.1.9l-1.6-1.6-2.8 2.8L281-87c-.4.6-.7 1.3-.9 2.1H278v4h2.3c.2.7.5 1.4.9 2.1l-1.6 1.6 2.8 2.8L284-76c.6.4 1.3.7 2.1.9v2.3h4v-2.3c.7-.2 1.4-.5 2.1-.9l1.6 1.6 2.8-2.8-1.6-1.6c.4-.6.7-1.3.9-2.1h2.1z"/><circle class="st0" cx="288" cy="-83" r="2"/><path class="st0" d="M278-73h-34c-2.2 0-4-1.8-4-4v-40m54-4h-54v-6c0-2.2 1.8-4 4-4h50c2.2 0 4 1.8 4 4v34m207 18c0 1.1-.9 2-2 2h-34c-1.1 0-2-.9-2-2v-18c0-1.1.9-2 2-2h34c1.1 0 2 .9 2 2v18zm20-20v-34c0-1.1-.9-2-2-2h-38c-1.1 0-2 .9-2 2v30"/><circle class="st0" cx="494" cy="-120" r="3"/><circle class="st0" cx="476" cy="-86" r="3"/><path class="st0" d="M507-123h8m-8 4h10m-26 10h8m-8 6h14m-14 4h8m10-4h8m-14 4h12m-30 10h6m-6 4h8m-8 6h14m29-12c1.1 0 2 .9 2 2v14c0 1.1-.9 2-2 2h-6c-1.1 0-2-.9-2-2v-14c0-1.1.9-2 2-2h6zm-11.2 18H509m8-22h-8m7 4h-7m7 4h-7"/><circle class="st0" cx="525" cy="-82" r="1"/><text transform="translate(117 94)" font-family="Roboto-Bold" font-size="20">Prototyping</text><text transform="translate(3 94)" font-family="Roboto-Bold" font-size="20">Concept</text><text transform="translate(-353 39)" font-family="Roboto-Light" font-size="20">Web Design</text><text transform="translate(357 94)" font-family="Roboto-Bold" font-size="20">Testing</text><text transform="translate(477 94)" font-family="Roboto-Bold" font-size="20">Finish</text><path class="st0" d="M512 57c0 1.1-.9 2-2 2h-34c-1.1 0-2-.9-2-2V39c0-1.1.9-2 2-2h34c1.1 0 2 .9 2 2v18zm20-20V3c0-1.1-.9-2-2-2h-38c-1.1 0-2 .9-2 2v30"/><circle class="st0" cx="501" cy="12" r="3"/><circle class="st0" cx="483" cy="46" r="3"/><path class="st0" d="M514 9h8m-8 4h10m-26 10h8m-8 6h14m-14 4h8m10-4h8m-14 4h12m-30 10h6m-6 4h8m-8 6h14m29-12c1.1 0 2 .9 2 2v14c0 1.1-.9 2-2 2h-6c-1.1 0-2-.9-2-2V43c0-1.1.9-2 2-2h6zm-11.2 18H516m8-22h-8m7 4h-7m7 4h-7"/><circle class="st0" cx="532" cy="50" r="1"/><path class="st0" d="M26 59V47m-4 10v-3s0-3-2-5-5-2-5-2h-3v3s0 3 2 5 5 2 5 2h3zm8 0v-3s0-3 2-5 5-2 5-2h3v3s0 3-2 5-5 2-5 2h-3zm11-41c0-8.3-6.7-15-15-15S11 7.7 11 16c0 6 6 10.7 7 15l1 4h14l1-4c1-4.3 7-9 7-15zM21 39h10m-8 4h6"/><path class="st0" d="M24 31l-3-14s3 2 5 2 5-2 5-2l-3 14m5-23.5c-1.2-1-2.5-1.7-4-2.1-.6-.2-1.2-.3-1.8-.3m9.4 7.9c-.2-.7-.5-1.4-.8-2M5 16H1m50 0h-4m.7-12.5l-3.5 2m3.5 23l-3.5-2M7.8 5.5l-3.5-2m3.5 23l-3.5 2M125 6c0 .6-.4 1-1 1s-1-.4-1-1 .4-1 1-1 1 .4 1 1zm6 0c0 .6-.4 1-1 1s-1-.4-1-1 .4-1 1-1 1 .4 1 1zm6 0c0 .6-.4 1-1 1s-1-.4-1-1 .4-1 1-1 1 .4 1 1zm32 48.9c2.7-2.7 2.7-7.2 0-9.9s-7.2-2.7-9.9 0c-4 4-4 13.9-4 13.9s9.9.1 13.9-4zm2-15.9l-4.5 4.5m8.5-.5l-4.4 4.4m-3.8 3.6c.4-1.1.1-2.3-.7-3.1M121 15h10v16h-10zm14 0h36v10h-36zm-14 40V35h10v20m34-16V29h6v6m-36 20V29h26v10"/><path class="st0" d="M151 59h-30c-2.2 0-4-1.8-4-4V15m54-4h-54V5c0-2.2 1.8-4 4-4h50c2.2 0 4 1.8 4 4v34"/><circle class="st0" cx="387" cy="40" r="1"/><path class="st0" d="M388 31l-7.6-12.2c-.7-1.3-.5-2.7.7-3.5 1.3-.7 2.4-.1 3.3 1.1l7.7 10.7c-.7-1.3-.3-2.9 1-3.6 1.3-.7 2.9-.3 3.6 1l.7 1.1c-.7-1.3-.3-2.9 1-3.6 1.3-.7 2.9-.3 3.6 1l1 1.7c-.5-.9-.2-2.2.7-2.7.9-.5 2.2-.1 2.7.7 0 0 3.7 5.2 5.7 12.2h-54v6c0 2.3 1.8 4 4 4h50c2.3 0 4-1.7 4-4V5c0-2.2-1.8-4-4-4h-50c-2.2 0-3.9 1.9-4 4v26M382 7v4m7.1-1.1l-2.9 2.9m-11.3-2.9l2.9 2.9M372 17h4m-1.1 7.1l2.9-2.9M392 49v6h4c2 0 4 2 4 4h-26c0-2 2-4 4-4h10m-6 0v-6"/></svg>