<svg id="Layer_1" xmlns="http://www.w3.org/2000/svg" viewBox="0 0 60 60"><style>.st0{stroke-width:2}.st0,.st1{fill:none;stroke:#000;stroke-linecap:round;stroke-linejoin:round;stroke-miterlimit:10}</style><path class="st0" d="M-104-270h-6c-2 0-4 2-4 4v26m54 4h-54v6c0 2 2 4 4 4h50c2 0 4-2 4-4v-36c0-2-2-4-4-4h-10"/><circle class="st0" cx="-85" cy="-231" r="1"/><path class="st0" d="M-110-212h36m-26-2v2m4-2v2m4-2v2m4-2v2m-2-10v4m10-4v4m0 4v2m-4-2v2m8-2v2m-28-2v2m-4-2v2m48 0v-1c0-1.7-1.3-3-3-3h-2c-1.7 0-3 1.3-3 3v1h8zm-34-52h-6m2 4h-2m2 4h-2m6 4h-6m20 12v-22l5-8 5 8h-6m-18 22h-6v-30h16v30m-14-8h-2m2 4h-2m30-14v18m-5 0v-18m81 33h46m-16-16v16m-16-29h38v38c0 2.2-1.8 4-4 4H4c-2.2 0-4-1.8-4-4v-46h10l6 8-6 8H4m12 0h42m-32-8l-6 8m15-8l-6 8m15-8l-6 8m15-8l-6 8"/><path class="st0" d="M20-255.8l37.4-6.2-1.3-8-41.8 6.9m4.8-.7l5.5 7.2m3.9-8.7l5.4 7.2m3.3-8.7l5.3 7.2m4-8.7l5.4 7.1"/><text transform="translate(-114 -177)" font-family="Roboto-Bold" font-size="20">Design</text><path class="st0" d="M146 1h-6c-2 0-4 2-4 4v26m54 4h-54v6c0 2 2 4 4 4h50c2 0 4-2 4-4V5c0-2-2-4-4-4h-10"/><circle class="st0" cx="165" cy="40" r="1"/><path class="st0" d="M140 59h36m-26-2v2m4-2v2m4-2v2m4-2v2m-2-10v4m10-4v4m0 4v2m-4-2v2m8-2v2m-28-2v2m-4-2v2m48 0v-1c0-1.7-1.3-3-3-3h-2c-1.7 0-3 1.3-3 3v1h8zM156 7h-6m2 4h-2m2 4h-2m6 4h-6m20 12V9l5-8 5 8h-6m-18 22h-6V1h16v30m-14-8h-2m2 4h-2m30-14v18m-5 0V13"/><text transform="translate(136 94)" font-family="Roboto-Bold" font-size="20">Design</text><text transform="translate(-228 -177)" font-family="Roboto-Bold" font-size="20">Start</text><text transform="translate(-466 -233)" font-family="Roboto-Light" font-size="20">HTML5 Banners</text><path class="st0" d="M-193-265v5c0 2.2 1.8 4 4 4h10v40c0 2.2-1.8 4-4 4h-42c-2.2 0-4-1.8-4-4v-50c0-2.2 1.8-4 4-4"/><circle class="st0" cx="-216" cy="-259" r="7"/><circle class="st0" cx="-216" cy="-241" r="7"/><path class="st0" d="M-221-232v-4m0-28v-6h28l10 10m-38 6s-2 1-2 4 2 4 2 4m7.7-14.3c-.3-.6-.8-1.1-1.4-1.4m1.4 19.4c-.3-.6-.8-1.1-1.4-1.4m13.7-2.3h-4m8 0h8m-15 6h5m4 0h4m-28 12h6m18 0h6m-20 0h10m-7-6h15m-28 12h12m4 0h10"/><text transform="translate(126 -177)" font-family="Roboto-Bold" font-size="20">Resize</text><text transform="translate(2 -177)" font-family="Roboto-Bold" font-size="20">Animation</text><path class="st0" d="M251-270h-6c-2 0-4 2-4 4v26m54 4h-54v6c0 2 2 4 4 4h50c2 0 4-2 4-4v-36c0-2-2-4-4-4h-10"/><circle class="st0" cx="270" cy="-231" r="1"/><path class="st0" d="M245-212h36m-26-2v2m4-2v2m4-2v2m4-2v2m-2-10v4m10-4v4m0 4v2m-4-2v2m8-2v2m-28-2v2m-4-2v2m48 0v-1c0-1.7-1.3-3-3-3h-2c-1.7 0-3 1.3-3 3v1h8zm-34-52h-6m2 4h-2m2 4h-2m6 4h-6m20 12v-22l5-8 5 8h-6m-18 22h-6v-30h16v30m-14-8h-2m2 4h-2m30-14v18m-5 0v-18"/><text transform="translate(241 -177)" font-family="Roboto-Bold" font-size="20">Design</text><text transform="translate(500 -177)" font-family="Roboto-Bold" font-size="20">Finish</text><text transform="translate(357 -177)" font-family="Roboto-Bold" font-size="20">Optimization</text><path class="st0" d="M156-230.4h-27l9.3-9.3 4.2 4.3 7.6-7.6 5.9 5.9"/><circle class="st0" cx="137" cy="-251.4" r="3.3"/><path class="st0" d="M137-258v3.3m-5.6 0l2.8 1.6m-2.8 4.9l2.8-1.6m2.8 4.9v-3.3m5.7 0l-2.8-1.6m2.8-4.9l-2.8 1.6M187-241h-21.3l7.3-7.3 3.3 3.3 6-6 4.7 4.7"/><circle class="st0" cx="173.7" cy="-258.5" r="2.7"/><path class="st0" d="M173.7-264v2.7m-4.8.1l2.4 1.3m-2.4 4.2l2.4-1.4m2.4 4.1v-2.8m4.8 0l-2.4-1.3m2.4-4.2l-2.4 1.4m9.7 48.6h-19l6.6-6.6 2.9 3 5.4-5.3 4.1 4.1"/><circle class="st1" cx="171" cy="-223.9" r="1.2"/><path class="st1" d="M171-226.3v1.2m-2 0l1 .6m-1 1.7l1-.5m1 1.7v-1.2m2 0l-1-.5m1-1.8l-1 .6"/><path class="st0" d="M185.6-233h-18.2c-2.4 0-4.4-2-4.4-4.4v-28.2c0-2.4 2-4.4 4.4-4.4h18.2c2.4 0 4.4 2 4.4 4.4v28.2c0 2.4-2 4.4-4.4 4.4zm-31 22h-24.2c-2.4 0-4.4-2-4.4-4.4v-50.2c0-2.4 2-4.4 4.4-4.4h24.2c2.4 0 4.4 2 4.4 4.4v50.2c0 2.4-2 4.4-4.4 4.4zm31-.3h-18.2c-2.4 0-4.4-2-4.4-4.4v-9.2c0-2.4 2-4.4 4.4-4.4h18.2c2.4 0 4.4 2 4.4 4.4v9.2c0 2.4-2 4.4-4.4 4.4zM411-246l-5.9-1.3c-.5-1.7-1.2-3.3-2-4.9l3.2-5.1c.4-.6.4-1 0-1.4l-5.7-5.7c-.4-.4-.8-.3-1.4 0l-5.1 3.2c-1.5-.9-3.2-1.5-4.9-2L388-269c-.2-.7-.4-1-1-1h-8c-.6 0-.8.4-1 1l-1.3 5.9c-1.7.5-3.3 1.2-4.9 2l-5.1-3.2c-.6-.4-1-.4-1.4 0l-5.7 5.7c-.4.4-.3.8 0 1.4l3.2 5.1c-.9 1.5-1.5 3.2-2 4.9L355-246c-.7.2-1 .4-1 1v8c0 .6.4.8 1 1l5.9 1.3c.5 1.7 1.2 3.3 2 4.9l-3.2 5.1c-.4.6-.4 1 0 1.4l5.7 5.7c.4.4.8.3 1.4 0l5.1-3.2c1.5.9 3.2 1.5 4.9 2l1.3 5.9c.2.7.4 1 1 1h8c.6 0 .8-.4 1-1l1.3-5.9c1.7-.5 3.3-1.2 4.9-2l5.1 3.2c.6.4 1 .4 1.4 0l5.7-5.7c.4-.4.3-.8 0-1.4l-3.2-5.1c.8-1.5 1.5-3.2 2-4.9l5.9-1.3c.7-.2 1-.4 1-1v-8c-.2-.6-.6-.8-1.2-1z"/><path class="st0" d="M387-228.6c5.2-1.7 9-6.6 9-12.4 0-7.2-5.8-13-13-13s-13 5.8-13 13 5.8 13 13 13"/><circle class="st0" cx="383" cy="-241" r="3"/><path class="st0" d="M536-265v5c0 2.2 1.8 4 4 4h10v40c0 2.2-1.8 4-4 4h-42c-2.2 0-4-1.8-4-4v-50c0-2.2 1.8-4 4-4h32l10 10"/><circle class="st0" cx="525" cy="-235" r="13"/><path class="st0" d="M522-239v8l7-4zm-629 108h-6c-2 0-4 2-4 4v26m54 4h-54v6c0 2 2 4 4 4h50c2 0 4-2 4-4v-36c0-2-2-4-4-4h-10"/><circle class="st0" cx="-88" cy="-92" r="1"/><path class="st0" d="M-113-73h36m-26-2v2m4-2v2m4-2v2m4-2v2m-2-10v4m10-4v4m0 4v2m-4-2v2m8-2v2m-28-2v2m-4-2v2m48 0v-1c0-1.7-1.3-3-3-3h-2c-1.7 0-3 1.3-3 3v1h8zm-34-52h-6m2 4h-2m2 4h-2m6 4h-6m20 12v-22l5-8 5 8h-6m-18 22h-6v-30h16v30m-14-8h-2m2 4h-2m30-14v18m-5 0v-18"/><text transform="translate(-117 -38)" font-family="Roboto-Bold" font-size="20">Design</text><text transform="translate(-231 -38)" font-family="Roboto-Bold" font-size="20">Start</text><text transform="translate(-469 -94)" font-family="Roboto-Light" font-size="20">Web Development</text><path class="st0" d="M-196-126v5c0 2.2 1.8 4 4 4h10v40c0 2.2-1.8 4-4 4h-42c-2.2 0-4-1.8-4-4v-50c0-2.2 1.8-4 4-4"/><circle class="st0" cx="-219" cy="-120" r="7"/><circle class="st0" cx="-219" cy="-102" r="7"/><path class="st0" d="M-224-93v-4m0-28v-6h28l10 10m-38 6s-2 1-2 4 2 4 2 4m7.7-14.3c-.3-.6-.8-1.1-1.4-1.4m1.4 19.4c-.3-.6-.8-1.1-1.4-1.4m13.7-2.3h-4m8 0h8m-15 6h5m4 0h4m-28 12h6m18 0h6m-20 0h10m-7-6h15m-28 12h12m4 0h10"/><text transform="translate(-231 95)" font-family="Roboto-Bold" font-size="20">Start</text><path class="st0" d="M-196 7v5c0 2.2 1.8 4 4 4h10v40c0 2.2-1.8 4-4 4h-42c-2.2 0-4-1.8-4-4V6c0-2.2 1.8-4 4-4"/><circle class="st0" cx="-219" cy="13" r="7"/><circle class="st0" cx="-219" cy="31" r="7"/><path class="st0" d="M-224 40v-4m0-28V2h28l10 10m-38 6s-2 1-2 4 2 4 2 4m7.7-14.3c-.3-.6-.8-1.1-1.4-1.4m1.4 19.4c-.3-.6-.8-1.1-1.4-1.4M-204 26h-4m8 0h8m-15 6h5m4 0h4m-28 12h6m18 0h6m-20 0h10m-7-6h15m-28 12h12m4 0h10"/><text transform="translate(123 -38)" font-family="Roboto-Bold" font-size="20">Back-end</text><text transform="translate(-1 -38)" font-family="Roboto-Bold" font-size="20">Front-end</text><text transform="translate(238 -38)" font-family="Roboto-Bold" font-size="20">QA</text><text transform="translate(354 -38)" font-family="Roboto-Bold" font-size="20">Finish</text><path class="st0" d="M38-73H1c-2.3 0-4-1.8-4-4v-40m8-9c0 .6-.4 1-1 1s-1-.4-1-1 .4-1 1-1 1 .4 1 1zm6 0c0 .6-.4 1-1 1s-1-.4-1-1 .4-1 1-1 1 .4 1 1zm6 0c0 .6-.4 1-1 1s-1-.4-1-1 .4-1 1-1 1 .4 1 1zM3-115h8m26 0h4m4 0h4m-20 0h4"/><path class="st0" d="M38-73h13c2.3 0 4-1.8 4-4v-50c0-2.2-1.8-4-4-4H1c-2.2 0-4 1.8-4 4v6h54"/><path d="M4.7-94.1L16-99.6v2.1l-9 4.2 9 4.2v2.1L4.7-92.4v-1.7zM22.5-86l5.8-17.3h2L24.6-86h-2.1zM48-92.4L36.7-87v-2.1l9.1-4.2-9.1-4.2v-2.1L48-94.2v1.8z"/><path class="st0" d="M285-83l2.8-2.8 7 7c1.6 1.6 1.6 4.1 0 5.7-1.6 1.6-4.1 1.6-5.7 0L277.3-85m7.8-3.6l-2.1-2.1"/><circle class="st0" cx="261" cy="-107" r="23"/><circle class="st0" cx="261" cy="-107" r="19"/><path class="st0" d="M254-116h12m-16 6h14m-14 6h6m-4 6h8m8 0h-4m8-12h-4m4 6h-12m-128-22c0 .6-.4 1-1 1s-1-.4-1-1 .4-1 1-1 1 .4 1 1zm6 0c0 .6-.4 1-1 1s-1-.4-1-1 .4-1 1-1 1 .4 1 1zm6 0c0 .6-.4 1-1 1s-1-.4-1-1 .4-1 1-1 1 .4 1 1zm-12 13h2m-2 4h2m-2 4h2m-2 4h2m-2 4h2m-2 4h2m-2 4h2m-2 4h2m-2 4h2m32-32h-4m6 4h-10m-4 0h-16m10-4h-10m20 0h-6m20 8h-16m10 4h-8m-4 0h-16m4-4h-4m14 0h-6m13 16h-3m-14 0h-4m14 0h-6m4 4h-12m18 0h-2m-10 4h-6m20 0h-10m20-16h-16m9 4h-7m-4 0h-12m10-4h-10m44 16v-4h-2.3c-.2-.7-.5-1.4-.9-2.1l1.6-1.6-2.8-2.8-1.6 1.6c-.6-.4-1.3-.7-2.1-.9V-93h-4v2.3c-.7.2-1.4.5-2.1.9l-1.6-1.6-2.8 2.8L165-87c-.4.6-.7 1.3-.9 2.1H162v4h2.3c.2.7.5 1.4.9 2.1l-1.6 1.6 2.8 2.8L168-76c.6.4 1.3.7 2.1.9v2.3h4v-2.3c.7-.2 1.4-.5 2.1-.9l1.6 1.6 2.8-2.8-1.6-1.6c.4-.6.7-1.3.9-2.1h2.1z"/><circle class="st0" cx="172" cy="-83" r="2"/><path class="st0" d="M162-73h-34c-2.2 0-4-1.8-4-4v-40m54-4h-54v-6c0-2.2 1.8-4 4-4h50c2.2 0 4 1.8 4 4v34m207 18c0 1.1-.9 2-2 2h-34c-1.1 0-2-.9-2-2v-18c0-1.1.9-2 2-2h34c1.1 0 2 .9 2 2v18zm20-20v-34c0-1.1-.9-2-2-2h-38c-1.1 0-2 .9-2 2v30"/><circle class="st0" cx="378" cy="-120" r="3"/><circle class="st0" cx="360" cy="-86" r="3"/><path class="st0" d="M391-123h8m-8 4h10m-26 10h8m-8 6h14m-14 4h8m10-4h8m-14 4h12m-30 10h6m-6 4h8m-8 6h14m29-12c1.1 0 2 .9 2 2v14c0 1.1-.9 2-2 2h-6c-1.1 0-2-.9-2-2v-14c0-1.1.9-2 2-2h6zm-11.2 18H393m8-22h-8m7 4h-7m7 4h-7"/><circle class="st0" cx="409" cy="-82" r="1"/><text transform="translate(1 94)" font-family="Roboto-Bold" font-size="20">Prototyping</text><text transform="translate(-113 94)" font-family="Roboto-Bold" font-size="20">Concept</text><text transform="translate(-469 39)" font-family="Roboto-Light" font-size="20">Web Design</text><text transform="translate(241 94)" font-family="Roboto-Bold" font-size="20">Testing</text><text transform="translate(361 94)" font-family="Roboto-Bold" font-size="20">Finish</text><path class="st0" d="M396 57c0 1.1-.9 2-2 2h-34c-1.1 0-2-.9-2-2V39c0-1.1.9-2 2-2h34c1.1 0 2 .9 2 2v18zm20-20V3c0-1.1-.9-2-2-2h-38c-1.1 0-2 .9-2 2v30"/><circle class="st0" cx="385" cy="12" r="3"/><circle class="st0" cx="367" cy="46" r="3"/><path class="st0" d="M398 9h8m-8 4h10m-26 10h8m-8 6h14m-14 4h8m10-4h8m-14 4h12m-30 10h6m-6 4h8m-8 6h14m29-12c1.1 0 2 .9 2 2v14c0 1.1-.9 2-2 2h-6c-1.1 0-2-.9-2-2V43c0-1.1.9-2 2-2h6zm-11.2 18H400m8-22h-8m7 4h-7m7 4h-7"/><circle class="st0" cx="416" cy="50" r="1"/><path class="st0" d="M-90 59V47m-4 10v-3s0-3-2-5-5-2-5-2h-3v3s0 3 2 5 5 2 5 2h3zm8 0v-3s0-3 2-5 5-2 5-2h3v3s0 3-2 5-5 2-5 2h-3zm11-41c0-8.3-6.7-15-15-15s-15 6.7-15 15c0 6 6 10.7 7 15l1 4h14l1-4c1-4.3 7-9 7-15zm-20 23h10m-8 4h6"/><path class="st0" d="M-92 31l-3-14s3 2 5 2 5-2 5-2l-3 14m5-23.5c-1.2-1-2.5-1.7-4-2.1-.6-.2-1.2-.3-1.8-.3m9.4 7.9c-.2-.7-.5-1.4-.8-2m-30.8 5h-4m50 0h-4m.7-12.5l-3.5 2m3.5 23l-3.5-2m-36.4-21l-3.5-2m3.5 23l-3.5 2M9 6c0 .6-.4 1-1 1s-1-.4-1-1 .4-1 1-1 1 .4 1 1zm6 0c0 .6-.4 1-1 1s-1-.4-1-1 .4-1 1-1 1 .4 1 1zm6 0c0 .6-.4 1-1 1s-1-.4-1-1 .4-1 1-1 1 .4 1 1zm32 48.9c2.7-2.7 2.7-7.2 0-9.9s-7.2-2.7-9.9 0C39 49 39 59 39 59s10 0 14-4.1zM55 39l-4.5 4.5M59 43l-4.4 4.4M50.8 51c.4-1.1.1-2.3-.7-3.1M5 15h10v16H5zm14 0h36v10H19zM5 55V35h10v20m34-16V29h6v6M19 55V29h26v10"/><path class="st0" d="M35 59H5c-2.2 0-4-1.8-4-4V15m54-4H1V5c0-2.2 1.8-4 4-4h50c2.2 0 4 1.8 4 4v34"/><circle class="st0" cx="271" cy="40" r="1"/><path class="st0" d="M272 31l-7.6-12.2c-.7-1.3-.5-2.7.7-3.5 1.3-.7 2.4-.1 3.3 1.1l7.7 10.7c-.7-1.3-.3-2.9 1-3.6 1.3-.7 2.9-.3 3.6 1l.7 1.1c-.7-1.3-.3-2.9 1-3.6 1.3-.7 2.9-.3 3.6 1l1 1.7c-.5-.9-.2-2.2.7-2.7.9-.5 2.2-.1 2.7.7 0 0 3.7 5.2 5.7 12.2h-54v6c0 2.3 1.8 4 4 4h50c2.3 0 4-1.7 4-4V5c0-2.2-1.8-4-4-4h-50c-2.2 0-3.9 1.9-4 4v26M266 7v4m7.1-1.1l-2.9 2.9m-11.3-2.9l2.9 2.9M256 17h4m-1.1 7.1l2.9-2.9M276 49v6h4c2 0 4 2 4 4h-26c0-2 2-4 4-4h10m-6 0v-6"/></svg>