<svg id="Layer_1" xmlns="http://www.w3.org/2000/svg" viewBox="0 0 52 60"><style>.st0{stroke-width:2}.st0,.st1{fill:none;stroke:#000;stroke-linecap:round;stroke-linejoin:round;stroke-miterlimit:10}</style><path class="st0" d="M129-271h-6c-2 0-4 2-4 4v26m54 4h-54v6c0 2 2 4 4 4h50c2 0 4-2 4-4v-36c0-2-2-4-4-4h-10"/><circle class="st0" cx="148" cy="-232" r="1"/><path class="st0" d="M123-213h36m-26-2v2m4-2v2m4-2v2m4-2v2m-2-10v4m10-4v4m0 4v2m-4-2v2m8-2v2m-28-2v2m-4-2v2m48 0v-1c0-1.7-1.3-3-3-3h-2c-1.7 0-3 1.3-3 3v1h8zm-34-52h-6m2 4h-2m2 4h-2m6 4h-6m20 12v-22l5-8 5 8h-6m-18 22h-6v-30h16v30m-14-8h-2m2 4h-2m30-14v18m-5 0v-18m81 33h46m-16-16v16m-16-29h38v38c0 2.2-1.8 4-4 4h-50c-2.2 0-4-1.8-4-4v-46h10l6 8-6 8h-6m12 0h42m-32-8l-6 8m15-8l-6 8m15-8l-6 8m15-8l-6 8"/><path class="st0" d="M253-256.8l37.4-6.2-1.3-8-41.8 6.9m4.8-.7l5.5 7.2m3.9-8.7l5.4 7.2m3.3-8.7l5.3 7.2m4-8.7l5.4 7.1"/><text transform="translate(119 -178)" font-family="Roboto-Bold" font-size="20">Design</text><path class="st0" d="M379 0h-6c-2 0-4 2-4 4v26m54 4h-54v6c0 2 2 4 4 4h50c2 0 4-2 4-4V4c0-2-2-4-4-4h-10"/><circle class="st0" cx="398" cy="39" r="1"/><path class="st0" d="M373 58h36m-26-2v2m4-2v2m4-2v2m4-2v2m-2-10v4m10-4v4m0 4v2m-4-2v2m8-2v2m-28-2v2m-4-2v2m48 0v-1c0-1.7-1.3-3-3-3h-2c-1.7 0-3 1.3-3 3v1h8zM389 6h-6m2 4h-2m2 4h-2m6 4h-6m20 12V8l5-8 5 8h-6m-18 22h-6V0h16v30m-14-8h-2m2 4h-2m30-14v18m-5 0V12"/><text transform="translate(369 93)" font-family="Roboto-Bold" font-size="20">Design</text><text transform="translate(5 -178)" font-family="Roboto-Bold" font-size="20">Start</text><text transform="translate(-233 -234)" font-family="Roboto-Light" font-size="20">HTML5 Banners</text><path class="st0" d="M40-266v5c0 2.2 1.8 4 4 4h10v40c0 2.2-1.8 4-4 4H8c-2.2 0-4-1.8-4-4v-50c0-2.2 1.8-4 4-4"/><circle class="st0" cx="17" cy="-260" r="7"/><circle class="st0" cx="17" cy="-242" r="7"/><path class="st0" d="M12-233v-4m0-28v-6h28l10 10m-38 6s-2 1-2 4 2 4 2 4m7.7-14.3c-.3-.6-.8-1.1-1.4-1.4m1.4 19.4c-.3-.6-.8-1.1-1.4-1.4M32-247h-4m8 0h8m-15 6h5m4 0h4m-28 12h6m18 0h6m-20 0h10m-7-6h15m-28 12h12m4 0h10"/><text transform="translate(359 -178)" font-family="Roboto-Bold" font-size="20">Resize</text><text transform="translate(235 -178)" font-family="Roboto-Bold" font-size="20">Animation</text><path class="st0" d="M484-271h-6c-2 0-4 2-4 4v26m54 4h-54v6c0 2 2 4 4 4h50c2 0 4-2 4-4v-36c0-2-2-4-4-4h-10"/><circle class="st0" cx="503" cy="-232" r="1"/><path class="st0" d="M478-213h36m-26-2v2m4-2v2m4-2v2m4-2v2m-2-10v4m10-4v4m0 4v2m-4-2v2m8-2v2m-28-2v2m-4-2v2m48 0v-1c0-1.7-1.3-3-3-3h-2c-1.7 0-3 1.3-3 3v1h8zm-34-52h-6m2 4h-2m2 4h-2m6 4h-6m20 12v-22l5-8 5 8h-6m-18 22h-6v-30h16v30m-14-8h-2m2 4h-2m30-14v18m-5 0v-18"/><text transform="translate(474 -178)" font-family="Roboto-Bold" font-size="20">Design</text><text transform="translate(733 -178)" font-family="Roboto-Bold" font-size="20">Finish</text><text transform="translate(590 -178)" font-family="Roboto-Bold" font-size="20">Optimization</text><path class="st0" d="M389-231.4h-27l9.3-9.3 4.2 4.3 7.6-7.6 5.9 5.9"/><circle class="st0" cx="370" cy="-252.4" r="3.3"/><path class="st0" d="M370-259v3.3m-5.6 0l2.8 1.6m-2.8 4.9l2.8-1.6m2.8 4.9v-3.3m5.7 0l-2.8-1.6m2.8-4.9l-2.8 1.6M420-242h-21.3l7.3-7.3 3.3 3.3 6-6 4.7 4.7"/><circle class="st0" cx="406.7" cy="-259.5" r="2.7"/><path class="st0" d="M406.7-265v2.7m-4.8.1l2.4 1.3m-2.4 4.2l2.4-1.4m2.4 4.1v-2.8m4.8 0l-2.4-1.3m2.4-4.2l-2.4 1.4m9.7 48.6h-19l6.6-6.6 2.9 3 5.4-5.3 4.1 4.1"/><circle class="st1" cx="404" cy="-224.9" r="1.2"/><path class="st1" d="M404-227.3v1.2m-2 0l1 .6m-1 1.7l1-.5m1 1.7v-1.2m2 0l-1-.5m1-1.8l-1 .6"/><path class="st0" d="M418.6-234h-18.2c-2.4 0-4.4-2-4.4-4.4v-28.2c0-2.4 2-4.4 4.4-4.4h18.2c2.4 0 4.4 2 4.4 4.4v28.2c0 2.4-2 4.4-4.4 4.4zm-31 22h-24.2c-2.4 0-4.4-2-4.4-4.4v-50.2c0-2.4 2-4.4 4.4-4.4h24.2c2.4 0 4.4 2 4.4 4.4v50.2c0 2.4-2 4.4-4.4 4.4zm31-.3h-18.2c-2.4 0-4.4-2-4.4-4.4v-9.2c0-2.4 2-4.4 4.4-4.4h18.2c2.4 0 4.4 2 4.4 4.4v9.2c0 2.4-2 4.4-4.4 4.4zM644-247l-5.9-1.3c-.5-1.7-1.2-3.3-2-4.9l3.2-5.1c.4-.6.4-1 0-1.4l-5.7-5.7c-.4-.4-.8-.3-1.4 0l-5.1 3.2c-1.5-.9-3.2-1.5-4.9-2L621-270c-.2-.7-.4-1-1-1h-8c-.6 0-.8.4-1 1l-1.3 5.9c-1.7.5-3.3 1.2-4.9 2l-5.1-3.2c-.6-.4-1-.4-1.4 0l-5.7 5.7c-.4.4-.3.8 0 1.4l3.2 5.1c-.9 1.5-1.5 3.2-2 4.9L588-247c-.7.2-1 .4-1 1v8c0 .6.4.8 1 1l5.9 1.3c.5 1.7 1.2 3.3 2 4.9l-3.2 5.1c-.4.6-.4 1 0 1.4l5.7 5.7c.4.4.8.3 1.4 0l5.1-3.2c1.5.9 3.2 1.5 4.9 2l1.3 5.9c.2.7.4 1 1 1h8c.6 0 .8-.4 1-1l1.3-5.9c1.7-.5 3.3-1.2 4.9-2l5.1 3.2c.6.4 1 .4 1.4 0l5.7-5.7c.4-.4.3-.8 0-1.4l-3.2-5.1c.8-1.5 1.5-3.2 2-4.9l5.9-1.3c.7-.2 1-.4 1-1v-8c-.2-.6-.6-.8-1.2-1z"/><path class="st0" d="M620-229.6c5.2-1.7 9-6.6 9-12.4 0-7.2-5.8-13-13-13s-13 5.8-13 13 5.8 13 13 13"/><circle class="st0" cx="616" cy="-242" r="3"/><path class="st0" d="M769-266v5c0 2.2 1.8 4 4 4h10v40c0 2.2-1.8 4-4 4h-42c-2.2 0-4-1.8-4-4v-50c0-2.2 1.8-4 4-4h32l10 10"/><circle class="st0" cx="758" cy="-236" r="13"/><path class="st0" d="M755-240v8l7-4zM126-132h-6c-2 0-4 2-4 4v26m54 4h-54v6c0 2 2 4 4 4h50c2 0 4-2 4-4v-36c0-2-2-4-4-4h-10"/><circle class="st0" cx="145" cy="-93" r="1"/><path class="st0" d="M120-74h36m-26-2v2m4-2v2m4-2v2m4-2v2m-2-10v4m10-4v4m0 4v2m-4-2v2m8-2v2m-28-2v2m-4-2v2m48 0v-1c0-1.7-1.3-3-3-3h-2c-1.7 0-3 1.3-3 3v1h8zm-34-52h-6m2 4h-2m2 4h-2m6 4h-6m20 12v-22l5-8 5 8h-6m-18 22h-6v-30h16v30m-14-8h-2m2 4h-2m30-14v18m-5 0v-18"/><text transform="translate(116 -39)" font-family="Roboto-Bold" font-size="20">Design</text><text transform="translate(2 -39)" font-family="Roboto-Bold" font-size="20">Start</text><text transform="translate(-236 -95)" font-family="Roboto-Light" font-size="20">Web Development</text><path class="st0" d="M37-127v5c0 2.2 1.8 4 4 4h10v40c0 2.2-1.8 4-4 4H5c-2.2 0-4-1.8-4-4v-50c0-2.2 1.8-4 4-4"/><circle class="st0" cx="14" cy="-121" r="7"/><circle class="st0" cx="14" cy="-103" r="7"/><path class="st0" d="M9-94v-4m0-28v-6h28l10 10m-38 6s-2 1-2 4 2 4 2 4m7.7-14.3c-.3-.6-.8-1.1-1.4-1.4m1.4 19.4c-.3-.6-.8-1.1-1.4-1.4M29-108h-4m8 0h8m-15 6h5m4 0h4M11-90h6m18 0h6m-20 0h10m-7-6h15M11-84h12m4 0h10"/><text transform="translate(2 94)" font-family="Roboto-Bold" font-size="20">Start</text><path class="st0" d="M37 6v5c0 2.2 1.8 4 4 4h10v40c0 2.2-1.8 4-4 4H5c-2.2 0-4-1.8-4-4V5c0-2.2 1.8-4 4-4"/><circle class="st0" cx="14" cy="12" r="7"/><circle class="st0" cx="14" cy="30" r="7"/><path class="st0" d="M9 39v-4M9 7V1h28l10 10M9 17s-2 1-2 4 2 4 2 4m7.7-14.3c-.3-.6-.8-1.1-1.4-1.4m1.4 19.4c-.3-.6-.8-1.1-1.4-1.4M29 25h-4m8 0h8m-15 6h5m4 0h4M11 43h6m18 0h6m-20 0h10m-7-6h15M11 49h12m4 0h10"/><text transform="translate(356 -39)" font-family="Roboto-Bold" font-size="20">Back-end</text><text transform="translate(232 -39)" font-family="Roboto-Bold" font-size="20">Front-end</text><text transform="translate(471 -39)" font-family="Roboto-Bold" font-size="20">QA</text><text transform="translate(587 -39)" font-family="Roboto-Bold" font-size="20">Finish</text><path class="st0" d="M271-74h-37c-2.3 0-4-1.8-4-4v-40m8-9c0 .6-.4 1-1 1s-1-.4-1-1 .4-1 1-1 1 .4 1 1zm6 0c0 .6-.4 1-1 1s-1-.4-1-1 .4-1 1-1 1 .4 1 1zm6 0c0 .6-.4 1-1 1s-1-.4-1-1 .4-1 1-1 1 .4 1 1zm-14 11h8m26 0h4m4 0h4m-20 0h4"/><path class="st0" d="M271-74h13c2.3 0 4-1.8 4-4v-50c0-2.2-1.8-4-4-4h-50c-2.2 0-4 1.8-4 4v6h54"/><path d="M237.7-95.1l11.3-5.5v2.1l-9 4.2 9 4.2v2.1l-11.3-5.5v-1.6zm17.8 8.1l5.8-17.3h2L257.6-87h-2.1zm25.5-6.4L269.7-88v-2.1l9.1-4.2-9.1-4.2v-2.1l11.3 5.4v1.8z"/><path class="st0" d="M518-84l2.8-2.8 7 7c1.6 1.6 1.6 4.1 0 5.7-1.6 1.6-4.1 1.6-5.7 0L510.3-86m7.8-3.6l-2.1-2.1"/><circle class="st0" cx="494" cy="-108" r="23"/><circle class="st0" cx="494" cy="-108" r="19"/><path class="st0" d="M487-117h12m-16 6h14m-14 6h6m-4 6h8m8 0h-4m8-12h-4m4 6h-12m-128-22c0 .6-.4 1-1 1s-1-.4-1-1 .4-1 1-1 1 .4 1 1zm6 0c0 .6-.4 1-1 1s-1-.4-1-1 .4-1 1-1 1 .4 1 1zm6 0c0 .6-.4 1-1 1s-1-.4-1-1 .4-1 1-1 1 .4 1 1zm-12 13h2m-2 4h2m-2 4h2m-2 4h2m-2 4h2m-2 4h2m-2 4h2m-2 4h2m-2 4h2m32-32h-4m6 4h-10m-4 0h-16m10-4h-10m20 0h-6m20 8h-16m10 4h-8m-4 0h-16m4-4h-4m14 0h-6m13 16h-3m-14 0h-4m14 0h-6m4 4h-12m18 0h-2m-10 4h-6m20 0h-10m20-16h-16m9 4h-7m-4 0h-12m10-4h-10m44 16v-4h-2.3c-.2-.7-.5-1.4-.9-2.1l1.6-1.6-2.8-2.8-1.6 1.6c-.6-.4-1.3-.7-2.1-.9V-94h-4v2.3c-.7.2-1.4.5-2.1.9l-1.6-1.6-2.8 2.8L398-88c-.4.6-.7 1.3-.9 2.1H395v4h2.3c.2.7.5 1.4.9 2.1l-1.6 1.6 2.8 2.8L401-77c.6.4 1.3.7 2.1.9v2.3h4v-2.3c.7-.2 1.4-.5 2.1-.9l1.6 1.6 2.8-2.8-1.6-1.6c.4-.6.7-1.3.9-2.1h2.1z"/><circle class="st0" cx="405" cy="-84" r="2"/><path class="st0" d="M395-74h-34c-2.2 0-4-1.8-4-4v-40m54-4h-54v-6c0-2.2 1.8-4 4-4h50c2.2 0 4 1.8 4 4v34m207 18c0 1.1-.9 2-2 2h-34c-1.1 0-2-.9-2-2v-18c0-1.1.9-2 2-2h34c1.1 0 2 .9 2 2v18zm20-20v-34c0-1.1-.9-2-2-2h-38c-1.1 0-2 .9-2 2v30"/><circle class="st0" cx="611" cy="-121" r="3"/><circle class="st0" cx="593" cy="-87" r="3"/><path class="st0" d="M624-124h8m-8 4h10m-26 10h8m-8 6h14m-14 4h8m10-4h8m-14 4h12m-30 10h6m-6 4h8m-8 6h14m29-12c1.1 0 2 .9 2 2v14c0 1.1-.9 2-2 2h-6c-1.1 0-2-.9-2-2v-14c0-1.1.9-2 2-2h6zm-11.2 18H626m8-22h-8m7 4h-7m7 4h-7"/><circle class="st0" cx="642" cy="-83" r="1"/><text transform="translate(234 93)" font-family="Roboto-Bold" font-size="20">Prototyping</text><text transform="translate(120 93)" font-family="Roboto-Bold" font-size="20">Concept</text><text transform="translate(-236 38)" font-family="Roboto-Light" font-size="20">Web Design</text><text transform="translate(474 93)" font-family="Roboto-Bold" font-size="20">Testing</text><text transform="translate(594 93)" font-family="Roboto-Bold" font-size="20">Finish</text><path class="st0" d="M629 56c0 1.1-.9 2-2 2h-34c-1.1 0-2-.9-2-2V38c0-1.1.9-2 2-2h34c1.1 0 2 .9 2 2v18zm20-20V2c0-1.1-.9-2-2-2h-38c-1.1 0-2 .9-2 2v30"/><circle class="st0" cx="618" cy="11" r="3"/><circle class="st0" cx="600" cy="45" r="3"/><path class="st0" d="M631 8h8m-8 4h10m-26 10h8m-8 6h14m-14 4h8m10-4h8m-14 4h12m-30 10h6m-6 4h8m-8 6h14m29-12c1.1 0 2 .9 2 2v14c0 1.1-.9 2-2 2h-6c-1.1 0-2-.9-2-2V42c0-1.1.9-2 2-2h6zm-11.2 18H633m8-22h-8m7 4h-7m7 4h-7"/><circle class="st0" cx="649" cy="49" r="1"/><path class="st0" d="M143 58V46m-4 10v-3s0-3-2-5-5-2-5-2h-3v3s0 3 2 5 5 2 5 2h3zm8 0v-3s0-3 2-5 5-2 5-2h3v3s0 3-2 5-5 2-5 2h-3zm11-41c0-8.3-6.7-15-15-15s-15 6.7-15 15c0 6 6 10.7 7 15l1 4h14l1-4c1-4.3 7-9 7-15zm-20 23h10m-8 4h6"/><path class="st0" d="M141 30l-3-14s3 2 5 2 5-2 5-2l-3 14m5-23.5c-1.2-1-2.5-1.7-4-2.1-.6-.2-1.2-.3-1.8-.3m9.4 7.9c-.2-.7-.5-1.4-.8-2M122 15h-4m50 0h-4m.7-12.5l-3.5 2m3.5 23l-3.5-2m-36.4-21l-3.5-2m3.5 23l-3.5 2M242 5c0 .6-.4 1-1 1s-1-.4-1-1 .4-1 1-1 1 .4 1 1zm6 0c0 .6-.4 1-1 1s-1-.4-1-1 .4-1 1-1 1 .4 1 1zm6 0c0 .6-.4 1-1 1s-1-.4-1-1 .4-1 1-1 1 .4 1 1zm32 48.9c2.7-2.7 2.7-7.2 0-9.9s-7.2-2.7-9.9 0c-4 4-4 13.9-4 13.9s9.9.1 13.9-4zm2-15.9l-4.5 4.5m8.5-.5l-4.4 4.4m-3.8 3.6c.4-1.1.1-2.3-.7-3.1M238 14h10v16h-10zm14 0h36v10h-36zm-14 40V34h10v20m34-16V28h6v6m-36 20V28h26v10"/><path class="st0" d="M268 58h-30c-2.2 0-4-1.8-4-4V14m54-4h-54V4c0-2.2 1.8-4 4-4h50c2.2 0 4 1.8 4 4v34"/><circle class="st0" cx="504" cy="39" r="1"/><path class="st0" d="M505 30l-7.6-12.2c-.7-1.3-.5-2.7.7-3.5 1.3-.7 2.4-.1 3.3 1.1l7.7 10.7c-.7-1.3-.3-2.9 1-3.6 1.3-.7 2.9-.3 3.6 1l.7 1.1c-.7-1.3-.3-2.9 1-3.6 1.3-.7 2.9-.3 3.6 1l1 1.7c-.5-.9-.2-2.2.7-2.7.9-.5 2.2-.1 2.7.7 0 0 3.7 5.2 5.7 12.2h-54v6c0 2.3 1.8 4 4 4h50c2.3 0 4-1.7 4-4V4c0-2.2-1.8-4-4-4h-50c-2.2 0-3.9 1.9-4 4v26M499 6v4m7.1-1.1l-2.9 2.9m-11.3-2.9l2.9 2.9M489 16h4m-1.1 7.1l2.9-2.9M509 48v6h4c2 0 4 2 4 4h-26c0-2 2-4 4-4h10m-6 0v-6"/></svg>